<svg version="1.1" id="Layer_1" xmlns="http://www.w3.org/2000/svg" xmlns:xlink="http://www.w3.org/1999/xlink" x="0px" y="0px"
	 width="100%" viewBox="0 0 1024 576" enable-background="new 0 0 1024 576" xml:space="preserve">
<path fill="#C5EAFF" opacity="1.000000" stroke="none" 
	d="
M726.000000,577.000000 
	C484.000000,577.000000 242.500000,577.000000 1.000000,577.000000 
	C1.000000,385.000000 1.000000,193.000000 1.000000,1.000000 
	C342.333344,1.000000 683.666687,1.000000 1025.000000,1.000000 
	C1025.000000,193.000000 1025.000000,385.000000 1025.000000,577.000000 
	C925.500000,577.000000 826.000000,577.000000 726.000000,577.000000 
M727.944519,218.431931 
	C727.564209,215.876328 728.148254,212.766647 724.211792,211.881500 
	C723.998535,213.780396 723.816101,215.405212 722.921143,216.996078 
	C722.145813,216.072968 721.062378,215.270859 720.644531,214.207306 
	C717.694641,206.698334 714.959473,199.104462 711.966125,191.613464 
	C711.275391,189.884903 709.849792,188.449966 708.672607,186.023056 
	C707.751282,181.361801 706.829956,176.700546 706.410461,171.758270 
	C706.630249,171.448563 706.849976,171.138855 707.846680,170.838104 
	C721.835754,177.142700 728.378296,168.697510 726.979614,157.082794 
	C726.977783,153.114059 726.975952,149.145309 727.565552,144.960434 
	C727.760315,144.882126 727.955017,144.803818 728.925781,144.923752 
	C735.144775,144.923752 741.363831,144.923752 747.582825,144.923752 
	C747.605957,144.300964 747.629089,143.678177 747.652222,143.055389 
	C741.137329,142.577560 734.622437,142.099747 727.963379,140.826065 
	C724.631104,127.967659 713.946533,124.769035 703.196350,126.296570 
	C694.095642,127.589699 688.052551,135.675690 689.289551,145.136246 
	C689.129089,146.766525 688.968628,148.396805 688.161682,149.888504 
	C677.433533,138.412094 667.144714,126.481758 655.871094,115.568840 
	C640.128174,100.329681 621.535156,89.152313 601.734863,79.795891 
	C572.579102,66.018639 541.741760,59.964680 509.775635,59.141548 
	C501.386230,58.925510 492.855286,59.717857 484.565826,61.103226 
	C470.231354,63.498848 455.811859,65.915527 441.834259,69.789284 
	C422.214966,75.226616 404.044495,84.414070 387.152893,95.717804 
	C378.554199,101.471992 370.950775,108.713440 362.110443,115.161880 
	C359.877411,114.604675 357.673462,113.828506 355.406403,113.527443 
	C344.518311,112.081535 334.157349,113.290558 324.325256,120.160461 
	C319.683502,124.116577 314.325562,127.492210 310.549866,132.150330 
	C302.824707,141.680923 295.949524,151.900467 288.170166,162.198547 
	C286.330566,164.887421 284.490967,167.576294 282.529541,170.443283 
	C290.938416,176.758820 298.988647,182.804993 306.754456,189.525238 
	C304.487305,195.050308 302.079193,200.522369 299.978271,206.109955 
	C292.220642,226.742325 287.789795,248.134064 287.145508,270.122955 
	C286.742645,283.872681 287.753387,297.663818 287.649567,311.912079 
	C270.616974,319.989868 253.584915,328.068848 236.551132,336.144165 
	C234.042648,337.333374 231.124878,338.183380 231.062866,341.992401 
	C228.945068,342.368408 226.827271,342.744446 224.250198,342.534241 
	C223.502518,341.753998 222.780960,340.329651 222.002914,340.298096 
	C216.968491,340.093994 211.921738,340.193542 206.215286,340.193542 
	C209.439194,352.548370 212.332718,363.637085 215.226257,374.725800 
	C216.513474,370.221802 217.481110,365.801300 217.536514,361.369385 
	C217.586975,357.333466 219.546295,355.574707 222.857880,354.077545 
	C224.547058,353.313904 225.735657,351.442963 227.847580,350.028595 
	C229.397659,349.669678 230.947754,349.310760 232.814331,349.722626 
	C233.226868,353.148895 235.645874,351.777100 237.337494,351.432617 
	C256.102844,347.611053 274.850525,343.702759 294.259216,340.237030 
	C296.403107,346.318604 298.473541,352.427277 300.703735,358.477051 
	C309.975494,383.628357 323.276794,406.388245 340.982269,426.574188 
	C344.290283,430.345673 347.030457,434.615204 349.115845,438.891388 
	C338.827789,438.908325 328.539551,438.895691 318.251678,438.949280 
	C303.494934,439.026154 288.738434,439.151276 273.258972,439.115143 
	C271.775940,438.151031 270.194916,437.308441 268.824921,436.204071 
	C254.358398,424.542847 233.159622,430.062195 226.145325,447.277649 
	C222.677872,455.787933 224.358063,463.859344 227.090881,471.973877 
	C226.068481,473.774994 224.429108,475.479431 224.129242,477.393738 
	C222.742371,486.247192 228.014648,492.030518 237.269394,492.033478 
	C304.038361,492.055054 370.807312,492.043671 437.576294,492.053528 
	C439.402649,492.053802 441.229004,492.175751 443.240387,492.918243 
	C443.451111,493.164673 443.616547,493.554199 443.878967,493.637238 
	C472.261749,502.617981 501.271881,504.602722 530.836365,502.176727 
	C548.671875,500.713165 565.909912,496.780945 582.610229,490.843353 
	C619.945496,477.569214 651.638733,455.757812 677.616394,425.780396 
	C679.739868,423.329895 681.297119,420.388794 683.875977,417.444366 
	C685.856750,417.315735 687.837402,417.076019 689.818237,417.074799 
	C731.194763,417.049133 772.571289,417.062134 813.947815,417.033600 
	C819.991089,417.029419 824.400696,413.961273 826.187500,408.752563 
	C828.082458,403.228394 826.598206,398.708771 821.818726,394.175812 
	C827.297729,386.324768 830.072998,377.616791 831.012634,368.018066 
	C834.276733,368.018066 837.540894,368.018066 840.742737,368.018066 
	C842.177917,342.649231 821.274536,318.152283 795.715637,313.957611 
	C784.303894,312.084686 773.583069,314.192932 762.950867,317.210571 
	C762.615723,309.765167 759.716736,303.406677 755.040161,297.671692 
	C748.305664,289.413116 741.837402,280.936646 735.065796,272.709381 
	C732.679688,269.810333 731.465088,266.827393 732.757935,263.115631 
	C733.183655,263.113647 733.609375,263.111664 734.514526,263.552399 
	C735.966858,263.376221 737.419128,263.200012 739.685242,263.091614 
	C741.509949,262.022186 743.334656,260.952728 745.810181,259.759094 
	C749.715271,257.811676 752.123474,254.785950 751.732117,250.298233 
	C751.375793,246.211426 749.448914,243.048660 744.860107,241.271362 
	C740.823730,238.242661 737.271301,235.515427 737.140686,229.298340 
	C736.963867,220.880737 736.224670,220.896271 727.944519,218.431931 
M227.500000,403.997559 
	C222.674469,403.997559 217.848938,403.997498 213.023407,403.997559 
	C196.882889,403.997772 180.741806,404.068939 164.602310,403.940216 
	C161.263916,403.913635 159.551682,404.712769 159.994705,408.386658 
	C160.455338,412.206543 163.350571,410.951447 165.370422,410.954285 
	C211.129547,411.018707 256.888763,411.008362 302.647980,410.991547 
	C305.189209,410.990601 308.153809,411.805634 308.058685,407.364685 
	C307.960480,402.781403 304.739075,404.044434 302.380219,404.038147 
	C277.753632,403.972412 253.126785,403.997589 227.500000,403.997559 
M167.500000,450.998779 
	C182.966995,450.998230 198.434052,451.022217 213.900925,450.978577 
	C217.442093,450.968597 219.419022,448.428070 217.554276,446.250336 
	C216.721512,445.277771 214.639084,445.043304 213.122040,445.038513 
	C190.337570,444.966217 167.552780,444.987976 144.768082,444.988037 
	C132.959946,444.988098 121.151672,445.020630 109.343811,444.965027 
	C106.729698,444.952698 104.222816,445.263641 105.233704,448.574188 
	C105.584122,449.721832 108.090919,450.883270 109.622246,450.895935 
	C128.580475,451.052917 147.540466,450.998657 167.500000,450.998779 
z"/>
<path fill="#E0F2FE" opacity="1.000000" stroke="none" 
	d="
M362.897430,115.282593 
	C370.950775,108.713440 378.554199,101.471992 387.152893,95.717804 
	C404.044495,84.414070 422.214966,75.226616 441.834259,69.789284 
	C455.811859,65.915527 470.231354,63.498848 484.565826,61.103226 
	C492.855286,59.717857 501.386230,58.925510 509.775635,59.141548 
	C541.741760,59.964680 572.579102,66.018639 601.734863,79.795891 
	C621.535156,89.152313 640.128174,100.329681 655.871094,115.568840 
	C667.144714,126.481758 677.433533,138.412094 688.620422,150.375488 
	C689.589111,154.648697 690.099121,158.434906 690.418091,162.601074 
	C690.148010,163.253342 690.069031,163.525620 689.526978,163.835403 
	C676.685120,162.706696 665.640381,166.499390 655.902954,173.741226 
	C630.170715,192.878586 614.453186,218.617645 607.053894,249.609711 
	C606.106750,253.576859 605.690857,257.670837 604.958374,262.135956 
	C606.985657,262.135956 608.295166,262.135956 609.606506,262.516510 
	C607.747742,270.665955 607.124939,278.413849 609.739380,286.442780 
	C605.813293,285.149567 602.149902,283.515930 598.429810,281.426208 
	C598.349854,276.983765 598.299866,272.997284 598.307983,269.010956 
	C598.348450,249.071671 598.407166,229.132401 598.450928,209.193115 
	C598.456360,206.696732 598.917236,203.789581 594.398499,204.524536 
	C590.684509,204.423279 587.336304,204.443314 583.553345,204.379120 
	C580.767395,204.359436 578.416199,204.423996 575.609619,204.383316 
	C569.857971,204.239716 564.558105,204.056854 559.266174,204.189423 
	C541.693359,204.629730 524.016602,217.871277 519.028198,234.379105 
	C517.847717,237.857986 516.115967,240.990402 515.995422,244.183640 
	C515.406738,259.772552 515.248230,275.377655 514.846191,291.432007 
	C514.711243,295.580414 514.667603,299.273895 514.213501,303.054810 
	C511.374756,303.142273 508.946472,303.142273 506.432861,303.142273 
	C506.432861,305.846313 506.432861,307.775879 506.432861,310.189667 
	C523.443909,310.189667 540.222778,310.189667 557.019775,310.536621 
	C556.831238,311.302612 556.731689,311.852783 556.402466,312.121674 
	C544.060181,322.201477 537.530945,335.660583 533.470093,350.816986 
	C532.051514,350.805634 531.022888,350.767090 529.990967,350.308716 
	C529.874329,347.690857 530.778503,344.949219 526.920105,344.992645 
	C511.600922,345.165131 496.280975,345.272797 480.754425,345.096741 
	C476.645264,322.832062 472.698181,300.882935 468.858673,278.915009 
	C466.769714,266.963104 464.863342,254.979233 463.281616,243.000839 
	C465.046814,242.536102 466.744598,242.445496 467.700317,241.556839 
	C470.721069,238.747971 466.927612,222.791611 463.016113,221.223495 
	C459.046753,219.632187 451.539001,221.843552 448.334320,225.360703 
	C438.804108,223.579254 429.679199,221.865646 420.668854,219.791443 
	C428.017212,204.672241 435.390137,189.979141 442.388641,175.109818 
	C444.176575,171.311050 444.779114,166.954361 445.968048,162.460541 
	C448.011841,157.761459 446.969543,154.227509 443.249634,151.026367 
	C441.611359,148.140579 440.019470,145.588913 438.715759,142.812012 
	C439.994202,141.881287 440.984467,141.175766 442.251923,140.746796 
	C443.346741,143.038467 444.164337,145.053589 445.056396,147.252258 
	C449.417084,144.126434 449.991791,141.067093 446.776306,137.346863 
	C448.039612,136.743317 449.062378,136.365753 450.186096,136.325836 
	C453.045349,143.499863 455.881805,145.463837 461.148560,144.183899 
	C466.681244,142.839340 469.646820,137.668335 469.251373,130.446136 
	C463.687988,129.287354 458.218994,128.148239 452.677734,126.591980 
	C452.711639,121.875275 455.583771,121.503960 458.825317,121.951820 
	C463.452728,122.591164 466.905914,120.991310 469.515564,116.926819 
	C469.909607,116.756660 470.026733,116.612877 470.605591,116.516510 
	C477.324127,116.563927 483.580933,116.563927 489.837738,116.563927 
	C489.874146,115.964745 489.910583,115.365555 489.946991,114.766373 
	C483.345154,114.240814 476.743286,113.715263 470.069733,112.814926 
	C466.092957,101.450676 458.908722,96.547493 448.246674,97.594986 
	C437.613953,98.639603 432.294952,103.851700 430.440735,114.755554 
	C417.152924,116.700699 408.454285,124.402924 402.178955,135.203217 
	C401.100952,137.058487 401.314728,139.664307 400.895874,141.815582 
	C400.859985,141.707764 400.697906,141.548416 400.413879,141.347290 
	C399.105438,140.689957 398.081055,140.233749 396.975861,139.462433 
	C385.562531,131.192398 374.229980,123.237488 362.897430,115.282593 
z"/>
<path fill="#E0F2FE" opacity="1.000000" stroke="none" 
	d="
M683.117432,417.675659 
	C681.297119,420.388794 679.739868,423.329895 677.616394,425.780396 
	C651.638733,455.757812 619.945496,477.569214 582.610229,490.843353 
	C565.909912,496.780945 548.671875,500.713165 530.836365,502.176727 
	C501.271881,504.602722 472.261749,502.617981 443.878967,493.637238 
	C443.616547,493.554199 443.451111,493.164673 443.608734,492.518921 
	C468.969879,492.102386 493.962738,492.098816 518.955505,492.059357 
	C526.352966,492.047668 531.342407,488.458618 532.747864,482.274963 
	C534.082520,476.402435 531.117188,471.149628 524.712769,467.543945 
	C530.515259,447.563965 519.705261,431.850281 499.089478,429.522156 
	C495.910187,411.750763 492.809814,394.389221 489.921387,376.732666 
	C490.589111,374.975464 491.579102,373.400604 491.303284,372.092682 
	C491.133789,371.288971 489.069885,370.757233 487.777557,370.361633 
	C486.879181,370.086609 485.846375,370.250702 484.851257,369.803223 
	C483.891663,363.592712 482.954407,357.797699 482.484619,352.000244 
	C498.147430,351.996460 513.342834,351.995056 528.664673,352.429260 
	C528.791138,355.221924 528.791138,357.579010 528.791138,360.225311 
	C530.826477,360.225311 532.261292,360.225311 533.804016,360.660400 
	C533.911926,363.355072 533.911926,365.614624 533.911926,368.120209 
	C537.823853,368.437927 541.390503,368.727600 544.950134,369.430481 
	C547.419556,376.917267 549.895935,383.990784 552.030762,391.349915 
	C544.885620,391.787140 538.080688,391.895050 531.278870,392.102020 
	C523.394165,392.341949 518.094971,397.096039 517.882629,404.010223 
	C517.631409,412.191254 522.565979,417.058380 531.352295,417.063690 
	C579.630493,417.092987 627.908630,417.071747 676.186829,417.106567 
	C678.497131,417.108246 680.807251,417.477539 683.117432,417.675659 
z"/>
<path fill="#E0F2FE" opacity="1.000000" stroke="none" 
	d="
M350.032684,438.654877 
	C347.030457,434.615204 344.290283,430.345673 340.982269,426.574188 
	C323.276794,406.388245 309.975494,383.628357 300.703735,358.477051 
	C298.473541,352.427277 296.403107,346.318604 294.213409,339.772522 
	C297.635040,338.154022 301.093231,336.971252 304.571960,335.852264 
	C310.775970,333.856537 315.594696,330.173950 319.668854,325.007538 
	C332.329834,308.952301 345.271790,293.118591 358.118317,277.209900 
	C360.374023,274.416565 362.695374,271.676270 365.027740,268.861542 
	C365.606201,269.478729 365.927765,269.664520 365.998749,269.919922 
	C371.681885,290.368652 379.418274,309.924103 390.990906,327.837097 
	C391.565491,328.726471 391.782959,330.024078 391.730133,331.110382 
	C391.504547,335.750549 391.114868,340.382782 390.345947,345.016937 
	C388.578888,345.011139 387.249817,345.038605 385.923187,344.994049 
	C383.751740,344.921173 381.423859,345.199921 382.187286,348.006927 
	C382.609100,349.558014 384.375153,351.132050 385.927734,351.869720 
	C387.280273,352.512451 389.183594,351.996063 390.945282,352.433350 
	C391.890991,363.924072 392.734955,374.973297 393.137573,386.021667 
	C372.378937,386.009949 352.061462,386.035095 331.744446,385.949982 
	C328.636414,385.936981 326.063019,386.374878 327.297241,390.178436 
	C327.616913,391.163544 330.192749,391.919312 331.737152,391.928284 
	C352.553528,392.049255 373.370728,392.019348 394.384399,392.375397 
	C395.392578,397.565002 396.204132,402.406006 396.958252,407.614929 
	C396.600769,410.209229 396.300720,412.435699 395.608887,414.732300 
	C394.719086,415.156891 393.841064,415.455566 393.779724,415.874023 
	C392.757874,422.842896 391.838318,429.826782 390.876648,436.950104 
	C394.353149,437.619293 397.253235,438.177521 399.615570,438.799011 
	C382.729431,438.793121 366.381073,438.723999 350.032684,438.654877 
z"/>
<path fill="#033B62" opacity="1.000000" stroke="none" 
	d="
M390.785065,345.017883 
	C391.114868,340.382782 391.504547,335.750549 391.730133,331.110382 
	C391.782959,330.024078 391.565491,328.726471 390.990906,327.837097 
	C379.418274,309.924103 371.681885,290.368652 365.998749,269.919922 
	C365.927765,269.664520 365.606201,269.478729 365.027740,268.861542 
	C362.695374,271.676270 360.374023,274.416565 358.118317,277.209900 
	C345.271790,293.118591 332.329834,308.952301 319.668854,325.007538 
	C315.594696,330.173950 310.775970,333.856537 304.571960,335.852264 
	C301.093231,336.971252 297.635040,338.154022 293.885315,339.562988 
	C274.850525,343.702759 256.102844,347.611053 237.337494,351.432617 
	C235.645874,351.777100 233.226868,353.148895 232.729462,348.959839 
	C232.386093,346.124115 232.127579,344.051178 231.869080,341.978210 
	C231.124878,338.183380 234.042648,337.333374 236.551132,336.144165 
	C253.584915,328.068848 270.616974,319.989868 288.260406,311.618042 
	C298.858826,306.972931 308.201385,303.512756 311.008209,289.980835 
	C314.587891,272.722839 325.257477,258.048584 335.090698,243.131165 
	C357.756165,243.736282 380.003143,244.402374 402.269043,245.420654 
	C409.662262,266.033691 417.254089,286.220337 424.215088,306.622223 
	C425.504730,310.402069 424.798737,315.148865 424.055481,319.276825 
	C422.498993,327.921265 420.304321,336.450775 418.206207,345.394989 
	C417.671173,347.846558 417.301666,349.930603 416.719940,352.336853 
	C414.242126,363.733826 411.976501,374.808594 409.478455,386.190277 
	C408.940582,388.282684 408.635162,390.068207 408.186218,392.192932 
	C406.998688,397.267151 405.954742,402.002197 404.472900,406.761810 
	C401.695221,406.939941 399.355438,407.093475 397.015656,407.247040 
	C396.204132,402.406006 395.392578,397.565002 394.463318,391.946594 
	C394.090027,389.453674 393.834473,387.738068 393.578918,386.022491 
	C392.734955,374.973297 391.890991,363.924072 391.026917,352.002747 
	C390.932922,349.093048 390.859009,347.055450 390.785065,345.017883 
z"/>
<path fill="#6BC3F3" opacity="1.000000" stroke="none" 
	d="
M524.657349,467.943268 
	C531.117188,471.149628 534.082520,476.402435 532.747864,482.274963 
	C531.342407,488.458618 526.352966,492.047668 518.955505,492.059357 
	C493.962738,492.098816 468.969879,492.102386 443.516235,492.180298 
	C441.229004,492.175751 439.402649,492.053802 437.576294,492.053528 
	C370.807312,492.043671 304.038361,492.055054 237.269394,492.033478 
	C228.014648,492.030518 222.742371,486.247192 224.129242,477.393738 
	C224.429108,475.479431 226.068481,473.774994 227.761993,472.087280 
	C233.044220,475.826355 237.140778,480.735291 242.365646,482.830292 
	C256.454285,488.479584 269.515350,482.093353 277.900085,466.978027 
	C313.951752,466.966949 349.491547,466.926849 385.495880,466.935364 
	C415.069946,466.979889 444.179413,466.975800 473.530975,467.202942 
	C477.447388,476.160797 483.840851,481.832397 493.067932,483.947784 
	C506.259888,486.972198 517.019836,481.413879 524.657349,467.943268 
z"/>
<path fill="#124982" opacity="1.000000" stroke="none" 
	d="
M533.860046,350.789764 
	C537.530945,335.660583 544.060181,322.201477 556.402466,312.121674 
	C556.731689,311.852783 556.831238,311.302612 557.372498,310.418457 
	C563.328613,307.844299 568.950134,305.735260 574.932190,303.455872 
	C575.546204,303.204865 575.799622,303.124237 576.491638,303.060150 
	C579.273743,303.062134 581.617249,303.047638 584.421265,303.123108 
	C589.305298,303.219360 593.728638,303.225616 598.464600,303.423340 
	C602.376526,304.093048 605.965576,304.871368 609.577148,304.995178 
	C622.196228,305.427643 634.881653,305.003937 647.423767,306.173065 
	C654.455139,306.828552 661.253906,309.978821 668.116150,312.377686 
	C660.759338,325.770142 662.533386,338.049866 670.691895,350.080963 
	C673.277100,353.893158 676.097168,356.116852 680.847656,355.682190 
	C682.149170,356.820343 683.432678,358.308929 684.632019,358.243927 
	C694.156250,357.727692 703.667236,356.946716 713.171570,356.123718 
	C713.777649,356.071228 714.294617,354.989655 715.099976,354.126953 
	C718.286499,349.604187 721.226135,345.341248 724.463684,340.928589 
	C734.752808,327.308258 738.013672,312.858276 731.124268,296.596863 
	C730.915100,295.857513 730.723389,295.455109 730.527100,294.774200 
	C730.031250,294.296692 729.539978,294.097626 729.174988,293.565552 
	C730.505371,289.630951 732.148865,286.109772 732.826111,282.411713 
	C734.450806,273.539642 731.271973,267.504150 724.682129,266.134918 
	C722.094543,265.597290 719.456482,265.302765 716.789551,264.500854 
	C716.365662,260.822723 715.993652,257.541290 716.024414,254.184784 
	C717.977051,253.702805 719.526855,253.295929 721.498169,252.884598 
	C722.997620,253.159561 724.075623,253.438965 725.027710,254.022522 
	C724.621399,256.553955 723.365234,260.053375 724.264160,260.742859 
	C726.118042,262.164764 729.121887,262.087250 731.768921,262.751862 
	C731.885254,262.877106 732.117004,263.128357 732.117004,263.128357 
	C731.465088,266.827393 732.679688,269.810333 735.065796,272.709381 
	C741.837402,280.936646 748.305664,289.413116 755.040161,297.671692 
	C759.716736,303.406677 762.615723,309.765167 762.985596,318.048920 
	C761.315430,323.982452 760.638489,329.796661 757.685425,334.018829 
	C752.039185,342.091644 745.055603,349.223328 738.713074,356.817535 
	C736.033569,360.025848 732.247192,362.728638 732.625122,367.742981 
	C729.924500,368.032990 727.612549,368.504089 725.284058,368.609985 
	C720.870117,368.810699 716.446594,368.801971 711.564331,368.786957 
	C685.060303,368.620300 659.019043,368.546936 633.041992,368.136261 
	C637.490234,358.101013 639.702026,347.992554 639.033020,337.300781 
	C638.635742,330.951294 636.681824,325.322144 632.194580,320.647247 
	C622.875488,310.938507 610.380371,309.109924 598.526917,310.469818 
	C572.235901,313.486115 552.763062,327.860626 539.530884,351.059418 
	C537.349548,350.939636 535.604797,350.864716 533.860046,350.789764 
z"/>
<path fill="#6BC3F2" opacity="1.000000" stroke="none" 
	d="
M683.496704,417.559998 
	C680.807251,417.477539 678.497131,417.108246 676.186829,417.106567 
	C627.908630,417.071747 579.630493,417.092987 531.352295,417.063690 
	C522.565979,417.058380 517.631409,412.191254 517.882629,404.010223 
	C518.094971,397.096039 523.394165,392.341949 531.278870,392.102020 
	C538.080688,391.895050 544.885620,391.787140 552.293213,391.501953 
	C561.992493,406.799438 578.044006,414.583557 595.013855,411.744843 
	C608.028320,409.567780 617.939270,402.580902 625.968018,391.988556 
	C651.638245,391.996643 676.805847,391.960632 702.442322,391.975128 
	C718.925598,392.012939 734.940002,392.000183 751.230347,392.186523 
	C761.210205,406.908173 774.499512,414.132599 792.158142,411.864716 
	C804.264038,410.309937 813.813721,404.006714 821.619995,394.844696 
	C826.598206,398.708771 828.082458,403.228394 826.187500,408.752563 
	C824.400696,413.961273 819.991089,417.029419 813.947815,417.033600 
	C772.571289,417.062134 731.194763,417.049133 689.818237,417.074799 
	C687.837402,417.076019 685.856750,417.315735 683.496704,417.559998 
z"/>
<path fill="#FFC846" opacity="1.000000" stroke="none" 
	d="
M288.724335,161.836304 
	C295.949524,151.900467 302.824707,141.680923 310.549866,132.150330 
	C314.325562,127.492210 319.683502,124.116577 324.945251,120.374306 
	C326.871582,120.690323 328.242981,121.103607 329.474152,120.846222 
	C340.938477,118.449593 351.410767,121.609917 361.667572,126.299957 
	C373.023773,131.492706 381.902985,139.991989 390.921265,148.411163 
	C377.705048,166.715195 364.624146,184.704941 351.605591,202.739700 
	C349.954681,205.026764 348.470795,204.485825 346.617035,203.117889 
	C335.264099,194.740265 323.947723,186.310242 312.477997,178.094681 
	C304.679413,172.508698 296.650360,167.244431 288.724335,161.836304 
M354.586121,160.554550 
	C353.974487,159.102234 353.768951,157.127274 352.683960,156.284134 
	C346.560150,151.525497 340.166016,147.116394 333.991455,142.420578 
	C331.540131,140.556335 330.507721,141.292252 329.271973,144.064957 
	C325.766815,148.561127 322.261658,153.057297 318.531464,157.842163 
	C326.476044,163.694763 333.702820,169.160812 341.142090,174.320511 
	C342.081390,174.972000 344.876770,174.581421 345.548401,173.705078 
	C348.637177,169.674866 351.277466,165.300919 354.586121,160.554550 
z"/>
<path fill="#083761" opacity="1.000000" stroke="none" 
	d="
M733.006348,367.759155 
	C732.247192,362.728638 736.033569,360.025848 738.713074,356.817535 
	C745.055603,349.223328 752.039185,342.091644 757.685425,334.018829 
	C760.638489,329.796661 761.315430,323.982452 763.005127,318.475891 
	C773.583069,314.192932 784.303894,312.084686 795.715637,313.957611 
	C821.274536,318.152283 842.177917,342.649231 840.742737,368.018066 
	C837.540894,368.018066 834.276733,368.018066 830.089661,368.031433 
	C825.158691,368.024353 821.150757,368.003906 816.663818,367.982483 
	C809.714172,368.030792 803.243469,368.080109 796.323853,368.067017 
	C789.263428,368.042938 782.651978,368.081329 775.573975,368.049988 
	C768.649597,367.978516 762.191711,367.976746 755.285034,367.996887 
	C750.808960,368.037903 746.781555,368.056976 742.316650,368.051727 
	C738.921509,367.937988 735.963928,367.848572 733.006348,367.759155 
z"/>
<path fill="#E0F2FE" opacity="1.000000" stroke="none" 
	d="
M334.672180,243.192154 
	C325.257477,258.048584 314.587891,272.722839 311.008209,289.980835 
	C308.201385,303.512756 298.858826,306.972931 288.500519,311.380188 
	C287.753387,297.663818 286.742645,283.872681 287.145508,270.122955 
	C287.789795,248.134064 292.220642,226.742325 299.978271,206.109955 
	C302.079193,200.522369 304.487305,195.050308 307.224365,189.294754 
	C319.956696,198.136246 332.219116,207.208221 344.312469,216.672241 
	C341.500793,223.290985 338.736053,229.470078 336.279205,235.769241 
	C335.370819,238.098175 335.186646,240.709579 334.672180,243.192154 
z"/>
<path fill="#226DB2" opacity="1.000000" stroke="none" 
	d="
M609.604736,262.135956 
	C608.295166,262.135956 606.985657,262.135956 604.958374,262.135956 
	C605.690857,257.670837 606.106750,253.576859 607.053894,249.609711 
	C614.453186,218.617645 630.170715,192.878586 655.902954,173.741226 
	C665.640381,166.499390 676.685120,162.706696 689.902893,163.924362 
	C695.169250,165.668808 699.596558,167.361786 704.020264,169.022369 
	C704.016541,168.989944 703.954102,168.971054 704.028564,169.276810 
	C704.704834,170.401474 705.306763,171.220383 705.908630,172.039276 
	C706.829956,176.700546 707.751282,181.361801 708.536621,186.766876 
	C707.771057,189.563736 707.379700,191.728989 706.473877,193.651871 
	C699.926086,207.551254 693.244873,221.387848 686.693115,235.285431 
	C685.892456,236.983810 685.608582,238.925842 684.690063,240.743423 
	C679.978577,239.984802 675.662292,239.237732 670.843872,238.403732 
	C677.121094,227.729080 683.326111,217.724365 688.969543,207.412308 
	C693.748840,198.679199 697.957336,189.628296 702.254944,180.639893 
	C703.872070,177.257736 702.996948,173.996994 699.263245,173.004547 
	C683.964478,168.937988 674.509888,169.388306 665.524841,182.687927 
	C662.471924,187.206848 659.179016,191.563629 655.659180,196.043457 
	C643.776672,209.231888 633.718018,223.388550 625.946472,239.104416 
	C619.078247,252.993469 621.055176,257.125122 636.182190,260.566193 
	C636.344116,260.603027 636.500549,260.708466 636.659302,260.707825 
	C642.265991,260.685455 648.168640,262.612213 653.576965,258.195190 
	C660.652100,258.104523 667.267334,258.045624 673.888062,258.245850 
	C673.876404,258.677063 673.859314,258.849121 673.596313,259.226013 
	C672.498291,260.887726 671.646118,262.344635 670.342651,263.870361 
	C667.062317,263.979553 664.229187,264.139282 661.404968,264.040741 
	C644.137085,263.438385 626.871277,262.777405 609.604736,262.135956 
z"/>
<path fill="#063056" opacity="1.000000" stroke="none" 
	d="
M277.388184,466.949005 
	C269.515350,482.093353 256.454285,488.479584 242.365646,482.830292 
	C237.140778,480.735291 233.044220,475.826355 228.122498,472.027405 
	C224.358063,463.859344 222.677872,455.787933 226.145325,447.277649 
	C233.159622,430.062195 254.358398,424.542847 268.824921,436.204071 
	C270.194916,437.308441 271.775940,438.151031 273.629700,439.549988 
	C275.101776,442.362793 276.203125,444.740814 277.321716,447.499786 
	C279.364075,454.231659 279.233368,460.588104 277.388184,466.949005 
M258.632812,469.494537 
	C259.762817,468.528137 260.997437,467.659180 262.004608,466.578308 
	C266.146851,462.132751 266.724457,455.397003 263.513947,449.999725 
	C260.434143,444.822235 253.902664,442.200989 248.039200,443.789368 
	C240.144852,445.927917 235.755600,453.840088 238.144745,461.625458 
	C240.649078,469.786194 249.022537,473.275665 258.632812,469.494537 
z"/>
<path fill="#DDF0FC" opacity="1.000000" stroke="none" 
	d="
M685.085205,240.754944 
	C685.608582,238.925842 685.892456,236.983810 686.693115,235.285431 
	C693.244873,221.387848 699.926086,207.551254 706.473877,193.651871 
	C707.379700,191.728989 707.771057,189.563736 708.581421,187.195282 
	C709.849792,188.449966 711.275391,189.884903 711.966125,191.613464 
	C714.959473,199.104462 717.694641,206.698334 720.644531,214.207306 
	C721.062378,215.270859 722.145813,216.072968 723.366028,217.463043 
	C724.196655,221.762711 724.582336,225.595398 724.987061,229.802429 
	C726.089722,233.817184 727.173401,237.457611 728.281128,241.484772 
	C728.127991,243.198410 727.950745,244.525314 727.775574,245.836990 
	C732.866150,246.182114 737.943237,246.481812 740.285889,251.555435 
	C742.061523,255.401138 742.162659,259.552032 738.871460,263.023834 
	C737.419128,263.200012 735.966858,263.376221 734.245239,262.917725 
	C733.733154,261.796875 733.490356,261.310699 733.396057,260.470581 
	C733.683472,253.463577 730.844177,251.298584 725.153564,253.718384 
	C724.075623,253.438965 722.997620,253.159561 721.470154,252.500900 
	C720.822632,246.103363 717.179688,244.520248 711.764587,244.065140 
	C702.841736,243.315231 693.975403,241.893494 685.085205,240.754944 
z"/>
<path fill="#0B3963" opacity="1.000000" stroke="none" 
	d="
M277.304504,447.118774 
	C276.203125,444.740814 275.101776,442.362793 273.991119,439.620300 
	C288.738434,439.151276 303.494934,439.026154 318.251678,438.949280 
	C328.539551,438.895691 338.827789,438.908325 349.574280,438.773132 
	C366.381073,438.723999 382.729431,438.793121 399.854675,438.857086 
	C401.164703,438.957764 401.697876,439.063629 402.383148,439.382385 
	C403.309784,439.459290 404.084381,439.323334 405.295044,439.092773 
	C409.860809,439.355103 413.985260,439.864075 418.122314,440.005768 
	C420.228119,440.077881 422.356567,439.489532 424.882141,439.125214 
	C428.411621,438.978455 431.533752,438.906250 435.144043,438.882690 
	C440.792542,438.934723 445.952881,438.938141 451.574524,438.940979 
	C457.915741,438.940399 463.795624,438.940399 469.606781,438.940399 
	C469.606781,442.061707 469.606781,444.420593 469.606781,447.157288 
	C465.580383,447.157288 461.962036,447.157288 457.853760,447.109924 
	C400.886047,447.045502 344.408234,447.027130 287.930389,447.020874 
	C286.767761,447.020752 285.605133,447.160706 284.050049,447.189819 
	C281.539917,447.135803 279.422211,447.127289 277.304504,447.118774 
z"/>
<path fill="#030725" opacity="1.000000" stroke="none" 
	d="
M742.754211,368.076050 
	C746.781555,368.056976 750.808960,368.037903 755.246765,368.439850 
	C756.371765,386.656433 769.822388,399.911591 786.852905,399.603210 
	C804.089478,399.291138 817.033325,385.778961 817.142761,367.983490 
	C821.150757,368.003906 825.158691,368.024353 829.634644,368.041687 
	C830.072998,377.616791 827.297729,386.324768 821.719360,394.510254 
	C813.813721,404.006714 804.264038,410.309937 792.158142,411.864716 
	C774.499512,414.132599 761.210205,406.908173 751.159546,391.843781 
	C748.126526,383.559967 745.440369,375.817993 742.754211,368.076050 
z"/>
<path fill="#F8B71A" opacity="1.000000" stroke="none" 
	d="
M344.481567,216.280197 
	C332.219116,207.208221 319.956696,198.136246 307.366577,188.957718 
	C298.988647,182.804993 290.938416,176.758820 282.529541,170.443283 
	C284.490967,167.576294 286.330566,164.887421 288.447266,162.017426 
	C296.650360,167.244431 304.679413,172.508698 312.477997,178.094681 
	C323.947723,186.310242 335.264099,194.740265 346.617035,203.117889 
	C348.470795,204.485825 349.954681,205.026764 351.605591,202.739700 
	C364.624146,184.704941 377.705048,166.715195 391.197601,148.219009 
	C393.437836,145.076797 395.247253,142.427170 397.056671,139.777557 
	C398.081055,140.233749 399.105438,140.689957 400.256958,141.733047 
	C384.801483,163.653198 369.218872,184.986450 353.636230,206.319702 
	C353.912231,206.686905 354.188263,207.054123 354.464264,207.421326 
	C359.390259,206.919495 364.316223,206.417664 369.250549,206.294403 
	C367.138336,210.333527 365.017761,213.994095 362.444122,217.616409 
	C356.154541,217.145508 350.318054,216.712845 344.481567,216.280197 
z"/>
<path fill="#E0F2FE" opacity="1.000000" stroke="none" 
	d="
M228.000000,403.997559 
	C253.126785,403.997589 277.753632,403.972412 302.380219,404.038147 
	C304.739075,404.044434 307.960480,402.781403 308.058685,407.364685 
	C308.153809,411.805634 305.189209,410.990601 302.647980,410.991547 
	C256.888763,411.008362 211.129547,411.018707 165.370422,410.954285 
	C163.350571,410.951447 160.455338,412.206543 159.994705,408.386658 
	C159.551682,404.712769 161.263916,403.913635 164.602310,403.940216 
	C180.741806,404.068939 196.882889,403.997772 213.023407,403.997559 
	C217.848938,403.997498 222.674469,403.997559 228.000000,403.997559 
z"/>
<path fill="#E0F2FE" opacity="1.000000" stroke="none" 
	d="
M167.000000,450.998779 
	C147.540466,450.998657 128.580475,451.052917 109.622246,450.895935 
	C108.090919,450.883270 105.584122,449.721832 105.233704,448.574188 
	C104.222816,445.263641 106.729698,444.952698 109.343811,444.965027 
	C121.151672,445.020630 132.959946,444.988098 144.768082,444.988037 
	C167.552780,444.987976 190.337570,444.966217 213.122040,445.038513 
	C214.639084,445.043304 216.721512,445.277771 217.554276,446.250336 
	C219.419022,448.428070 217.442093,450.968597 213.900925,450.978577 
	C198.434052,451.022217 182.966995,450.998230 167.000000,450.998779 
z"/>
<path fill="#FED36D" opacity="1.000000" stroke="none" 
	d="
M396.975861,139.462433 
	C395.247253,142.427170 393.437836,145.076797 391.352051,147.918579 
	C381.902985,139.991989 373.023773,131.492706 361.667572,126.299957 
	C351.410767,121.609917 340.938477,118.449593 329.474152,120.846222 
	C328.242981,121.103607 326.871582,120.690323 325.285217,120.313492 
	C334.157349,113.290558 344.518311,112.081535 355.406403,113.527443 
	C357.673462,113.828506 359.877411,114.604675 362.503937,115.222229 
	C374.229980,123.237488 385.562531,131.192398 396.975861,139.462433 
z"/>
<path fill="#388AD1" opacity="1.000000" stroke="none" 
	d="
M689.386780,144.329758 
	C688.052551,135.675690 694.095642,127.589699 703.196350,126.296570 
	C713.946533,124.769035 724.631104,127.967659 728.013184,141.535797 
	C728.091980,143.072205 728.120850,143.898865 728.149780,144.725525 
	C727.955017,144.803818 727.760315,144.882126 726.813049,144.962524 
	C719.892273,144.880203 713.723938,144.795792 707.214478,144.563507 
	C701.044434,144.387039 695.215576,144.358398 689.386780,144.329758 
z"/>
<path fill="#039FFB" opacity="1.000000" stroke="none" 
	d="
M726.981079,157.876801 
	C728.378296,168.697510 721.835754,177.142700 707.276367,170.575363 
	C705.788757,169.865433 704.871460,169.418243 703.954102,168.971039 
	C703.954102,168.971054 704.016541,168.989944 704.028015,168.647110 
	C703.101501,165.550003 702.163513,162.795731 701.262329,159.776337 
	C701.226440,159.348297 701.153931,159.185425 701.310059,158.728882 
	C702.668945,155.674622 703.799133,152.914017 705.175049,150.400391 
	C712.607605,153.057190 719.794312,155.466995 726.981079,157.876801 
z"/>
<path fill="#F8B71A" opacity="1.000000" stroke="none" 
	d="
M227.150528,350.072540 
	C225.735657,351.442963 224.547058,353.313904 222.857880,354.077545 
	C219.546295,355.574707 217.586975,357.333466 217.536514,361.369385 
	C217.481110,365.801300 216.513474,370.221802 215.226257,374.725800 
	C212.332718,363.637085 209.439194,352.548370 206.215286,340.193542 
	C211.921738,340.193542 216.968491,340.093994 222.002914,340.298096 
	C222.780960,340.329651 223.502518,341.753998 224.499908,343.195129 
	C225.549911,345.928223 226.350220,348.000366 227.150528,350.072540 
z"/>
<path fill="#266FB1" opacity="1.000000" stroke="none" 
	d="
M739.278320,263.057739 
	C742.162659,259.552032 742.061523,255.401138 740.285889,251.555435 
	C737.943237,246.481812 732.866150,246.182114 727.775574,245.836990 
	C727.950745,244.525314 728.127991,243.198410 728.519775,241.228363 
	C730.997131,239.486938 733.259888,238.388687 736.094666,237.012787 
	C735.773010,234.527298 735.089600,231.446976 735.039978,228.356476 
	C734.962402,223.530640 733.021545,221.198029 728.097778,221.754807 
	C728.098511,220.771484 728.035156,220.025894 727.971802,219.280319 
	C736.224670,220.896271 736.963867,220.880737 737.140686,229.298340 
	C737.271301,235.515427 740.823730,238.242661 744.932007,242.076370 
	C745.055725,248.548676 745.107544,254.215973 745.159302,259.883301 
	C743.334656,260.952728 741.509949,262.022186 739.278320,263.057739 
z"/>
<path fill="#DDF0FC" opacity="1.000000" stroke="none" 
	d="
M726.980347,157.479797 
	C719.794312,155.466995 712.607605,153.057190 705.191223,150.043839 
	C704.973816,148.727814 704.986023,148.015335 705.177002,147.050659 
	C706.089050,146.102768 706.822388,145.407059 707.555664,144.711365 
	C713.723938,144.795792 719.892273,144.880203 726.517334,145.070602 
	C726.975952,149.145309 726.977783,153.114059 726.980347,157.479797 
z"/>
<path fill="#161C3A" opacity="1.000000" stroke="none" 
	d="
M707.214478,144.563507 
	C706.822388,145.407059 706.089050,146.102768 704.872437,147.178513 
	C702.855103,147.528137 701.316650,147.410751 699.788330,147.489517 
	C697.919006,147.585892 695.562866,147.227310 694.332886,148.210678 
	C693.103760,149.193420 692.158081,151.873840 692.633362,153.292236 
	C693.180298,154.924545 695.369934,156.056198 696.947205,157.274384 
	C697.866638,157.984512 698.984009,158.438431 699.709595,159.173218 
	C696.809021,161.321396 694.561707,164.373703 690.609131,162.221115 
	C690.099121,158.434906 689.589111,154.648697 688.943665,150.444794 
	C688.968628,148.396805 689.129089,146.766525 689.338135,144.733002 
	C695.215576,144.358398 701.044434,144.387039 707.214478,144.563507 
z"/>
<path fill="#FED36D" opacity="1.000000" stroke="none" 
	d="
M745.484741,259.821167 
	C745.107544,254.215973 745.055725,248.548676 745.065796,242.410110 
	C749.448914,243.048660 751.375793,246.211426 751.732117,250.298233 
	C752.123474,254.785950 749.715271,257.811676 745.484741,259.821167 
z"/>
<path fill="#161C3A" opacity="1.000000" stroke="none" 
	d="
M728.537781,144.824646 
	C728.120850,143.898865 728.091980,143.072205 728.085327,141.933731 
	C734.622437,142.099747 741.137329,142.577560 747.652222,143.055389 
	C747.629089,143.678177 747.605957,144.300964 747.582825,144.923752 
	C741.363831,144.923752 735.144775,144.923752 728.537781,144.824646 
z"/>
<path fill="#1E508E" opacity="1.000000" stroke="none" 
	d="
M727.958130,218.856125 
	C728.035156,220.025894 728.098511,220.771484 728.013672,222.115326 
	C726.899719,224.951752 725.933838,227.189926 724.968018,229.428101 
	C724.582336,225.595398 724.196655,221.762711 723.722290,217.480026 
	C723.816101,215.405212 723.998535,213.780396 724.211792,211.881500 
	C728.148254,212.766647 727.564209,215.876328 727.958130,218.856125 
z"/>
<path fill="#FEFFFF" opacity="1.000000" stroke="none" 
	d="
M227.499054,350.050568 
	C226.350220,348.000366 225.549911,345.928223 224.729538,343.488281 
	C226.827271,342.744446 228.945068,342.368408 231.465973,341.985291 
	C232.127579,344.051178 232.386093,346.124115 232.571213,348.574463 
	C230.947754,349.310760 229.397659,349.669678 227.499054,350.050568 
z"/>
<path fill="#C2E7FC" opacity="1.000000" stroke="none" 
	d="
M704.028564,169.276794 
	C704.871460,169.418243 705.788757,169.865433 706.887939,170.570892 
	C706.849976,171.138855 706.630249,171.448563 706.159546,171.898773 
	C705.306763,171.220383 704.704834,170.401474 704.028564,169.276794 
z"/>
<path fill="#124982" opacity="1.000000" stroke="none" 
	d="
M733.247620,260.824585 
	C733.490356,261.310699 733.733154,261.796875 734.005493,262.696350 
	C733.609375,263.111664 733.183655,263.113647 732.437500,263.122009 
	C732.117004,263.128357 731.885254,262.877106 731.885376,262.537323 
	C732.339539,261.739899 732.793579,261.282227 733.247620,260.824585 
z"/>
<path fill="#023A61" opacity="1.000000" stroke="none" 
	d="
M609.606506,262.516510 
	C626.871277,262.777405 644.137085,263.438385 661.404968,264.040741 
	C664.229187,264.139282 667.062317,263.979553 670.619629,264.171967 
	C685.986084,266.602753 700.601501,268.970612 715.270813,270.936005 
	C724.240967,272.137817 730.094971,274.174225 728.968994,285.428345 
	C728.544189,289.674164 727.710266,293.879089 727.046509,298.068542 
	C727.030273,298.034424 727.103394,298.015320 726.835876,298.223694 
	C726.440796,298.859070 726.313293,299.286072 726.187744,300.046692 
	C717.844116,313.553741 709.498474,326.727173 700.870911,340.101257 
	C698.424011,343.030212 696.258972,345.758453 694.093933,348.486725 
	C693.676331,348.249908 693.258728,348.013123 692.841125,347.776306 
	C693.094299,345.785797 693.347534,343.795319 693.616272,341.682495 
	C691.416687,341.379761 689.473755,341.112366 687.535278,340.428772 
	C686.875305,323.957306 686.190369,307.898956 695.174683,292.777954 
	C688.126587,294.218140 681.688782,295.533600 674.769775,296.906677 
	C659.723816,296.308807 645.127136,296.037811 630.608337,294.829834 
	C623.728882,294.257385 616.816162,292.330078 611.357849,286.757538 
	C610.727112,286.312347 610.314697,286.159760 609.950745,286.006287 
	C609.999207,286.005432 610.002075,286.102356 610.002075,286.102356 
	C607.124939,278.413849 607.747742,270.665955 609.606506,262.516510 
z"/>
<path fill="#083861" opacity="1.000000" stroke="none" 
	d="
M420.554260,220.152039 
	C429.679199,221.865646 438.804108,223.579254 448.437744,225.684570 
	C449.713654,227.095261 450.480865,228.114212 450.461914,228.089050 
	C454.234253,227.518890 457.350372,226.173767 459.959686,226.833405 
	C465.589722,228.256699 466.165741,233.916061 461.310425,239.946655 
	C459.168182,240.030212 457.453613,240.099838 455.385284,240.077637 
	C451.993073,236.848282 448.257477,236.763321 444.169159,237.002350 
	C434.094452,237.591385 423.996552,237.775421 413.911438,238.203430 
	C412.303619,238.271652 410.713593,238.760025 408.801666,238.769897 
	C397.989838,238.348618 387.491669,238.211578 376.779694,237.799042 
	C372.568481,236.176270 371.170715,233.274567 370.908173,229.192078 
	C370.322266,220.080978 373.544189,211.947266 377.092804,203.943405 
	C380.826508,195.522095 385.003204,187.297180 389.238342,178.759338 
	C392.304321,174.043213 394.951263,169.438187 397.970673,165.091919 
	C402.694672,158.291977 407.420197,151.463898 412.630615,145.041641 
	C415.941956,140.960098 420.593811,140.165268 425.756683,141.975189 
	C434.639038,145.089005 437.541840,151.994156 438.075256,160.858582 
	C433.742676,169.956223 429.464783,178.731049 424.989471,187.766205 
	C418.854126,197.740753 412.916168,207.454971 406.419342,218.083542 
	C411.793976,218.870071 416.174133,219.511063 420.554260,220.152039 
M460.813080,235.030334 
	C460.149323,233.388214 459.834106,231.377548 458.663940,230.270966 
	C458.137207,229.772873 455.460602,230.699326 454.601929,231.701355 
	C454.035034,232.362869 454.592133,235.191330 455.308624,235.497208 
	C456.781403,236.125885 458.698883,235.712738 460.813080,235.030334 
z"/>
<path fill="#FEC846" opacity="1.000000" stroke="none" 
	d="
M514.937500,290.977051 
	C515.248230,275.377655 515.406738,259.772552 515.995422,244.183640 
	C516.115967,240.990402 517.847717,237.857986 519.355713,234.322479 
	C523.756714,230.863510 527.432861,227.466171 531.558960,224.753281 
	C544.987732,215.923889 560.120789,213.720825 575.902832,214.460266 
	C575.932312,240.281921 575.872131,265.642517 575.355469,291.003174 
	C554.911865,290.994507 534.924683,290.985779 514.937500,290.977051 
M538.044373,251.868088 
	C538.025269,256.676453 538.106079,261.488098 537.949219,266.291962 
	C537.856689,269.124939 539.025452,270.058563 541.765808,270.024170 
	C550.221069,269.918060 558.680481,269.882507 567.134216,270.039612 
	C570.285095,270.098175 571.133423,268.785675 571.049072,265.891296 
	C570.884949,260.258148 570.960754,254.617996 570.792725,248.181992 
	C570.134521,247.784912 569.479492,247.047989 568.817688,247.041962 
	C559.538879,246.957397 550.258789,247.014191 540.979736,246.939667 
	C537.949524,246.915344 537.951477,248.793457 538.044373,251.868088 
z"/>
<path fill="#030725" opacity="1.000000" stroke="none" 
	d="
M469.238647,116.953201 
	C466.905914,120.991310 463.452728,122.591164 458.825317,121.951820 
	C455.583771,121.503960 452.711639,121.875275 452.511414,126.922806 
	C451.639984,130.443222 450.862579,133.215698 450.085175,135.988174 
	C449.062378,136.365753 448.039612,136.743317 446.461121,137.383545 
	C444.595184,138.587570 443.284943,139.528915 441.974701,140.470276 
	C440.984467,141.175766 439.994202,141.881287 438.365875,142.805115 
	C425.595612,138.202682 413.349121,137.205399 400.931793,141.923416 
	C401.314728,139.664307 401.100952,137.058487 402.178955,135.203217 
	C408.454285,124.402924 417.152924,116.700699 430.906433,114.865036 
	C435.898163,115.001907 440.032379,115.035629 444.154083,115.280556 
	C452.519196,115.777641 460.877533,116.388969 469.238647,116.953201 
z"/>
<path fill="#236CAD" opacity="1.000000" stroke="none" 
	d="
M400.895874,141.815582 
	C413.349121,137.205399 425.595612,138.202682 438.077698,143.030334 
	C440.019470,145.588913 441.611359,148.140579 443.079956,151.391006 
	C441.347778,154.905106 439.738861,157.720444 438.129974,160.535782 
	C437.541840,151.994156 434.639038,145.089005 425.756683,141.975189 
	C420.593811,140.165268 415.941956,140.960098 412.630615,145.041641 
	C407.420197,151.463898 402.694672,158.291977 397.970673,165.091919 
	C394.951263,169.438187 392.304321,174.043213 388.901306,178.815552 
	C386.526947,181.424469 384.655823,183.689819 382.972809,186.087265 
	C378.353668,192.667130 373.813599,199.302460 369.242249,205.915848 
	C364.316223,206.417664 359.390259,206.919495 354.464264,207.421326 
	C354.188263,207.054123 353.912231,206.686905 353.636230,206.319702 
	C369.218872,184.986450 384.801483,163.653198 400.541016,141.934174 
	C400.697906,141.548416 400.859985,141.707764 400.895874,141.815582 
z"/>
<path fill="#050622" opacity="1.000000" stroke="none" 
	d="
M611.576172,287.050110 
	C616.816162,292.330078 623.728882,294.257385 630.608337,294.829834 
	C645.127136,296.037811 659.723816,296.308807 675.119263,296.964447 
	C682.942017,300.119995 683.560608,303.043884 679.504395,309.411652 
	C676.362732,314.343628 672.243835,312.531952 668.157471,312.005035 
	C661.253906,309.978821 654.455139,306.828552 647.423767,306.173065 
	C634.881653,305.003937 622.196228,305.427643 609.577148,304.995178 
	C605.965576,304.871368 602.376526,304.093048 598.511108,302.944824 
	C598.325623,295.477295 598.406067,288.679779 598.486511,281.882263 
	C602.149902,283.515930 605.813293,285.149567 609.739380,286.442780 
	C610.002075,286.102356 609.999207,286.005432 609.943604,286.462708 
	C610.450745,286.963379 611.013428,287.006744 611.576172,287.050110 
z"/>
<path fill="#1E508E" opacity="1.000000" stroke="none" 
	d="
M455.739075,240.169479 
	C457.453613,240.099838 459.168182,240.030212 461.451538,240.246918 
	C462.305145,241.358734 462.589905,242.184250 462.874634,243.009766 
	C464.863342,254.979233 466.769714,266.963104 468.858673,278.915009 
	C472.698181,300.882935 476.645264,322.832062 480.697510,345.499512 
	C481.237366,348.140869 481.627258,350.071777 482.017151,352.002655 
	C482.954407,357.797699 483.891663,363.592712 484.593811,370.025116 
	C482.553314,371.093964 480.747894,371.525421 478.938110,371.551392 
	C477.727783,364.783508 476.521851,358.421051 475.361542,351.654846 
	C474.958282,349.163544 474.509369,347.076019 474.103821,344.572021 
	C468.011200,309.493500 461.875122,274.831482 455.739075,240.169479 
z"/>
<path fill="#0C0A21" opacity="1.000000" stroke="none" 
	d="
M575.811890,291.003113 
	C575.872131,265.642517 575.932312,240.281921 575.990234,214.022980 
	C576.013611,210.245956 576.039368,207.367249 576.065063,204.488556 
	C578.416199,204.423996 580.767395,204.359436 583.547241,204.798981 
	C584.070862,208.526718 584.165833,211.750366 584.160706,215.435181 
	C584.124817,240.924789 584.188965,265.953247 584.158997,291.435120 
	C584.030151,295.603394 583.995422,299.318237 583.960693,303.033112 
	C581.617249,303.047638 579.273743,303.062134 576.477661,302.595367 
	C575.953979,298.410431 575.882874,294.706757 575.811890,291.003113 
z"/>
<path fill="#FDB813" opacity="1.000000" stroke="none" 
	d="
M575.355469,291.003174 
	C575.882874,294.706757 575.953979,298.410431 576.039062,302.578857 
	C575.799622,303.124237 575.546204,303.204865 574.520508,303.331055 
	C554.040161,303.240234 534.332092,303.103790 514.623962,302.967346 
	C514.667603,299.273895 514.711243,295.580414 514.846191,291.432007 
	C534.924683,290.985779 554.911865,290.994507 575.355469,291.003174 
z"/>
<path fill="#388AD1" opacity="1.000000" stroke="none" 
	d="
M469.515564,116.926819 
	C460.877533,116.388969 452.519196,115.777641 444.154083,115.280556 
	C440.032379,115.035629 435.898163,115.001907 431.303894,114.763138 
	C432.294952,103.851700 437.613953,98.639603 448.246674,97.594986 
	C458.908722,96.547493 466.092957,101.450676 470.090942,113.143768 
	C470.170471,114.721283 470.157166,115.595192 470.143860,116.469101 
	C470.026733,116.612877 469.909607,116.756660 469.515564,116.926819 
z"/>
<path fill="#266FB1" opacity="1.000000" stroke="none" 
	d="
M420.668854,219.791443 
	C416.174133,219.511063 411.793976,218.870071 406.419342,218.083542 
	C412.916168,207.454971 418.854126,197.740753 425.324463,187.651550 
	C430.009338,182.725800 434.317291,178.304855 438.261658,173.580322 
	C441.069977,170.216492 443.388885,166.444061 445.926239,162.854004 
	C444.779114,166.954361 444.176575,171.311050 442.388641,175.109818 
	C435.390137,189.979141 428.017212,204.672241 420.668854,219.791443 
z"/>
<path fill="#FED36D" opacity="1.000000" stroke="none" 
	d="
M575.609619,204.383316 
	C576.039368,207.367249 576.013611,210.245956 575.900513,213.561935 
	C560.120789,213.720825 544.987732,215.923889 531.558960,224.753281 
	C527.432861,227.466171 523.756714,230.863510 519.547119,234.004059 
	C524.016602,217.871277 541.693359,204.629730 559.266174,204.189423 
	C564.558105,204.056854 569.857971,204.239716 575.609619,204.383316 
z"/>
<path fill="#F8B71A" opacity="1.000000" stroke="none" 
	d="
M584.421265,303.123108 
	C583.995422,299.318237 584.030151,295.603394 584.599854,291.438965 
	C595.585510,290.899719 593.949219,292.232697 593.997314,281.933990 
	C594.099731,259.994293 594.067200,238.054001 594.101562,215.685867 
	C594.330200,211.720474 594.547241,208.183151 594.764282,204.645828 
	C598.917236,203.789581 598.456360,206.696732 598.450928,209.193115 
	C598.407166,229.132401 598.348450,249.071671 598.307983,269.010956 
	C598.299866,272.997284 598.349854,276.983765 598.429810,281.426208 
	C598.406067,288.679779 598.325623,295.477295 598.198608,302.753326 
	C593.728638,303.225616 589.305298,303.219360 584.421265,303.123108 
z"/>
<path fill="#0C0A21" opacity="1.000000" stroke="none" 
	d="
M514.213501,303.054810 
	C534.332092,303.103790 554.040161,303.240234 574.159912,303.501465 
	C568.950134,305.735260 563.328613,307.844299 557.354431,310.071472 
	C540.222778,310.189667 523.443909,310.189667 506.432861,310.189667 
	C506.432861,307.775879 506.432861,305.846313 506.432861,303.142273 
	C508.946472,303.142273 511.374756,303.142273 514.213501,303.054810 
z"/>
<path fill="#FEFFFF" opacity="1.000000" stroke="none" 
	d="
M482.484619,352.000244 
	C481.627258,350.071777 481.237366,348.140869 480.904419,345.807251 
	C496.280975,345.272797 511.600922,345.165131 526.920105,344.992645 
	C530.778503,344.949219 529.874329,347.690857 529.698181,350.459351 
	C529.118530,351.351105 528.828369,351.672363 528.538208,351.993652 
	C513.342834,351.995056 498.147430,351.996460 482.484619,352.000244 
z"/>
<path fill="#059EF8" opacity="1.000000" stroke="none" 
	d="
M450.186096,136.325836 
	C450.862579,133.215698 451.639984,130.443222 452.583679,127.339935 
	C458.218994,128.148239 463.687988,129.287354 469.251373,130.446136 
	C469.646820,137.668335 466.681244,142.839340 461.148560,144.183899 
	C455.881805,145.463837 453.045349,143.499863 450.186096,136.325836 
z"/>
<path fill="#F8B71A" opacity="1.000000" stroke="none" 
	d="
M445.968048,162.460526 
	C443.388885,166.444061 441.069977,170.216492 438.261658,173.580322 
	C434.317291,178.304855 430.009338,182.725800 425.521881,187.391235 
	C429.464783,178.731049 433.742676,169.956223 438.075256,160.858582 
	C439.738861,157.720444 441.347778,154.905106 443.126373,151.725128 
	C446.969543,154.227509 448.011841,157.761459 445.968048,162.460526 
z"/>
<path fill="#FEFFFF" opacity="1.000000" stroke="none" 
	d="
M463.281616,243.000839 
	C462.589905,242.184250 462.305145,241.358734 461.879272,240.232971 
	C466.165741,233.916061 465.589722,228.256699 459.959686,226.833405 
	C457.350372,226.173767 454.234253,227.518890 450.461914,228.089050 
	C450.480865,228.114212 449.713654,227.095261 448.843018,225.752441 
	C451.539001,221.843552 459.046753,219.632187 463.016113,221.223495 
	C466.927612,222.791611 470.721069,238.747971 467.700317,241.556839 
	C466.744598,242.445496 465.046814,242.536102 463.281616,243.000839 
z"/>
<path fill="#FED36D" opacity="1.000000" stroke="none" 
	d="
M594.398499,204.524536 
	C594.547241,208.183151 594.330200,211.720474 593.669556,215.651138 
	C590.237488,215.687653 587.249146,215.330826 584.260742,214.974014 
	C584.165833,211.750366 584.070862,208.526718 583.981995,204.883209 
	C587.336304,204.443314 590.684509,204.423279 594.398499,204.524536 
z"/>
<path fill="#030725" opacity="1.000000" stroke="none" 
	d="
M528.664673,352.429260 
	C528.828369,351.672363 529.118530,351.351105 529.701477,350.879211 
	C531.022888,350.767090 532.051514,350.805634 533.470093,350.816986 
	C535.604797,350.864716 537.349548,350.939636 539.524536,351.502869 
	C539.952698,359.843323 539.952698,359.843323 533.696106,360.225311 
	C532.261292,360.225311 530.826477,360.225311 528.791138,360.225311 
	C528.791138,357.579010 528.791138,355.221924 528.664673,352.429260 
z"/>
<path fill="#161C3A" opacity="1.000000" stroke="none" 
	d="
M470.605591,116.516510 
	C470.157166,115.595192 470.170471,114.721283 470.162598,113.518539 
	C476.743286,113.715263 483.345154,114.240814 489.946991,114.766373 
	C489.910583,115.365555 489.874146,115.964745 489.837738,116.563927 
	C483.580933,116.563927 477.324127,116.563927 470.605591,116.516510 
z"/>
<path fill="#C2E7FC" opacity="1.000000" stroke="none" 
	d="
M690.418091,162.601074 
	C694.561707,164.373703 696.809021,161.321396 699.774780,159.214478 
	C700.142761,159.090134 700.273376,159.172409 700.355469,159.383820 
	C700.653992,159.825577 700.916626,159.974319 701.225586,160.041473 
	C702.163513,162.795731 703.101501,165.550003 704.031738,168.679535 
	C699.596558,167.361786 695.169250,165.668808 690.365967,163.886856 
	C690.069031,163.525620 690.148010,163.253342 690.418091,162.601074 
z"/>
<path fill="#6BC3F3" opacity="1.000000" stroke="none" 
	d="
M442.251923,140.746811 
	C443.284943,139.528915 444.595184,138.587570 446.220581,137.609543 
	C449.991791,141.067093 449.417084,144.126434 445.056396,147.252258 
	C444.164337,145.053589 443.346741,143.038467 442.251923,140.746811 
z"/>
<path fill="#073661" opacity="1.000000" stroke="none" 
	d="
M533.804016,360.660400 
	C539.952698,359.843323 539.952698,359.843323 539.961121,351.547668 
	C552.763062,327.860626 572.235901,313.486115 598.526917,310.469818 
	C610.380371,309.109924 622.875488,310.938507 632.194580,320.647247 
	C636.681824,325.322144 638.635742,330.951294 639.033020,337.300781 
	C639.702026,347.992554 637.490234,358.101013 632.777710,368.294495 
	C632.254700,368.856049 632.060181,368.922028 631.414185,369.003082 
	C627.071655,369.031647 623.180603,369.045135 618.917480,368.839417 
	C611.931641,368.697998 605.317932,368.775818 598.271240,368.758118 
	C591.255249,368.704712 584.672180,368.746826 577.720581,368.602844 
	C570.681946,368.618866 564.011902,368.821014 556.859619,368.998840 
	C552.570679,368.988770 548.763855,369.003021 544.957092,369.017273 
	C541.390503,368.727600 537.823853,368.437927 533.911926,368.120209 
	C533.911926,365.614624 533.911926,363.355072 533.804016,360.660400 
z"/>
<path fill="#063056" opacity="1.000000" stroke="none" 
	d="
M524.712769,467.543945 
	C517.019836,481.413879 506.259888,486.972198 493.067932,483.947784 
	C483.840851,481.832397 477.447388,476.160797 473.473633,466.780334 
	C469.490051,451.877899 474.063812,440.915009 486.694641,432.955017 
	C491.084412,431.904388 495.126404,430.918182 499.168396,429.932007 
	C519.705261,431.850281 530.515259,447.563965 524.712769,467.543945 
M511.422180,450.425995 
	C506.180267,443.579437 500.006805,441.570862 493.321442,444.536926 
	C487.484131,447.126770 484.013672,453.940887 485.369629,460.149994 
	C487.163879,468.365936 495.144135,473.115173 503.243591,470.787201 
	C511.439789,468.431427 514.973389,460.295013 511.422180,450.425995 
z"/>
<path fill="#030725" opacity="1.000000" stroke="none" 
	d="
M619.289551,369.058655 
	C623.180603,369.045135 627.071655,369.031647 631.444092,369.431274 
	C629.772156,377.211090 627.618713,384.577789 625.465271,391.944458 
	C617.939270,402.580902 608.028320,409.567780 595.013855,411.744843 
	C578.044006,414.583557 561.992493,406.799438 552.634827,391.216400 
	C549.895935,383.990784 547.419556,376.917267 544.950134,369.430481 
	C548.763855,369.003021 552.570679,368.988770 556.891602,369.396515 
	C558.017578,378.273315 561.056152,385.676544 567.448242,391.353424 
	C576.829285,399.684784 587.686279,401.960205 599.387329,397.417450 
	C612.125977,392.471863 618.433289,382.568207 619.289551,369.058655 
z"/>
<path fill="#0B3963" opacity="1.000000" stroke="none" 
	d="
M499.089478,429.522156 
	C495.126404,430.918182 491.084412,431.904388 486.599426,432.544617 
	C484.132996,420.704437 482.109558,409.210266 480.071899,397.319305 
	C478.998688,391.243683 477.939758,385.564850 477.081940,379.564850 
	C481.425201,378.505035 485.567352,377.766327 489.709473,377.027649 
	C492.809814,394.389221 495.910187,411.750763 499.089478,429.522156 
z"/>
<path fill="#266FB1" opacity="1.000000" stroke="none" 
	d="
M489.921387,376.732635 
	C485.567352,377.766327 481.425201,378.505035 476.906097,379.605377 
	C476.298523,380.056732 476.060364,380.087250 475.709198,379.685638 
	C471.589203,374.554779 472.219513,373.166077 478.942505,371.956879 
	C480.747894,371.525421 482.553314,371.093964 484.616150,370.440552 
	C485.846375,370.250702 486.879181,370.086609 487.777557,370.361633 
	C489.069885,370.757233 491.133789,371.288971 491.303284,372.092682 
	C491.579102,373.400604 490.589111,374.975464 489.921387,376.732635 
z"/>
<path fill="#F8B71A" opacity="1.000000" stroke="none" 
	d="
M424.474762,439.199768 
	C422.356567,439.489532 420.228119,440.077881 418.122314,440.005768 
	C413.985260,439.864075 409.860809,439.355103 404.973816,438.992859 
	C403.554657,439.048248 402.892883,439.108856 402.231079,439.169495 
	C401.697876,439.063629 401.164703,438.957764 400.392395,438.793823 
	C397.253235,438.177521 394.353149,437.619293 390.876648,436.950104 
	C391.838318,429.826782 392.757874,422.842896 393.779724,415.874023 
	C393.841064,415.455566 394.719086,415.156891 395.991272,414.869019 
	C399.181335,415.336884 401.597137,415.738281 404.331329,416.309204 
	C405.257904,417.640961 406.391541,418.823822 406.346863,419.960419 
	C406.285278,421.527985 405.494324,423.145294 404.730164,424.590179 
	C403.261932,427.366241 403.822662,428.978027 406.790131,430.346710 
	C412.773315,433.106232 418.589630,436.227661 424.474762,439.199768 
z"/>
<path fill="#FEFFFF" opacity="1.000000" stroke="none" 
	d="
M393.137573,386.021667 
	C393.834473,387.738068 394.090027,389.453674 394.266663,391.598022 
	C373.370728,392.019348 352.553528,392.049255 331.737152,391.928284 
	C330.192749,391.919312 327.616913,391.163544 327.297241,390.178436 
	C326.063019,386.374878 328.636414,385.936981 331.744446,385.949982 
	C352.061462,386.035095 372.378937,386.009949 393.137573,386.021667 
z"/>
<path fill="#FEFFFF" opacity="1.000000" stroke="none" 
	d="
M404.013000,416.139679 
	C401.597137,415.738281 399.181335,415.336884 396.383087,414.798828 
	C396.300720,412.435699 396.600769,410.209229 396.958252,407.614929 
	C399.355438,407.093475 401.695221,406.939941 404.489319,407.199402 
	C404.633392,410.454834 404.323212,413.297272 404.013000,416.139679 
z"/>
<path fill="#FEFFFF" opacity="1.000000" stroke="none" 
	d="
M390.345947,345.016937 
	C390.859009,347.055450 390.932922,349.093048 390.925171,351.561218 
	C389.183594,351.996063 387.280273,352.512451 385.927734,351.869720 
	C384.375153,351.132050 382.609100,349.558014 382.187286,348.006927 
	C381.423859,345.199921 383.751740,344.921173 385.923187,344.994049 
	C387.249817,345.038605 388.578888,345.011139 390.345947,345.016937 
z"/>
<path fill="#DFF1FD" opacity="1.000000" stroke="none" 
	d="
M455.385284,240.077637 
	C461.875122,274.831482 468.011200,309.493500 473.630981,344.578979 
	C454.867035,345.010803 436.619385,345.019165 418.371735,345.027496 
	C420.304321,336.450775 422.498993,327.921265 424.055481,319.276825 
	C424.798737,315.148865 425.504730,310.402069 424.215088,306.622223 
	C417.254089,286.220337 409.662262,266.033691 402.636383,245.405121 
	C407.093445,245.158997 407.969391,241.968231 409.115356,239.054169 
	C410.713593,238.760025 412.303619,238.271652 413.911438,238.203430 
	C423.996552,237.775421 434.094452,237.591385 444.169159,237.002350 
	C448.257477,236.763321 451.993073,236.848282 455.385284,240.077637 
z"/>
<path fill="#E0F2FE" opacity="1.000000" stroke="none" 
	d="
M404.331360,416.309204 
	C404.323212,413.297272 404.633392,410.454834 404.927185,407.174805 
	C405.954742,402.002197 406.998688,397.267151 408.699219,392.229126 
	C418.183350,391.951813 427.014099,392.101532 435.835205,391.875977 
	C437.238220,391.840118 439.506012,390.339783 439.802460,389.131042 
	C440.594391,385.902161 437.940704,385.987000 435.693024,385.982239 
	C427.032288,385.963928 418.371582,385.918610 409.710876,385.883392 
	C411.976501,374.808594 414.242126,363.733826 417.193268,352.333557 
	C437.024475,352.024933 456.170197,352.041779 475.315887,352.058624 
	C476.521851,358.421051 477.727783,364.783508 478.938110,371.551392 
	C472.219513,373.166077 471.589203,374.554779 475.431702,379.933777 
	C461.725037,399.981262 448.190430,419.407654 434.655823,438.834045 
	C431.533752,438.906250 428.411621,438.978455 424.882141,439.125214 
	C418.589630,436.227661 412.773315,433.106232 406.790131,430.346710 
	C403.822662,428.978027 403.261932,427.366241 404.730164,424.590179 
	C405.494324,423.145294 406.285278,421.527985 406.346863,419.960419 
	C406.391541,418.823822 405.257904,417.640961 404.331360,416.309204 
z"/>
<path fill="#226DB2" opacity="1.000000" stroke="none" 
	d="
M408.801666,238.769897 
	C407.969391,241.968231 407.093445,245.158997 402.617432,245.052933 
	C380.003143,244.402374 357.756165,243.736282 335.090698,243.131165 
	C335.186646,240.709579 335.370819,238.098175 336.279205,235.769241 
	C338.736053,229.470078 341.500793,223.290985 344.312469,216.672241 
	C350.318054,216.712845 356.154541,217.145508 362.438995,218.006012 
	C361.732971,221.349091 360.128296,224.182190 359.576874,227.207291 
	C359.182312,229.371826 359.377960,232.684036 360.736908,233.937653 
	C365.228943,238.081421 370.672241,240.268799 376.993530,238.074554 
	C387.491669,238.211578 397.989838,238.348618 408.801666,238.769897 
z"/>
<path fill="#FEFFFF" opacity="1.000000" stroke="none" 
	d="
M475.361542,351.654846 
	C456.170197,352.041779 437.024475,352.024933 417.405457,352.011383 
	C417.301666,349.930603 417.671173,347.846558 418.206207,345.394989 
	C436.619385,345.019165 454.867035,345.010803 473.587555,344.995483 
	C474.509369,347.076019 474.958282,349.163544 475.361542,351.654846 
z"/>
<path fill="#FEFFFF" opacity="1.000000" stroke="none" 
	d="
M409.478455,386.190277 
	C418.371582,385.918610 427.032288,385.963928 435.693024,385.982239 
	C437.940704,385.987000 440.594391,385.902161 439.802460,389.131042 
	C439.506012,390.339783 437.238220,391.840118 435.835205,391.875977 
	C427.014099,392.101532 418.183350,391.951813 408.842773,391.889954 
	C408.635162,390.068207 408.940582,388.282684 409.478455,386.190277 
z"/>
<path fill="#DDF0FC" opacity="1.000000" stroke="none" 
	d="
M480.086121,397.716064 
	C482.109558,409.210266 484.132996,420.704437 486.251648,432.609070 
	C474.063812,440.915009 469.490051,451.877899 473.231567,466.549072 
	C444.179413,466.975800 415.069946,466.979889 385.423981,466.611420 
	C383.520966,465.122955 382.080231,464.085358 380.803314,462.874878 
	C378.158478,460.367493 375.600769,457.768250 373.470825,455.134094 
	C399.056030,455.051666 424.178497,454.933197 449.298340,455.137634 
	C453.549896,455.172241 456.347382,454.435883 457.193481,449.910522 
	C457.372253,448.954498 457.949829,448.073059 458.343628,447.157288 
	C461.962036,447.157288 465.580383,447.157288 469.606781,447.157288 
	C469.606781,444.420593 469.606781,442.061707 469.606781,438.940399 
	C463.795624,438.940399 457.915741,438.940399 451.619141,438.604126 
	C455.518890,431.947784 459.732574,425.554443 464.178589,419.326874 
	C469.375305,412.047729 474.774689,404.913300 480.086121,397.716064 
z"/>
<path fill="#C2E7FC" opacity="1.000000" stroke="none" 
	d="
M373.007202,455.206787 
	C375.600769,457.768250 378.158478,460.367493 380.803314,462.874878 
	C382.080231,464.085358 383.520966,465.122955 384.959412,466.562805 
	C349.491547,466.926849 313.951752,466.966949 277.900085,466.978027 
	C279.233368,460.588104 279.364075,454.231659 277.321716,447.499756 
	C279.422211,447.127289 281.539917,447.135803 284.174561,447.549347 
	C285.807739,453.860565 289.257294,455.283081 295.206421,455.204315 
	C321.135468,454.861084 347.072845,455.148438 373.007202,455.206787 
z"/>
<path fill="#083761" opacity="1.000000" stroke="none" 
	d="
M684.690063,240.743408 
	C693.975403,241.893494 702.841736,243.315231 711.764587,244.065140 
	C717.179688,244.520248 720.822632,246.103363 721.048645,252.505341 
	C719.526855,253.295929 717.977051,253.702805 715.641968,254.294373 
	C701.198730,255.648285 687.540649,256.817505 673.882629,257.986755 
	C667.267334,258.045624 660.652100,258.104523 653.113281,258.117981 
	C650.368469,258.043365 648.547180,258.008850 646.725769,257.986053 
	C637.886841,257.875366 633.814331,252.682770 635.475891,244.021225 
	C637.906738,231.349106 643.180176,219.858292 649.499390,208.739532 
	C651.853088,204.598190 653.841003,200.248932 655.995789,195.994507 
	C659.179016,191.563629 662.471924,187.206848 665.524841,182.687927 
	C674.509888,169.388306 683.964478,168.937988 699.263245,173.004547 
	C702.996948,173.996994 703.872070,177.257736 702.254944,180.639893 
	C697.957336,189.628296 693.748840,198.679199 688.969543,207.412308 
	C683.326111,217.724365 677.121094,227.729080 670.843872,238.403732 
	C675.662292,239.237732 679.978577,239.984802 684.690063,240.743408 
z"/>
<path fill="#E0F2FE" opacity="1.000000" stroke="none" 
	d="
M625.968018,391.988556 
	C627.618713,384.577789 629.772156,377.211090 631.895569,369.416199 
	C632.060181,368.922028 632.254700,368.856049 632.713501,368.631836 
	C659.019043,368.546936 685.060303,368.620300 711.554932,369.173218 
	C711.324646,371.472778 710.751587,373.343872 709.937073,375.103180 
	C707.330688,380.732605 704.634766,386.320587 701.973389,391.924591 
	C676.805847,391.960632 651.638245,391.996643 625.968018,391.988556 
z"/>
<path fill="#DBEEFA" opacity="1.000000" stroke="none" 
	d="
M668.116150,312.377686 
	C672.243835,312.531952 676.362732,314.343628 679.504395,309.411652 
	C683.560608,303.043884 682.942017,300.119995 675.600464,296.906860 
	C681.688782,295.533600 688.126587,294.218140 695.174683,292.777954 
	C686.190369,307.898956 686.875305,323.957306 687.149780,340.500000 
	C685.325073,341.121338 683.890320,341.255188 683.215759,341.318115 
	C682.343018,346.354614 681.566833,350.833740 680.790649,355.312836 
	C676.097168,356.116852 673.277100,353.893158 670.691895,350.080963 
	C662.533386,338.049866 660.759338,325.770142 668.116150,312.377686 
z"/>
<path fill="#C2E7FC" opacity="1.000000" stroke="none" 
	d="
M702.442322,391.975128 
	C704.634766,386.320587 707.330688,380.732605 709.937073,375.103180 
	C710.751587,373.343872 711.324646,371.472778 712.017700,369.266541 
	C716.446594,368.801971 720.870117,368.810699 725.284058,368.609985 
	C727.612549,368.504089 729.924500,368.032990 732.625122,367.742981 
	C735.963928,367.848572 738.921509,367.937988 742.316650,368.051697 
	C745.440369,375.817993 748.126526,383.559967 750.883545,391.644684 
	C734.940002,392.000183 718.925598,392.012939 702.442322,391.975128 
z"/>
<path fill="#DDF0FC" opacity="1.000000" stroke="none" 
	d="
M701.152771,339.900574 
	C709.498474,326.727173 717.844116,313.553741 726.469971,299.848938 
	C726.867981,298.883484 726.985657,298.449402 727.103394,298.015320 
	C727.103394,298.015320 727.030273,298.034424 727.305786,297.889008 
	C728.073608,296.825500 728.565979,295.907410 729.303711,295.005127 
	C729.549133,295.020966 730.039795,295.055573 730.039795,295.055573 
	C730.039795,295.055573 730.531677,295.052704 730.531738,295.052673 
	C730.723389,295.455109 730.915100,295.857513 730.820251,296.878662 
	C728.127014,311.157837 725.699219,324.814667 723.368103,338.487946 
	C723.232544,339.282959 723.881714,340.211731 724.165771,341.078308 
	C721.226135,345.341248 718.286499,349.604187 714.766846,354.001587 
	C713.475769,353.709564 712.732483,353.328400 712.058777,352.849335 
	C707.311157,349.473419 699.792114,348.421265 701.152771,339.900574 
z"/>
<path fill="#1A2C59" opacity="1.000000" stroke="none" 
	d="
M729.058350,294.989319 
	C728.565979,295.907410 728.073608,296.825500 727.322021,297.923126 
	C727.710266,293.879089 728.544189,289.674164 728.968994,285.428345 
	C730.094971,274.174225 724.240967,272.137817 715.270813,270.936005 
	C700.601501,268.970612 685.986084,266.602753 671.070923,264.103119 
	C671.646118,262.344635 672.498291,260.887726 673.999268,259.317688 
	C688.712524,261.102234 702.776978,262.999878 716.841370,264.897552 
	C719.456482,265.302765 722.094543,265.597290 724.682129,266.134918 
	C731.271973,267.504150 734.450806,273.539642 732.826111,282.411713 
	C732.148865,286.109772 730.505371,289.630951 729.155518,293.839050 
	C729.025940,294.626801 729.042175,294.808044 729.058350,294.989319 
z"/>
<path fill="#F8B71A" opacity="1.000000" stroke="none" 
	d="
M700.870911,340.101257 
	C699.792114,348.421265 707.311157,349.473419 712.058777,352.849335 
	C712.732483,353.328400 713.475769,353.709564 714.519958,354.261414 
	C714.294617,354.989655 713.777649,356.071228 713.171570,356.123718 
	C703.667236,356.946716 694.156250,357.727692 684.632019,358.243927 
	C683.432678,358.308929 682.149170,356.820343 680.847656,355.682190 
	C681.566833,350.833740 682.343018,346.354614 683.215759,341.318115 
	C683.890320,341.255188 685.325073,341.121338 687.145386,340.916229 
	C689.473755,341.112366 691.416687,341.379761 693.616272,341.682495 
	C693.347534,343.795319 693.094299,345.785797 692.841125,347.776306 
	C693.258728,348.013123 693.676331,348.249908 694.093933,348.486725 
	C696.258972,345.758453 698.424011,343.030212 700.870911,340.101257 
z"/>
<path fill="#DBEEFA" opacity="1.000000" stroke="none" 
	d="
M716.789551,264.500854 
	C702.776978,262.999878 688.712524,261.102234 674.245117,259.112885 
	C673.859314,258.849121 673.876404,258.677063 673.888062,258.245850 
	C687.540649,256.817505 701.198730,255.648285 715.239136,254.369476 
	C715.993652,257.541290 716.365662,260.822723 716.789551,264.500854 
z"/>
<path fill="#C2E7FC" opacity="1.000000" stroke="none" 
	d="
M724.463623,340.928589 
	C723.881714,340.211731 723.232544,339.282959 723.368103,338.487946 
	C725.699219,324.814667 728.127014,311.157837 730.837708,297.215637 
	C738.013672,312.858276 734.752808,327.308258 724.463623,340.928589 
z"/>
<path fill="#1A2C59" opacity="1.000000" stroke="none" 
	d="
M733.396057,260.470612 
	C732.793579,261.282227 732.339539,261.739899 731.769043,262.412079 
	C729.121887,262.087250 726.118042,262.164764 724.264160,260.742859 
	C723.365234,260.053375 724.621399,256.553955 725.027710,254.022522 
	C730.844177,251.298584 733.683472,253.463577 733.396057,260.470612 
z"/>
<path fill="#C2E7FC" opacity="1.000000" stroke="none" 
	d="
M729.303711,295.005127 
	C729.042175,294.808044 729.025940,294.626801 729.029236,294.172058 
	C729.539978,294.097626 730.031250,294.296692 730.527100,294.774231 
	C730.531677,295.052704 730.039795,295.055573 730.039795,295.055573 
	C730.039795,295.055573 729.549133,295.020966 729.303711,295.005127 
z"/>
<path fill="#FDB813" opacity="1.000000" stroke="none" 
	d="
M354.078674,161.050293 
	C351.277466,165.300919 348.637177,169.674866 345.548401,173.705078 
	C344.876770,174.581421 342.081390,174.972000 341.142090,174.320511 
	C333.702820,169.160812 326.476044,163.694763 318.531464,157.842163 
	C322.261658,153.057297 325.766815,148.561127 329.629822,144.405960 
	C327.314331,151.482025 331.577118,154.746704 336.467773,157.696304 
	C336.893494,157.953049 337.411194,158.118835 337.739929,158.465576 
	C342.531647,163.519791 347.663452,166.303131 354.078674,161.050293 
z"/>
<path fill="#E7A300" opacity="1.000000" stroke="none" 
	d="
M354.332397,160.802429 
	C347.663452,166.303131 342.531647,163.519791 337.739929,158.465576 
	C337.411194,158.118835 336.893494,157.953049 336.467773,157.696304 
	C331.577118,154.746704 327.314331,151.482025 329.960663,144.328552 
	C330.507721,141.292252 331.540131,140.556335 333.991455,142.420578 
	C340.166016,147.116394 346.560150,151.525497 352.683960,156.284134 
	C353.768951,157.127274 353.974487,159.102234 354.332397,160.802429 
z"/>
<path fill="#039FFB" opacity="1.000000" stroke="none" 
	d="
M816.663818,367.982483 
	C817.033325,385.778961 804.089478,399.291138 786.852905,399.603210 
	C769.822388,399.911591 756.371765,386.656433 755.695557,368.417908 
	C762.191711,367.976746 768.649597,367.978516 775.577759,368.430847 
	C777.299927,375.630890 781.118774,379.228180 786.781372,378.992035 
	C792.524780,378.752502 795.954102,375.024200 796.772827,368.129425 
	C803.243469,368.080109 809.714172,368.030792 816.663818,367.982483 
z"/>
<path fill="#FEFFFF" opacity="1.000000" stroke="none" 
	d="
M796.323853,368.067017 
	C795.954102,375.024200 792.524780,378.752502 786.781372,378.992035 
	C781.118774,379.228180 777.299927,375.630890 776.044250,368.500549 
	C782.651978,368.081329 789.263428,368.042938 796.323853,368.067017 
z"/>
<path fill="#125592" opacity="1.000000" stroke="none" 
	d="
M655.659180,196.043457 
	C653.841003,200.248932 651.853088,204.598190 649.499390,208.739532 
	C643.180176,219.858292 637.906738,231.349106 635.475891,244.021225 
	C633.814331,252.682770 637.886841,257.875366 646.725769,257.986053 
	C648.547180,258.008850 650.368469,258.043365 652.653442,258.149719 
	C648.168640,262.612213 642.265991,260.685455 636.659302,260.707825 
	C636.500549,260.708466 636.344116,260.603027 636.182190,260.566193 
	C621.055176,257.125122 619.078247,252.993469 625.946472,239.104416 
	C633.718018,223.388550 643.776672,209.231888 655.659180,196.043457 
z"/>
<path fill="#039FFB" opacity="1.000000" stroke="none" 
	d="
M258.288696,469.685608 
	C249.022537,473.275665 240.649078,469.786194 238.144745,461.625458 
	C235.755600,453.840088 240.144852,445.927917 248.039200,443.789368 
	C253.902664,442.200989 260.434143,444.822235 263.513947,449.999725 
	C266.724457,455.397003 266.146851,462.132751 262.004608,466.578308 
	C260.997437,467.659180 259.762817,468.528137 258.288696,469.685608 
z"/>
<path fill="#C2E7FC" opacity="1.000000" stroke="none" 
	d="
M724.987000,229.802429 
	C725.933838,227.189926 726.899719,224.951752 727.949646,222.353073 
	C733.021545,221.198029 734.962402,223.530640 735.039978,228.356476 
	C735.089600,231.446976 735.773010,234.527298 736.094666,237.012787 
	C733.259888,238.388687 730.997131,239.486938 728.495667,240.841614 
	C727.173401,237.457611 726.089722,233.817184 724.987000,229.802429 
z"/>
<path fill="#104882" opacity="1.000000" stroke="none" 
	d="
M373.470825,455.134125 
	C347.072845,455.148438 321.135468,454.861084 295.206421,455.204315 
	C289.257294,455.283081 285.807739,453.860565 284.566986,447.594849 
	C285.605133,447.160706 286.767761,447.020752 287.930389,447.020874 
	C344.408234,447.027130 400.886047,447.045502 457.853760,447.109924 
	C457.949829,448.073059 457.372253,448.954498 457.193481,449.910522 
	C456.347382,454.435883 453.549896,455.172241 449.298340,455.137634 
	C424.178497,454.933197 399.056030,455.051666 373.470825,455.134125 
z"/>
<path fill="#154B84" opacity="1.000000" stroke="none" 
	d="
M480.071899,397.319305 
	C474.774689,404.913300 469.375305,412.047729 464.178589,419.326874 
	C459.732574,425.554443 455.518890,431.947784 451.157806,438.604706 
	C445.952881,438.938141 440.792542,438.934723 435.144043,438.882690 
	C448.190430,419.407654 461.725037,399.981262 475.537109,380.306763 
	C476.060364,380.087250 476.298523,380.056732 476.704956,379.926514 
	C477.939758,385.564850 478.998688,391.243683 480.071899,397.319305 
z"/>
<path fill="#063056" opacity="1.000000" stroke="none" 
	d="
M402.383148,439.382385 
	C402.892883,439.108856 403.554657,439.048248 404.537720,439.087524 
	C404.084381,439.323334 403.309784,439.459290 402.383148,439.382385 
z"/>
<path fill="#125592" opacity="1.000000" stroke="none" 
	d="
M376.779694,237.799042 
	C370.672241,240.268799 365.228943,238.081421 360.736908,233.937653 
	C359.377960,232.684036 359.182312,229.371826 359.576874,227.207291 
	C360.128296,224.182190 361.732971,221.349091 362.892090,218.044250 
	C365.017761,213.994095 367.138336,210.333527 369.250549,206.294403 
	C373.813599,199.302460 378.353668,192.667130 382.972809,186.087265 
	C384.655823,183.689819 386.526947,181.424469 388.649292,179.042664 
	C385.003204,187.297180 380.826508,195.522095 377.092804,203.943405 
	C373.544189,211.947266 370.322266,220.080978 370.908173,229.192078 
	C371.170715,233.274567 372.568481,236.176270 376.779694,237.799042 
z"/>
<path fill="#C2E7FC" opacity="1.000000" stroke="none" 
	d="
M700.077515,159.048874 
	C698.984009,158.438431 697.866638,157.984512 696.947205,157.274384 
	C695.369934,156.056198 693.180298,154.924545 692.633362,153.292236 
	C692.158081,151.873840 693.103760,149.193420 694.332886,148.210678 
	C695.562866,147.227310 697.919006,147.585892 699.788330,147.489517 
	C701.316650,147.410751 702.855103,147.528137 704.693604,147.430710 
	C704.986023,148.015335 704.973816,148.727814 704.945435,149.796844 
	C703.799133,152.914017 702.668945,155.674622 701.104858,158.750244 
	C700.671021,159.065262 700.273376,159.172409 700.273376,159.172409 
	C700.273376,159.172409 700.142761,159.090134 700.077515,159.048874 
z"/>
<path fill="#C5EAFF" opacity="1.000000" stroke="none" 
	d="
M700.355469,159.383820 
	C700.273376,159.172409 700.671021,159.065262 700.876221,159.043900 
	C701.153931,159.185425 701.226440,159.348297 701.262329,159.776321 
	C700.916626,159.974319 700.653992,159.825577 700.355469,159.383820 
z"/>
<path fill="#E0F2FE" opacity="1.000000" stroke="none" 
	d="
M611.357849,286.757538 
	C611.013428,287.006744 610.450745,286.963379 609.895142,286.463562 
	C610.314697,286.159760 610.727112,286.312347 611.357849,286.757538 
z"/>
<path fill="#1A2C59" opacity="1.000000" stroke="none" 
	d="
M726.835815,298.223694 
	C726.985657,298.449402 726.867981,298.883484 726.468018,299.515320 
	C726.313293,299.286072 726.440796,298.859070 726.835815,298.223694 
z"/>
<path fill="#236CAD" opacity="1.000000" stroke="none" 
	d="
M460.623230,235.379364 
	C458.698883,235.712738 456.781403,236.125885 455.308624,235.497208 
	C454.592133,235.191330 454.035034,232.362869 454.601929,231.701355 
	C455.460602,230.699326 458.137207,229.772873 458.663940,230.270966 
	C459.834106,231.377548 460.149323,233.388214 460.623230,235.379364 
z"/>
<path fill="#FDB813" opacity="1.000000" stroke="none" 
	d="
M570.937134,248.980774 
	C570.960754,254.617996 570.884949,260.258148 571.049072,265.891296 
	C571.133423,268.785675 570.285095,270.098175 567.134216,270.039612 
	C558.680481,269.882507 550.221069,269.918060 541.765808,270.024170 
	C539.025452,270.058563 537.856689,269.124939 537.949219,266.291962 
	C538.106079,261.488098 538.025269,256.676453 538.429688,251.467560 
	C539.348511,251.432846 540.274597,251.727249 540.356201,252.175308 
	C541.441467,258.139801 545.651245,258.505646 550.453796,258.036438 
	C552.091919,257.876404 553.778625,257.845825 555.409302,258.040131 
	C562.428162,258.876495 568.557373,258.264587 570.265869,249.685303 
	C570.319397,249.416534 570.705933,249.214127 570.937134,248.980774 
z"/>
<path fill="#E7A300" opacity="1.000000" stroke="none" 
	d="
M570.864990,248.581390 
	C570.705933,249.214127 570.319397,249.416534 570.265869,249.685303 
	C568.557373,258.264587 562.428162,258.876495 555.409302,258.040131 
	C553.778625,257.845825 552.091919,257.876404 550.453796,258.036438 
	C545.651245,258.505646 541.441467,258.139801 540.356201,252.175308 
	C540.274597,251.727249 539.348511,251.432846 538.471252,250.996078 
	C537.951477,248.793457 537.949524,246.915344 540.979736,246.939667 
	C550.258789,247.014191 559.538879,246.957397 568.817688,247.041962 
	C569.479492,247.047989 570.134521,247.784912 570.864990,248.581390 
z"/>
<path fill="#FBC545" opacity="1.000000" stroke="none" 
	d="
M584.160645,215.435181 
	C587.249146,215.330826 590.237488,215.687653 593.657959,216.079208 
	C594.067200,238.054001 594.099731,259.994293 593.997314,281.933990 
	C593.949219,292.232697 595.585510,290.899719 584.693970,290.985565 
	C584.188965,265.953247 584.124817,240.924789 584.160645,215.435181 
z"/>
<path fill="#059EF8" opacity="1.000000" stroke="none" 
	d="
M618.917480,368.839417 
	C618.433289,382.568207 612.125977,392.471863 599.387329,397.417450 
	C587.686279,401.960205 576.829285,399.684784 567.448242,391.353424 
	C561.056152,385.676544 558.017578,378.273315 557.373840,369.420837 
	C564.011902,368.821014 570.681946,368.618866 577.710449,368.989349 
	C579.569885,375.726990 583.226990,379.051208 588.454773,379.002411 
	C593.906372,378.951569 597.392761,375.499420 598.704224,368.853638 
	C605.317932,368.775818 611.931641,368.697998 618.917480,368.839417 
z"/>
<path fill="#FEFFFF" opacity="1.000000" stroke="none" 
	d="
M598.271240,368.758118 
	C597.392761,375.499420 593.906372,378.951569 588.454773,379.002411 
	C583.226990,379.051208 579.569885,375.726990 578.078979,369.175446 
	C584.672180,368.746826 591.255249,368.704712 598.271240,368.758118 
z"/>
<path fill="#039FFB" opacity="1.000000" stroke="none" 
	d="
M511.604523,450.770752 
	C514.973389,460.295013 511.439789,468.431427 503.243591,470.787201 
	C495.144135,473.115173 487.163879,468.365936 485.369629,460.149994 
	C484.013672,453.940887 487.484131,447.126770 493.321442,444.536926 
	C500.006805,441.570862 506.180267,443.579437 511.604523,450.770752 
z"/>
</svg>