<svg xmlns="http://www.w3.org/2000/svg" xmlns:xlink="http://www.w3.org/1999/xlink" width="500" zoomAndPan="magnify" viewBox="0 0 375 374.999991" height="500" preserveAspectRatio="xMidYMid meet" version="1.0"><defs><g/><clipPath id="93587f5231"><path d="M 79 202 L 129 202 L 129 210.371094 L 79 210.371094 Z M 79 202 " clip-rule="nonzero"/></clipPath><clipPath id="3debfe729b"><path d="M 91 164.621094 L 134.488281 164.621094 L 134.488281 209 L 91 209 Z M 91 164.621094 " clip-rule="nonzero"/></clipPath><clipPath id="21013cf76f"><path d="M 79 206 L 101 206 L 101 210.371094 L 79 210.371094 Z M 79 206 " clip-rule="nonzero"/></clipPath><clipPath id="e674f914f3"><path d="M 74.488281 170 L 112 170 L 112 206 L 74.488281 206 Z M 74.488281 170 " clip-rule="nonzero"/></clipPath></defs><g clip-path="url(#93587f5231)"><path fill="#e07634" d="M 106.660156 205.863281 C 105.949219 205.609375 105.238281 205.351562 104.527344 205.097656 C 104.046875 204.925781 103.5625 204.753906 103.082031 204.589844 C 102.777344 204.484375 102.46875 204.378906 102.164062 204.277344 C 101.492188 204.050781 100.816406 203.835938 100.144531 203.632812 C 98.878906 203.253906 97.617188 202.925781 96.355469 202.683594 C 95.648438 202.546875 94.945312 202.4375 94.242188 202.359375 C 92.949219 202.21875 91.65625 202.1875 90.367188 202.300781 C 89.660156 202.363281 88.957031 202.46875 88.25 202.625 C 87.25 202.847656 86.25 203.167969 85.25 203.609375 C 84.617188 203.890625 83.988281 204.21875 83.355469 204.597656 C 83.128906 204.730469 82.902344 204.875 82.675781 205.023438 C 82.097656 205.40625 81.523438 205.832031 80.949219 206.304688 C 80.34375 206.804688 79.738281 207.359375 79.132812 207.96875 C 87.84375 202.632812 94.433594 203.503906 100.539062 205.566406 C 100.851562 205.667969 101.160156 205.777344 101.46875 205.886719 C 102.011719 206.082031 102.550781 206.285156 103.089844 206.492188 C 104.546875 207.046875 105.988281 207.632812 107.4375 208.175781 C 109.730469 209.035156 112.046875 209.785156 114.480469 210.148438 C 118.722656 210.773438 123.316406 210.210938 128.753906 206.949219 C 127.019531 207.882812 125.285156 208.464844 123.554688 208.773438 C 118.746094 209.632812 113.960938 208.386719 109.203125 206.761719 C 108.429688 206.496094 107.65625 206.222656 106.886719 205.945312 Z M 106.660156 205.863281 " fill-opacity="1" fill-rule="evenodd"/></g><g clip-path="url(#3debfe729b)"><path fill="#6cdc45" d="M 125.140625 191.175781 C 125.054688 190.914062 124.976562 190.652344 124.898438 190.390625 C 124.984375 190.636719 125.066406 190.902344 125.140625 191.175781 Z M 111.667969 203.15625 C 110.933594 203.117188 110.207031 203.113281 109.484375 203.140625 C 109.101562 203.152344 108.71875 203.175781 108.339844 203.207031 C 107.375 203.289062 106.425781 203.429688 105.488281 203.628906 C 104.675781 203.796875 103.875 204.011719 103.082031 204.265625 C 103.5625 204.433594 104.046875 204.601562 104.527344 204.773438 C 105.238281 205.027344 105.949219 205.285156 106.660156 205.542969 L 106.886719 205.621094 C 107.65625 205.898438 108.429688 206.171875 109.203125 206.4375 C 113.960938 208.0625 118.75 209.308594 123.554688 208.449219 C 121.960938 206.460938 119.054688 204.71875 115.40625 203.652344 C 117.613281 198.070312 120.097656 194.132812 123.324219 190.710938 C 122.839844 191.609375 122.457031 192.484375 122.160156 193.328125 C 124.105469 192.617188 124.039062 192.820312 121.957031 193.933594 C 121.578125 195.160156 121.382812 196.304688 121.332031 197.347656 C 123.089844 196.632812 123.085938 196.929688 121.324219 198.230469 C 121.355469 199.351562 121.5625 200.324219 121.886719 201.113281 C 122.746094 200.648438 123.425781 200.085938 123.957031 199.460938 C 123.339844 197.621094 122.980469 196.269531 124.652344 198.472656 C 125.132812 197.625 125.40625 196.707031 125.53125 195.777344 C 123.601562 193.148438 123.621094 192.953125 125.589844 195.199219 C 125.691406 193.777344 125.46875 192.363281 125.140625 191.175781 C 125.59375 192.582031 126.144531 193.949219 126.769531 195.269531 C 128.113281 192.234375 127.617188 193.980469 127.066406 195.878906 C 127.683594 197.117188 128.367188 198.308594 129.105469 199.425781 C 129.679688 196.3125 129.6875 197.203125 129.433594 199.917969 C 129.871094 200.554688 130.324219 201.167969 130.789062 201.75 C 131.128906 200.398438 131.558594 198.660156 131.394531 196.867188 C 128.878906 194.8125 128.851562 194.589844 131.308594 196.207031 C 131.050781 194.753906 130.355469 193.292969 128.863281 191.996094 C 127.046875 191.378906 126.097656 191.007812 128.226562 191.484375 C 127.328125 190.828125 126.195312 190.21875 124.78125 189.6875 C 126.277344 189.582031 127.578125 190.230469 128.976562 190.707031 C 129.082031 190.253906 128.929688 189.738281 128.90625 189.253906 C 129.34375 189.902344 129.5625 190.652344 129.765625 191.410156 C 130.457031 191.710938 131.019531 192.042969 131.875 192.464844 C 131.691406 191.789062 131.472656 190.960938 131.292969 190.285156 C 131.773438 191.066406 132.34375 191.957031 132.460938 193.191406 C 133.167969 193.519531 133.472656 193.71875 134.484375 194.25 C 132.960938 189.113281 128.601562 186.949219 124.878906 188.957031 C 129.027344 186.183594 128.28125 181.675781 127.941406 181.074219 C 126.0625 181.921875 125.851562 184.671875 125.710938 186.492188 C 125.347656 185.554688 125.324219 183.207031 125.761719 181.796875 C 125.34375 182.488281 124.8125 183.929688 124.367188 184.824219 C 124.226562 185.101562 124.125 185.105469 124.300781 185.351562 C 124.625 185.804688 124.679688 186.363281 124.894531 186.855469 L 123.867188 185.464844 L 123.460938 188.140625 C 123.882812 184 119.597656 180.820312 115.441406 181.25 C 116.183594 181.753906 116.894531 182.261719 117.5625 182.789062 C 122.253906 183.703125 118.167969 183.269531 118.453125 183.519531 C 119.070312 184.050781 119.644531 184.605469 120.179688 185.199219 C 122.289062 185.710938 122.257812 185.582031 120.894531 186.050781 C 121.523438 186.863281 122.078125 187.742188 122.535156 188.714844 C 121.136719 187.027344 119.476562 185.941406 117.6875 185.328125 C 116.816406 183.78125 115.507812 182.347656 113.71875 181.140625 C 113.023438 180.671875 112.257812 180.238281 111.417969 179.84375 C 112.027344 180.058594 112.660156 180.242188 113.308594 180.40625 C 115.363281 180.917969 117.601562 181.179688 119.863281 181.246094 C 118.785156 178.65625 118.757812 177.992188 121.117188 181.261719 C 122.402344 181.261719 123.6875 181.195312 124.941406 181.078125 C 122.71875 177.96875 123.207031 177.878906 126.183594 180.945312 C 127.390625 180.796875 128.558594 180.605469 129.660156 180.371094 C 124.375 176.527344 117.863281 174.636719 111.367188 177.628906 C 111.097656 177.753906 110.828125 177.886719 110.5625 178.027344 C 110.777344 177.828125 111 177.640625 111.21875 177.457031 C 112.195312 176.648438 113.222656 175.953125 114.292969 175.351562 C 112.710938 173.945312 112.601562 174.097656 115.742188 174.605469 C 116.796875 174.105469 117.894531 173.683594 119.023438 173.3125 C 119.554688 173.140625 113.785156 171.402344 120.644531 172.828125 C 121.851562 172.496094 123.097656 172.210938 124.382812 171.953125 C 119.226562 169.132812 112.035156 170.734375 109.882812 176.019531 C 109.789062 176.246094 109.707031 176.476562 109.632812 176.71875 L 109.824219 175.964844 L 110.605469 172.875 L 108.425781 174.171875 C 108.996094 173.625 109.386719 172.902344 110.082031 172.472656 C 110.460938 172.242188 110.324219 172.179688 110.292969 171.722656 C 110.195312 170.261719 110.292969 168.011719 110.121094 166.835938 C 109.914062 168.992188 108.550781 172.152344 107.523438 173.214844 C 108.371094 170.675781 109.648438 166.835938 107.589844 164.621094 C 106.976562 165.09375 104.777344 168.476562 105.515625 172.746094 C 105.695312 173.792969 106.054688 174.894531 106.65625 176.019531 C 106.832031 176.347656 107.027344 176.679688 107.246094 177.011719 C 105.445312 174.78125 102.949219 173.679688 100.296875 173.746094 C 100.1875 173.746094 100.074219 173.753906 99.960938 173.757812 C 99.183594 173.808594 98.398438 173.953125 97.613281 174.199219 C 97.191406 174.332031 96.773438 174.492188 96.355469 174.679688 C 95.640625 175.003906 94.933594 175.414062 94.242188 175.90625 C 93.199219 176.652344 92.191406 177.589844 91.261719 178.726562 C 92.746094 178.601562 93.328125 178.507812 94.242188 178.460938 L 94.605469 178.445312 C 95.089844 177.535156 95.710938 176.859375 96.355469 176.296875 C 96.847656 175.875 97.355469 175.515625 97.828125 175.179688 C 97.375 175.761719 96.851562 176.445312 96.355469 177.085938 L 95.808594 177.796875 C 96 177.785156 96.179688 177.773438 96.355469 177.757812 C 97.460938 177.675781 98.300781 177.578125 99.253906 177.566406 L 99.539062 177.199219 C 100.007812 176.605469 100.5 176.039062 101.074219 175.558594 C 101.253906 175.40625 101.441406 175.265625 101.640625 175.136719 C 101.523438 175.382812 101.375 175.625 101.234375 175.867188 C 101.007812 176.257812 100.792969 176.648438 100.71875 177.0625 C 101.089844 177.089844 101.457031 177.105469 101.824219 177.121094 C 102.839844 177.164062 103.839844 177.199219 104.8125 177.371094 C 105.550781 177.5 106.269531 177.710938 106.96875 178.066406 C 106.417969 178.042969 105.886719 178.039062 105.375 178.050781 C 104.261719 178.074219 103.242188 178.171875 102.3125 178.332031 C 101.960938 178.394531 101.621094 178.464844 101.296875 178.542969 C 101.800781 178.632812 102.1875 178.707031 102.46875 178.769531 C 103.289062 178.949219 103.199219 179.011719 102.546875 179 C 102.054688 178.992188 101.242188 178.945312 100.253906 178.875 L 100.144531 178.867188 C 99.128906 179.203125 98.246094 179.632812 97.476562 180.128906 C 96.164062 180.976562 95.1875 182.027344 94.449219 183.175781 C 95.238281 183.027344 95.871094 182.917969 96.355469 182.847656 C 97.894531 182.617188 97.894531 182.757812 96.355469 183.277344 C 95.832031 183.453125 95.125 183.671875 94.242188 183.933594 L 93.953125 184.019531 C 92.933594 185.945312 92.480469 188.042969 92.183594 189.851562 C 92.117188 190.238281 92.0625 190.613281 92.007812 190.96875 C 92.648438 190.617188 93.289062 190.246094 93.929688 189.851562 L 94.242188 189.660156 C 94.453125 189.527344 94.664062 189.394531 94.878906 189.253906 C 96.074219 185.445312 96.589844 184.238281 95.605469 188.777344 C 95.855469 188.609375 96.105469 188.4375 96.355469 188.261719 C 97.726562 187.304688 99.070312 186.257812 100.371094 185.136719 C 100.503906 183.972656 100.636719 182.847656 100.75 182.242188 C 100.859375 181.6875 100.949219 181.566406 101.019531 182.242188 C 101.0625 182.65625 101.097656 183.375 101.117188 184.480469 C 101.296875 184.324219 101.472656 184.164062 101.644531 184.003906 C 102.257812 183.4375 102.863281 182.851562 103.449219 182.253906 L 103.460938 182.242188 C 104.132812 181.558594 104.785156 180.851562 105.417969 180.128906 L 105.636719 179.871094 L 105.441406 180.128906 C 104.953125 180.769531 104.472656 181.476562 104.035156 182.242188 C 103.890625 182.496094 103.746094 182.757812 103.613281 183.027344 C 103.285156 183.671875 102.988281 184.351562 102.75 185.058594 C 103.171875 184.851562 103.546875 184.671875 103.875 184.515625 C 106.207031 183.417969 106.230469 183.578125 103.949219 184.992188 C 103.539062 185.246094 103.058594 185.539062 102.503906 185.871094 C 102.324219 186.527344 102.199219 187.203125 102.136719 187.886719 C 102.078125 188.535156 102.078125 189.191406 102.144531 189.851562 L 102.164062 190.011719 C 103.488281 189.246094 104.136719 189 104.324219 189.109375 C 104.40625 189.152344 104.402344 189.261719 104.335938 189.417969 C 104.144531 189.878906 103.410156 190.757812 102.539062 191.746094 C 102.875 192.796875 103.40625 193.84375 104.183594 194.871094 C 104.253906 194.96875 104.328125 195.0625 104.40625 195.15625 C 105.210938 194.347656 105.972656 193.28125 106.617188 191.964844 C 106.679688 191.839844 106.742188 191.710938 106.800781 191.578125 C 106.355469 190.828125 106.042969 190.253906 105.863281 189.851562 C 105.445312 188.921875 105.738281 188.921875 106.746094 189.851562 C 106.90625 190.003906 107.089844 190.179688 107.289062 190.378906 C 107.351562 190.207031 107.414062 190.03125 107.472656 189.851562 C 107.902344 188.539062 108.21875 187.054688 108.378906 185.40625 C 106.199219 182.71875 106.222656 182.40625 108.453125 184.472656 C 108.464844 184.265625 108.472656 184.058594 108.480469 183.847656 C 108.515625 182.71875 108.480469 181.527344 108.359375 180.269531 C 108.96875 181.894531 109.496094 183.503906 109.945312 185.140625 L 109.902344 185.152344 L 109.957031 185.191406 C 110.722656 188.003906 111.25 190.902344 111.527344 194.117188 C 111.679688 195.820312 111.757812 197.613281 111.769531 199.523438 C 111.777344 200.59375 111.707031 201.992188 111.667969 203.15625 Z M 123.460938 188.140625 C 123.441406 188.324219 123.414062 188.511719 123.375 188.699219 Z M 111.417969 179.84375 C 110.917969 179.671875 110.4375 179.480469 109.972656 179.269531 C 109.859375 179.21875 109.75 179.167969 109.640625 179.117188 L 109.933594 179.222656 C 110.453125 179.417969 110.945312 179.625 111.417969 179.84375 Z M 109.632812 176.71875 L 109.429688 177.523438 C 109.488281 177.246094 109.554688 176.980469 109.632812 176.71875 Z M 105.640625 179.875 C 105.828125 179.636719 106.015625 179.40625 106.199219 179.191406 L 106.414062 178.949219 L 106.207031 179.199219 C 106.019531 179.425781 105.832031 179.652344 105.640625 179.875 Z M 114.246094 199.613281 C 114.132812 198.386719 114.015625 197.164062 113.878906 195.953125 C 114.363281 196.074219 114.863281 196.074219 115.363281 195.976562 L 115.632812 195.53125 C 117.207031 192.960938 117.136719 193.277344 116.496094 195.609375 C 117 195.382812 117.503906 195.078125 117.996094 194.726562 C 119.921875 190.28125 119.582031 191.476562 118.613281 194.253906 C 119.554688 192.914062 120.359375 192.273438 121.042969 191.714844 C 118.183594 194.570312 116.304688 197.96875 114.421875 201.507812 L 114.25 199.613281 Z M 121.515625 189.636719 C 120.617188 189.671875 119.789062 189.800781 119.039062 190.003906 C 119.027344 189.753906 119.007812 189.507812 118.976562 189.257812 C 119.835938 189.453125 120.6875 189.585938 121.515625 189.636719 Z M 113.699219 194.460938 C 113.589844 193.625 113.46875 192.796875 113.332031 191.96875 C 113.214844 191.261719 113.085938 190.554688 112.941406 189.855469 C 112.703125 188.6875 112.417969 187.523438 112.078125 186.371094 L 112.335938 186.265625 C 112.472656 186.707031 112.605469 187.195312 112.722656 187.734375 L 112.777344 186.890625 C 112.9375 186.976562 113.101562 187.0625 113.265625 187.144531 C 113.273438 187.613281 113.28125 188.136719 113.285156 188.722656 C 113.515625 189.09375 113.75 189.449219 114 189.785156 C 114.261719 190.136719 114.53125 190.46875 114.816406 190.769531 C 115.28125 187.167969 115.363281 186.765625 116.070312 191.46875 C 114.953125 192.355469 114.171875 193.496094 113.734375 194.757812 Z M 113.25 186.484375 C 113.109375 186.574219 112.957031 186.675781 112.78125 186.78125 L 112.832031 186.066406 C 112.980469 186.007812 113.113281 185.957031 113.238281 185.914062 Z M 111.804688 184.8125 L 111.59375 184.835938 C 111.375 184.195312 111.136719 183.558594 110.875 182.921875 C 111.171875 183.476562 111.492188 184.074219 111.804688 184.808594 Z M 113.1875 184.699219 L 112.980469 184.710938 L 112.945312 184.710938 L 112.953125 184.628906 C 113.046875 183.769531 113.125 183.648438 113.1875 184.699219 Z M 122.824219 189.644531 C 122.398438 189.667969 121.960938 189.664062 121.515625 189.636719 C 121.933594 189.617188 122.371094 189.621094 122.824219 189.644531 Z M 122.824219 189.644531 " fill-opacity="1" fill-rule="nonzero"/></g><g clip-path="url(#21013cf76f)"><path fill="#e07634" d="M 100.757812 209.964844 C 96.121094 209.71875 86.796875 202.332031 79.714844 208.769531 C 89.203125 204.367188 91.382812 210.53125 100.757812 209.964844 Z M 100.757812 209.964844 " fill-opacity="1" fill-rule="evenodd"/></g><path fill="#e07634" d="M 106.867188 209 C 104.703125 208.882812 100.351562 205.4375 97.046875 208.441406 C 101.476562 206.386719 102.492188 209.261719 106.867188 209 Z M 106.867188 209 " fill-opacity="1" fill-rule="evenodd"/><path fill="#e07634" d="M 88.554688 205.878906 C 94.609375 203.070312 96 207.007812 101.988281 206.644531 C 99.027344 206.488281 93.074219 201.769531 88.554688 205.878906 Z M 88.554688 205.878906 " fill-opacity="1" fill-rule="evenodd"/><g clip-path="url(#e674f914f3)"><path fill="#5cbbff" d="M 97.023438 173.597656 C 97.164062 173.726562 97.304688 173.867188 97.445312 174.015625 C 97.480469 174.003906 97.511719 173.996094 97.542969 173.984375 C 98.277344 173.753906 99.035156 173.601562 99.800781 173.542969 C 99.78125 173.519531 99.761719 173.496094 99.746094 173.472656 C 99.792969 173.492188 99.839844 173.515625 99.886719 173.539062 C 99.90625 173.539062 99.925781 173.535156 99.945312 173.535156 C 100.0625 173.527344 100.175781 173.523438 100.292969 173.519531 C 102.515625 173.464844 104.558594 174.210938 106.191406 175.605469 C 105.765625 174.707031 105.460938 173.765625 105.289062 172.785156 C 105.28125 172.726562 105.269531 172.664062 105.261719 172.605469 C 104.078125 171.960938 102.824219 171.429688 101.511719 171.023438 C 99.902344 170.523438 98.207031 170.210938 96.460938 170.117188 L 96.460938 170.09375 L 96.355469 170.09375 L 96.355469 170.085938 L 94.242188 170.085938 L 94.242188 170.113281 C 91.761719 170.238281 89.390625 170.800781 87.214844 171.722656 C 83.476562 173.304688 80.296875 175.945312 78.054688 179.265625 C 76.929688 180.929688 76.039062 182.761719 75.429688 184.71875 C 74.820312 186.675781 74.492188 188.757812 74.492188 190.914062 C 74.492188 193.785156 75.078125 196.527344 76.128906 199.019531 C 77.25 201.667969 78.898438 204.03125 80.945312 205.984375 C 81.523438 205.511719 82.097656 205.085938 82.675781 204.703125 C 81.671875 203.785156 80.769531 202.757812 79.988281 201.644531 L 81.769531 201.644531 C 82.238281 202.570312 82.769531 203.449219 83.355469 204.273438 C 83.984375 203.894531 84.617188 203.570312 85.25 203.289062 C 84.867188 202.765625 84.507812 202.21875 84.175781 201.644531 L 88.050781 201.644531 C 88.113281 201.867188 88.183594 202.085938 88.25 202.304688 C 88.953125 202.148438 89.660156 202.039062 90.367188 201.976562 L 90.257812 201.644531 L 94.242188 201.644531 L 94.242188 202.039062 C 94.945312 202.117188 95.648438 202.226562 96.355469 202.359375 L 96.355469 201.644531 L 100.734375 201.644531 C 100.597656 202.078125 100.453125 202.503906 100.296875 202.910156 C 100.25 203.046875 100.195312 203.179688 100.144531 203.3125 C 100.816406 203.511719 101.488281 203.730469 102.164062 203.953125 C 102.449219 203.222656 102.707031 202.449219 102.941406 201.644531 L 106.816406 201.644531 C 106.46875 202.242188 106.09375 202.8125 105.691406 203.355469 C 106.5625 203.183594 107.4375 203.058594 108.320312 202.984375 L 108.484375 202.972656 C 108.746094 202.539062 108.992188 202.097656 109.222656 201.644531 L 110.652344 201.644531 C 110.347656 202.078125 110.023438 202.5 109.683594 202.90625 C 110.285156 202.890625 110.890625 202.894531 111.492188 202.921875 C 111.53125 201.792969 111.546875 200.660156 111.542969 199.527344 L 110.164062 199.527344 C 110.703125 198.128906 111.113281 196.648438 111.378906 195.105469 C 111.355469 194.78125 111.332031 194.460938 111.300781 194.140625 C 111.042969 191.152344 110.542969 188.226562 109.761719 185.332031 L 109.351562 185.050781 L 109.664062 184.976562 C 109.375 183.933594 109.046875 182.898438 108.695312 181.875 C 108.722656 182.535156 108.726562 183.195312 108.703125 183.859375 C 108.695312 184.0625 108.6875 184.265625 108.675781 184.46875 C 109.191406 186.164062 109.511719 187.96875 109.597656 189.855469 L 107.707031 189.855469 C 107.699219 189.878906 107.691406 189.902344 107.683594 189.925781 C 107.625 190.105469 107.566406 190.28125 107.5 190.460938 L 107.378906 190.792969 L 107.128906 190.542969 C 106.953125 190.367188 106.773438 190.191406 106.589844 190.023438 C 106.554688 189.988281 106.488281 189.929688 106.40625 189.855469 L 106.109375 189.855469 C 106.363281 190.402344 106.6875 190.949219 106.992188 191.464844 L 107.054688 191.566406 L 107.003906 191.675781 C 106.960938 191.773438 106.914062 191.871094 106.867188 191.96875 L 109.597656 191.96875 C 109.492188 194.164062 109.082031 196.253906 108.40625 198.179688 C 108.246094 198.640625 108.070312 199.089844 107.878906 199.527344 L 103.472656 199.527344 C 103.773438 198.160156 104 196.710938 104.152344 195.207031 C 104.101562 195.140625 104.050781 195.078125 104.003906 195.011719 C 103.269531 194.042969 102.691406 192.976562 102.324219 191.816406 L 102.285156 191.695312 L 102.367188 191.601562 C 102.757812 191.15625 103.148438 190.707031 103.511719 190.246094 C 103.707031 190 104.003906 189.625 104.125 189.335938 L 104.132812 189.316406 C 103.714844 189.386719 102.5 190.082031 102.277344 190.210938 L 101.976562 190.382812 L 101.917969 189.878906 C 101.917969 189.871094 101.917969 189.863281 101.917969 189.855469 L 96.355469 189.855469 L 96.355469 188.539062 C 96.148438 188.683594 95.9375 188.824219 95.730469 188.964844 L 95.261719 189.28125 L 95.382812 188.730469 C 95.449219 188.421875 95.515625 188.109375 95.582031 187.800781 C 95.414062 188.304688 95.253906 188.816406 95.09375 189.324219 L 95.066406 189.402344 L 95 189.445312 C 94.789062 189.582031 94.574219 189.71875 94.359375 189.851562 L 94.046875 190.046875 C 93.410156 190.4375 92.769531 190.8125 92.113281 191.167969 L 91.714844 191.386719 L 91.78125 190.933594 C 91.835938 190.574219 91.890625 190.214844 91.953125 189.855469 L 88.757812 189.855469 C 88.816406 187.664062 89.042969 185.574219 89.414062 183.652344 C 89.507812 183.167969 89.609375 182.699219 89.714844 182.242188 L 94.242188 182.242188 L 94.242188 183.078125 L 94.257812 183.050781 C 95.007812 181.890625 95.941406 180.910156 97.070312 180.128906 L 96.355469 180.128906 L 96.355469 177.988281 C 96.175781 178 96 178.011719 95.820312 178.023438 L 95.324219 178.054688 L 96.175781 176.949219 L 96.355469 176.714844 L 96.355469 176.601562 C 95.726562 177.167969 95.203125 177.796875 94.800781 178.550781 L 94.742188 178.664062 L 94.253906 178.6875 C 94.25 178.6875 94.246094 178.6875 94.242188 178.6875 L 94.242188 180.128906 L 90.300781 180.128906 C 90.421875 179.753906 90.546875 179.386719 90.679688 179.03125 C 91.0625 177.996094 91.496094 177.054688 91.960938 176.230469 C 92.3125 175.613281 92.679688 175.0625 93.0625 174.582031 C 93.445312 174.097656 93.839844 173.6875 94.242188 173.359375 L 94.242188 175.628906 C 94.878906 175.183594 95.554688 174.796875 96.261719 174.476562 C 96.292969 174.460938 96.324219 174.449219 96.355469 174.433594 L 96.355469 173.054688 C 96.578125 173.214844 96.800781 173.394531 97.023438 173.597656 Z M 96.355469 191.96875 L 102.234375 191.96875 C 102.183594 194.195312 101.949219 196.324219 101.574219 198.277344 C 101.492188 198.699219 101.402344 199.117188 101.308594 199.527344 L 96.355469 199.527344 Z M 94.242188 191.96875 L 94.242188 199.527344 L 89.683594 199.527344 L 89.625 199.265625 C 89.125 197.046875 88.820312 194.578125 88.757812 191.96875 Z M 86.640625 191.96875 C 86.699219 194.332031 86.941406 196.585938 87.34375 198.679688 C 87.398438 198.964844 87.457031 199.246094 87.515625 199.527344 L 83.113281 199.527344 C 83.039062 199.351562 82.964844 199.179688 82.894531 199.003906 C 82.039062 196.859375 81.511719 194.480469 81.398438 191.96875 L 86.644531 191.96875 Z M 87.546875 182.242188 C 87.027344 184.578125 86.710938 187.144531 86.644531 189.855469 L 81.398438 189.855469 C 81.496094 187.664062 81.910156 185.582031 82.578125 183.664062 C 82.746094 183.179688 82.933594 182.703125 83.132812 182.242188 Z M 79.28125 191.96875 C 79.382812 194.402344 79.839844 196.726562 80.589844 198.878906 C 80.667969 199.097656 80.75 199.3125 80.828125 199.527344 L 78.707031 199.527344 C 78.203125 198.558594 77.78125 197.539062 77.449219 196.476562 C 77.003906 195.039062 76.726562 193.53125 76.640625 191.96875 Z M 80.851562 182.242188 C 79.945312 184.582031 79.394531 187.152344 79.28125 189.855469 L 76.640625 189.855469 C 76.761719 187.652344 77.261719 185.558594 78.078125 183.628906 C 78.277344 183.15625 78.5 182.695312 78.734375 182.242188 Z M 90.078125 175.265625 C 89.292969 176.671875 88.625 178.308594 88.089844 180.128906 L 84.207031 180.128906 C 85.273438 178.308594 86.597656 176.734375 88.105469 175.480469 C 89.082031 174.671875 90.136719 173.992188 91.25 173.46875 C 90.835938 174.015625 90.445312 174.617188 90.078125 175.265625 Z M 85.433594 175.0625 C 84 176.511719 82.773438 178.222656 81.796875 180.128906 L 80.027344 180.128906 C 81.339844 178.273438 82.976562 176.664062 84.859375 175.394531 C 85.085938 175.242188 85.316406 175.09375 85.550781 174.949219 Z M 85.433594 175.0625 " fill-opacity="1" fill-rule="evenodd"/></g><g fill="#6c4646" fill-opacity="1"><g transform="translate(144.746169, 198.87531)"><g><path d="M 26.5625 -6.03125 C 26.800781 -6.03125 26.988281 -5.921875 27.125 -5.703125 C 27.257812 -5.492188 27.328125 -5.195312 27.328125 -4.8125 C 27.328125 -4.113281 27.15625 -3.554688 26.8125 -3.140625 C 25.9375 -2.097656 25.054688 -1.289062 24.171875 -0.71875 C 23.296875 -0.144531 22.253906 0.140625 21.046875 0.140625 C 19.867188 0.140625 18.867188 -0.175781 18.046875 -0.8125 C 17.222656 -1.445312 16.441406 -2.53125 15.703125 -4.0625 C 15.109375 -5.289062 14.640625 -6.195312 14.296875 -6.78125 C 13.953125 -7.363281 13.613281 -7.78125 13.28125 -8.03125 C 12.945312 -8.289062 12.535156 -8.445312 12.046875 -8.5 C 11.972656 -8.125 11.765625 -6.929688 11.421875 -4.921875 C 11.273438 -4.023438 11.1875 -3.476562 11.15625 -3.28125 C 10.976562 -2.175781 10.617188 -1.328125 10.078125 -0.734375 C 9.535156 -0.148438 8.710938 0.140625 7.609375 0.140625 C 6.398438 0.140625 5.328125 -0.210938 4.390625 -0.921875 C 3.460938 -1.640625 2.742188 -2.632812 2.234375 -3.90625 C 1.734375 -5.1875 1.484375 -6.640625 1.484375 -8.265625 C 1.484375 -11.296875 2.007812 -13.910156 3.0625 -16.109375 C 4.125 -18.316406 5.609375 -20 7.515625 -21.15625 C 9.421875 -22.320312 11.617188 -22.90625 14.109375 -22.90625 C 15.835938 -22.90625 17.289062 -22.644531 18.46875 -22.125 C 19.644531 -21.601562 20.515625 -20.878906 21.078125 -19.953125 C 21.648438 -19.035156 21.9375 -18 21.9375 -16.84375 C 21.9375 -15.832031 21.695312 -14.84375 21.21875 -13.875 C 20.738281 -12.90625 20.019531 -12.050781 19.0625 -11.3125 C 18.101562 -10.570312 16.9375 -10.023438 15.5625 -9.671875 C 16.4375 -9.429688 17.109375 -9.050781 17.578125 -8.53125 C 18.046875 -8.007812 18.515625 -7.242188 18.984375 -6.234375 C 19.484375 -5.148438 19.984375 -4.351562 20.484375 -3.84375 C 20.984375 -3.34375 21.554688 -3.09375 22.203125 -3.09375 C 22.785156 -3.09375 23.335938 -3.285156 23.859375 -3.671875 C 24.378906 -4.054688 25.035156 -4.71875 25.828125 -5.65625 C 26.046875 -5.90625 26.289062 -6.03125 26.5625 -6.03125 Z M 8.3125 -8.53125 C 7.695312 -8.53125 7.273438 -8.671875 7.046875 -8.953125 C 6.828125 -9.242188 6.71875 -9.570312 6.71875 -9.9375 C 6.71875 -10.375 6.859375 -10.71875 7.140625 -10.96875 C 7.421875 -11.21875 7.738281 -11.34375 8.09375 -11.34375 L 8.765625 -11.34375 C 9.054688 -13.113281 9.328125 -14.640625 9.578125 -15.921875 C 9.816406 -17.097656 10.578125 -17.6875 11.859375 -17.6875 C 12.890625 -17.6875 13.40625 -17.222656 13.40625 -16.296875 C 13.40625 -16.097656 13.394531 -15.945312 13.375 -15.84375 L 12.5625 -11.34375 C 13.539062 -11.394531 14.429688 -11.628906 15.234375 -12.046875 C 16.035156 -12.460938 16.675781 -13.039062 17.15625 -13.78125 C 17.632812 -14.519531 17.875 -15.359375 17.875 -16.296875 C 17.875 -17.429688 17.484375 -18.320312 16.703125 -18.96875 C 15.929688 -19.625 14.796875 -19.953125 13.296875 -19.953125 C 11.523438 -19.953125 9.972656 -19.515625 8.640625 -18.640625 C 7.316406 -17.765625 6.285156 -16.460938 5.546875 -14.734375 C 4.804688 -13.015625 4.4375 -10.921875 4.4375 -8.453125 C 4.4375 -7.296875 4.550781 -6.300781 4.78125 -5.46875 C 5.019531 -4.632812 5.3125 -4.007812 5.65625 -3.59375 C 6 -3.1875 6.328125 -2.984375 6.640625 -2.984375 C 6.867188 -2.984375 7.0625 -3.097656 7.21875 -3.328125 C 7.375 -3.566406 7.492188 -3.945312 7.578125 -4.46875 Z M 8.3125 -8.53125 "/></g></g></g><g fill="#6c4646" fill-opacity="1"><g transform="translate(168.562898, 198.87531)"><g><path d="M 13.375 -6.03125 C 13.613281 -6.03125 13.800781 -5.921875 13.9375 -5.703125 C 14.070312 -5.492188 14.140625 -5.195312 14.140625 -4.8125 C 14.140625 -4.09375 13.96875 -3.535156 13.625 -3.140625 C 12.957031 -2.328125 12.015625 -1.578125 10.796875 -0.890625 C 9.578125 -0.203125 8.269531 0.140625 6.875 0.140625 C 4.976562 0.140625 3.503906 -0.375 2.453125 -1.40625 C 1.410156 -2.4375 0.890625 -3.84375 0.890625 -5.625 C 0.890625 -6.875 1.148438 -8.035156 1.671875 -9.109375 C 2.203125 -10.179688 2.929688 -11.035156 3.859375 -11.671875 C 4.785156 -12.304688 5.835938 -12.625 7.015625 -12.625 C 8.054688 -12.625 8.894531 -12.3125 9.53125 -11.6875 C 10.164062 -11.0625 10.484375 -10.21875 10.484375 -9.15625 C 10.484375 -7.90625 10.035156 -6.832031 9.140625 -5.9375 C 8.242188 -5.050781 6.734375 -4.34375 4.609375 -3.8125 C 5.054688 -2.988281 5.910156 -2.578125 7.171875 -2.578125 C 7.984375 -2.578125 8.910156 -2.859375 9.953125 -3.421875 C 10.992188 -3.992188 11.890625 -4.738281 12.640625 -5.65625 C 12.859375 -5.90625 13.101562 -6.03125 13.375 -6.03125 Z M 6.546875 -9.96875 C 5.878906 -9.96875 5.316406 -9.578125 4.859375 -8.796875 C 4.398438 -8.023438 4.171875 -7.085938 4.171875 -5.984375 L 4.171875 -5.9375 C 5.234375 -6.1875 6.070312 -6.5625 6.6875 -7.0625 C 7.300781 -7.570312 7.609375 -8.160156 7.609375 -8.828125 C 7.609375 -9.171875 7.515625 -9.445312 7.328125 -9.65625 C 7.140625 -9.863281 6.878906 -9.96875 6.546875 -9.96875 Z M 6.546875 -9.96875 "/></g></g></g><g fill="#6c4646" fill-opacity="1"><g transform="translate(179.199229, 198.87531)"><g><path d="M 6.34375 0.734375 C 5.394531 0.734375 4.671875 0.515625 4.171875 0.078125 C 3.679688 -0.347656 3.4375 -0.832031 3.4375 -1.375 C 3.4375 -1.84375 3.609375 -2.25 3.953125 -2.59375 C 4.296875 -2.9375 4.800781 -3.109375 5.46875 -3.109375 C 5.707031 -3.109375 5.984375 -3.085938 6.296875 -3.046875 C 6.609375 -3.003906 6.847656 -2.972656 7.015625 -2.953125 C 6.992188 -3.421875 6.890625 -3.863281 6.703125 -4.28125 C 6.515625 -4.695312 6.273438 -5.097656 5.984375 -5.484375 C 5.691406 -5.867188 5.421875 -6.207031 5.171875 -6.5 C 4.609375 -5.4375 4.050781 -4.550781 3.5 -3.84375 C 2.957031 -3.132812 2.359375 -2.46875 1.703125 -1.84375 C 1.378906 -1.519531 1.035156 -1.359375 0.671875 -1.359375 C 0.390625 -1.359375 0.160156 -1.460938 -0.015625 -1.671875 C -0.203125 -1.878906 -0.296875 -2.132812 -0.296875 -2.4375 C -0.296875 -2.800781 -0.171875 -3.132812 0.078125 -3.4375 L 0.4375 -3.875 C 1.425781 -5.101562 2.175781 -6.113281 2.6875 -6.90625 C 2.988281 -7.425781 3.347656 -8.125 3.765625 -9 C 4.179688 -9.875 4.585938 -10.78125 4.984375 -11.71875 C 5.328125 -12.519531 6.039062 -12.921875 7.125 -12.921875 C 7.625 -12.921875 7.972656 -12.875 8.171875 -12.78125 C 8.367188 -12.6875 8.46875 -12.539062 8.46875 -12.34375 C 8.46875 -12.238281 8.429688 -12.066406 8.359375 -11.828125 C 8.296875 -11.597656 8.195312 -11.363281 8.0625 -11.125 C 7.738281 -10.476562 7.578125 -9.929688 7.578125 -9.484375 C 7.578125 -9.210938 7.671875 -8.910156 7.859375 -8.578125 C 8.054688 -8.253906 8.351562 -7.847656 8.75 -7.359375 C 9.320312 -6.609375 9.753906 -5.960938 10.046875 -5.421875 C 10.347656 -4.890625 10.5 -4.3125 10.5 -3.6875 C 10.5 -3.5 10.484375 -3.242188 10.453125 -2.921875 C 11.335938 -3.265625 12.375 -4.175781 13.5625 -5.65625 C 13.78125 -5.90625 14.023438 -6.03125 14.296875 -6.03125 C 14.535156 -6.03125 14.722656 -5.921875 14.859375 -5.703125 C 14.992188 -5.492188 15.0625 -5.195312 15.0625 -4.8125 C 15.0625 -4.132812 14.890625 -3.578125 14.546875 -3.140625 C 13.640625 -2.023438 12.773438 -1.265625 11.953125 -0.859375 C 11.128906 -0.453125 10.113281 -0.226562 8.90625 -0.1875 C 8.1875 0.425781 7.332031 0.734375 6.34375 0.734375 Z M 6.34375 0.734375 "/></g></g></g><g fill="#6c4646" fill-opacity="1"><g transform="translate(190.755755, 198.87531)"><g><path d="M 13.375 -6.03125 C 13.613281 -6.03125 13.800781 -5.921875 13.9375 -5.703125 C 14.070312 -5.492188 14.140625 -5.195312 14.140625 -4.8125 C 14.140625 -4.09375 13.96875 -3.535156 13.625 -3.140625 C 12.84375 -2.179688 11.988281 -1.394531 11.0625 -0.78125 C 10.144531 -0.164062 9.09375 0.140625 7.90625 0.140625 C 4.226562 0.140625 2.390625 -2.453125 2.390625 -7.640625 C 2.390625 -8.429688 2.414062 -9.234375 2.46875 -10.046875 L 1.40625 -10.046875 C 0.863281 -10.046875 0.5 -10.144531 0.3125 -10.34375 C 0.125 -10.539062 0.03125 -10.859375 0.03125 -11.296875 C 0.03125 -12.304688 0.4375 -12.8125 1.25 -12.8125 L 2.78125 -12.8125 C 3.09375 -14.789062 3.5625 -16.601562 4.1875 -18.25 C 4.820312 -19.894531 5.585938 -21.203125 6.484375 -22.171875 C 7.378906 -23.148438 8.34375 -23.640625 9.375 -23.640625 C 10.125 -23.640625 10.71875 -23.304688 11.15625 -22.640625 C 11.59375 -21.972656 11.8125 -21.132812 11.8125 -20.125 C 11.8125 -17.320312 10.632812 -14.882812 8.28125 -12.8125 L 11.3125 -12.8125 C 11.601562 -12.8125 11.8125 -12.742188 11.9375 -12.609375 C 12.0625 -12.484375 12.125 -12.253906 12.125 -11.921875 C 12.125 -10.671875 11.109375 -10.046875 9.078125 -10.046875 L 5.765625 -10.046875 C 5.734375 -9.140625 5.71875 -8.4375 5.71875 -7.9375 C 5.71875 -6.0625 5.9375 -4.742188 6.375 -3.984375 C 6.820312 -3.222656 7.519531 -2.84375 8.46875 -2.84375 C 9.25 -2.84375 9.9375 -3.078125 10.53125 -3.546875 C 11.125 -4.015625 11.828125 -4.71875 12.640625 -5.65625 C 12.859375 -5.90625 13.101562 -6.03125 13.375 -6.03125 Z M 8.640625 -21.046875 C 8.367188 -21.046875 8.066406 -20.707031 7.734375 -20.03125 C 7.398438 -19.351562 7.082031 -18.410156 6.78125 -17.203125 C 6.488281 -16.003906 6.238281 -14.675781 6.03125 -13.21875 C 7.101562 -14.132812 7.90625 -15.164062 8.4375 -16.3125 C 8.96875 -17.457031 9.234375 -18.5 9.234375 -19.4375 C 9.234375 -20.507812 9.035156 -21.046875 8.640625 -21.046875 Z M 8.640625 -21.046875 "/></g></g></g><g fill="#6c4646" fill-opacity="1"><g transform="translate(201.392086, 198.87531)"><g><path d="M 12.265625 0.140625 C 10.117188 0.140625 8.25 -0.25 6.65625 -1.03125 C 5.070312 -1.820312 3.851562 -2.9375 3 -4.375 C 2.15625 -5.820312 1.734375 -7.503906 1.734375 -9.421875 C 1.734375 -12.078125 2.234375 -14.429688 3.234375 -16.484375 C 4.234375 -18.546875 5.59375 -20.140625 7.3125 -21.265625 C 9.03125 -22.398438 10.9375 -22.96875 13.03125 -22.96875 C 14.976562 -22.96875 16.457031 -22.460938 17.46875 -21.453125 C 18.476562 -20.453125 18.984375 -19.132812 18.984375 -17.5 C 18.984375 -16.394531 18.785156 -15.507812 18.390625 -14.84375 C 18.003906 -14.175781 17.453125 -13.84375 16.734375 -13.84375 C 16.222656 -13.84375 15.820312 -13.957031 15.53125 -14.1875 C 15.25 -14.425781 15.109375 -14.769531 15.109375 -15.21875 C 15.109375 -15.382812 15.144531 -15.679688 15.21875 -16.109375 C 15.320312 -16.648438 15.375 -17.082031 15.375 -17.40625 C 15.375 -19.050781 14.5 -19.875 12.75 -19.875 C 11.5625 -19.875 10.425781 -19.484375 9.34375 -18.703125 C 8.257812 -17.929688 7.382812 -16.789062 6.71875 -15.28125 C 6.050781 -13.78125 5.71875 -11.988281 5.71875 -9.90625 C 5.71875 -7.738281 6.320312 -6.0625 7.53125 -4.875 C 8.738281 -3.695312 10.523438 -3.109375 12.890625 -3.109375 C 14.066406 -3.109375 15.253906 -3.253906 16.453125 -3.546875 C 17.648438 -3.847656 18.976562 -4.304688 20.4375 -4.921875 C 20.707031 -5.035156 20.9375 -5.09375 21.125 -5.09375 C 21.40625 -5.09375 21.617188 -4.984375 21.765625 -4.765625 C 21.910156 -4.546875 21.984375 -4.265625 21.984375 -3.921875 C 21.984375 -2.828125 21.390625 -2.015625 20.203125 -1.484375 C 18.921875 -0.929688 17.585938 -0.519531 16.203125 -0.25 C 14.828125 0.0078125 13.515625 0.140625 12.265625 0.140625 Z M 12.265625 0.140625 "/></g></g></g><g fill="#6c4646" fill-opacity="1"><g transform="translate(219.95831, 198.87531)"><g><path d="M 15.109375 -8.3125 C 15.347656 -8.3125 15.53125 -8.191406 15.65625 -7.953125 C 15.78125 -7.722656 15.84375 -7.425781 15.84375 -7.0625 C 15.84375 -6.195312 15.582031 -5.6875 15.0625 -5.53125 C 13.976562 -5.144531 12.785156 -4.925781 11.484375 -4.875 C 11.140625 -3.351562 10.460938 -2.132812 9.453125 -1.21875 C 8.441406 -0.3125 7.296875 0.140625 6.015625 0.140625 C 4.929688 0.140625 4.003906 -0.117188 3.234375 -0.640625 C 2.460938 -1.171875 1.878906 -1.867188 1.484375 -2.734375 C 1.085938 -3.597656 0.890625 -4.535156 0.890625 -5.546875 C 0.890625 -6.921875 1.148438 -8.144531 1.671875 -9.21875 C 2.203125 -10.289062 2.925781 -11.128906 3.84375 -11.734375 C 4.757812 -12.335938 5.78125 -12.640625 6.90625 -12.640625 C 8.28125 -12.640625 9.382812 -12.164062 10.21875 -11.21875 C 11.0625 -10.269531 11.554688 -9.101562 11.703125 -7.71875 C 12.546875 -7.769531 13.554688 -7.953125 14.734375 -8.265625 C 14.878906 -8.296875 15.003906 -8.3125 15.109375 -8.3125 Z M 6.234375 -2.734375 C 6.804688 -2.734375 7.300781 -2.96875 7.71875 -3.4375 C 8.144531 -3.90625 8.429688 -4.582031 8.578125 -5.46875 C 8.023438 -5.84375 7.597656 -6.335938 7.296875 -6.953125 C 6.992188 -7.566406 6.84375 -8.21875 6.84375 -8.90625 C 6.84375 -9.195312 6.875 -9.488281 6.9375 -9.78125 L 6.796875 -9.78125 C 6.078125 -9.78125 5.476562 -9.429688 5 -8.734375 C 4.519531 -8.035156 4.28125 -7.054688 4.28125 -5.796875 C 4.28125 -4.804688 4.472656 -4.046875 4.859375 -3.515625 C 5.242188 -2.992188 5.703125 -2.734375 6.234375 -2.734375 Z M 6.234375 -2.734375 "/></g></g></g><g fill="#6c4646" fill-opacity="1"><g transform="translate(232.164387, 198.87531)"><g><path d="M 3.21875 0.140625 C 2.53125 0.140625 2.046875 -0.21875 1.765625 -0.9375 C 1.492188 -1.664062 1.359375 -2.820312 1.359375 -4.40625 C 1.359375 -6.757812 1.691406 -8.992188 2.359375 -11.109375 C 2.515625 -11.628906 2.773438 -12.007812 3.140625 -12.25 C 3.515625 -12.5 4.039062 -12.625 4.71875 -12.625 C 5.070312 -12.625 5.320312 -12.578125 5.46875 -12.484375 C 5.613281 -12.390625 5.6875 -12.21875 5.6875 -11.96875 C 5.6875 -11.675781 5.550781 -11.023438 5.28125 -10.015625 C 5.101562 -9.296875 4.957031 -8.664062 4.84375 -8.125 C 4.738281 -7.582031 4.648438 -6.914062 4.578125 -6.125 C 5.171875 -7.675781 5.835938 -8.9375 6.578125 -9.90625 C 7.316406 -10.882812 8.039062 -11.582031 8.75 -12 C 9.46875 -12.414062 10.125 -12.625 10.71875 -12.625 C 11.894531 -12.625 12.484375 -12.035156 12.484375 -10.859375 C 12.484375 -10.148438 12.285156 -8.878906 11.890625 -7.046875 C 11.546875 -5.472656 11.375 -4.429688 11.375 -3.921875 C 11.375 -3.203125 11.632812 -2.84375 12.15625 -2.84375 C 12.519531 -2.84375 12.945312 -3.0625 13.4375 -3.5 C 13.9375 -3.945312 14.601562 -4.664062 15.4375 -5.65625 C 15.65625 -5.90625 15.898438 -6.03125 16.171875 -6.03125 C 16.398438 -6.03125 16.582031 -5.921875 16.71875 -5.703125 C 16.851562 -5.492188 16.921875 -5.195312 16.921875 -4.8125 C 16.921875 -4.09375 16.75 -3.535156 16.40625 -3.140625 C 15.632812 -2.179688 14.800781 -1.394531 13.90625 -0.78125 C 13.007812 -0.164062 11.992188 0.140625 10.859375 0.140625 C 9.941406 0.140625 9.242188 -0.125 8.765625 -0.65625 C 8.296875 -1.195312 8.0625 -1.972656 8.0625 -2.984375 C 8.0625 -3.484375 8.191406 -4.382812 8.453125 -5.6875 C 8.679688 -6.820312 8.796875 -7.609375 8.796875 -8.046875 C 8.796875 -8.328125 8.695312 -8.46875 8.5 -8.46875 C 8.269531 -8.46875 7.941406 -8.164062 7.515625 -7.5625 C 7.085938 -6.957031 6.648438 -6.160156 6.203125 -5.171875 C 5.765625 -4.179688 5.410156 -3.132812 5.140625 -2.03125 C 4.941406 -1.1875 4.710938 -0.613281 4.453125 -0.3125 C 4.191406 -0.0078125 3.78125 0.140625 3.21875 0.140625 Z M 3.21875 0.140625 "/></g></g></g><g fill="#6c4646" fill-opacity="1"><g transform="translate(245.588361, 198.87531)"><g><path d="M 3.21875 0.140625 C 2.53125 0.140625 2.046875 -0.21875 1.765625 -0.9375 C 1.492188 -1.664062 1.359375 -2.820312 1.359375 -4.40625 C 1.359375 -6.757812 1.691406 -8.992188 2.359375 -11.109375 C 2.515625 -11.628906 2.773438 -12.007812 3.140625 -12.25 C 3.515625 -12.5 4.039062 -12.625 4.71875 -12.625 C 5.070312 -12.625 5.320312 -12.578125 5.46875 -12.484375 C 5.613281 -12.390625 5.6875 -12.21875 5.6875 -11.96875 C 5.6875 -11.675781 5.550781 -11.023438 5.28125 -10.015625 C 5.101562 -9.296875 4.957031 -8.664062 4.84375 -8.125 C 4.738281 -7.582031 4.648438 -6.914062 4.578125 -6.125 C 5.171875 -7.675781 5.835938 -8.9375 6.578125 -9.90625 C 7.316406 -10.882812 8.039062 -11.582031 8.75 -12 C 9.46875 -12.414062 10.125 -12.625 10.71875 -12.625 C 11.894531 -12.625 12.484375 -12.035156 12.484375 -10.859375 C 12.484375 -10.148438 12.285156 -8.878906 11.890625 -7.046875 C 11.546875 -5.472656 11.375 -4.429688 11.375 -3.921875 C 11.375 -3.203125 11.632812 -2.84375 12.15625 -2.84375 C 12.519531 -2.84375 12.945312 -3.0625 13.4375 -3.5 C 13.9375 -3.945312 14.601562 -4.664062 15.4375 -5.65625 C 15.65625 -5.90625 15.898438 -6.03125 16.171875 -6.03125 C 16.398438 -6.03125 16.582031 -5.921875 16.71875 -5.703125 C 16.851562 -5.492188 16.921875 -5.195312 16.921875 -4.8125 C 16.921875 -4.09375 16.75 -3.535156 16.40625 -3.140625 C 15.632812 -2.179688 14.800781 -1.394531 13.90625 -0.78125 C 13.007812 -0.164062 11.992188 0.140625 10.859375 0.140625 C 9.941406 0.140625 9.242188 -0.125 8.765625 -0.65625 C 8.296875 -1.195312 8.0625 -1.972656 8.0625 -2.984375 C 8.0625 -3.484375 8.191406 -4.382812 8.453125 -5.6875 C 8.679688 -6.820312 8.796875 -7.609375 8.796875 -8.046875 C 8.796875 -8.328125 8.695312 -8.46875 8.5 -8.46875 C 8.269531 -8.46875 7.941406 -8.164062 7.515625 -7.5625 C 7.085938 -6.957031 6.648438 -6.160156 6.203125 -5.171875 C 5.765625 -4.179688 5.410156 -3.132812 5.140625 -2.03125 C 4.941406 -1.1875 4.710938 -0.613281 4.453125 -0.3125 C 4.191406 -0.0078125 3.78125 0.140625 3.21875 0.140625 Z M 3.21875 0.140625 "/></g></g></g><g fill="#6c4646" fill-opacity="1"><g transform="translate(259.012334, 198.87531)"><g><path d="M 13.375 -6.03125 C 13.613281 -6.03125 13.800781 -5.921875 13.9375 -5.703125 C 14.070312 -5.492188 14.140625 -5.195312 14.140625 -4.8125 C 14.140625 -4.09375 13.96875 -3.535156 13.625 -3.140625 C 12.957031 -2.328125 12.015625 -1.578125 10.796875 -0.890625 C 9.578125 -0.203125 8.269531 0.140625 6.875 0.140625 C 4.976562 0.140625 3.503906 -0.375 2.453125 -1.40625 C 1.410156 -2.4375 0.890625 -3.84375 0.890625 -5.625 C 0.890625 -6.875 1.148438 -8.035156 1.671875 -9.109375 C 2.203125 -10.179688 2.929688 -11.035156 3.859375 -11.671875 C 4.785156 -12.304688 5.835938 -12.625 7.015625 -12.625 C 8.054688 -12.625 8.894531 -12.3125 9.53125 -11.6875 C 10.164062 -11.0625 10.484375 -10.21875 10.484375 -9.15625 C 10.484375 -7.90625 10.035156 -6.832031 9.140625 -5.9375 C 8.242188 -5.050781 6.734375 -4.34375 4.609375 -3.8125 C 5.054688 -2.988281 5.910156 -2.578125 7.171875 -2.578125 C 7.984375 -2.578125 8.910156 -2.859375 9.953125 -3.421875 C 10.992188 -3.992188 11.890625 -4.738281 12.640625 -5.65625 C 12.859375 -5.90625 13.101562 -6.03125 13.375 -6.03125 Z M 6.546875 -9.96875 C 5.878906 -9.96875 5.316406 -9.578125 4.859375 -8.796875 C 4.398438 -8.023438 4.171875 -7.085938 4.171875 -5.984375 L 4.171875 -5.9375 C 5.234375 -6.1875 6.070312 -6.5625 6.6875 -7.0625 C 7.300781 -7.570312 7.609375 -8.160156 7.609375 -8.828125 C 7.609375 -9.171875 7.515625 -9.445312 7.328125 -9.65625 C 7.140625 -9.863281 6.878906 -9.96875 6.546875 -9.96875 Z M 6.546875 -9.96875 "/></g></g></g><g fill="#6c4646" fill-opacity="1"><g transform="translate(269.648665, 198.87531)"><g><path d="M 6.46875 0.140625 C 4.695312 0.140625 3.316406 -0.359375 2.328125 -1.359375 C 1.347656 -2.367188 0.859375 -3.691406 0.859375 -5.328125 C 0.859375 -6.796875 1.144531 -8.078125 1.71875 -9.171875 C 2.300781 -10.273438 3.050781 -11.125 3.96875 -11.71875 C 4.894531 -12.320312 5.863281 -12.625 6.875 -12.625 C 7.863281 -12.625 8.632812 -12.328125 9.1875 -11.734375 C 9.738281 -11.148438 10.015625 -10.398438 10.015625 -9.484375 C 10.015625 -8.722656 9.847656 -8.078125 9.515625 -7.546875 C 9.179688 -7.023438 8.742188 -6.765625 8.203125 -6.765625 C 7.859375 -6.765625 7.582031 -6.84375 7.375 -7 C 7.164062 -7.164062 7.0625 -7.394531 7.0625 -7.6875 C 7.0625 -7.8125 7.078125 -7.953125 7.109375 -8.109375 C 7.148438 -8.273438 7.179688 -8.394531 7.203125 -8.46875 C 7.296875 -8.738281 7.34375 -8.992188 7.34375 -9.234375 C 7.34375 -9.460938 7.28125 -9.640625 7.15625 -9.765625 C 7.039062 -9.898438 6.875 -9.96875 6.65625 -9.96875 C 6.238281 -9.96875 5.847656 -9.78125 5.484375 -9.40625 C 5.128906 -9.039062 4.84375 -8.539062 4.625 -7.90625 C 4.414062 -7.269531 4.3125 -6.578125 4.3125 -5.828125 C 4.3125 -3.734375 5.222656 -2.6875 7.046875 -2.6875 C 7.785156 -2.6875 8.582031 -2.929688 9.4375 -3.421875 C 10.289062 -3.921875 11.132812 -4.664062 11.96875 -5.65625 C 12.1875 -5.90625 12.429688 -6.03125 12.703125 -6.03125 C 12.929688 -6.03125 13.113281 -5.921875 13.25 -5.703125 C 13.382812 -5.492188 13.453125 -5.195312 13.453125 -4.8125 C 13.453125 -4.132812 13.28125 -3.578125 12.9375 -3.140625 C 12.09375 -2.097656 11.078125 -1.289062 9.890625 -0.71875 C 8.710938 -0.144531 7.570312 0.140625 6.46875 0.140625 Z M 6.46875 0.140625 "/></g></g></g><g fill="#6c4646" fill-opacity="1"><g transform="translate(279.608387, 198.87531)"><g><path d="M 13.375 -6.03125 C 13.613281 -6.03125 13.800781 -5.921875 13.9375 -5.703125 C 14.070312 -5.492188 14.140625 -5.195312 14.140625 -4.8125 C 14.140625 -4.09375 13.96875 -3.535156 13.625 -3.140625 C 12.84375 -2.179688 11.988281 -1.394531 11.0625 -0.78125 C 10.144531 -0.164062 9.09375 0.140625 7.90625 0.140625 C 4.226562 0.140625 2.390625 -2.453125 2.390625 -7.640625 C 2.390625 -8.429688 2.414062 -9.234375 2.46875 -10.046875 L 1.40625 -10.046875 C 0.863281 -10.046875 0.5 -10.144531 0.3125 -10.34375 C 0.125 -10.539062 0.03125 -10.859375 0.03125 -11.296875 C 0.03125 -12.304688 0.4375 -12.8125 1.25 -12.8125 L 2.78125 -12.8125 C 3.09375 -14.789062 3.5625 -16.601562 4.1875 -18.25 C 4.820312 -19.894531 5.585938 -21.203125 6.484375 -22.171875 C 7.378906 -23.148438 8.34375 -23.640625 9.375 -23.640625 C 10.125 -23.640625 10.71875 -23.304688 11.15625 -22.640625 C 11.59375 -21.972656 11.8125 -21.132812 11.8125 -20.125 C 11.8125 -17.320312 10.632812 -14.882812 8.28125 -12.8125 L 11.3125 -12.8125 C 11.601562 -12.8125 11.8125 -12.742188 11.9375 -12.609375 C 12.0625 -12.484375 12.125 -12.253906 12.125 -11.921875 C 12.125 -10.671875 11.109375 -10.046875 9.078125 -10.046875 L 5.765625 -10.046875 C 5.734375 -9.140625 5.71875 -8.4375 5.71875 -7.9375 C 5.71875 -6.0625 5.9375 -4.742188 6.375 -3.984375 C 6.820312 -3.222656 7.519531 -2.84375 8.46875 -2.84375 C 9.25 -2.84375 9.9375 -3.078125 10.53125 -3.546875 C 11.125 -4.015625 11.828125 -4.71875 12.640625 -5.65625 C 12.859375 -5.90625 13.101562 -6.03125 13.375 -6.03125 Z M 8.640625 -21.046875 C 8.367188 -21.046875 8.066406 -20.707031 7.734375 -20.03125 C 7.398438 -19.351562 7.082031 -18.410156 6.78125 -17.203125 C 6.488281 -16.003906 6.238281 -14.675781 6.03125 -13.21875 C 7.101562 -14.132812 7.90625 -15.164062 8.4375 -16.3125 C 8.96875 -17.457031 9.234375 -18.5 9.234375 -19.4375 C 9.234375 -20.507812 9.035156 -21.046875 8.640625 -21.046875 Z M 8.640625 -21.046875 "/></g></g></g></svg>