<svg xmlns="http://www.w3.org/2000/svg" xmlns:xlink="http://www.w3.org/1999/xlink" width="500" zoomAndPan="magnify" viewBox="0 0 375 374.999991" height="500" preserveAspectRatio="xMidYMid meet" version="1.0"><defs><g/><clipPath id="b1e1eab187"><path d="M 7 211 L 91 211 L 91 225.292969 L 7 225.292969 Z M 7 211 " clip-rule="nonzero"/></clipPath><clipPath id="1646440631"><path d="M 27 149.542969 L 99.75 149.542969 L 99.75 223 L 27 223 Z M 27 149.542969 " clip-rule="nonzero"/></clipPath></defs><g clip-path="url(#b1e1eab187)"><path fill="#e07634" d="M 53.378906 217.964844 C 52.195312 217.542969 51.015625 217.113281 49.835938 216.695312 C 49.039062 216.40625 48.238281 216.125 47.441406 215.851562 C 46.933594 215.675781 46.425781 215.5 45.917969 215.332031 C 44.800781 214.957031 43.683594 214.597656 42.570312 214.265625 C 40.46875 213.632812 38.371094 213.089844 36.28125 212.6875 C 35.109375 212.460938 33.941406 212.28125 32.773438 212.152344 C 30.625 211.917969 28.484375 211.863281 26.347656 212.050781 C 25.175781 212.15625 24.003906 212.332031 22.835938 212.589844 C 21.171875 212.960938 19.511719 213.496094 17.855469 214.226562 C 16.808594 214.691406 15.757812 215.234375 14.710938 215.863281 C 14.335938 216.085938 13.960938 216.324219 13.582031 216.574219 C 12.628906 217.207031 11.671875 217.914062 10.71875 218.699219 C 9.710938 219.527344 8.707031 220.445312 7.707031 221.457031 C 22.160156 212.601562 33.089844 214.046875 43.222656 217.46875 C 43.738281 217.644531 44.25 217.820312 44.761719 218.003906 C 45.664062 218.328125 46.5625 218.664062 47.453125 219.003906 C 49.871094 219.929688 52.261719 220.902344 54.667969 221.800781 C 58.472656 223.226562 62.316406 224.472656 66.347656 225.070312 C 73.386719 226.113281 81.007812 225.179688 90.027344 219.769531 C 87.152344 221.316406 84.277344 222.28125 81.40625 222.792969 C 73.429688 224.21875 65.488281 222.152344 57.59375 219.453125 C 56.3125 219.015625 55.03125 218.5625 53.75 218.101562 L 53.378906 217.96875 Z M 53.378906 217.964844 " fill-opacity="1" fill-rule="evenodd"/></g><g clip-path="url(#1646440631)"><path fill="#6cdc45" d="M 84.035156 193.597656 C 83.898438 193.164062 83.761719 192.730469 83.632812 192.292969 C 83.773438 192.707031 83.910156 193.140625 84.035156 193.597656 Z M 61.683594 213.472656 C 60.464844 213.410156 59.257812 213.402344 58.0625 213.445312 C 57.425781 213.46875 56.792969 213.507812 56.164062 213.558594 C 54.566406 213.695312 52.988281 213.929688 51.429688 214.253906 C 50.085938 214.539062 48.753906 214.890625 47.441406 215.3125 C 48.238281 215.589844 49.039062 215.871094 49.835938 216.15625 C 51.015625 216.578125 52.195312 217.003906 53.378906 217.429688 L 53.75 217.5625 C 55.03125 218.023438 56.3125 218.480469 57.59375 218.917969 C 65.488281 221.613281 73.429688 223.679688 81.40625 222.253906 C 78.761719 218.953125 73.9375 216.0625 67.890625 214.292969 C 71.550781 205.039062 75.667969 198.5 81.023438 192.824219 C 80.222656 194.316406 79.585938 195.769531 79.089844 197.167969 C 82.316406 195.988281 82.207031 196.324219 78.757812 198.175781 C 78.125 200.203125 77.800781 202.109375 77.71875 203.839844 C 80.632812 202.652344 80.628906 203.140625 77.703125 205.304688 C 77.757812 207.160156 78.101562 208.773438 78.636719 210.085938 C 80.066406 209.3125 81.195312 208.378906 82.074219 207.34375 C 81.050781 204.289062 80.453125 202.050781 83.226562 205.699219 C 84.023438 204.296875 84.476562 202.773438 84.683594 201.230469 C 81.484375 196.871094 81.515625 196.546875 84.78125 200.273438 C 84.949219 197.914062 84.582031 195.566406 84.039062 193.597656 C 84.792969 195.925781 85.703125 198.199219 86.738281 200.386719 C 88.972656 195.351562 88.148438 198.246094 87.230469 201.398438 C 88.253906 203.457031 89.390625 205.425781 90.613281 207.28125 C 91.570312 202.117188 91.578125 203.597656 91.160156 208.097656 C 91.882812 209.15625 92.632812 210.171875 93.40625 211.140625 C 93.96875 208.898438 94.683594 206.015625 94.414062 203.039062 C 90.238281 199.628906 90.191406 199.261719 94.269531 201.941406 C 93.84375 199.535156 92.6875 197.109375 90.210938 194.953125 C 87.195312 193.933594 85.621094 193.320312 89.152344 194.109375 C 87.664062 193.019531 85.789062 192.011719 83.441406 191.128906 C 85.921875 190.953125 88.078125 192.03125 90.402344 192.820312 C 90.574219 192.066406 90.324219 191.210938 90.285156 190.40625 C 91.007812 191.484375 91.375 192.726562 91.714844 193.984375 C 92.859375 194.484375 93.792969 195.039062 95.207031 195.734375 C 94.90625 194.617188 94.542969 193.238281 94.246094 192.117188 C 95.042969 193.417969 95.988281 194.890625 96.179688 196.9375 C 97.355469 197.484375 97.859375 197.816406 99.539062 198.695312 C 97.015625 190.171875 89.777344 186.582031 83.605469 189.917969 C 90.484375 185.316406 89.246094 177.835938 88.679688 176.835938 C 85.5625 178.242188 85.214844 182.808594 84.984375 185.824219 C 84.378906 184.269531 84.34375 180.375 85.066406 178.035156 C 84.375 179.1875 83.496094 181.578125 82.753906 183.058594 C 82.519531 183.519531 82.347656 183.527344 82.640625 183.933594 C 83.179688 184.6875 83.269531 185.609375 83.628906 186.429688 L 81.921875 184.125 L 81.25 188.558594 C 81.949219 181.691406 74.84375 176.417969 67.945312 177.128906 C 69.175781 177.964844 70.351562 178.808594 71.464844 179.679688 C 79.246094 181.195312 72.464844 180.484375 72.945312 180.894531 C 73.964844 181.777344 74.921875 182.699219 75.804688 183.679688 C 79.304688 184.527344 79.253906 184.316406 76.992188 185.09375 C 78.035156 186.4375 78.953125 187.898438 79.710938 189.515625 C 77.394531 186.714844 74.640625 184.910156 71.671875 183.890625 C 70.226562 181.328125 68.058594 178.953125 65.085938 176.949219 C 63.9375 176.171875 62.664062 175.449219 61.269531 174.796875 C 62.28125 175.148438 63.328125 175.460938 64.40625 175.726562 C 67.816406 176.578125 71.527344 177.015625 75.277344 177.125 C 73.496094 172.824219 73.449219 171.726562 77.363281 177.152344 C 79.492188 177.144531 81.625 177.039062 83.703125 176.84375 C 80.015625 171.683594 80.824219 171.539062 85.769531 176.625 C 87.769531 176.378906 89.707031 176.058594 91.535156 175.671875 C 82.769531 169.292969 71.960938 166.15625 61.183594 171.125 C 60.738281 171.328125 60.292969 171.546875 59.851562 171.78125 C 60.210938 171.453125 60.574219 171.140625 60.941406 170.835938 C 62.5625 169.492188 64.261719 168.339844 66.035156 167.34375 C 63.414062 165.007812 63.230469 165.265625 68.441406 166.105469 C 70.195312 165.277344 72.011719 164.574219 73.890625 163.960938 C 74.769531 163.675781 65.195312 160.789062 76.578125 163.15625 C 78.578125 162.605469 80.648438 162.132812 82.78125 161.703125 C 74.226562 157.027344 62.292969 159.6875 58.722656 168.449219 C 58.570312 168.828125 58.429688 169.210938 58.308594 169.609375 L 58.625 168.359375 L 59.917969 163.234375 L 56.304688 165.386719 C 57.253906 164.480469 57.902344 163.28125 59.054688 162.570312 C 59.679688 162.179688 59.453125 162.078125 59.402344 161.320312 C 59.238281 158.898438 59.402344 155.167969 59.121094 153.21875 C 58.773438 156.789062 56.515625 162.039062 54.8125 163.796875 C 56.214844 159.585938 58.332031 153.210938 54.914062 149.542969 C 53.90625 150.328125 50.253906 155.933594 51.476562 163.019531 C 51.777344 164.757812 52.371094 166.585938 53.367188 168.453125 C 53.660156 168.996094 53.984375 169.542969 54.347656 170.09375 C 51.359375 166.394531 47.222656 164.570312 42.824219 164.679688 C 42.636719 164.683594 42.449219 164.691406 42.261719 164.703125 C 40.976562 164.78125 39.667969 165.023438 38.367188 165.433594 C 37.667969 165.652344 36.972656 165.917969 36.28125 166.230469 C 35.09375 166.765625 33.921875 167.445312 32.773438 168.261719 C 31.042969 169.5 29.375 171.058594 27.832031 172.945312 C 30.296875 172.734375 31.257812 172.582031 32.773438 172.503906 L 33.375 172.476562 C 34.179688 170.964844 35.210938 169.84375 36.28125 168.914062 C 37.097656 168.210938 37.941406 167.617188 38.726562 167.054688 C 37.972656 168.027344 37.101562 169.160156 36.28125 170.222656 L 35.371094 171.398438 C 35.6875 171.378906 35.992188 171.359375 36.28125 171.335938 C 38.117188 171.203125 39.507812 171.035156 41.085938 171.015625 L 41.558594 170.410156 C 42.339844 169.425781 43.15625 168.480469 44.105469 167.6875 C 44.40625 167.4375 44.71875 167.203125 45.046875 166.984375 C 44.851562 167.394531 44.609375 167.796875 44.375 168.199219 C 44 168.84375 43.640625 169.492188 43.519531 170.183594 C 44.132812 170.226562 44.746094 170.253906 45.355469 170.28125 C 47.039062 170.351562 48.699219 170.40625 50.3125 170.691406 C 51.535156 170.910156 52.730469 171.257812 53.890625 171.84375 C 52.972656 171.8125 52.09375 171.804688 51.246094 171.820312 C 49.394531 171.863281 47.703125 172.023438 46.160156 172.289062 C 45.578125 172.390625 45.019531 172.507812 44.476562 172.636719 C 45.316406 172.785156 45.957031 172.910156 46.421875 173.011719 C 47.78125 173.308594 47.636719 173.414062 46.550781 173.398438 C 45.734375 173.386719 44.382812 173.304688 42.75 173.191406 L 42.566406 173.179688 C 40.878906 173.734375 39.414062 174.445312 38.140625 175.269531 C 35.964844 176.675781 34.34375 178.421875 33.117188 180.320312 C 34.425781 180.078125 35.480469 179.898438 36.28125 179.777344 C 38.832031 179.394531 38.835938 179.632812 36.28125 180.488281 C 35.410156 180.78125 34.238281 181.148438 32.773438 181.585938 L 32.296875 181.726562 C 30.605469 184.917969 29.855469 188.398438 29.355469 191.402344 C 29.25 192.042969 29.15625 192.664062 29.066406 193.25 C 30.128906 192.667969 31.195312 192.050781 32.253906 191.402344 L 32.773438 191.082031 C 33.125 190.863281 33.476562 190.636719 33.828125 190.410156 C 35.8125 184.085938 36.667969 182.089844 35.035156 189.617188 C 35.449219 189.335938 35.867188 189.050781 36.28125 188.761719 C 38.550781 187.171875 40.785156 185.441406 42.945312 183.578125 C 43.164062 181.644531 43.382812 179.78125 43.574219 178.773438 C 43.75 177.855469 43.902344 177.65625 44.019531 178.773438 C 44.089844 179.460938 44.144531 180.65625 44.183594 182.492188 C 44.476562 182.226562 44.765625 181.964844 45.058594 181.695312 C 46.074219 180.757812 47.074219 179.789062 48.050781 178.796875 L 48.070312 178.773438 C 49.183594 177.640625 50.269531 176.46875 51.316406 175.265625 L 51.679688 174.84375 L 51.355469 175.265625 C 50.546875 176.328125 49.75 177.507812 49.023438 178.773438 C 48.78125 179.199219 48.542969 179.632812 48.320312 180.074219 C 47.773438 181.148438 47.289062 182.277344 46.890625 183.445312 C 47.589844 183.105469 48.210938 182.804688 48.757812 182.546875 C 52.625 180.726562 52.664062 180.992188 48.878906 183.339844 C 48.199219 183.757812 47.402344 184.246094 46.480469 184.796875 C 46.183594 185.886719 45.972656 187.003906 45.871094 188.140625 C 45.773438 189.214844 45.773438 190.304688 45.886719 191.402344 L 45.917969 191.667969 C 48.117188 190.394531 49.1875 189.988281 49.5 190.167969 C 49.632812 190.242188 49.632812 190.421875 49.523438 190.683594 C 49.203125 191.441406 47.984375 192.902344 46.542969 194.542969 C 47.09375 196.285156 47.976562 198.023438 49.269531 199.730469 C 49.386719 199.886719 49.507812 200.042969 49.632812 200.199219 C 50.96875 198.859375 52.234375 197.085938 53.304688 194.90625 C 53.40625 194.695312 53.507812 194.480469 53.609375 194.261719 C 52.871094 193.019531 52.351562 192.066406 52.054688 191.402344 C 51.363281 189.855469 51.847656 189.855469 53.515625 191.402344 C 53.785156 191.652344 54.089844 191.941406 54.421875 192.273438 C 54.523438 191.988281 54.625 191.695312 54.722656 191.402344 C 55.4375 189.21875 55.964844 186.757812 56.226562 184.027344 C 52.613281 179.566406 52.652344 179.050781 56.347656 182.476562 C 56.367188 182.132812 56.382812 181.789062 56.394531 181.4375 C 56.457031 179.566406 56.394531 177.589844 56.195312 175.503906 C 57.207031 178.199219 58.085938 180.867188 58.828125 183.585938 L 58.757812 183.601562 L 58.847656 183.667969 C 60.117188 188.332031 60.988281 193.144531 61.453125 198.476562 C 61.703125 201.304688 61.835938 204.273438 61.855469 207.449219 C 61.863281 209.21875 61.75 211.539062 61.6875 213.46875 Z M 81.25 188.558594 C 81.21875 188.867188 81.171875 189.175781 81.109375 189.488281 Z M 61.269531 174.796875 C 60.441406 174.507812 59.640625 174.191406 58.871094 173.84375 C 58.6875 173.757812 58.503906 173.675781 58.320312 173.585938 L 58.808594 173.765625 C 59.667969 174.085938 60.488281 174.433594 61.269531 174.796875 Z M 58.308594 169.613281 L 57.972656 170.945312 C 58.066406 170.488281 58.175781 170.042969 58.308594 169.613281 Z M 51.683594 174.847656 C 51.992188 174.449219 52.304688 174.074219 52.613281 173.714844 L 52.96875 173.308594 L 52.625 173.730469 C 52.3125 174.105469 52 174.476562 51.683594 174.847656 Z M 65.964844 207.597656 C 65.777344 205.558594 65.578125 203.53125 65.351562 201.519531 C 66.15625 201.722656 66.984375 201.722656 67.816406 201.5625 L 68.265625 200.824219 C 70.871094 196.558594 70.757812 197.082031 69.691406 200.953125 C 70.535156 200.578125 71.371094 200.070312 72.183594 199.484375 C 75.375 192.109375 74.816406 194.097656 73.207031 198.703125 C 74.769531 196.484375 76.105469 195.417969 77.238281 194.488281 C 72.496094 199.230469 69.375 204.863281 66.25 210.738281 Z M 78.023438 191.039062 C 76.53125 191.101562 75.160156 191.3125 73.914062 191.652344 C 73.894531 191.242188 73.859375 190.828125 73.8125 190.417969 C 75.238281 190.742188 76.652344 190.957031 78.023438 191.039062 Z M 65.050781 199.050781 C 64.871094 197.664062 64.675781 196.285156 64.445312 194.910156 C 64.253906 193.738281 64.039062 192.570312 63.800781 191.402344 C 63.398438 189.464844 62.929688 187.539062 62.367188 185.625 L 62.792969 185.449219 C 63.019531 186.183594 63.238281 186.992188 63.4375 187.890625 L 63.523438 186.488281 C 63.789062 186.632812 64.0625 186.773438 64.332031 186.910156 C 64.347656 187.6875 64.359375 188.554688 64.371094 189.527344 C 64.746094 190.144531 65.140625 190.734375 65.554688 191.292969 C 65.984375 191.875 66.433594 192.421875 66.90625 192.925781 C 67.679688 186.949219 67.8125 186.28125 68.992188 194.085938 C 67.132812 195.554688 65.839844 197.449219 65.113281 199.542969 Z M 64.3125 185.8125 C 64.078125 185.964844 63.820312 186.128906 63.535156 186.308594 L 63.617188 185.117188 C 63.859375 185.023438 64.082031 184.9375 64.285156 184.863281 Z M 61.910156 183.035156 L 61.558594 183.082031 C 61.199219 182.019531 60.800781 180.960938 60.371094 179.902344 C 60.859375 180.824219 61.394531 181.816406 61.910156 183.035156 Z M 64.207031 182.855469 L 63.863281 182.867188 L 63.800781 182.871094 L 63.816406 182.734375 C 63.96875 181.308594 64.105469 181.109375 64.207031 182.855469 Z M 80.195312 191.058594 C 79.484375 191.09375 78.757812 191.085938 78.023438 191.042969 C 78.71875 191.011719 79.445312 191.019531 80.195312 191.058594 Z M 80.195312 191.058594 " fill-opacity="1" fill-rule="nonzero"/></g><path fill="#e07634" d="M 43.585938 224.769531 C 35.890625 224.363281 20.421875 212.105469 8.671875 222.785156 C 24.414062 215.480469 28.03125 225.710938 43.585938 224.769531 Z M 43.585938 224.769531 " fill-opacity="1" fill-rule="evenodd"/><path fill="#e07634" d="M 53.71875 223.164062 C 50.128906 222.976562 42.910156 217.253906 37.425781 222.238281 C 44.773438 218.832031 46.460938 223.605469 53.71875 223.164062 Z M 53.71875 223.164062 " fill-opacity="1" fill-rule="evenodd"/><path fill="#e07634" d="M 23.335938 217.992188 C 33.386719 213.332031 35.695312 219.859375 45.621094 219.261719 C 40.710938 219 30.835938 211.175781 23.335938 217.992188 Z M 23.335938 217.992188 " fill-opacity="1" fill-rule="evenodd"/><path fill="#5cbbff" d="M 37.390625 164.433594 C 37.625 164.648438 37.855469 164.878906 38.089844 165.128906 C 38.144531 165.109375 38.199219 165.09375 38.253906 165.074219 C 39.46875 164.695312 40.726562 164.441406 41.996094 164.34375 C 41.964844 164.304688 41.933594 164.261719 41.902344 164.222656 C 41.980469 164.257812 42.058594 164.296875 42.136719 164.335938 C 42.171875 164.332031 42.203125 164.332031 42.234375 164.328125 C 42.429688 164.316406 42.621094 164.308594 42.8125 164.304688 C 46.5 164.214844 49.886719 165.453125 52.597656 167.761719 C 51.894531 166.277344 51.386719 164.710938 51.105469 163.085938 C 51.085938 162.984375 51.070312 162.886719 51.054688 162.789062 C 49.089844 161.71875 47.011719 160.832031 44.835938 160.160156 C 42.164062 159.332031 39.355469 158.816406 36.453125 158.660156 L 36.453125 158.617188 L 36.28125 158.621094 L 36.28125 158.609375 L 35.015625 158.609375 L 34.566406 158.605469 L 34.039062 158.609375 L 32.773438 158.609375 L 32.773438 158.65625 C 28.65625 158.859375 24.726562 159.796875 21.113281 161.324219 C 14.914062 163.945312 9.640625 168.324219 5.914062 173.839844 C 4.050781 176.59375 2.574219 179.636719 1.566406 182.886719 C 0.554688 186.132812 0.0117188 189.585938 0.0117188 193.160156 C 0.0117188 197.929688 0.976562 202.476562 2.726562 206.609375 C 4.582031 211 7.320312 214.925781 10.714844 218.164062 C 11.671875 217.378906 12.625 216.671875 13.582031 216.039062 C 11.921875 214.515625 10.425781 212.8125 9.128906 210.964844 L 12.082031 210.964844 C 12.859375 212.5 13.742188 213.957031 14.710938 215.328125 C 15.757812 214.699219 16.804688 214.15625 17.855469 213.691406 C 17.222656 212.828125 16.625 211.914062 16.074219 210.964844 L 22.5 210.964844 C 22.609375 211.332031 22.71875 211.695312 22.832031 212.058594 C 24.003906 211.796875 25.171875 211.621094 26.34375 211.519531 L 26.167969 210.964844 L 32.773438 210.964844 L 32.773438 211.617188 C 33.9375 211.746094 35.109375 211.929688 36.277344 212.152344 L 36.277344 210.964844 L 43.542969 210.964844 C 43.316406 211.6875 43.074219 212.386719 42.824219 213.066406 C 42.738281 213.292969 42.652344 213.511719 42.566406 213.730469 C 43.683594 214.066406 44.796875 214.421875 45.914062 214.796875 C 46.386719 213.582031 46.820312 212.300781 47.207031 210.964844 L 53.636719 210.964844 C 53.058594 211.957031 52.4375 212.902344 51.769531 213.804688 C 53.210938 213.519531 54.667969 213.3125 56.132812 213.1875 L 56.40625 213.164062 C 56.835938 212.449219 57.242188 211.714844 57.628906 210.964844 L 59.996094 210.964844 C 59.492188 211.6875 58.957031 212.386719 58.390625 213.0625 C 59.390625 213.03125 60.394531 213.039062 61.394531 213.085938 C 61.457031 211.210938 61.488281 209.332031 61.476562 207.453125 L 59.191406 207.453125 C 60.082031 205.132812 60.761719 202.675781 61.203125 200.113281 C 61.167969 199.582031 61.125 199.046875 61.078125 198.515625 C 60.644531 193.558594 59.816406 188.703125 58.519531 183.902344 L 57.839844 183.433594 L 58.359375 183.316406 C 57.878906 181.582031 57.339844 179.867188 56.753906 178.167969 C 56.796875 179.261719 56.804688 180.359375 56.765625 181.457031 C 56.753906 181.792969 56.742188 182.132812 56.722656 182.472656 C 57.574219 185.28125 58.105469 188.277344 58.246094 191.40625 L 55.113281 191.40625 C 55.101562 191.445312 55.089844 191.484375 55.078125 191.523438 C 54.980469 191.820312 54.878906 192.117188 54.769531 192.410156 L 54.570312 192.960938 L 54.152344 192.546875 C 53.859375 192.253906 53.5625 191.964844 53.257812 191.683594 C 53.199219 191.628906 53.089844 191.527344 52.953125 191.40625 L 52.464844 191.40625 C 52.882812 192.3125 53.421875 193.222656 53.929688 194.074219 L 54.03125 194.246094 L 53.949219 194.421875 C 53.875 194.585938 53.796875 194.75 53.71875 194.914062 L 58.246094 194.914062 C 58.078125 198.554688 57.390625 202.023438 56.273438 205.214844 C 56.003906 205.980469 55.714844 206.726562 55.402344 207.453125 L 48.089844 207.453125 C 48.585938 205.183594 48.964844 202.78125 49.214844 200.28125 C 49.128906 200.175781 49.046875 200.070312 48.964844 199.960938 C 47.75 198.355469 46.789062 196.585938 46.179688 194.664062 L 46.117188 194.460938 L 46.257812 194.300781 C 46.902344 193.566406 47.550781 192.820312 48.15625 192.054688 C 48.480469 191.644531 48.972656 191.023438 49.171875 190.542969 L 49.183594 190.511719 C 48.492188 190.628906 46.472656 191.78125 46.101562 191.996094 L 45.605469 192.28125 L 45.511719 191.445312 C 45.507812 191.429688 45.507812 191.417969 45.507812 191.402344 L 36.277344 191.402344 L 36.277344 189.222656 C 35.933594 189.460938 35.589844 189.695312 35.242188 189.929688 L 34.464844 190.453125 L 34.664062 189.539062 C 34.777344 189.027344 34.886719 188.511719 34.992188 187.996094 C 34.714844 188.835938 34.449219 189.683594 34.183594 190.527344 L 34.144531 190.65625 L 34.03125 190.730469 C 33.679688 190.957031 33.324219 191.179688 32.96875 191.402344 L 32.449219 191.726562 C 31.394531 192.371094 30.328125 192.992188 29.242188 193.582031 L 28.578125 193.945312 L 28.691406 193.195312 C 28.785156 192.597656 28.875 192 28.972656 191.402344 L 23.675781 191.402344 C 23.773438 187.773438 24.148438 184.304688 24.761719 181.117188 C 24.917969 180.3125 25.085938 179.535156 25.265625 178.773438 L 32.773438 178.773438 L 32.773438 180.164062 L 32.800781 180.121094 C 34.042969 178.195312 35.59375 176.566406 37.464844 175.269531 L 36.28125 175.269531 L 36.28125 171.714844 C 35.984375 171.738281 35.6875 171.757812 35.394531 171.773438 L 34.566406 171.824219 L 35.980469 169.992188 L 36.28125 169.605469 L 36.28125 169.414062 C 35.238281 170.355469 34.371094 171.398438 33.703125 172.652344 L 33.601562 172.839844 L 32.792969 172.878906 C 32.785156 172.878906 32.777344 172.878906 32.773438 172.878906 L 32.773438 175.269531 L 26.234375 175.269531 C 26.433594 174.644531 26.644531 174.039062 26.863281 173.449219 C 27.5 171.730469 28.21875 170.171875 28.988281 168.800781 C 29.574219 167.777344 30.183594 166.859375 30.816406 166.066406 C 31.453125 165.261719 32.109375 164.582031 32.769531 164.039062 L 32.769531 167.804688 C 33.828125 167.066406 34.949219 166.421875 36.125 165.890625 C 36.175781 165.867188 36.226562 165.84375 36.277344 165.820312 L 36.277344 163.535156 C 36.648438 163.796875 37.019531 164.09375 37.386719 164.433594 Z M 36.28125 194.910156 L 46.035156 194.910156 C 45.949219 198.609375 45.5625 202.136719 44.9375 205.378906 C 44.804688 206.082031 44.65625 206.773438 44.496094 207.449219 L 36.28125 207.449219 Z M 32.773438 194.910156 L 32.773438 207.449219 L 25.210938 207.449219 L 25.113281 207.015625 C 24.289062 203.339844 23.78125 199.242188 23.675781 194.910156 Z M 20.164062 194.910156 C 20.257812 198.832031 20.660156 202.574219 21.328125 206.046875 C 21.417969 206.519531 21.515625 206.988281 21.617188 207.449219 L 14.308594 207.449219 C 14.1875 207.164062 14.0625 206.875 13.949219 206.582031 C 12.53125 203.023438 11.652344 199.078125 11.460938 194.910156 L 20.167969 194.910156 Z M 21.664062 178.773438 C 20.804688 182.652344 20.28125 186.910156 20.167969 191.402344 L 11.460938 191.402344 C 11.628906 187.773438 12.3125 184.316406 13.425781 181.132812 C 13.703125 180.328125 14.011719 179.542969 14.34375 178.773438 Z M 7.953125 194.910156 C 8.121094 198.949219 8.875 202.804688 10.125 206.375 C 10.25 206.738281 10.386719 207.09375 10.519531 207.449219 L 7 207.449219 C 6.160156 205.84375 5.460938 204.152344 4.914062 202.390625 C 4.171875 200.007812 3.710938 197.5 3.570312 194.910156 Z M 10.554688 178.773438 C 9.050781 182.65625 8.140625 186.917969 7.953125 191.402344 L 3.570312 191.402344 C 3.769531 187.753906 4.605469 184.277344 5.957031 181.074219 C 6.289062 180.289062 6.65625 179.523438 7.046875 178.773438 Z M 25.867188 167.203125 C 24.5625 169.535156 23.457031 172.25 22.570312 175.269531 L 16.125 175.269531 C 17.890625 172.25 20.089844 169.640625 22.589844 167.558594 C 24.214844 166.214844 25.964844 165.089844 27.808594 164.222656 C 27.121094 165.128906 26.472656 166.125 25.867188 167.203125 Z M 18.160156 166.867188 C 15.78125 169.269531 13.746094 172.105469 12.125 175.269531 L 9.1875 175.269531 C 11.367188 172.191406 14.085938 169.523438 17.207031 167.414062 C 17.585938 167.160156 17.96875 166.914062 18.351562 166.679688 Z M 18.160156 166.867188 " fill-opacity="1" fill-rule="evenodd"/><g fill="#6c4646" fill-opacity="1"><g transform="translate(116.565396, 206.373268)"><g><path d="M 44.0625 -10.015625 C 44.457031 -10.015625 44.765625 -9.832031 44.984375 -9.46875 C 45.210938 -9.113281 45.328125 -8.625 45.328125 -8 C 45.328125 -6.832031 45.039062 -5.90625 44.46875 -5.21875 C 43.03125 -3.476562 41.578125 -2.132812 40.109375 -1.1875 C 38.648438 -0.25 36.914062 0.21875 34.90625 0.21875 C 32.957031 0.21875 31.300781 -0.300781 29.9375 -1.34375 C 28.570312 -2.394531 27.28125 -4.191406 26.0625 -6.734375 C 25.070312 -8.773438 24.289062 -10.28125 23.71875 -11.25 C 23.144531 -12.226562 22.582031 -12.925781 22.03125 -13.34375 C 21.476562 -13.757812 20.796875 -14.015625 19.984375 -14.109375 C 19.867188 -13.472656 19.523438 -11.492188 18.953125 -8.171875 C 18.710938 -6.679688 18.566406 -5.769531 18.515625 -5.4375 C 18.210938 -3.613281 17.609375 -2.210938 16.703125 -1.234375 C 15.804688 -0.265625 14.445312 0.21875 12.625 0.21875 C 10.613281 0.21875 8.835938 -0.367188 7.296875 -1.546875 C 5.753906 -2.734375 4.5625 -4.378906 3.71875 -6.484375 C 2.882812 -8.597656 2.46875 -11.003906 2.46875 -13.703125 C 2.46875 -18.734375 3.34375 -23.070312 5.09375 -26.71875 C 6.851562 -30.375 9.3125 -33.164062 12.46875 -35.09375 C 15.625 -37.03125 19.269531 -38 23.40625 -38 C 26.28125 -38 28.691406 -37.566406 30.640625 -36.703125 C 32.585938 -35.835938 34.03125 -34.640625 34.96875 -33.109375 C 35.914062 -31.578125 36.390625 -29.851562 36.390625 -27.9375 C 36.390625 -26.257812 35.988281 -24.617188 35.1875 -23.015625 C 34.394531 -21.421875 33.207031 -20.007812 31.625 -18.78125 C 30.039062 -17.550781 28.109375 -16.632812 25.828125 -16.03125 C 27.265625 -15.644531 28.375 -15.015625 29.15625 -14.140625 C 29.9375 -13.273438 30.710938 -12.003906 31.484375 -10.328125 C 32.328125 -8.535156 33.160156 -7.21875 33.984375 -6.375 C 34.804688 -5.539062 35.757812 -5.125 36.84375 -5.125 C 37.800781 -5.125 38.710938 -5.441406 39.578125 -6.078125 C 40.441406 -6.722656 41.535156 -7.828125 42.859375 -9.390625 C 43.210938 -9.804688 43.613281 -10.015625 44.0625 -10.015625 Z M 13.796875 -14.15625 C 12.773438 -14.15625 12.078125 -14.394531 11.703125 -14.875 C 11.328125 -15.351562 11.140625 -15.890625 11.140625 -16.484375 C 11.140625 -17.203125 11.367188 -17.769531 11.828125 -18.1875 C 12.296875 -18.613281 12.832031 -18.828125 13.4375 -18.828125 L 14.5625 -18.828125 C 15.039062 -21.753906 15.488281 -24.285156 15.90625 -26.421875 C 16.289062 -28.359375 17.546875 -29.328125 19.671875 -29.328125 C 21.378906 -29.328125 22.234375 -28.566406 22.234375 -27.046875 C 22.234375 -26.710938 22.21875 -26.457031 22.1875 -26.28125 L 20.84375 -18.828125 C 22.457031 -18.910156 23.929688 -19.296875 25.265625 -19.984375 C 26.597656 -20.679688 27.660156 -21.640625 28.453125 -22.859375 C 29.253906 -24.085938 29.65625 -25.484375 29.65625 -27.046875 C 29.65625 -28.929688 29.007812 -30.410156 27.71875 -31.484375 C 26.425781 -32.566406 24.539062 -33.109375 22.0625 -33.109375 C 19.125 -33.109375 16.550781 -32.378906 14.34375 -30.921875 C 12.144531 -29.472656 10.429688 -27.316406 9.203125 -24.453125 C 7.984375 -21.597656 7.375 -18.117188 7.375 -14.015625 C 7.375 -12.097656 7.566406 -10.453125 7.953125 -9.078125 C 8.335938 -7.703125 8.816406 -6.664062 9.390625 -5.96875 C 9.960938 -5.28125 10.5 -4.9375 11 -4.9375 C 11.394531 -4.9375 11.71875 -5.128906 11.96875 -5.515625 C 12.226562 -5.910156 12.429688 -6.539062 12.578125 -7.40625 Z M 13.796875 -14.15625 "/></g></g></g><g fill="#6c4646" fill-opacity="1"><g transform="translate(156.0807, 206.373268)"><g><path d="M 22.1875 -10.015625 C 22.582031 -10.015625 22.890625 -9.832031 23.109375 -9.46875 C 23.335938 -9.113281 23.453125 -8.625 23.453125 -8 C 23.453125 -6.800781 23.164062 -5.875 22.59375 -5.21875 C 21.488281 -3.863281 19.925781 -2.617188 17.90625 -1.484375 C 15.882812 -0.347656 13.71875 0.21875 11.40625 0.21875 C 8.257812 0.21875 5.816406 -0.628906 4.078125 -2.328125 C 2.347656 -4.035156 1.484375 -6.375 1.484375 -9.34375 C 1.484375 -11.40625 1.914062 -13.328125 2.78125 -15.109375 C 3.65625 -16.898438 4.863281 -18.316406 6.40625 -19.359375 C 7.945312 -20.410156 9.691406 -20.9375 11.640625 -20.9375 C 13.367188 -20.9375 14.757812 -20.414062 15.8125 -19.375 C 16.863281 -18.34375 17.390625 -16.945312 17.390625 -15.1875 C 17.390625 -13.113281 16.644531 -11.335938 15.15625 -9.859375 C 13.675781 -8.378906 11.171875 -7.203125 7.640625 -6.328125 C 8.390625 -4.953125 9.8125 -4.265625 11.90625 -4.265625 C 13.25 -4.265625 14.78125 -4.734375 16.5 -5.671875 C 18.226562 -6.617188 19.722656 -7.859375 20.984375 -9.390625 C 21.335938 -9.804688 21.738281 -10.015625 22.1875 -10.015625 Z M 10.875 -16.53125 C 9.757812 -16.53125 8.820312 -15.882812 8.0625 -14.59375 C 7.300781 -13.3125 6.921875 -11.753906 6.921875 -9.921875 L 6.921875 -9.84375 C 8.679688 -10.257812 10.070312 -10.882812 11.09375 -11.71875 C 12.113281 -12.5625 12.625 -13.535156 12.625 -14.640625 C 12.625 -15.210938 12.46875 -15.671875 12.15625 -16.015625 C 11.84375 -16.359375 11.414062 -16.53125 10.875 -16.53125 Z M 10.875 -16.53125 "/></g></g></g><g fill="#6c4646" fill-opacity="1"><g transform="translate(173.727869, 206.373268)"><g><path d="M 10.515625 1.21875 C 8.953125 1.21875 7.757812 0.859375 6.9375 0.140625 C 6.113281 -0.578125 5.703125 -1.390625 5.703125 -2.296875 C 5.703125 -3.066406 5.984375 -3.738281 6.546875 -4.3125 C 7.117188 -4.882812 7.960938 -5.171875 9.078125 -5.171875 C 9.460938 -5.171875 9.914062 -5.128906 10.4375 -5.046875 C 10.96875 -4.972656 11.367188 -4.921875 11.640625 -4.890625 C 11.609375 -5.671875 11.429688 -6.40625 11.109375 -7.09375 C 10.796875 -7.78125 10.398438 -8.445312 9.921875 -9.09375 C 9.441406 -9.738281 8.992188 -10.300781 8.578125 -10.78125 C 7.648438 -9.007812 6.726562 -7.539062 5.8125 -6.375 C 4.90625 -5.207031 3.910156 -4.101562 2.828125 -3.0625 C 2.285156 -2.519531 1.71875 -2.25 1.125 -2.25 C 0.644531 -2.25 0.253906 -2.421875 -0.046875 -2.765625 C -0.347656 -3.109375 -0.5 -3.535156 -0.5 -4.046875 C -0.5 -4.640625 -0.285156 -5.191406 0.140625 -5.703125 L 0.71875 -6.421875 C 2.363281 -8.460938 3.609375 -10.140625 4.453125 -11.453125 C 4.960938 -12.328125 5.5625 -13.488281 6.25 -14.9375 C 6.9375 -16.382812 7.609375 -17.890625 8.265625 -19.453125 C 8.835938 -20.765625 10.019531 -21.421875 11.8125 -21.421875 C 12.65625 -21.421875 13.238281 -21.347656 13.5625 -21.203125 C 13.894531 -21.054688 14.0625 -20.816406 14.0625 -20.484375 C 14.0625 -20.304688 14 -20.019531 13.875 -19.625 C 13.757812 -19.238281 13.597656 -18.851562 13.390625 -18.46875 C 12.847656 -17.382812 12.578125 -16.46875 12.578125 -15.71875 C 12.578125 -15.269531 12.734375 -14.773438 13.046875 -14.234375 C 13.359375 -13.703125 13.847656 -13.03125 14.515625 -12.21875 C 15.472656 -10.957031 16.195312 -9.882812 16.6875 -9 C 17.1875 -8.125 17.4375 -7.160156 17.4375 -6.109375 C 17.4375 -5.804688 17.40625 -5.390625 17.34375 -4.859375 C 18.8125 -5.421875 20.53125 -6.929688 22.5 -9.390625 C 22.863281 -9.804688 23.269531 -10.015625 23.71875 -10.015625 C 24.101562 -10.015625 24.410156 -9.832031 24.640625 -9.46875 C 24.867188 -9.113281 24.984375 -8.625 24.984375 -8 C 24.984375 -6.863281 24.695312 -5.9375 24.125 -5.21875 C 22.625 -3.351562 21.191406 -2.082031 19.828125 -1.40625 C 18.472656 -0.738281 16.789062 -0.375 14.78125 -0.3125 C 13.582031 0.707031 12.160156 1.21875 10.515625 1.21875 Z M 10.515625 1.21875 "/></g></g></g><g fill="#6c4646" fill-opacity="1"><g transform="translate(192.901771, 206.373268)"><g><path d="M 22.1875 -10.015625 C 22.582031 -10.015625 22.890625 -9.832031 23.109375 -9.46875 C 23.335938 -9.113281 23.453125 -8.625 23.453125 -8 C 23.453125 -6.800781 23.164062 -5.875 22.59375 -5.21875 C 21.3125 -3.625 19.90625 -2.316406 18.375 -1.296875 C 16.84375 -0.285156 15.09375 0.21875 13.125 0.21875 C 7.007812 0.21875 3.953125 -4.078125 3.953125 -12.671875 C 3.953125 -13.984375 4 -15.316406 4.09375 -16.671875 L 2.34375 -16.671875 C 1.4375 -16.671875 0.828125 -16.832031 0.515625 -17.15625 C 0.203125 -17.488281 0.046875 -18.015625 0.046875 -18.734375 C 0.046875 -20.410156 0.71875 -21.25 2.0625 -21.25 L 4.625 -21.25 C 5.132812 -24.539062 5.910156 -27.546875 6.953125 -30.265625 C 8.003906 -32.992188 9.269531 -35.164062 10.75 -36.78125 C 12.238281 -38.40625 13.835938 -39.21875 15.546875 -39.21875 C 16.804688 -39.21875 17.796875 -38.660156 18.515625 -37.546875 C 19.234375 -36.441406 19.59375 -35.050781 19.59375 -33.375 C 19.59375 -28.738281 17.644531 -24.695312 13.75 -21.25 L 18.78125 -21.25 C 19.257812 -21.25 19.601562 -21.144531 19.8125 -20.9375 C 20.019531 -20.726562 20.125 -20.335938 20.125 -19.765625 C 20.125 -17.703125 18.429688 -16.671875 15.046875 -16.671875 L 9.5625 -16.671875 C 9.507812 -15.171875 9.484375 -14 9.484375 -13.15625 C 9.484375 -10.039062 9.847656 -7.851562 10.578125 -6.59375 C 11.316406 -5.34375 12.476562 -4.71875 14.0625 -4.71875 C 15.351562 -4.71875 16.488281 -5.101562 17.46875 -5.875 C 18.457031 -6.65625 19.628906 -7.828125 20.984375 -9.390625 C 21.335938 -9.804688 21.738281 -10.015625 22.1875 -10.015625 Z M 14.328125 -34.90625 C 13.878906 -34.90625 13.378906 -34.34375 12.828125 -33.21875 C 12.273438 -32.09375 11.75 -30.535156 11.25 -28.546875 C 10.757812 -26.554688 10.347656 -24.347656 10.015625 -21.921875 C 11.785156 -23.453125 13.109375 -25.164062 13.984375 -27.0625 C 14.867188 -28.96875 15.3125 -30.695312 15.3125 -32.25 C 15.3125 -34.019531 14.984375 -34.90625 14.328125 -34.90625 Z M 14.328125 -34.90625 "/></g></g></g><g fill="#6c4646" fill-opacity="1"><g transform="translate(210.54894, 206.373268)"><g><path d="M 20.34375 0.21875 C 16.78125 0.21875 13.679688 -0.429688 11.046875 -1.734375 C 8.410156 -3.035156 6.390625 -4.882812 4.984375 -7.28125 C 3.578125 -9.675781 2.875 -12.460938 2.875 -15.640625 C 2.875 -20.035156 3.703125 -23.941406 5.359375 -27.359375 C 7.023438 -30.773438 9.28125 -33.414062 12.125 -35.28125 C 14.96875 -37.15625 18.128906 -38.09375 21.609375 -38.09375 C 24.835938 -38.09375 27.289062 -37.257812 28.96875 -35.59375 C 30.644531 -33.9375 31.484375 -31.742188 31.484375 -29.015625 C 31.484375 -27.191406 31.160156 -25.722656 30.515625 -24.609375 C 29.878906 -23.503906 28.960938 -22.953125 27.765625 -22.953125 C 26.921875 -22.953125 26.257812 -23.144531 25.78125 -23.53125 C 25.300781 -23.925781 25.0625 -24.5 25.0625 -25.25 C 25.0625 -25.519531 25.125 -26.015625 25.25 -26.734375 C 25.425781 -27.628906 25.515625 -28.347656 25.515625 -28.890625 C 25.515625 -31.609375 24.0625 -32.96875 21.15625 -32.96875 C 19.175781 -32.96875 17.285156 -32.320312 15.484375 -31.03125 C 13.691406 -29.75 12.242188 -27.859375 11.140625 -25.359375 C 10.035156 -22.859375 9.484375 -19.882812 9.484375 -16.4375 C 9.484375 -12.84375 10.484375 -10.066406 12.484375 -8.109375 C 14.492188 -6.148438 17.460938 -5.171875 21.390625 -5.171875 C 23.328125 -5.171875 25.289062 -5.414062 27.28125 -5.90625 C 29.28125 -6.40625 31.492188 -7.160156 33.921875 -8.171875 C 34.367188 -8.359375 34.742188 -8.453125 35.046875 -8.453125 C 35.523438 -8.453125 35.882812 -8.269531 36.125 -7.90625 C 36.363281 -7.550781 36.484375 -7.085938 36.484375 -6.515625 C 36.484375 -4.691406 35.492188 -3.34375 33.515625 -2.46875 C 31.390625 -1.539062 29.179688 -0.859375 26.890625 -0.421875 C 24.597656 0.00390625 22.414062 0.21875 20.34375 0.21875 Z M 20.34375 0.21875 "/></g></g></g><g fill="#6c4646" fill-opacity="1"><g transform="translate(241.352918, 206.373268)"><g><path d="M 25.0625 -13.796875 C 25.457031 -13.796875 25.757812 -13.597656 25.96875 -13.203125 C 26.175781 -12.816406 26.28125 -12.320312 26.28125 -11.71875 C 26.28125 -10.28125 25.847656 -9.429688 24.984375 -9.171875 C 23.179688 -8.535156 21.203125 -8.175781 19.046875 -8.09375 C 18.472656 -5.570312 17.347656 -3.554688 15.671875 -2.046875 C 13.992188 -0.535156 12.09375 0.21875 9.96875 0.21875 C 8.175781 0.21875 6.640625 -0.210938 5.359375 -1.078125 C 4.085938 -1.941406 3.125 -3.09375 2.46875 -4.53125 C 1.8125 -5.96875 1.484375 -7.523438 1.484375 -9.203125 C 1.484375 -11.484375 1.914062 -13.515625 2.78125 -15.296875 C 3.65625 -17.078125 4.851562 -18.46875 6.375 -19.46875 C 7.90625 -20.476562 9.597656 -20.984375 11.453125 -20.984375 C 13.734375 -20.984375 15.566406 -20.195312 16.953125 -18.625 C 18.347656 -17.050781 19.164062 -15.109375 19.40625 -12.796875 C 20.8125 -12.890625 22.488281 -13.191406 24.4375 -13.703125 C 24.675781 -13.765625 24.882812 -13.796875 25.0625 -13.796875 Z M 10.328125 -4.53125 C 11.285156 -4.53125 12.113281 -4.921875 12.8125 -5.703125 C 13.519531 -6.484375 13.992188 -7.609375 14.234375 -9.078125 C 13.304688 -9.703125 12.59375 -10.523438 12.09375 -11.546875 C 11.601562 -12.566406 11.359375 -13.644531 11.359375 -14.78125 C 11.359375 -15.257812 11.40625 -15.738281 11.5 -16.21875 L 11.28125 -16.21875 C 10.082031 -16.21875 9.082031 -15.640625 8.28125 -14.484375 C 7.488281 -13.335938 7.09375 -11.710938 7.09375 -9.609375 C 7.09375 -7.960938 7.414062 -6.703125 8.0625 -5.828125 C 8.707031 -4.960938 9.460938 -4.53125 10.328125 -4.53125 Z M 10.328125 -4.53125 "/></g></g></g><g fill="#6c4646" fill-opacity="1"><g transform="translate(261.604515, 206.373268)"><g><path d="M 5.34375 0.21875 C 4.207031 0.21875 3.40625 -0.378906 2.9375 -1.578125 C 2.476562 -2.773438 2.25 -4.691406 2.25 -7.328125 C 2.25 -11.210938 2.800781 -14.910156 3.90625 -18.421875 C 4.175781 -19.285156 4.617188 -19.921875 5.234375 -20.328125 C 5.847656 -20.734375 6.707031 -20.9375 7.8125 -20.9375 C 8.414062 -20.9375 8.835938 -20.859375 9.078125 -20.703125 C 9.316406 -20.554688 9.4375 -20.273438 9.4375 -19.859375 C 9.4375 -19.378906 9.210938 -18.300781 8.765625 -16.625 C 8.460938 -15.425781 8.21875 -14.375 8.03125 -13.46875 C 7.851562 -12.570312 7.707031 -11.46875 7.59375 -10.15625 C 8.582031 -12.726562 9.691406 -14.820312 10.921875 -16.4375 C 12.148438 -18.0625 13.351562 -19.21875 14.53125 -19.90625 C 15.71875 -20.59375 16.804688 -20.9375 17.796875 -20.9375 C 19.734375 -20.9375 20.703125 -19.960938 20.703125 -18.015625 C 20.703125 -16.847656 20.375 -14.738281 19.71875 -11.6875 C 19.15625 -9.070312 18.875 -7.347656 18.875 -6.515625 C 18.875 -5.316406 19.304688 -4.71875 20.171875 -4.71875 C 20.765625 -4.71875 21.472656 -5.082031 22.296875 -5.8125 C 23.128906 -6.550781 24.234375 -7.742188 25.609375 -9.390625 C 25.960938 -9.804688 26.363281 -10.015625 26.8125 -10.015625 C 27.207031 -10.015625 27.515625 -9.832031 27.734375 -9.46875 C 27.960938 -9.113281 28.078125 -8.625 28.078125 -8 C 28.078125 -6.800781 27.789062 -5.875 27.21875 -5.21875 C 25.9375 -3.625 24.550781 -2.316406 23.0625 -1.296875 C 21.582031 -0.285156 19.898438 0.21875 18.015625 0.21875 C 16.484375 0.21875 15.328125 -0.21875 14.546875 -1.09375 C 13.773438 -1.976562 13.390625 -3.257812 13.390625 -4.9375 C 13.390625 -5.78125 13.597656 -7.28125 14.015625 -9.4375 C 14.398438 -11.320312 14.59375 -12.625 14.59375 -13.34375 C 14.59375 -13.820312 14.429688 -14.0625 14.109375 -14.0625 C 13.710938 -14.0625 13.160156 -13.554688 12.453125 -12.546875 C 11.753906 -11.546875 11.035156 -10.222656 10.296875 -8.578125 C 9.566406 -6.929688 8.976562 -5.195312 8.53125 -3.375 C 8.207031 -1.96875 7.828125 -1.015625 7.390625 -0.515625 C 6.953125 -0.0234375 6.269531 0.21875 5.34375 0.21875 Z M 5.34375 0.21875 "/></g></g></g><g fill="#6c4646" fill-opacity="1"><g transform="translate(283.876776, 206.373268)"><g><path d="M 5.34375 0.21875 C 4.207031 0.21875 3.40625 -0.378906 2.9375 -1.578125 C 2.476562 -2.773438 2.25 -4.691406 2.25 -7.328125 C 2.25 -11.210938 2.800781 -14.910156 3.90625 -18.421875 C 4.175781 -19.285156 4.617188 -19.921875 5.234375 -20.328125 C 5.847656 -20.734375 6.707031 -20.9375 7.8125 -20.9375 C 8.414062 -20.9375 8.835938 -20.859375 9.078125 -20.703125 C 9.316406 -20.554688 9.4375 -20.273438 9.4375 -19.859375 C 9.4375 -19.378906 9.210938 -18.300781 8.765625 -16.625 C 8.460938 -15.425781 8.21875 -14.375 8.03125 -13.46875 C 7.851562 -12.570312 7.707031 -11.46875 7.59375 -10.15625 C 8.582031 -12.726562 9.691406 -14.820312 10.921875 -16.4375 C 12.148438 -18.0625 13.351562 -19.21875 14.53125 -19.90625 C 15.71875 -20.59375 16.804688 -20.9375 17.796875 -20.9375 C 19.734375 -20.9375 20.703125 -19.960938 20.703125 -18.015625 C 20.703125 -16.847656 20.375 -14.738281 19.71875 -11.6875 C 19.15625 -9.070312 18.875 -7.347656 18.875 -6.515625 C 18.875 -5.316406 19.304688 -4.71875 20.171875 -4.71875 C 20.765625 -4.71875 21.472656 -5.082031 22.296875 -5.8125 C 23.128906 -6.550781 24.234375 -7.742188 25.609375 -9.390625 C 25.960938 -9.804688 26.363281 -10.015625 26.8125 -10.015625 C 27.207031 -10.015625 27.515625 -9.832031 27.734375 -9.46875 C 27.960938 -9.113281 28.078125 -8.625 28.078125 -8 C 28.078125 -6.800781 27.789062 -5.875 27.21875 -5.21875 C 25.9375 -3.625 24.550781 -2.316406 23.0625 -1.296875 C 21.582031 -0.285156 19.898438 0.21875 18.015625 0.21875 C 16.484375 0.21875 15.328125 -0.21875 14.546875 -1.09375 C 13.773438 -1.976562 13.390625 -3.257812 13.390625 -4.9375 C 13.390625 -5.78125 13.597656 -7.28125 14.015625 -9.4375 C 14.398438 -11.320312 14.59375 -12.625 14.59375 -13.34375 C 14.59375 -13.820312 14.429688 -14.0625 14.109375 -14.0625 C 13.710938 -14.0625 13.160156 -13.554688 12.453125 -12.546875 C 11.753906 -11.546875 11.035156 -10.222656 10.296875 -8.578125 C 9.566406 -6.929688 8.976562 -5.195312 8.53125 -3.375 C 8.207031 -1.96875 7.828125 -1.015625 7.390625 -0.515625 C 6.953125 -0.0234375 6.269531 0.21875 5.34375 0.21875 Z M 5.34375 0.21875 "/></g></g></g><g fill="#6c4646" fill-opacity="1"><g transform="translate(306.149037, 206.373268)"><g><path d="M 22.1875 -10.015625 C 22.582031 -10.015625 22.890625 -9.832031 23.109375 -9.46875 C 23.335938 -9.113281 23.453125 -8.625 23.453125 -8 C 23.453125 -6.800781 23.164062 -5.875 22.59375 -5.21875 C 21.488281 -3.863281 19.925781 -2.617188 17.90625 -1.484375 C 15.882812 -0.347656 13.71875 0.21875 11.40625 0.21875 C 8.257812 0.21875 5.816406 -0.628906 4.078125 -2.328125 C 2.347656 -4.035156 1.484375 -6.375 1.484375 -9.34375 C 1.484375 -11.40625 1.914062 -13.328125 2.78125 -15.109375 C 3.65625 -16.898438 4.863281 -18.316406 6.40625 -19.359375 C 7.945312 -20.410156 9.691406 -20.9375 11.640625 -20.9375 C 13.367188 -20.9375 14.757812 -20.414062 15.8125 -19.375 C 16.863281 -18.34375 17.390625 -16.945312 17.390625 -15.1875 C 17.390625 -13.113281 16.644531 -11.335938 15.15625 -9.859375 C 13.675781 -8.378906 11.171875 -7.203125 7.640625 -6.328125 C 8.390625 -4.953125 9.8125 -4.265625 11.90625 -4.265625 C 13.25 -4.265625 14.78125 -4.734375 16.5 -5.671875 C 18.226562 -6.617188 19.722656 -7.859375 20.984375 -9.390625 C 21.335938 -9.804688 21.738281 -10.015625 22.1875 -10.015625 Z M 10.875 -16.53125 C 9.757812 -16.53125 8.820312 -15.882812 8.0625 -14.59375 C 7.300781 -13.3125 6.921875 -11.753906 6.921875 -9.921875 L 6.921875 -9.84375 C 8.679688 -10.257812 10.070312 -10.882812 11.09375 -11.71875 C 12.113281 -12.5625 12.625 -13.535156 12.625 -14.640625 C 12.625 -15.210938 12.46875 -15.671875 12.15625 -16.015625 C 11.84375 -16.359375 11.414062 -16.53125 10.875 -16.53125 Z M 10.875 -16.53125 "/></g></g></g><g fill="#6c4646" fill-opacity="1"><g transform="translate(323.796206, 206.373268)"><g><path d="M 10.734375 0.21875 C 7.796875 0.21875 5.507812 -0.609375 3.875 -2.265625 C 2.25 -3.929688 1.4375 -6.125 1.4375 -8.84375 C 1.4375 -11.269531 1.914062 -13.394531 2.875 -15.21875 C 3.832031 -17.050781 5.070312 -18.460938 6.59375 -19.453125 C 8.125 -20.441406 9.726562 -20.9375 11.40625 -20.9375 C 13.050781 -20.9375 14.332031 -20.445312 15.25 -19.46875 C 16.164062 -18.5 16.625 -17.25 16.625 -15.71875 C 16.625 -14.46875 16.34375 -13.40625 15.78125 -12.53125 C 15.226562 -11.664062 14.503906 -11.234375 13.609375 -11.234375 C 13.046875 -11.234375 12.585938 -11.367188 12.234375 -11.640625 C 11.890625 -11.910156 11.71875 -12.285156 11.71875 -12.765625 C 11.71875 -12.972656 11.75 -13.207031 11.8125 -13.46875 C 11.875 -13.738281 11.921875 -13.9375 11.953125 -14.0625 C 12.097656 -14.507812 12.171875 -14.925781 12.171875 -15.3125 C 12.171875 -15.707031 12.070312 -16.007812 11.875 -16.21875 C 11.6875 -16.425781 11.410156 -16.53125 11.046875 -16.53125 C 10.359375 -16.53125 9.710938 -16.222656 9.109375 -15.609375 C 8.515625 -14.992188 8.035156 -14.160156 7.671875 -13.109375 C 7.316406 -12.066406 7.140625 -10.914062 7.140625 -9.65625 C 7.140625 -6.1875 8.65625 -4.453125 11.6875 -4.453125 C 12.90625 -4.453125 14.226562 -4.863281 15.65625 -5.6875 C 17.082031 -6.507812 18.484375 -7.742188 19.859375 -9.390625 C 20.210938 -9.804688 20.613281 -10.015625 21.0625 -10.015625 C 21.457031 -10.015625 21.765625 -9.832031 21.984375 -9.46875 C 22.210938 -9.113281 22.328125 -8.625 22.328125 -8 C 22.328125 -6.863281 22.039062 -5.9375 21.46875 -5.21875 C 20.0625 -3.476562 18.378906 -2.132812 16.421875 -1.1875 C 14.460938 -0.25 12.566406 0.21875 10.734375 0.21875 Z M 10.734375 0.21875 "/></g></g></g><g fill="#6c4646" fill-opacity="1"><g transform="translate(340.320785, 206.373268)"><g><path d="M 22.1875 -10.015625 C 22.582031 -10.015625 22.890625 -9.832031 23.109375 -9.46875 C 23.335938 -9.113281 23.453125 -8.625 23.453125 -8 C 23.453125 -6.800781 23.164062 -5.875 22.59375 -5.21875 C 21.3125 -3.625 19.90625 -2.316406 18.375 -1.296875 C 16.84375 -0.285156 15.09375 0.21875 13.125 0.21875 C 7.007812 0.21875 3.953125 -4.078125 3.953125 -12.671875 C 3.953125 -13.984375 4 -15.316406 4.09375 -16.671875 L 2.34375 -16.671875 C 1.4375 -16.671875 0.828125 -16.832031 0.515625 -17.15625 C 0.203125 -17.488281 0.046875 -18.015625 0.046875 -18.734375 C 0.046875 -20.410156 0.71875 -21.25 2.0625 -21.25 L 4.625 -21.25 C 5.132812 -24.539062 5.910156 -27.546875 6.953125 -30.265625 C 8.003906 -32.992188 9.269531 -35.164062 10.75 -36.78125 C 12.238281 -38.40625 13.835938 -39.21875 15.546875 -39.21875 C 16.804688 -39.21875 17.796875 -38.660156 18.515625 -37.546875 C 19.234375 -36.441406 19.59375 -35.050781 19.59375 -33.375 C 19.59375 -28.738281 17.644531 -24.695312 13.75 -21.25 L 18.78125 -21.25 C 19.257812 -21.25 19.601562 -21.144531 19.8125 -20.9375 C 20.019531 -20.726562 20.125 -20.335938 20.125 -19.765625 C 20.125 -17.703125 18.429688 -16.671875 15.046875 -16.671875 L 9.5625 -16.671875 C 9.507812 -15.171875 9.484375 -14 9.484375 -13.15625 C 9.484375 -10.039062 9.847656 -7.851562 10.578125 -6.59375 C 11.316406 -5.34375 12.476562 -4.71875 14.0625 -4.71875 C 15.351562 -4.71875 16.488281 -5.101562 17.46875 -5.875 C 18.457031 -6.65625 19.628906 -7.828125 20.984375 -9.390625 C 21.335938 -9.804688 21.738281 -10.015625 22.1875 -10.015625 Z M 14.328125 -34.90625 C 13.878906 -34.90625 13.378906 -34.34375 12.828125 -33.21875 C 12.273438 -32.09375 11.75 -30.535156 11.25 -28.546875 C 10.757812 -26.554688 10.347656 -24.347656 10.015625 -21.921875 C 11.785156 -23.453125 13.109375 -25.164062 13.984375 -27.0625 C 14.867188 -28.96875 15.3125 -30.695312 15.3125 -32.25 C 15.3125 -34.019531 14.984375 -34.90625 14.328125 -34.90625 Z M 14.328125 -34.90625 "/></g></g></g></svg>