<svg xmlns="http://www.w3.org/2000/svg" xmlns:xlink="http://www.w3.org/1999/xlink" width="500" zoomAndPan="magnify" viewBox="0 0 375 374.999991" height="500" preserveAspectRatio="xMidYMid meet" version="1.0"><defs><g/><clipPath id="42e007456f"><path d="M 133 194 L 159 194 L 159 198.546875 L 133 198.546875 Z M 133 194 " clip-rule="nonzero"/></clipPath><clipPath id="18c88f5b19"><path d="M 139 176.046875 L 161.574219 176.046875 L 161.574219 198 L 139 198 Z M 139 176.046875 " clip-rule="nonzero"/></clipPath><clipPath id="c7adda74bf"><path d="M 134 196 L 145 196 L 145 198.546875 L 134 198.546875 Z M 134 196 " clip-rule="nonzero"/></clipPath><clipPath id="740bf33c1e"><path d="M 131.574219 178 L 150 178 L 150 197 L 131.574219 197 Z M 131.574219 178 " clip-rule="nonzero"/></clipPath></defs><g clip-path="url(#42e007456f)"><path fill="#e07634" d="M 147.398438 196.332031 C 147.046875 196.207031 146.695312 196.078125 146.347656 195.953125 C 146.109375 195.871094 145.875 195.785156 145.636719 195.703125 C 145.488281 195.652344 145.335938 195.601562 145.183594 195.550781 C 144.855469 195.4375 144.523438 195.332031 144.191406 195.234375 C 143.570312 195.046875 142.949219 194.886719 142.328125 194.765625 C 141.980469 194.699219 141.636719 194.644531 141.289062 194.609375 C 140.652344 194.539062 140.015625 194.523438 139.382812 194.578125 C 139.035156 194.609375 138.6875 194.660156 138.34375 194.738281 C 137.851562 194.847656 137.359375 195.007812 136.867188 195.222656 C 136.554688 195.359375 136.246094 195.519531 135.933594 195.707031 C 135.824219 195.773438 135.710938 195.84375 135.601562 195.917969 C 135.316406 196.105469 135.035156 196.316406 134.75 196.546875 C 134.453125 196.792969 134.15625 197.066406 133.859375 197.367188 C 138.144531 194.742188 141.382812 195.167969 144.386719 196.183594 C 144.539062 196.234375 144.691406 196.289062 144.84375 196.34375 C 145.109375 196.4375 145.375 196.539062 145.640625 196.640625 C 146.355469 196.914062 147.066406 197.203125 147.777344 197.46875 C 148.90625 197.890625 150.046875 198.261719 151.242188 198.4375 C 153.328125 198.746094 155.585938 198.46875 158.261719 196.867188 C 157.410156 197.324219 156.554688 197.609375 155.707031 197.761719 C 153.339844 198.183594 150.988281 197.574219 148.648438 196.773438 C 148.265625 196.644531 147.886719 196.507812 147.507812 196.371094 Z M 147.398438 196.332031 " fill-opacity="1" fill-rule="evenodd"/></g><g clip-path="url(#18c88f5b19)"><path fill="#6cdc45" d="M 156.484375 189.109375 C 156.445312 188.980469 156.402344 188.851562 156.367188 188.722656 C 156.40625 188.84375 156.449219 188.972656 156.484375 189.109375 Z M 149.859375 195 C 149.496094 194.980469 149.140625 194.976562 148.785156 194.992188 C 148.597656 194.996094 148.410156 195.007812 148.222656 195.023438 C 147.75 195.066406 147.28125 195.132812 146.820312 195.230469 C 146.421875 195.316406 146.027344 195.421875 145.636719 195.546875 C 145.875 195.628906 146.109375 195.710938 146.347656 195.796875 C 146.695312 195.921875 147.046875 196.046875 147.398438 196.171875 L 147.507812 196.210938 C 147.886719 196.347656 148.265625 196.484375 148.648438 196.613281 C 150.988281 197.414062 153.339844 198.023438 155.707031 197.601562 C 154.921875 196.625 153.492188 195.765625 151.699219 195.242188 C 152.785156 192.5 154.003906 190.5625 155.59375 188.878906 C 155.355469 189.320312 155.164062 189.75 155.019531 190.167969 C 155.976562 189.816406 155.941406 189.914062 154.921875 190.464844 C 154.734375 191.066406 154.636719 191.628906 154.613281 192.144531 C 155.476562 191.792969 155.476562 191.9375 154.609375 192.578125 C 154.625 193.128906 154.726562 193.605469 154.882812 193.996094 C 155.308594 193.765625 155.640625 193.488281 155.902344 193.183594 C 155.601562 192.277344 155.421875 191.613281 156.246094 192.695312 C 156.480469 192.277344 156.617188 191.828125 156.675781 191.371094 C 155.726562 190.078125 155.738281 189.984375 156.707031 191.085938 C 156.753906 190.386719 156.648438 189.691406 156.484375 189.109375 C 156.707031 189.796875 156.980469 190.472656 157.285156 191.121094 C 157.949219 189.628906 157.703125 190.484375 157.429688 191.417969 C 157.734375 192.03125 158.074219 192.613281 158.433594 193.164062 C 158.71875 191.632812 158.722656 192.070312 158.597656 193.40625 C 158.8125 193.71875 159.035156 194.019531 159.261719 194.308594 C 159.429688 193.644531 159.640625 192.789062 159.5625 191.90625 C 158.324219 190.894531 158.308594 190.789062 159.519531 191.582031 C 159.390625 190.867188 159.050781 190.148438 158.316406 189.511719 C 157.421875 189.207031 156.957031 189.023438 158 189.261719 C 157.558594 188.9375 157.003906 188.636719 156.308594 188.375 C 157.042969 188.324219 157.683594 188.644531 158.371094 188.878906 C 158.421875 188.652344 158.347656 188.402344 158.335938 188.160156 C 158.550781 188.480469 158.660156 188.851562 158.761719 189.222656 C 159.101562 189.371094 159.378906 189.535156 159.796875 189.742188 C 159.707031 189.410156 159.601562 189 159.511719 188.667969 C 159.746094 189.054688 160.027344 189.492188 160.085938 190.097656 C 160.433594 190.261719 160.582031 190.359375 161.082031 190.621094 C 160.332031 188.09375 158.1875 187.027344 156.355469 188.015625 C 158.398438 186.652344 158.03125 184.433594 157.863281 184.140625 C 156.9375 184.554688 156.835938 185.910156 156.765625 186.804688 C 156.585938 186.34375 156.574219 185.1875 156.789062 184.496094 C 156.585938 184.835938 156.324219 185.542969 156.105469 185.984375 C 156.035156 186.121094 155.984375 186.121094 156.070312 186.242188 C 156.230469 186.464844 156.257812 186.738281 156.363281 186.984375 L 155.859375 186.300781 L 155.660156 187.613281 C 155.867188 185.578125 153.761719 184.015625 151.714844 184.226562 C 152.078125 184.472656 152.429688 184.722656 152.757812 184.984375 C 155.066406 185.429688 153.054688 185.21875 153.195312 185.34375 C 153.5 185.601562 153.78125 185.875 154.042969 186.167969 C 155.082031 186.417969 155.066406 186.355469 154.394531 186.585938 C 154.707031 186.984375 154.976562 187.417969 155.203125 187.898438 C 154.515625 187.066406 153.699219 186.53125 152.820312 186.230469 C 152.390625 185.472656 151.75 184.765625 150.867188 184.171875 C 150.527344 183.941406 150.148438 183.726562 149.734375 183.535156 C 150.035156 183.640625 150.347656 183.730469 150.664062 183.808594 C 151.675781 184.0625 152.777344 184.191406 153.890625 184.222656 C 153.359375 182.949219 153.347656 182.625 154.507812 184.230469 C 155.136719 184.230469 155.769531 184.199219 156.386719 184.140625 C 155.292969 182.613281 155.535156 182.570312 157 184.074219 C 157.589844 184.003906 158.164062 183.910156 158.707031 183.792969 C 156.109375 181.902344 152.90625 180.972656 149.710938 182.445312 C 149.578125 182.507812 149.445312 182.570312 149.316406 182.640625 C 149.421875 182.542969 149.53125 182.449219 149.640625 182.359375 C 150.121094 181.960938 150.625 181.621094 151.148438 181.324219 C 150.371094 180.632812 150.316406 180.710938 151.863281 180.957031 C 152.382812 180.710938 152.921875 180.503906 153.476562 180.320312 C 153.738281 180.238281 150.898438 179.382812 154.273438 180.085938 C 154.867188 179.921875 155.480469 179.78125 156.113281 179.652344 C 153.578125 178.265625 150.039062 179.054688 148.980469 181.652344 C 148.9375 181.765625 148.894531 181.878906 148.859375 181.996094 L 148.953125 181.625 L 149.335938 180.105469 L 148.265625 180.746094 C 148.546875 180.476562 148.738281 180.121094 149.078125 179.910156 C 149.265625 179.796875 149.199219 179.765625 149.183594 179.539062 C 149.132812 178.820312 149.183594 177.714844 149.097656 177.136719 C 148.996094 178.195312 148.328125 179.753906 147.820312 180.273438 C 148.238281 179.027344 148.863281 177.136719 147.851562 176.046875 C 147.554688 176.28125 146.46875 177.941406 146.832031 180.042969 C 146.921875 180.558594 147.097656 181.101562 147.394531 181.652344 C 147.480469 181.816406 147.578125 181.976562 147.683594 182.140625 C 146.796875 181.042969 145.570312 180.503906 144.269531 180.535156 C 144.210938 180.535156 144.15625 180.539062 144.101562 180.542969 C 143.71875 180.566406 143.332031 180.636719 142.945312 180.757812 C 142.742188 180.824219 142.535156 180.902344 142.328125 180.996094 C 141.976562 181.15625 141.628906 181.355469 141.289062 181.597656 C 140.777344 181.964844 140.28125 182.425781 139.824219 182.984375 C 140.554688 182.921875 140.839844 182.878906 141.289062 182.855469 L 141.46875 182.847656 C 141.707031 182.398438 142.011719 182.066406 142.328125 181.789062 C 142.570312 181.582031 142.820312 181.40625 143.054688 181.238281 C 142.828125 181.527344 142.570312 181.863281 142.328125 182.179688 L 142.058594 182.527344 C 142.152344 182.523438 142.242188 182.515625 142.328125 182.507812 C 142.871094 182.46875 143.285156 182.417969 143.753906 182.414062 L 143.894531 182.234375 C 144.125 181.941406 144.367188 181.664062 144.648438 181.425781 C 144.738281 181.351562 144.828125 181.285156 144.925781 181.21875 C 144.871094 181.339844 144.796875 181.460938 144.726562 181.578125 C 144.617188 181.769531 144.511719 181.960938 144.472656 182.167969 C 144.65625 182.179688 144.839844 182.1875 145.019531 182.195312 C 145.515625 182.21875 146.007812 182.234375 146.488281 182.316406 C 146.851562 182.382812 147.203125 182.484375 147.550781 182.660156 C 147.277344 182.648438 147.015625 182.648438 146.765625 182.652344 C 146.214844 182.664062 145.714844 182.710938 145.257812 182.792969 C 145.085938 182.820312 144.917969 182.855469 144.757812 182.894531 C 145.007812 182.9375 145.195312 182.976562 145.335938 183.003906 C 145.738281 183.09375 145.695312 183.125 145.375 183.121094 C 145.132812 183.117188 144.730469 183.09375 144.246094 183.058594 L 144.191406 183.054688 C 143.691406 183.21875 143.257812 183.429688 142.878906 183.675781 C 142.234375 184.09375 141.753906 184.609375 141.390625 185.171875 C 141.777344 185.101562 142.089844 185.046875 142.328125 185.011719 C 143.085938 184.898438 143.085938 184.96875 142.328125 185.222656 C 142.070312 185.308594 141.722656 185.417969 141.289062 185.546875 L 141.148438 185.589844 C 140.644531 186.535156 140.421875 187.566406 140.277344 188.457031 C 140.246094 188.648438 140.214844 188.832031 140.191406 189.003906 C 140.503906 188.832031 140.820312 188.648438 141.136719 188.457031 L 141.289062 188.363281 C 141.394531 188.296875 141.496094 188.230469 141.601562 188.164062 C 142.191406 186.289062 142.445312 185.695312 141.957031 187.929688 C 142.082031 187.84375 142.207031 187.761719 142.328125 187.675781 C 143 187.203125 143.664062 186.691406 144.304688 186.136719 C 144.371094 185.566406 144.433594 185.011719 144.492188 184.714844 C 144.542969 184.441406 144.589844 184.382812 144.621094 184.714844 C 144.644531 184.917969 144.660156 185.269531 144.671875 185.816406 C 144.757812 185.738281 144.84375 185.660156 144.929688 185.578125 C 145.230469 185.300781 145.527344 185.015625 145.816406 184.71875 L 145.824219 184.714844 C 146.152344 184.378906 146.476562 184.03125 146.785156 183.675781 L 146.894531 183.546875 L 146.796875 183.675781 C 146.558594 183.988281 146.320312 184.335938 146.105469 184.714844 C 146.035156 184.839844 145.964844 184.96875 145.898438 185.097656 C 145.734375 185.417969 145.589844 185.753906 145.472656 186.097656 C 145.679688 185.996094 145.867188 185.910156 146.027344 185.832031 C 147.171875 185.292969 147.183594 185.371094 146.0625 186.066406 C 145.863281 186.191406 145.625 186.335938 145.351562 186.5 C 145.265625 186.824219 145.203125 187.152344 145.171875 187.492188 C 145.144531 187.808594 145.144531 188.132812 145.175781 188.457031 L 145.183594 188.535156 C 145.835938 188.160156 146.15625 188.039062 146.246094 188.089844 C 146.285156 188.113281 146.285156 188.164062 146.253906 188.242188 C 146.160156 188.46875 145.796875 188.902344 145.371094 189.386719 C 145.535156 189.902344 145.796875 190.421875 146.179688 190.925781 C 146.214844 190.972656 146.25 191.019531 146.289062 191.066406 C 146.683594 190.667969 147.058594 190.140625 147.375 189.496094 C 147.40625 189.433594 147.4375 189.371094 147.464844 189.304688 C 147.246094 188.9375 147.09375 188.652344 147.003906 188.457031 C 146.800781 188 146.945312 188 147.4375 188.457031 C 147.519531 188.53125 147.609375 188.617188 147.707031 188.714844 C 147.738281 188.628906 147.765625 188.542969 147.796875 188.457031 C 148.007812 187.808594 148.164062 187.082031 148.242188 186.269531 C 147.171875 184.949219 147.183594 184.796875 148.277344 185.8125 C 148.28125 185.710938 148.289062 185.605469 148.289062 185.503906 C 148.308594 184.949219 148.292969 184.363281 148.230469 183.746094 C 148.53125 184.542969 148.792969 185.332031 149.011719 186.140625 L 148.992188 186.144531 L 149.019531 186.164062 C 149.394531 187.546875 149.652344 188.972656 149.789062 190.554688 C 149.863281 191.390625 149.902344 192.273438 149.910156 193.214844 C 149.914062 193.738281 149.878906 194.425781 149.859375 195 Z M 155.660156 187.613281 C 155.648438 187.707031 155.636719 187.796875 155.617188 187.890625 Z M 149.734375 183.535156 C 149.492188 183.449219 149.253906 183.355469 149.023438 183.253906 C 148.96875 183.226562 148.914062 183.203125 148.863281 183.175781 L 149.007812 183.230469 C 149.261719 183.324219 149.503906 183.425781 149.734375 183.535156 Z M 148.859375 181.996094 L 148.757812 182.394531 C 148.785156 182.257812 148.820312 182.125 148.859375 181.996094 Z M 146.894531 183.550781 C 146.984375 183.433594 147.078125 183.320312 147.171875 183.214844 L 147.277344 183.09375 L 147.171875 183.21875 C 147.082031 183.328125 146.988281 183.441406 146.894531 183.550781 Z M 151.128906 193.257812 C 151.070312 192.652344 151.015625 192.050781 150.945312 191.457031 C 151.183594 191.515625 151.429688 191.515625 151.675781 191.46875 L 151.808594 191.25 C 152.582031 189.984375 152.550781 190.140625 152.234375 191.289062 C 152.484375 191.175781 152.730469 191.027344 152.972656 190.851562 C 153.917969 188.667969 153.753906 189.257812 153.273438 190.621094 C 153.738281 189.964844 154.132812 189.648438 154.46875 189.371094 C 153.066406 190.777344 152.140625 192.449219 151.214844 194.1875 Z M 154.703125 188.351562 C 154.257812 188.367188 153.855469 188.429688 153.484375 188.53125 C 153.476562 188.410156 153.46875 188.285156 153.453125 188.164062 C 153.878906 188.261719 154.296875 188.324219 154.703125 188.351562 Z M 150.859375 190.722656 C 150.804688 190.3125 150.746094 189.902344 150.679688 189.496094 C 150.621094 189.148438 150.558594 188.800781 150.484375 188.457031 C 150.367188 187.882812 150.226562 187.3125 150.0625 186.746094 L 150.1875 186.691406 C 150.253906 186.910156 150.320312 187.148438 150.378906 187.414062 L 150.402344 187 C 150.484375 187.042969 150.5625 187.085938 150.644531 187.125 C 150.648438 187.355469 150.652344 187.613281 150.65625 187.902344 C 150.765625 188.082031 150.882812 188.257812 151.007812 188.425781 C 151.132812 188.597656 151.265625 188.757812 151.40625 188.910156 C 151.636719 187.136719 151.675781 186.9375 152.023438 189.253906 C 151.472656 189.6875 151.089844 190.25 150.875 190.871094 L 150.855469 190.722656 Z M 150.636719 186.800781 C 150.570312 186.84375 150.492188 186.894531 150.40625 186.945312 L 150.433594 186.59375 C 150.503906 186.566406 150.570312 186.539062 150.628906 186.519531 Z M 149.925781 185.976562 L 149.824219 185.992188 C 149.714844 185.675781 149.597656 185.359375 149.46875 185.046875 C 149.613281 185.320312 149.773438 185.617188 149.925781 185.976562 Z M 150.605469 185.921875 L 150.503906 185.925781 L 150.488281 185.929688 L 150.492188 185.886719 C 150.535156 185.464844 150.578125 185.40625 150.605469 185.921875 Z M 155.347656 188.355469 C 155.136719 188.367188 154.921875 188.363281 154.703125 188.351562 C 154.910156 188.339844 155.125 188.34375 155.347656 188.355469 Z M 155.347656 188.355469 " fill-opacity="1" fill-rule="nonzero"/></g><g clip-path="url(#c7adda74bf)"><path fill="#e07634" d="M 144.492188 198.347656 C 142.210938 198.226562 137.628906 194.59375 134.144531 197.761719 C 138.8125 195.59375 139.882812 198.628906 144.492188 198.347656 Z M 144.492188 198.347656 " fill-opacity="1" fill-rule="evenodd"/></g><path fill="#e07634" d="M 147.496094 197.871094 C 146.433594 197.816406 144.292969 196.121094 142.667969 197.597656 C 144.847656 196.589844 145.347656 198.003906 147.496094 197.871094 Z M 147.496094 197.871094 " fill-opacity="1" fill-rule="evenodd"/><path fill="#e07634" d="M 138.492188 196.339844 C 141.46875 194.957031 142.15625 196.894531 145.097656 196.714844 C 143.640625 196.636719 140.714844 194.316406 138.492188 196.339844 Z M 138.492188 196.339844 " fill-opacity="1" fill-rule="evenodd"/><g clip-path="url(#740bf33c1e)"><path fill="#5cbbff" d="M 142.65625 180.460938 C 142.726562 180.527344 142.796875 180.59375 142.863281 180.667969 C 142.878906 180.664062 142.898438 180.65625 142.914062 180.652344 C 143.273438 180.539062 143.644531 180.464844 144.023438 180.4375 C 144.015625 180.425781 144.003906 180.414062 143.996094 180.398438 C 144.019531 180.410156 144.042969 180.421875 144.066406 180.433594 C 144.074219 180.433594 144.085938 180.433594 144.09375 180.433594 C 144.152344 180.429688 144.207031 180.425781 144.265625 180.425781 C 145.359375 180.398438 146.363281 180.765625 147.164062 181.449219 C 146.957031 181.007812 146.804688 180.542969 146.722656 180.0625 C 146.71875 180.035156 146.714844 180.003906 146.707031 179.976562 C 146.125 179.65625 145.507812 179.394531 144.863281 179.195312 C 144.074219 178.949219 143.238281 178.796875 142.378906 178.75 L 142.378906 178.738281 L 142.328125 178.738281 L 142.328125 178.734375 L 141.289062 178.734375 L 141.289062 178.75 C 140.070312 178.808594 138.902344 179.085938 137.832031 179.542969 C 135.996094 180.316406 134.433594 181.617188 133.328125 183.25 C 132.773438 184.066406 132.335938 184.96875 132.039062 185.933594 C 131.738281 186.894531 131.578125 187.917969 131.578125 188.976562 C 131.578125 190.390625 131.863281 191.738281 132.382812 192.964844 C 132.933594 194.265625 133.742188 195.429688 134.75 196.390625 C 135.035156 196.15625 135.316406 195.949219 135.601562 195.761719 C 135.109375 195.308594 134.664062 194.804688 134.28125 194.253906 L 135.15625 194.253906 C 135.386719 194.710938 135.648438 195.144531 135.933594 195.550781 C 136.246094 195.363281 136.554688 195.203125 136.867188 195.066406 C 136.679688 194.808594 136.503906 194.539062 136.339844 194.253906 L 138.242188 194.253906 C 138.277344 194.363281 138.308594 194.472656 138.34375 194.578125 C 138.6875 194.503906 139.035156 194.449219 139.382812 194.421875 L 139.332031 194.253906 L 141.289062 194.253906 L 141.289062 194.449219 C 141.632812 194.488281 141.980469 194.542969 142.328125 194.609375 L 142.328125 194.253906 L 144.480469 194.253906 C 144.414062 194.46875 144.34375 194.679688 144.269531 194.878906 C 144.242188 194.945312 144.21875 195.011719 144.191406 195.074219 C 144.523438 195.175781 144.855469 195.28125 145.183594 195.390625 C 145.324219 195.03125 145.453125 194.652344 145.566406 194.253906 L 147.472656 194.253906 C 147.300781 194.550781 147.117188 194.832031 146.921875 195.097656 C 147.347656 195.011719 147.777344 194.953125 148.214844 194.914062 L 148.292969 194.910156 C 148.421875 194.695312 148.542969 194.480469 148.65625 194.253906 L 149.359375 194.253906 C 149.210938 194.46875 149.050781 194.675781 148.882812 194.878906 C 149.179688 194.867188 149.476562 194.871094 149.773438 194.882812 C 149.792969 194.328125 149.800781 193.773438 149.796875 193.214844 L 149.121094 193.214844 C 149.382812 192.527344 149.585938 191.796875 149.71875 191.039062 C 149.707031 190.882812 149.691406 190.722656 149.679688 190.566406 C 149.550781 189.097656 149.304688 187.65625 148.921875 186.234375 L 148.71875 186.09375 L 148.875 186.058594 C 148.730469 185.546875 148.570312 185.039062 148.398438 184.535156 C 148.410156 184.859375 148.410156 185.183594 148.402344 185.507812 C 148.398438 185.609375 148.394531 185.710938 148.386719 185.808594 C 148.640625 186.640625 148.796875 187.53125 148.839844 188.457031 L 147.910156 188.457031 C 147.90625 188.46875 147.902344 188.480469 147.902344 188.492188 C 147.871094 188.582031 147.839844 188.667969 147.808594 188.753906 L 147.75 188.917969 L 147.625 188.796875 C 147.539062 188.710938 147.453125 188.625 147.363281 188.539062 C 147.34375 188.523438 147.3125 188.496094 147.269531 188.457031 L 147.125 188.457031 C 147.25 188.726562 147.410156 188.996094 147.5625 189.25 L 147.589844 189.300781 L 147.566406 189.351562 C 147.542969 189.402344 147.519531 189.449219 147.496094 189.496094 L 148.839844 189.496094 C 148.789062 190.578125 148.585938 191.605469 148.253906 192.550781 C 148.175781 192.777344 148.089844 193 147.996094 193.214844 L 145.828125 193.214844 C 145.976562 192.542969 146.089844 191.832031 146.164062 191.089844 C 146.136719 191.058594 146.113281 191.027344 146.089844 190.996094 C 145.730469 190.519531 145.445312 189.992188 145.261719 189.421875 L 145.246094 189.363281 L 145.285156 189.316406 C 145.476562 189.097656 145.667969 188.878906 145.847656 188.648438 C 145.945312 188.527344 146.089844 188.34375 146.148438 188.203125 L 146.152344 188.191406 C 145.949219 188.226562 145.351562 188.570312 145.238281 188.632812 L 145.09375 188.71875 L 145.066406 188.46875 C 145.0625 188.464844 145.0625 188.460938 145.0625 188.457031 L 142.328125 188.457031 L 142.328125 187.8125 C 142.226562 187.882812 142.125 187.953125 142.019531 188.019531 L 141.789062 188.175781 L 141.847656 187.90625 C 141.882812 187.753906 141.914062 187.601562 141.945312 187.445312 C 141.863281 187.695312 141.785156 187.945312 141.707031 188.195312 L 141.695312 188.234375 L 141.660156 188.257812 C 141.558594 188.324219 141.453125 188.390625 141.347656 188.457031 L 141.191406 188.550781 C 140.878906 188.742188 140.5625 188.929688 140.242188 189.105469 L 140.046875 189.210938 L 140.078125 188.988281 C 140.105469 188.8125 140.132812 188.632812 140.164062 188.457031 L 138.589844 188.457031 C 138.621094 187.382812 138.734375 186.351562 138.914062 185.40625 C 138.960938 185.171875 139.011719 184.9375 139.0625 184.714844 L 141.289062 184.714844 L 141.289062 185.125 L 141.296875 185.113281 C 141.664062 184.542969 142.125 184.058594 142.679688 183.675781 L 142.328125 183.675781 L 142.328125 182.621094 C 142.242188 182.628906 142.152344 182.632812 142.066406 182.640625 L 141.820312 182.652344 L 142.238281 182.109375 L 142.328125 181.996094 L 142.328125 181.9375 C 142.019531 182.21875 141.761719 182.527344 141.566406 182.898438 L 141.535156 182.953125 L 141.292969 182.964844 C 141.292969 182.964844 141.289062 182.964844 141.289062 182.964844 L 141.289062 183.675781 L 139.351562 183.675781 C 139.410156 183.488281 139.472656 183.308594 139.535156 183.136719 C 139.726562 182.625 139.9375 182.164062 140.167969 181.757812 C 140.339844 181.453125 140.519531 181.183594 140.710938 180.945312 C 140.898438 180.707031 141.09375 180.507812 141.289062 180.34375 L 141.289062 181.460938 C 141.601562 181.242188 141.933594 181.050781 142.28125 180.894531 C 142.296875 180.886719 142.3125 180.878906 142.328125 180.875 L 142.328125 180.195312 C 142.4375 180.273438 142.546875 180.363281 142.65625 180.460938 Z M 142.328125 189.496094 L 145.21875 189.496094 C 145.195312 190.59375 145.082031 191.640625 144.894531 192.601562 C 144.855469 192.808594 144.8125 193.015625 144.765625 193.214844 L 142.328125 193.214844 Z M 141.289062 189.496094 L 141.289062 193.214844 L 139.046875 193.214844 L 139.019531 193.085938 C 138.773438 191.996094 138.625 190.78125 138.59375 189.496094 Z M 137.550781 189.496094 C 137.578125 190.660156 137.699219 191.769531 137.894531 192.796875 C 137.921875 192.9375 137.953125 193.078125 137.980469 193.214844 L 135.816406 193.214844 C 135.78125 193.128906 135.742188 193.042969 135.707031 192.957031 C 135.289062 191.902344 135.027344 190.734375 134.972656 189.496094 Z M 137.996094 184.714844 C 137.742188 185.863281 137.585938 187.125 137.550781 188.457031 L 134.972656 188.457031 C 135.019531 187.382812 135.222656 186.355469 135.554688 185.414062 C 135.636719 185.175781 135.726562 184.941406 135.828125 184.714844 Z M 133.929688 189.496094 C 133.980469 190.695312 134.207031 191.835938 134.574219 192.894531 C 134.613281 193.003906 134.652344 193.109375 134.691406 193.214844 L 133.648438 193.214844 C 133.402344 192.738281 133.191406 192.238281 133.03125 191.714844 C 132.8125 191.007812 132.675781 190.265625 132.632812 189.496094 Z M 134.703125 184.714844 C 134.257812 185.863281 133.988281 187.128906 133.929688 188.457031 L 132.632812 188.457031 C 132.691406 187.375 132.9375 186.34375 133.339844 185.394531 C 133.4375 185.164062 133.546875 184.9375 133.664062 184.714844 Z M 139.242188 181.285156 C 138.855469 181.976562 138.527344 182.78125 138.265625 183.675781 L 136.351562 183.675781 C 136.878906 182.78125 137.527344 182.003906 138.269531 181.390625 C 138.75 180.992188 139.269531 180.65625 139.816406 180.398438 C 139.613281 180.667969 139.421875 180.964844 139.242188 181.285156 Z M 136.957031 181.183594 C 136.253906 181.894531 135.648438 182.738281 135.167969 183.675781 L 134.296875 183.675781 C 134.941406 182.761719 135.75 181.972656 136.675781 181.347656 C 136.785156 181.269531 136.898438 181.199219 137.015625 181.128906 Z M 136.957031 181.183594 " fill-opacity="1" fill-rule="evenodd"/></g><g fill="#6c4646" fill-opacity="1"><g transform="translate(166.124003, 192.892527)"><g><path d="M 13.0625 -2.96875 C 13.175781 -2.96875 13.265625 -2.914062 13.328125 -2.8125 C 13.398438 -2.707031 13.4375 -2.5625 13.4375 -2.375 C 13.4375 -2.019531 13.347656 -1.742188 13.171875 -1.546875 C 12.753906 -1.023438 12.328125 -0.625 11.890625 -0.34375 C 11.453125 -0.0703125 10.9375 0.0625 10.34375 0.0625 C 9.769531 0.0625 9.28125 -0.0859375 8.875 -0.390625 C 8.46875 -0.703125 8.082031 -1.238281 7.71875 -2 C 7.425781 -2.601562 7.195312 -3.046875 7.03125 -3.328125 C 6.863281 -3.617188 6.695312 -3.828125 6.53125 -3.953125 C 6.363281 -4.078125 6.160156 -4.15625 5.921875 -4.1875 C 5.890625 -4 5.789062 -3.410156 5.625 -2.421875 C 5.550781 -1.972656 5.503906 -1.703125 5.484375 -1.609375 C 5.398438 -1.066406 5.222656 -0.648438 4.953125 -0.359375 C 4.679688 -0.078125 4.273438 0.0625 3.734375 0.0625 C 3.140625 0.0625 2.613281 -0.109375 2.15625 -0.453125 C 1.707031 -0.804688 1.359375 -1.296875 1.109375 -1.921875 C 0.859375 -2.546875 0.734375 -3.257812 0.734375 -4.0625 C 0.734375 -5.550781 0.992188 -6.835938 1.515625 -7.921875 C 2.035156 -9.003906 2.757812 -9.832031 3.6875 -10.40625 C 4.625 -10.976562 5.707031 -11.265625 6.9375 -11.265625 C 7.789062 -11.265625 8.503906 -11.132812 9.078125 -10.875 C 9.648438 -10.613281 10.078125 -10.253906 10.359375 -9.796875 C 10.640625 -9.347656 10.78125 -8.84375 10.78125 -8.28125 C 10.78125 -7.78125 10.660156 -7.289062 10.421875 -6.8125 C 10.191406 -6.34375 9.84375 -5.925781 9.375 -5.5625 C 8.90625 -5.195312 8.332031 -4.925781 7.65625 -4.75 C 8.082031 -4.632812 8.410156 -4.445312 8.640625 -4.1875 C 8.867188 -3.9375 9.097656 -3.5625 9.328125 -3.0625 C 9.578125 -2.53125 9.820312 -2.140625 10.0625 -1.890625 C 10.3125 -1.640625 10.597656 -1.515625 10.921875 -1.515625 C 11.203125 -1.515625 11.46875 -1.609375 11.71875 -1.796875 C 11.976562 -1.992188 12.304688 -2.320312 12.703125 -2.78125 C 12.804688 -2.90625 12.925781 -2.96875 13.0625 -2.96875 Z M 4.09375 -4.1875 C 3.789062 -4.1875 3.582031 -4.257812 3.46875 -4.40625 C 3.351562 -4.550781 3.296875 -4.710938 3.296875 -4.890625 C 3.296875 -5.097656 3.363281 -5.265625 3.5 -5.390625 C 3.644531 -5.515625 3.804688 -5.578125 3.984375 -5.578125 L 4.3125 -5.578125 C 4.457031 -6.441406 4.59375 -7.191406 4.71875 -7.828125 C 4.832031 -8.398438 5.203125 -8.6875 5.828125 -8.6875 C 6.335938 -8.6875 6.59375 -8.460938 6.59375 -8.015625 C 6.59375 -7.921875 6.585938 -7.84375 6.578125 -7.78125 L 6.171875 -5.578125 C 6.648438 -5.609375 7.085938 -5.722656 7.484375 -5.921875 C 7.878906 -6.128906 8.191406 -6.414062 8.421875 -6.78125 C 8.660156 -7.144531 8.78125 -7.554688 8.78125 -8.015625 C 8.78125 -8.578125 8.585938 -9.015625 8.203125 -9.328125 C 7.828125 -9.648438 7.269531 -9.8125 6.53125 -9.8125 C 5.664062 -9.8125 4.90625 -9.59375 4.25 -9.15625 C 3.601562 -8.726562 3.097656 -8.09375 2.734375 -7.25 C 2.367188 -6.40625 2.1875 -5.375 2.1875 -4.15625 C 2.1875 -3.582031 2.242188 -3.09375 2.359375 -2.6875 C 2.472656 -2.28125 2.613281 -1.972656 2.78125 -1.765625 C 2.945312 -1.566406 3.109375 -1.46875 3.265625 -1.46875 C 3.378906 -1.46875 3.472656 -1.523438 3.546875 -1.640625 C 3.617188 -1.753906 3.679688 -1.941406 3.734375 -2.203125 Z M 4.09375 -4.1875 "/></g></g></g><g fill="#6c4646" fill-opacity="1"><g transform="translate(177.835998, 192.892527)"><g><path d="M 6.578125 -2.96875 C 6.691406 -2.96875 6.78125 -2.914062 6.84375 -2.8125 C 6.914062 -2.707031 6.953125 -2.5625 6.953125 -2.375 C 6.953125 -2.019531 6.867188 -1.742188 6.703125 -1.546875 C 6.367188 -1.140625 5.898438 -0.769531 5.296875 -0.4375 C 4.703125 -0.101562 4.0625 0.0625 3.375 0.0625 C 2.445312 0.0625 1.722656 -0.1875 1.203125 -0.6875 C 0.691406 -1.195312 0.4375 -1.890625 0.4375 -2.765625 C 0.4375 -3.378906 0.566406 -3.945312 0.828125 -4.46875 C 1.085938 -5 1.441406 -5.421875 1.890625 -5.734375 C 2.347656 -6.046875 2.867188 -6.203125 3.453125 -6.203125 C 3.960938 -6.203125 4.375 -6.046875 4.6875 -5.734375 C 5 -5.429688 5.15625 -5.019531 5.15625 -4.5 C 5.15625 -3.882812 4.929688 -3.359375 4.484375 -2.921875 C 4.046875 -2.484375 3.304688 -2.132812 2.265625 -1.875 C 2.484375 -1.46875 2.90625 -1.265625 3.53125 -1.265625 C 3.925781 -1.265625 4.378906 -1.40625 4.890625 -1.6875 C 5.398438 -1.96875 5.84375 -2.332031 6.21875 -2.78125 C 6.320312 -2.90625 6.441406 -2.96875 6.578125 -2.96875 Z M 3.21875 -4.90625 C 2.894531 -4.90625 2.617188 -4.710938 2.390625 -4.328125 C 2.160156 -3.941406 2.046875 -3.476562 2.046875 -2.9375 L 2.046875 -2.921875 C 2.566406 -3.046875 2.976562 -3.226562 3.28125 -3.46875 C 3.582031 -3.71875 3.734375 -4.007812 3.734375 -4.34375 C 3.734375 -4.507812 3.6875 -4.644531 3.59375 -4.75 C 3.507812 -4.851562 3.382812 -4.90625 3.21875 -4.90625 Z M 3.21875 -4.90625 "/></g></g></g><g fill="#6c4646" fill-opacity="1"><g transform="translate(183.066467, 192.892527)"><g><path d="M 3.109375 0.359375 C 2.648438 0.359375 2.296875 0.25 2.046875 0.03125 C 1.804688 -0.175781 1.6875 -0.410156 1.6875 -0.671875 C 1.6875 -0.910156 1.769531 -1.113281 1.9375 -1.28125 C 2.113281 -1.445312 2.363281 -1.53125 2.6875 -1.53125 C 2.800781 -1.53125 2.9375 -1.519531 3.09375 -1.5 C 3.25 -1.476562 3.367188 -1.460938 3.453125 -1.453125 C 3.441406 -1.679688 3.390625 -1.894531 3.296875 -2.09375 C 3.203125 -2.300781 3.082031 -2.5 2.9375 -2.6875 C 2.800781 -2.882812 2.671875 -3.050781 2.546875 -3.1875 C 2.265625 -2.664062 1.988281 -2.234375 1.71875 -1.890625 C 1.445312 -1.546875 1.15625 -1.21875 0.84375 -0.90625 C 0.675781 -0.75 0.503906 -0.671875 0.328125 -0.671875 C 0.191406 -0.671875 0.0820312 -0.71875 0 -0.8125 C -0.09375 -0.914062 -0.140625 -1.046875 -0.140625 -1.203125 C -0.140625 -1.378906 -0.078125 -1.539062 0.046875 -1.6875 L 0.21875 -1.90625 C 0.695312 -2.507812 1.0625 -3.003906 1.3125 -3.390625 C 1.46875 -3.648438 1.644531 -3.992188 1.84375 -4.421875 C 2.050781 -4.859375 2.253906 -5.304688 2.453125 -5.765625 C 2.617188 -6.148438 2.96875 -6.34375 3.5 -6.34375 C 3.75 -6.34375 3.921875 -6.320312 4.015625 -6.28125 C 4.117188 -6.238281 4.171875 -6.171875 4.171875 -6.078125 C 4.171875 -6.015625 4.148438 -5.925781 4.109375 -5.8125 C 4.078125 -5.695312 4.03125 -5.582031 3.96875 -5.46875 C 3.8125 -5.15625 3.734375 -4.882812 3.734375 -4.65625 C 3.734375 -4.519531 3.773438 -4.375 3.859375 -4.21875 C 3.953125 -4.0625 4.097656 -3.863281 4.296875 -3.625 C 4.578125 -3.25 4.789062 -2.929688 4.9375 -2.671875 C 5.09375 -2.410156 5.171875 -2.125 5.171875 -1.8125 C 5.171875 -1.71875 5.160156 -1.59375 5.140625 -1.4375 C 5.578125 -1.601562 6.085938 -2.050781 6.671875 -2.78125 C 6.773438 -2.90625 6.894531 -2.96875 7.03125 -2.96875 C 7.144531 -2.96875 7.234375 -2.914062 7.296875 -2.8125 C 7.367188 -2.707031 7.40625 -2.5625 7.40625 -2.375 C 7.40625 -2.03125 7.320312 -1.753906 7.15625 -1.546875 C 6.707031 -0.992188 6.28125 -0.617188 5.875 -0.421875 C 5.46875 -0.222656 4.96875 -0.113281 4.375 -0.09375 C 4.019531 0.207031 3.597656 0.359375 3.109375 0.359375 Z M 3.109375 0.359375 "/></g></g></g><g fill="#6c4646" fill-opacity="1"><g transform="translate(188.749447, 192.892527)"><g><path d="M 6.578125 -2.96875 C 6.691406 -2.96875 6.78125 -2.914062 6.84375 -2.8125 C 6.914062 -2.707031 6.953125 -2.5625 6.953125 -2.375 C 6.953125 -2.019531 6.867188 -1.742188 6.703125 -1.546875 C 6.316406 -1.078125 5.894531 -0.691406 5.4375 -0.390625 C 4.988281 -0.0859375 4.472656 0.0625 3.890625 0.0625 C 2.078125 0.0625 1.171875 -1.207031 1.171875 -3.75 C 1.171875 -4.144531 1.1875 -4.539062 1.21875 -4.9375 L 0.6875 -4.9375 C 0.425781 -4.9375 0.25 -4.984375 0.15625 -5.078125 C 0.0625 -5.179688 0.015625 -5.335938 0.015625 -5.546875 C 0.015625 -6.046875 0.210938 -6.296875 0.609375 -6.296875 L 1.375 -6.296875 C 1.519531 -7.273438 1.75 -8.164062 2.0625 -8.96875 C 2.375 -9.78125 2.75 -10.425781 3.1875 -10.90625 C 3.625 -11.382812 4.097656 -11.625 4.609375 -11.625 C 4.984375 -11.625 5.273438 -11.457031 5.484375 -11.125 C 5.691406 -10.800781 5.796875 -10.390625 5.796875 -9.890625 C 5.796875 -8.515625 5.222656 -7.316406 4.078125 -6.296875 L 5.5625 -6.296875 C 5.707031 -6.296875 5.8125 -6.265625 5.875 -6.203125 C 5.9375 -6.140625 5.96875 -6.023438 5.96875 -5.859375 C 5.96875 -5.242188 5.460938 -4.9375 4.453125 -4.9375 L 2.828125 -4.9375 C 2.816406 -4.488281 2.8125 -4.144531 2.8125 -3.90625 C 2.8125 -2.976562 2.921875 -2.328125 3.140625 -1.953125 C 3.359375 -1.578125 3.703125 -1.390625 4.171875 -1.390625 C 4.546875 -1.390625 4.878906 -1.503906 5.171875 -1.734375 C 5.472656 -1.972656 5.820312 -2.320312 6.21875 -2.78125 C 6.320312 -2.90625 6.441406 -2.96875 6.578125 -2.96875 Z M 4.25 -10.34375 C 4.113281 -10.34375 3.960938 -10.175781 3.796875 -9.84375 C 3.628906 -9.507812 3.472656 -9.046875 3.328125 -8.453125 C 3.179688 -7.867188 3.0625 -7.21875 2.96875 -6.5 C 3.488281 -6.945312 3.878906 -7.453125 4.140625 -8.015625 C 4.410156 -8.578125 4.546875 -9.09375 4.546875 -9.5625 C 4.546875 -10.082031 4.445312 -10.34375 4.25 -10.34375 Z M 4.25 -10.34375 "/></g></g></g><g fill="#6c4646" fill-opacity="1"><g transform="translate(193.979916, 192.892527)"><g><path d="M 6.03125 0.0625 C 4.976562 0.0625 4.0625 -0.128906 3.28125 -0.515625 C 2.5 -0.898438 1.898438 -1.445312 1.484375 -2.15625 C 1.066406 -2.863281 0.859375 -3.6875 0.859375 -4.625 C 0.859375 -5.9375 1.101562 -7.097656 1.59375 -8.109375 C 2.082031 -9.117188 2.75 -9.898438 3.59375 -10.453125 C 4.4375 -11.015625 5.375 -11.296875 6.40625 -11.296875 C 7.363281 -11.296875 8.085938 -11.046875 8.578125 -10.546875 C 9.078125 -10.054688 9.328125 -9.40625 9.328125 -8.59375 C 9.328125 -8.050781 9.234375 -7.613281 9.046875 -7.28125 C 8.859375 -6.957031 8.585938 -6.796875 8.234375 -6.796875 C 7.984375 -6.796875 7.785156 -6.851562 7.640625 -6.96875 C 7.492188 -7.09375 7.421875 -7.265625 7.421875 -7.484375 C 7.421875 -7.554688 7.441406 -7.703125 7.484375 -7.921875 C 7.535156 -8.191406 7.5625 -8.40625 7.5625 -8.5625 C 7.5625 -9.363281 7.128906 -9.765625 6.265625 -9.765625 C 5.679688 -9.765625 5.125 -9.570312 4.59375 -9.1875 C 4.0625 -8.8125 3.628906 -8.253906 3.296875 -7.515625 C 2.972656 -6.773438 2.8125 -5.894531 2.8125 -4.875 C 2.8125 -3.8125 3.109375 -2.988281 3.703125 -2.40625 C 4.296875 -1.820312 5.175781 -1.53125 6.34375 -1.53125 C 6.914062 -1.53125 7.492188 -1.601562 8.078125 -1.75 C 8.671875 -1.894531 9.328125 -2.117188 10.046875 -2.421875 C 10.179688 -2.472656 10.296875 -2.5 10.390625 -2.5 C 10.523438 -2.5 10.628906 -2.445312 10.703125 -2.34375 C 10.773438 -2.238281 10.8125 -2.101562 10.8125 -1.9375 C 10.8125 -1.394531 10.519531 -0.992188 9.9375 -0.734375 C 9.300781 -0.453125 8.644531 -0.25 7.96875 -0.125 C 7.289062 0 6.644531 0.0625 6.03125 0.0625 Z M 6.03125 0.0625 "/></g></g></g><g fill="#6c4646" fill-opacity="1"><g transform="translate(203.10995, 192.892527)"><g><path d="M 7.421875 -4.09375 C 7.535156 -4.09375 7.625 -4.03125 7.6875 -3.90625 C 7.75 -3.789062 7.78125 -3.644531 7.78125 -3.46875 C 7.78125 -3.039062 7.65625 -2.789062 7.40625 -2.71875 C 6.875 -2.53125 6.285156 -2.421875 5.640625 -2.390625 C 5.472656 -1.648438 5.140625 -1.054688 4.640625 -0.609375 C 4.148438 -0.160156 3.585938 0.0625 2.953125 0.0625 C 2.421875 0.0625 1.96875 -0.0625 1.59375 -0.3125 C 1.21875 -0.570312 0.929688 -0.914062 0.734375 -1.34375 C 0.535156 -1.769531 0.4375 -2.234375 0.4375 -2.734375 C 0.4375 -3.398438 0.566406 -4 0.828125 -4.53125 C 1.085938 -5.0625 1.441406 -5.472656 1.890625 -5.765625 C 2.335938 -6.066406 2.835938 -6.21875 3.390625 -6.21875 C 4.066406 -6.21875 4.609375 -5.984375 5.015625 -5.515625 C 5.429688 -5.046875 5.675781 -4.472656 5.75 -3.796875 C 6.164062 -3.816406 6.660156 -3.90625 7.234375 -4.0625 C 7.304688 -4.082031 7.367188 -4.09375 7.421875 -4.09375 Z M 3.0625 -1.34375 C 3.34375 -1.34375 3.585938 -1.457031 3.796875 -1.6875 C 4.003906 -1.914062 4.144531 -2.25 4.21875 -2.6875 C 3.945312 -2.875 3.738281 -3.117188 3.59375 -3.421875 C 3.445312 -3.722656 3.375 -4.039062 3.375 -4.375 C 3.375 -4.519531 3.382812 -4.664062 3.40625 -4.8125 L 3.34375 -4.8125 C 2.988281 -4.8125 2.691406 -4.640625 2.453125 -4.296875 C 2.222656 -3.953125 2.109375 -3.46875 2.109375 -2.84375 C 2.109375 -2.351562 2.203125 -1.976562 2.390625 -1.71875 C 2.578125 -1.46875 2.800781 -1.34375 3.0625 -1.34375 Z M 3.0625 -1.34375 "/></g></g></g><g fill="#6c4646" fill-opacity="1"><g transform="translate(209.112349, 192.892527)"><g><path d="M 1.578125 0.0625 C 1.242188 0.0625 1.007812 -0.113281 0.875 -0.46875 C 0.738281 -0.820312 0.671875 -1.390625 0.671875 -2.171875 C 0.671875 -3.328125 0.832031 -4.421875 1.15625 -5.453125 C 1.238281 -5.710938 1.367188 -5.898438 1.546875 -6.015625 C 1.734375 -6.140625 1.988281 -6.203125 2.3125 -6.203125 C 2.488281 -6.203125 2.613281 -6.179688 2.6875 -6.140625 C 2.757812 -6.097656 2.796875 -6.015625 2.796875 -5.890625 C 2.796875 -5.742188 2.726562 -5.421875 2.59375 -4.921875 C 2.507812 -4.566406 2.4375 -4.253906 2.375 -3.984375 C 2.320312 -3.722656 2.28125 -3.398438 2.25 -3.015625 C 2.539062 -3.773438 2.867188 -4.394531 3.234375 -4.875 C 3.597656 -5.351562 3.953125 -5.691406 4.296875 -5.890625 C 4.648438 -6.097656 4.972656 -6.203125 5.265625 -6.203125 C 5.847656 -6.203125 6.140625 -5.914062 6.140625 -5.34375 C 6.140625 -4.988281 6.039062 -4.363281 5.84375 -3.46875 C 5.675781 -2.6875 5.59375 -2.175781 5.59375 -1.9375 C 5.59375 -1.570312 5.722656 -1.390625 5.984375 -1.390625 C 6.160156 -1.390625 6.367188 -1.5 6.609375 -1.71875 C 6.847656 -1.9375 7.175781 -2.289062 7.59375 -2.78125 C 7.695312 -2.90625 7.816406 -2.96875 7.953125 -2.96875 C 8.066406 -2.96875 8.15625 -2.914062 8.21875 -2.8125 C 8.289062 -2.707031 8.328125 -2.5625 8.328125 -2.375 C 8.328125 -2.019531 8.238281 -1.742188 8.0625 -1.546875 C 7.6875 -1.078125 7.273438 -0.691406 6.828125 -0.390625 C 6.390625 -0.0859375 5.894531 0.0625 5.34375 0.0625 C 4.882812 0.0625 4.539062 -0.0664062 4.3125 -0.328125 C 4.082031 -0.585938 3.96875 -0.96875 3.96875 -1.46875 C 3.96875 -1.71875 4.03125 -2.160156 4.15625 -2.796875 C 4.269531 -3.359375 4.328125 -3.742188 4.328125 -3.953125 C 4.328125 -4.097656 4.28125 -4.171875 4.1875 -4.171875 C 4.0625 -4.171875 3.894531 -4.019531 3.6875 -3.71875 C 3.476562 -3.425781 3.265625 -3.035156 3.046875 -2.546875 C 2.835938 -2.054688 2.664062 -1.539062 2.53125 -1 C 2.4375 -0.582031 2.320312 -0.300781 2.1875 -0.15625 C 2.0625 -0.0078125 1.859375 0.0625 1.578125 0.0625 Z M 1.578125 0.0625 "/></g></g></g><g fill="#6c4646" fill-opacity="1"><g transform="translate(215.713655, 192.892527)"><g><path d="M 1.578125 0.0625 C 1.242188 0.0625 1.007812 -0.113281 0.875 -0.46875 C 0.738281 -0.820312 0.671875 -1.390625 0.671875 -2.171875 C 0.671875 -3.328125 0.832031 -4.421875 1.15625 -5.453125 C 1.238281 -5.710938 1.367188 -5.898438 1.546875 -6.015625 C 1.734375 -6.140625 1.988281 -6.203125 2.3125 -6.203125 C 2.488281 -6.203125 2.613281 -6.179688 2.6875 -6.140625 C 2.757812 -6.097656 2.796875 -6.015625 2.796875 -5.890625 C 2.796875 -5.742188 2.726562 -5.421875 2.59375 -4.921875 C 2.507812 -4.566406 2.4375 -4.253906 2.375 -3.984375 C 2.320312 -3.722656 2.28125 -3.398438 2.25 -3.015625 C 2.539062 -3.773438 2.867188 -4.394531 3.234375 -4.875 C 3.597656 -5.351562 3.953125 -5.691406 4.296875 -5.890625 C 4.648438 -6.097656 4.972656 -6.203125 5.265625 -6.203125 C 5.847656 -6.203125 6.140625 -5.914062 6.140625 -5.34375 C 6.140625 -4.988281 6.039062 -4.363281 5.84375 -3.46875 C 5.675781 -2.6875 5.59375 -2.175781 5.59375 -1.9375 C 5.59375 -1.570312 5.722656 -1.390625 5.984375 -1.390625 C 6.160156 -1.390625 6.367188 -1.5 6.609375 -1.71875 C 6.847656 -1.9375 7.175781 -2.289062 7.59375 -2.78125 C 7.695312 -2.90625 7.816406 -2.96875 7.953125 -2.96875 C 8.066406 -2.96875 8.15625 -2.914062 8.21875 -2.8125 C 8.289062 -2.707031 8.328125 -2.5625 8.328125 -2.375 C 8.328125 -2.019531 8.238281 -1.742188 8.0625 -1.546875 C 7.6875 -1.078125 7.273438 -0.691406 6.828125 -0.390625 C 6.390625 -0.0859375 5.894531 0.0625 5.34375 0.0625 C 4.882812 0.0625 4.539062 -0.0664062 4.3125 -0.328125 C 4.082031 -0.585938 3.96875 -0.96875 3.96875 -1.46875 C 3.96875 -1.71875 4.03125 -2.160156 4.15625 -2.796875 C 4.269531 -3.359375 4.328125 -3.742188 4.328125 -3.953125 C 4.328125 -4.097656 4.28125 -4.171875 4.1875 -4.171875 C 4.0625 -4.171875 3.894531 -4.019531 3.6875 -3.71875 C 3.476562 -3.425781 3.265625 -3.035156 3.046875 -2.546875 C 2.835938 -2.054688 2.664062 -1.539062 2.53125 -1 C 2.4375 -0.582031 2.320312 -0.300781 2.1875 -0.15625 C 2.0625 -0.0078125 1.859375 0.0625 1.578125 0.0625 Z M 1.578125 0.0625 "/></g></g></g><g fill="#6c4646" fill-opacity="1"><g transform="translate(222.314962, 192.892527)"><g><path d="M 6.578125 -2.96875 C 6.691406 -2.96875 6.78125 -2.914062 6.84375 -2.8125 C 6.914062 -2.707031 6.953125 -2.5625 6.953125 -2.375 C 6.953125 -2.019531 6.867188 -1.742188 6.703125 -1.546875 C 6.367188 -1.140625 5.898438 -0.769531 5.296875 -0.4375 C 4.703125 -0.101562 4.0625 0.0625 3.375 0.0625 C 2.445312 0.0625 1.722656 -0.1875 1.203125 -0.6875 C 0.691406 -1.195312 0.4375 -1.890625 0.4375 -2.765625 C 0.4375 -3.378906 0.566406 -3.945312 0.828125 -4.46875 C 1.085938 -5 1.441406 -5.421875 1.890625 -5.734375 C 2.347656 -6.046875 2.867188 -6.203125 3.453125 -6.203125 C 3.960938 -6.203125 4.375 -6.046875 4.6875 -5.734375 C 5 -5.429688 5.15625 -5.019531 5.15625 -4.5 C 5.15625 -3.882812 4.929688 -3.359375 4.484375 -2.921875 C 4.046875 -2.484375 3.304688 -2.132812 2.265625 -1.875 C 2.484375 -1.46875 2.90625 -1.265625 3.53125 -1.265625 C 3.925781 -1.265625 4.378906 -1.40625 4.890625 -1.6875 C 5.398438 -1.96875 5.84375 -2.332031 6.21875 -2.78125 C 6.320312 -2.90625 6.441406 -2.96875 6.578125 -2.96875 Z M 3.21875 -4.90625 C 2.894531 -4.90625 2.617188 -4.710938 2.390625 -4.328125 C 2.160156 -3.941406 2.046875 -3.476562 2.046875 -2.9375 L 2.046875 -2.921875 C 2.566406 -3.046875 2.976562 -3.226562 3.28125 -3.46875 C 3.582031 -3.71875 3.734375 -4.007812 3.734375 -4.34375 C 3.734375 -4.507812 3.6875 -4.644531 3.59375 -4.75 C 3.507812 -4.851562 3.382812 -4.90625 3.21875 -4.90625 Z M 3.21875 -4.90625 "/></g></g></g><g fill="#6c4646" fill-opacity="1"><g transform="translate(227.545431, 192.892527)"><g><path d="M 3.1875 0.0625 C 2.3125 0.0625 1.628906 -0.179688 1.140625 -0.671875 C 0.660156 -1.160156 0.421875 -1.8125 0.421875 -2.625 C 0.421875 -3.34375 0.5625 -3.972656 0.84375 -4.515625 C 1.132812 -5.054688 1.503906 -5.472656 1.953125 -5.765625 C 2.410156 -6.054688 2.882812 -6.203125 3.375 -6.203125 C 3.863281 -6.203125 4.242188 -6.054688 4.515625 -5.765625 C 4.785156 -5.484375 4.921875 -5.113281 4.921875 -4.65625 C 4.921875 -4.28125 4.835938 -3.960938 4.671875 -3.703125 C 4.515625 -3.453125 4.300781 -3.328125 4.03125 -3.328125 C 3.863281 -3.328125 3.726562 -3.363281 3.625 -3.4375 C 3.519531 -3.519531 3.46875 -3.632812 3.46875 -3.78125 C 3.46875 -3.84375 3.476562 -3.910156 3.5 -3.984375 C 3.519531 -4.066406 3.535156 -4.128906 3.546875 -4.171875 C 3.585938 -4.296875 3.609375 -4.421875 3.609375 -4.546875 C 3.609375 -4.660156 3.578125 -4.75 3.515625 -4.8125 C 3.460938 -4.875 3.382812 -4.90625 3.28125 -4.90625 C 3.070312 -4.90625 2.878906 -4.8125 2.703125 -4.625 C 2.523438 -4.445312 2.378906 -4.203125 2.265625 -3.890625 C 2.160156 -3.578125 2.109375 -3.234375 2.109375 -2.859375 C 2.109375 -1.828125 2.5625 -1.3125 3.46875 -1.3125 C 3.820312 -1.3125 4.207031 -1.429688 4.625 -1.671875 C 5.050781 -1.921875 5.472656 -2.289062 5.890625 -2.78125 C 5.992188 -2.90625 6.113281 -2.96875 6.25 -2.96875 C 6.363281 -2.96875 6.453125 -2.914062 6.515625 -2.8125 C 6.578125 -2.707031 6.609375 -2.5625 6.609375 -2.375 C 6.609375 -2.03125 6.523438 -1.753906 6.359375 -1.546875 C 5.941406 -1.023438 5.441406 -0.625 4.859375 -0.34375 C 4.285156 -0.0703125 3.726562 0.0625 3.1875 0.0625 Z M 3.1875 0.0625 "/></g></g></g><g fill="#6c4646" fill-opacity="1"><g transform="translate(232.443174, 192.892527)"><g><path d="M 6.578125 -2.96875 C 6.691406 -2.96875 6.78125 -2.914062 6.84375 -2.8125 C 6.914062 -2.707031 6.953125 -2.5625 6.953125 -2.375 C 6.953125 -2.019531 6.867188 -1.742188 6.703125 -1.546875 C 6.316406 -1.078125 5.894531 -0.691406 5.4375 -0.390625 C 4.988281 -0.0859375 4.472656 0.0625 3.890625 0.0625 C 2.078125 0.0625 1.171875 -1.207031 1.171875 -3.75 C 1.171875 -4.144531 1.1875 -4.539062 1.21875 -4.9375 L 0.6875 -4.9375 C 0.425781 -4.9375 0.25 -4.984375 0.15625 -5.078125 C 0.0625 -5.179688 0.015625 -5.335938 0.015625 -5.546875 C 0.015625 -6.046875 0.210938 -6.296875 0.609375 -6.296875 L 1.375 -6.296875 C 1.519531 -7.273438 1.75 -8.164062 2.0625 -8.96875 C 2.375 -9.78125 2.75 -10.425781 3.1875 -10.90625 C 3.625 -11.382812 4.097656 -11.625 4.609375 -11.625 C 4.984375 -11.625 5.273438 -11.457031 5.484375 -11.125 C 5.691406 -10.800781 5.796875 -10.390625 5.796875 -9.890625 C 5.796875 -8.515625 5.222656 -7.316406 4.078125 -6.296875 L 5.5625 -6.296875 C 5.707031 -6.296875 5.8125 -6.265625 5.875 -6.203125 C 5.9375 -6.140625 5.96875 -6.023438 5.96875 -5.859375 C 5.96875 -5.242188 5.460938 -4.9375 4.453125 -4.9375 L 2.828125 -4.9375 C 2.816406 -4.488281 2.8125 -4.144531 2.8125 -3.90625 C 2.8125 -2.976562 2.921875 -2.328125 3.140625 -1.953125 C 3.359375 -1.578125 3.703125 -1.390625 4.171875 -1.390625 C 4.546875 -1.390625 4.878906 -1.503906 5.171875 -1.734375 C 5.472656 -1.972656 5.820312 -2.320312 6.21875 -2.78125 C 6.320312 -2.90625 6.441406 -2.96875 6.578125 -2.96875 Z M 4.25 -10.34375 C 4.113281 -10.34375 3.960938 -10.175781 3.796875 -9.84375 C 3.628906 -9.507812 3.472656 -9.046875 3.328125 -8.453125 C 3.179688 -7.867188 3.0625 -7.21875 2.96875 -6.5 C 3.488281 -6.945312 3.878906 -7.453125 4.140625 -8.015625 C 4.410156 -8.578125 4.546875 -9.09375 4.546875 -9.5625 C 4.546875 -10.082031 4.445312 -10.34375 4.25 -10.34375 Z M 4.25 -10.34375 "/></g></g></g></svg>