<svg xmlns="http://www.w3.org/2000/svg" xmlns:xlink="http://www.w3.org/1999/xlink" width="500" zoomAndPan="magnify" viewBox="0 0 375 374.999991" height="500" preserveAspectRatio="xMidYMid meet" version="1.0"><defs><g/><clipPath id="f2716c5aa9"><path d="M 34 201 L 108 201 L 108 213.167969 L 34 213.167969 Z M 34 201 " clip-rule="nonzero"/></clipPath><clipPath id="02315b9be1"><path d="M 52 146.417969 L 115.792969 146.417969 L 115.792969 212 L 52 212 Z M 52 146.417969 " clip-rule="nonzero"/></clipPath><clipPath id="78c5af567c"><path d="M 28.042969 154 L 83 154 L 83 208 L 28.042969 208 Z M 28.042969 154 " clip-rule="nonzero"/></clipPath></defs><g clip-path="url(#f2716c5aa9)"><path fill="#e07634" d="M 75.230469 206.90625 C 74.1875 206.53125 73.144531 206.152344 72.101562 205.78125 C 71.394531 205.53125 70.6875 205.28125 69.984375 205.035156 C 69.535156 204.882812 69.085938 204.726562 68.636719 204.578125 C 67.648438 204.246094 66.660156 203.929688 65.675781 203.632812 C 63.820312 203.078125 61.964844 202.597656 60.117188 202.242188 C 59.082031 202.039062 58.046875 201.878906 57.015625 201.765625 C 55.117188 201.558594 53.222656 201.511719 51.335938 201.679688 C 50.296875 201.769531 49.261719 201.925781 48.230469 202.15625 C 46.757812 202.480469 45.292969 202.953125 43.828125 203.601562 C 42.902344 204.011719 41.972656 204.492188 41.046875 205.046875 C 40.714844 205.246094 40.382812 205.457031 40.050781 205.675781 C 39.207031 206.234375 38.359375 206.859375 37.519531 207.554688 C 36.628906 208.289062 35.742188 209.097656 34.855469 209.992188 C 47.632812 202.164062 57.296875 203.441406 66.253906 206.46875 C 66.707031 206.621094 67.164062 206.78125 67.613281 206.941406 C 68.414062 207.226562 69.207031 207.523438 69.996094 207.824219 C 72.128906 208.644531 74.242188 209.5 76.371094 210.296875 C 79.734375 211.558594 83.132812 212.660156 86.699219 213.1875 C 92.921875 214.109375 99.660156 213.285156 107.632812 208.5 C 105.089844 209.871094 102.546875 210.722656 100.007812 211.175781 C 92.957031 212.433594 85.9375 210.609375 78.960938 208.222656 C 77.824219 207.835938 76.691406 207.433594 75.5625 207.027344 L 75.230469 206.910156 Z M 75.230469 206.90625 " fill-opacity="1" fill-rule="evenodd"/></g><g clip-path="url(#02315b9be1)"><path fill="#6cdc45" d="M 102.335938 185.367188 C 102.210938 184.980469 102.09375 184.597656 101.976562 184.210938 C 102.101562 184.574219 102.222656 184.960938 102.335938 185.367188 Z M 82.574219 202.933594 C 81.496094 202.878906 80.429688 202.871094 79.375 202.910156 C 78.8125 202.929688 78.25 202.964844 77.695312 203.011719 C 76.28125 203.132812 74.886719 203.339844 73.511719 203.625 C 72.320312 203.875 71.144531 204.1875 69.984375 204.5625 C 70.6875 204.804688 71.394531 205.054688 72.101562 205.308594 C 73.140625 205.679688 74.1875 206.058594 75.230469 206.433594 L 75.5625 206.550781 C 76.691406 206.957031 77.824219 207.359375 78.960938 207.746094 C 85.9375 210.132812 92.960938 211.957031 100.007812 210.699219 C 97.671875 207.78125 93.40625 205.226562 88.058594 203.660156 C 91.296875 195.476562 94.9375 189.699219 99.671875 184.679688 C 98.964844 186 98.398438 187.285156 97.960938 188.519531 C 100.816406 187.476562 100.71875 187.773438 97.667969 189.410156 C 97.109375 191.207031 96.824219 192.886719 96.75 194.417969 C 99.324219 193.367188 99.320312 193.800781 96.734375 195.710938 C 96.785156 197.351562 97.089844 198.78125 97.5625 199.941406 C 98.824219 199.257812 99.820312 198.433594 100.597656 197.519531 C 99.695312 194.816406 99.167969 192.835938 101.617188 196.0625 C 102.324219 194.820312 102.722656 193.476562 102.90625 192.113281 C 100.078125 188.257812 100.105469 187.972656 102.992188 191.265625 C 103.140625 189.179688 102.816406 187.105469 102.335938 185.367188 C 103.003906 187.421875 103.804688 189.433594 104.722656 191.367188 C 106.699219 186.914062 105.96875 189.476562 105.15625 192.257812 C 106.066406 194.078125 107.070312 195.824219 108.148438 197.460938 C 108.996094 192.894531 109.003906 194.203125 108.632812 198.183594 C 109.273438 199.117188 109.9375 200.019531 110.617188 200.875 C 111.117188 198.890625 111.75 196.34375 111.511719 193.710938 C 107.820312 190.699219 107.777344 190.375 111.382812 192.738281 C 111.003906 190.613281 109.984375 188.46875 107.792969 186.5625 C 105.128906 185.664062 103.738281 185.117188 106.859375 185.816406 C 105.542969 184.855469 103.882812 183.960938 101.808594 183.183594 C 104.003906 183.023438 105.910156 183.976562 107.964844 184.675781 C 108.117188 184.011719 107.894531 183.253906 107.859375 182.542969 C 108.5 183.496094 108.824219 184.59375 109.121094 185.707031 C 110.132812 186.148438 110.960938 186.636719 112.210938 187.253906 C 111.941406 186.265625 111.625 185.046875 111.359375 184.058594 C 112.066406 185.203125 112.902344 186.507812 113.070312 188.316406 C 114.109375 188.800781 114.554688 189.09375 116.042969 189.871094 C 113.808594 182.335938 107.410156 179.160156 101.953125 182.109375 C 108.035156 178.042969 106.941406 171.429688 106.441406 170.542969 C 103.6875 171.789062 103.375 175.824219 103.175781 178.492188 C 102.636719 177.117188 102.605469 173.671875 103.246094 171.605469 C 102.636719 172.625 101.855469 174.738281 101.199219 176.046875 C 100.992188 176.453125 100.84375 176.460938 101.101562 176.820312 C 101.578125 177.488281 101.65625 178.304688 101.972656 179.027344 L 100.464844 176.988281 L 99.871094 180.910156 C 100.488281 174.835938 94.207031 170.175781 88.109375 170.808594 C 89.199219 171.542969 90.238281 172.289062 91.222656 173.0625 C 98.101562 174.402344 92.105469 173.769531 92.527344 174.132812 C 93.429688 174.914062 94.277344 175.726562 95.058594 176.597656 C 98.148438 177.347656 98.109375 177.160156 96.105469 177.847656 C 97.03125 179.035156 97.839844 180.324219 98.511719 181.753906 C 96.464844 179.277344 94.03125 177.683594 91.40625 176.785156 C 90.125 174.519531 88.207031 172.417969 85.582031 170.644531 C 84.566406 169.957031 83.441406 169.320312 82.207031 168.742188 C 83.101562 169.054688 84.027344 169.328125 84.980469 169.566406 C 87.996094 170.316406 91.277344 170.703125 94.59375 170.800781 C 93.015625 167 92.972656 166.03125 96.433594 170.824219 C 98.320312 170.820312 100.203125 170.722656 102.042969 170.554688 C 98.78125 165.992188 99.496094 165.863281 103.867188 170.359375 C 105.632812 170.144531 107.347656 169.859375 108.964844 169.515625 C 101.214844 163.875 91.660156 161.105469 82.132812 165.496094 C 81.738281 165.675781 81.34375 165.871094 80.953125 166.074219 C 81.269531 165.789062 81.59375 165.511719 81.917969 165.242188 C 83.351562 164.054688 84.855469 163.035156 86.421875 162.15625 C 84.105469 160.089844 83.941406 160.316406 88.550781 161.058594 C 90.097656 160.328125 91.703125 159.703125 93.363281 159.164062 C 94.144531 158.910156 85.679688 156.359375 95.738281 158.453125 C 97.507812 157.964844 99.339844 157.546875 101.226562 157.167969 C 93.664062 153.035156 83.113281 155.382812 79.957031 163.132812 C 79.820312 163.464844 79.699219 163.808594 79.589844 164.15625 L 79.871094 163.050781 L 81.015625 158.519531 L 77.820312 160.425781 C 78.660156 159.621094 79.230469 158.5625 80.25 157.933594 C 80.804688 157.589844 80.601562 157.5 80.558594 156.828125 C 80.414062 154.6875 80.558594 151.390625 80.308594 149.664062 C 80.003906 152.824219 78.003906 157.464844 76.5 159.019531 C 77.738281 155.296875 79.609375 149.660156 76.589844 146.417969 C 75.695312 147.109375 72.46875 152.066406 73.550781 158.332031 C 73.816406 159.867188 74.339844 161.484375 75.222656 163.132812 C 75.480469 163.617188 75.769531 164.101562 76.089844 164.585938 C 73.445312 161.316406 69.789062 159.703125 65.898438 159.796875 C 65.734375 159.800781 65.566406 159.808594 65.402344 159.820312 C 64.265625 159.890625 63.113281 160.105469 61.960938 160.464844 C 61.34375 160.65625 60.730469 160.894531 60.117188 161.171875 C 59.066406 161.644531 58.03125 162.242188 57.015625 162.964844 C 55.484375 164.058594 54.011719 165.4375 52.648438 167.105469 C 54.824219 166.921875 55.675781 166.785156 57.015625 166.714844 L 57.546875 166.691406 C 58.257812 165.355469 59.167969 164.363281 60.117188 163.542969 C 60.839844 162.917969 61.582031 162.398438 62.277344 161.898438 C 61.613281 162.757812 60.839844 163.761719 60.117188 164.699219 L 59.3125 165.738281 C 59.59375 165.722656 59.859375 165.703125 60.117188 165.683594 C 61.738281 165.566406 62.96875 165.417969 64.367188 165.402344 L 64.785156 164.867188 C 65.472656 163.996094 66.195312 163.160156 67.035156 162.457031 C 67.300781 162.238281 67.574219 162.027344 67.867188 161.839844 C 67.695312 162.199219 67.480469 162.554688 67.273438 162.910156 C 66.941406 163.480469 66.621094 164.054688 66.515625 164.664062 C 67.058594 164.703125 67.601562 164.726562 68.140625 164.75 C 69.625 164.8125 71.09375 164.863281 72.519531 165.113281 C 73.601562 165.304688 74.660156 165.613281 75.683594 166.132812 C 74.875 166.105469 74.09375 166.097656 73.347656 166.113281 C 71.710938 166.148438 70.214844 166.292969 68.851562 166.527344 C 68.335938 166.617188 67.839844 166.71875 67.363281 166.832031 C 68.105469 166.964844 68.667969 167.074219 69.078125 167.164062 C 70.285156 167.429688 70.152344 167.519531 69.195312 167.503906 C 68.472656 167.496094 67.28125 167.425781 65.835938 167.324219 L 65.675781 167.3125 C 64.183594 167.804688 62.886719 168.433594 61.761719 169.160156 C 59.835938 170.40625 58.402344 171.949219 57.320312 173.628906 C 58.476562 173.414062 59.40625 173.253906 60.117188 173.148438 C 62.375 172.808594 62.375 173.019531 60.117188 173.777344 C 59.347656 174.035156 58.3125 174.359375 57.015625 174.742188 L 56.59375 174.871094 C 55.097656 177.6875 54.433594 180.769531 53.996094 183.425781 C 53.902344 183.992188 53.816406 184.539062 53.738281 185.058594 C 54.679688 184.542969 55.621094 184 56.554688 183.425781 L 57.015625 183.140625 C 57.328125 182.945312 57.636719 182.746094 57.949219 182.546875 C 59.703125 176.957031 60.457031 175.191406 59.011719 181.84375 C 59.382812 181.597656 59.75 181.347656 60.117188 181.089844 C 62.125 179.683594 64.097656 178.152344 66.007812 176.507812 C 66.203125 174.796875 66.394531 173.148438 66.5625 172.257812 C 66.71875 171.449219 66.855469 171.269531 66.957031 172.257812 C 67.019531 172.867188 67.070312 173.921875 67.101562 175.546875 C 67.359375 175.3125 67.617188 175.078125 67.875 174.84375 C 68.773438 174.011719 69.660156 173.15625 70.519531 172.277344 L 70.539062 172.257812 C 71.523438 171.257812 72.480469 170.222656 73.40625 169.160156 L 73.730469 168.785156 L 73.441406 169.160156 C 72.726562 170.097656 72.023438 171.136719 71.382812 172.257812 C 71.167969 172.632812 70.957031 173.019531 70.757812 173.410156 C 70.277344 174.359375 69.847656 175.355469 69.496094 176.390625 C 70.113281 176.085938 70.664062 175.824219 71.148438 175.597656 C 74.5625 173.984375 74.597656 174.21875 71.253906 176.292969 C 70.652344 176.664062 69.945312 177.097656 69.132812 177.585938 C 68.871094 178.546875 68.6875 179.535156 68.59375 180.539062 C 68.511719 181.488281 68.507812 182.453125 68.609375 183.421875 L 68.636719 183.65625 C 70.582031 182.535156 71.527344 182.175781 71.804688 182.332031 C 71.921875 182.398438 71.917969 182.554688 71.820312 182.785156 C 71.539062 183.457031 70.460938 184.746094 69.1875 186.199219 C 69.675781 187.738281 70.457031 189.277344 71.597656 190.785156 C 71.703125 190.925781 71.8125 191.0625 71.921875 191.199219 C 73.101562 190.015625 74.222656 188.449219 75.164062 186.523438 C 75.257812 186.335938 75.347656 186.144531 75.4375 185.953125 C 74.78125 184.855469 74.324219 184.011719 74.058594 183.421875 C 73.449219 182.058594 73.878906 182.058594 75.351562 183.421875 C 75.59375 183.644531 75.859375 183.902344 76.152344 184.195312 C 76.246094 183.941406 76.332031 183.683594 76.417969 183.421875 C 77.050781 181.496094 77.519531 179.316406 77.75 176.902344 C 74.554688 172.960938 74.589844 172.503906 77.855469 175.53125 C 77.875 175.230469 77.886719 174.921875 77.898438 174.613281 C 77.953125 172.960938 77.898438 171.210938 77.722656 169.367188 C 78.617188 171.75 79.390625 174.109375 80.046875 176.515625 L 79.984375 176.527344 L 80.066406 176.585938 C 81.1875 180.710938 81.957031 184.964844 82.371094 189.675781 C 82.589844 192.175781 82.707031 194.804688 82.722656 197.609375 C 82.734375 199.175781 82.632812 201.226562 82.574219 202.933594 Z M 99.871094 180.910156 C 99.84375 181.179688 99.804688 181.453125 99.746094 181.730469 Z M 82.207031 168.742188 C 81.476562 168.488281 80.769531 168.207031 80.085938 167.898438 C 79.921875 167.828125 79.761719 167.75 79.601562 167.675781 L 80.03125 167.832031 C 80.792969 168.117188 81.515625 168.421875 82.207031 168.742188 Z M 79.589844 164.160156 L 79.292969 165.339844 C 79.375 164.933594 79.472656 164.542969 79.589844 164.160156 Z M 73.730469 168.785156 C 74.007812 168.4375 74.28125 168.105469 74.554688 167.785156 L 74.871094 167.429688 L 74.566406 167.800781 C 74.289062 168.132812 74.011719 168.460938 73.730469 168.785156 Z M 86.359375 197.742188 C 86.191406 195.9375 86.019531 194.144531 85.816406 192.367188 C 86.527344 192.546875 87.257812 192.546875 87.996094 192.402344 L 88.390625 191.753906 C 90.695312 187.980469 90.597656 188.445312 89.65625 191.867188 C 90.398438 191.535156 91.136719 191.085938 91.855469 190.570312 C 94.679688 184.050781 94.183594 185.808594 92.757812 189.875 C 94.144531 187.914062 95.324219 186.972656 96.328125 186.152344 C 92.132812 190.34375 89.371094 195.324219 86.613281 200.515625 Z M 97.015625 183.101562 C 95.699219 183.15625 94.488281 183.34375 93.386719 183.644531 C 93.367188 183.28125 93.339844 182.914062 93.296875 182.550781 C 94.558594 182.839844 95.804688 183.027344 97.015625 183.101562 Z M 85.550781 190.183594 C 85.394531 188.957031 85.21875 187.738281 85.015625 186.527344 C 84.84375 185.488281 84.65625 184.453125 84.445312 183.425781 C 84.089844 181.710938 83.675781 180.007812 83.179688 178.316406 L 83.554688 178.160156 C 83.757812 178.808594 83.949219 179.523438 84.121094 180.316406 L 84.199219 179.082031 C 84.4375 179.207031 84.675781 179.328125 84.914062 179.453125 C 84.929688 180.136719 84.9375 180.90625 84.949219 181.765625 C 85.28125 182.308594 85.632812 182.832031 85.996094 183.328125 C 86.375 183.839844 86.773438 184.324219 87.191406 184.769531 C 87.875 179.488281 87.992188 178.894531 89.035156 185.796875 C 87.390625 187.09375 86.25 188.769531 85.605469 190.621094 Z M 84.898438 178.484375 C 84.691406 178.617188 84.460938 178.761719 84.210938 178.921875 L 84.28125 177.867188 C 84.496094 177.78125 84.695312 177.710938 84.875 177.644531 Z M 82.773438 176.027344 L 82.464844 176.066406 C 82.144531 175.128906 81.792969 174.191406 81.414062 173.257812 C 81.84375 174.074219 82.316406 174.949219 82.773438 176.027344 Z M 84.804688 175.867188 L 84.5 175.878906 L 84.445312 175.882812 L 84.460938 175.761719 C 84.59375 174.5 84.714844 174.324219 84.804688 175.867188 Z M 98.9375 183.117188 C 98.3125 183.148438 97.667969 183.144531 97.015625 183.105469 C 97.632812 183.078125 98.273438 183.082031 98.9375 183.117188 Z M 98.9375 183.117188 " fill-opacity="1" fill-rule="nonzero"/></g><path fill="#e07634" d="M 66.574219 212.921875 C 59.769531 212.5625 46.09375 201.722656 35.707031 211.167969 C 49.625 204.710938 52.824219 213.753906 66.574219 212.921875 Z M 66.574219 212.921875 " fill-opacity="1" fill-rule="evenodd"/><path fill="#e07634" d="M 75.53125 211.503906 C 72.359375 211.335938 65.976562 206.277344 61.128906 210.683594 C 67.625 207.671875 69.117188 211.890625 75.53125 211.503906 Z M 75.53125 211.503906 " fill-opacity="1" fill-rule="evenodd"/><path fill="#e07634" d="M 48.671875 206.929688 C 57.558594 202.808594 59.597656 208.582031 68.375 208.050781 C 64.03125 207.820312 55.300781 200.902344 48.671875 206.929688 Z M 48.671875 206.929688 " fill-opacity="1" fill-rule="evenodd"/><g clip-path="url(#78c5af567c)"><path fill="#5cbbff" d="M 61.097656 159.578125 C 61.304688 159.769531 61.511719 159.976562 61.714844 160.195312 C 61.761719 160.179688 61.8125 160.164062 61.859375 160.148438 C 62.933594 159.8125 64.046875 159.589844 65.167969 159.503906 C 65.140625 159.46875 65.113281 159.429688 65.085938 159.394531 C 65.15625 159.429688 65.226562 159.460938 65.292969 159.496094 C 65.324219 159.492188 65.351562 159.492188 65.382812 159.488281 C 65.550781 159.480469 65.71875 159.472656 65.890625 159.46875 C 69.148438 159.386719 72.144531 160.484375 74.542969 162.523438 C 73.921875 161.210938 73.46875 159.828125 73.222656 158.390625 C 73.207031 158.300781 73.191406 158.214844 73.179688 158.128906 C 71.441406 157.179688 69.601562 156.398438 67.679688 155.804688 C 65.320312 155.070312 62.832031 154.613281 60.269531 154.476562 L 60.269531 154.441406 L 60.117188 154.441406 L 60.117188 154.433594 L 58.996094 154.433594 L 58.597656 154.429688 L 58.132812 154.433594 L 57.015625 154.433594 L 57.015625 154.472656 C 53.375 154.652344 49.902344 155.480469 46.707031 156.832031 C 41.226562 159.152344 36.566406 163.023438 33.269531 167.898438 C 31.625 170.332031 30.320312 173.023438 29.425781 175.894531 C 28.53125 178.765625 28.050781 181.816406 28.050781 184.976562 C 28.050781 189.191406 28.90625 193.210938 30.453125 196.867188 C 32.09375 200.75 34.515625 204.21875 37.515625 207.082031 C 38.359375 206.386719 39.203125 205.761719 40.050781 205.203125 C 38.582031 203.855469 37.257812 202.351562 36.113281 200.71875 L 38.722656 200.71875 C 39.414062 202.074219 40.191406 203.363281 41.046875 204.574219 C 41.972656 204.019531 42.898438 203.539062 43.828125 203.128906 C 43.265625 202.363281 42.742188 201.558594 42.253906 200.71875 L 47.933594 200.71875 C 48.03125 201.042969 48.128906 201.363281 48.226562 201.683594 C 49.261719 201.453125 50.296875 201.296875 51.332031 201.207031 L 51.175781 200.71875 L 57.015625 200.71875 L 57.015625 201.296875 C 58.046875 201.410156 59.082031 201.570312 60.113281 201.769531 L 60.113281 200.71875 L 66.535156 200.71875 C 66.335938 201.355469 66.125 201.976562 65.898438 202.578125 C 65.824219 202.773438 65.75 202.96875 65.675781 203.164062 C 66.660156 203.457031 67.644531 203.773438 68.632812 204.105469 C 69.050781 203.03125 69.433594 201.898438 69.777344 200.71875 L 75.460938 200.71875 C 74.949219 201.59375 74.398438 202.433594 73.8125 203.226562 C 75.085938 202.976562 76.371094 202.792969 77.664062 202.683594 L 77.90625 202.664062 C 78.289062 202.03125 78.648438 201.382812 78.988281 200.71875 L 81.082031 200.71875 C 80.636719 201.355469 80.160156 201.972656 79.664062 202.570312 C 80.546875 202.546875 81.433594 202.554688 82.316406 202.59375 C 82.371094 200.933594 82.398438 199.273438 82.390625 197.613281 L 80.371094 197.613281 C 81.15625 195.5625 81.761719 193.386719 82.148438 191.125 C 82.117188 190.652344 82.078125 190.183594 82.039062 189.710938 C 81.65625 185.332031 80.921875 181.039062 79.777344 176.792969 L 79.175781 176.378906 L 79.632812 176.273438 C 79.207031 174.742188 78.734375 173.222656 78.214844 171.722656 C 78.253906 172.691406 78.257812 173.660156 78.226562 174.628906 C 78.21875 174.929688 78.203125 175.230469 78.1875 175.527344 C 78.941406 178.011719 79.410156 180.660156 79.535156 183.429688 L 76.765625 183.429688 C 76.753906 183.460938 76.742188 183.496094 76.734375 183.53125 C 76.648438 183.792969 76.558594 184.054688 76.460938 184.3125 L 76.285156 184.804688 L 75.917969 184.433594 C 75.65625 184.175781 75.394531 183.921875 75.125 183.671875 C 75.074219 183.625 74.976562 183.535156 74.855469 183.425781 L 74.421875 183.425781 C 74.792969 184.226562 75.269531 185.035156 75.71875 185.785156 L 75.808594 185.9375 L 75.734375 186.09375 C 75.667969 186.238281 75.601562 186.382812 75.53125 186.527344 L 79.535156 186.527344 C 79.386719 189.746094 78.78125 192.8125 77.792969 195.636719 C 77.554688 196.3125 77.296875 196.96875 77.019531 197.613281 L 70.558594 197.613281 C 70.992188 195.605469 71.328125 193.484375 71.550781 191.273438 C 71.476562 191.179688 71.402344 191.085938 71.332031 190.992188 C 70.257812 189.570312 69.40625 188.003906 68.867188 186.304688 L 68.8125 186.128906 L 68.9375 185.984375 C 69.507812 185.335938 70.078125 184.679688 70.613281 184 C 70.902344 183.636719 71.335938 183.089844 71.511719 182.664062 L 71.523438 182.636719 C 70.910156 182.742188 69.128906 183.757812 68.796875 183.949219 L 68.359375 184.203125 L 68.277344 183.460938 C 68.273438 183.449219 68.273438 183.4375 68.273438 183.425781 L 60.113281 183.425781 L 60.113281 181.496094 C 59.808594 181.707031 59.503906 181.917969 59.195312 182.121094 L 58.511719 182.582031 L 58.6875 181.777344 C 58.785156 181.324219 58.882812 180.867188 58.980469 180.410156 C 58.734375 181.15625 58.496094 181.902344 58.265625 182.648438 L 58.226562 182.761719 L 58.128906 182.828125 C 57.816406 183.027344 57.503906 183.226562 57.1875 183.425781 L 56.730469 183.707031 C 55.796875 184.28125 54.855469 184.828125 53.894531 185.351562 L 53.308594 185.671875 L 53.40625 185.007812 C 53.488281 184.480469 53.570312 183.953125 53.65625 183.425781 L 48.972656 183.425781 C 49.058594 180.214844 49.390625 177.148438 49.933594 174.332031 C 50.070312 173.621094 50.21875 172.929688 50.378906 172.261719 L 57.015625 172.261719 L 57.015625 173.488281 L 57.039062 173.449219 C 58.136719 171.746094 59.507812 170.308594 61.164062 169.160156 L 60.117188 169.160156 L 60.117188 166.019531 C 59.855469 166.039062 59.59375 166.054688 59.332031 166.070312 L 58.601562 166.117188 L 59.851562 164.496094 L 60.117188 164.15625 L 60.117188 163.984375 C 59.195312 164.816406 58.429688 165.738281 57.839844 166.847656 L 57.75 167.015625 L 57.03125 167.046875 C 57.027344 167.046875 57.019531 167.046875 57.015625 167.046875 L 57.015625 169.160156 L 51.234375 169.160156 C 51.410156 168.609375 51.597656 168.070312 51.789062 167.554688 C 52.351562 166.03125 52.988281 164.652344 53.671875 163.445312 C 54.1875 162.539062 54.726562 161.726562 55.285156 161.023438 C 55.847656 160.3125 56.429688 159.714844 57.011719 159.230469 L 57.011719 162.5625 C 57.949219 161.910156 58.9375 161.339844 59.976562 160.867188 C 60.023438 160.847656 60.070312 160.828125 60.113281 160.808594 L 60.113281 158.789062 C 60.441406 159.019531 60.769531 159.28125 61.09375 159.582031 Z M 60.117188 186.523438 L 68.742188 186.523438 C 68.664062 189.792969 68.320312 192.914062 67.769531 195.78125 C 67.648438 196.402344 67.519531 197.015625 67.378906 197.609375 L 60.117188 197.609375 Z M 57.015625 186.523438 L 57.015625 197.609375 L 50.332031 197.609375 L 50.246094 197.226562 C 49.511719 193.976562 49.066406 190.351562 48.972656 186.523438 Z M 45.871094 186.523438 C 45.949219 189.992188 46.308594 193.300781 46.898438 196.371094 C 46.976562 196.789062 47.0625 197.199219 47.152344 197.609375 L 40.691406 197.609375 C 40.585938 197.355469 40.476562 197.101562 40.375 196.84375 C 39.121094 193.699219 38.34375 190.210938 38.175781 186.523438 Z M 47.195312 172.261719 C 46.433594 175.6875 45.972656 179.453125 45.871094 183.425781 L 38.175781 183.425781 C 38.320312 180.214844 38.925781 177.160156 39.910156 174.34375 C 40.15625 173.632812 40.429688 172.9375 40.722656 172.261719 Z M 35.074219 186.523438 C 35.222656 190.09375 35.890625 193.503906 36.992188 196.660156 C 37.105469 196.980469 37.222656 197.296875 37.34375 197.609375 L 34.230469 197.609375 C 33.488281 196.191406 32.871094 194.695312 32.386719 193.136719 C 31.730469 191.03125 31.324219 188.816406 31.199219 186.527344 L 35.070312 186.527344 Z M 37.375 172.261719 C 36.042969 175.691406 35.238281 179.460938 35.074219 183.425781 L 31.199219 183.425781 C 31.375 180.199219 32.113281 177.125 33.308594 174.292969 C 33.601562 173.597656 33.925781 172.921875 34.273438 172.261719 Z M 50.910156 162.03125 C 49.757812 164.089844 48.777344 166.492188 47.996094 169.160156 L 42.296875 169.160156 C 43.859375 166.492188 45.804688 164.183594 48.011719 162.34375 C 49.449219 161.15625 50.996094 160.160156 52.625 159.394531 C 52.019531 160.195312 51.445312 161.078125 50.910156 162.03125 Z M 44.097656 161.734375 C 41.996094 163.855469 40.195312 166.363281 38.761719 169.160156 L 36.164062 169.160156 C 38.089844 166.441406 40.492188 164.082031 43.253906 162.214844 C 43.589844 161.992188 43.925781 161.777344 44.265625 161.566406 Z M 44.097656 161.734375 " fill-opacity="1" fill-rule="evenodd"/></g><g fill="#6c4646" fill-opacity="1"><g transform="translate(131.092265, 196.658578)"><g><path d="M 38.953125 -8.859375 C 39.296875 -8.859375 39.566406 -8.695312 39.765625 -8.375 C 39.960938 -8.0625 40.0625 -7.625 40.0625 -7.0625 C 40.0625 -6.03125 39.8125 -5.210938 39.3125 -4.609375 C 38.039062 -3.066406 36.753906 -1.878906 35.453125 -1.046875 C 34.160156 -0.210938 32.625 0.203125 30.84375 0.203125 C 29.125 0.203125 27.660156 -0.257812 26.453125 -1.1875 C 25.253906 -2.113281 24.113281 -3.703125 23.03125 -5.953125 C 22.15625 -7.753906 21.460938 -9.082031 20.953125 -9.9375 C 20.453125 -10.800781 19.957031 -11.414062 19.46875 -11.78125 C 18.976562 -12.15625 18.378906 -12.382812 17.671875 -12.46875 C 17.566406 -11.914062 17.257812 -10.164062 16.75 -7.21875 C 16.539062 -5.894531 16.410156 -5.085938 16.359375 -4.796875 C 16.085938 -3.179688 15.554688 -1.941406 14.765625 -1.078125 C 13.972656 -0.222656 12.769531 0.203125 11.15625 0.203125 C 9.382812 0.203125 7.816406 -0.316406 6.453125 -1.359375 C 5.085938 -2.410156 4.035156 -3.867188 3.296875 -5.734375 C 2.554688 -7.597656 2.1875 -9.722656 2.1875 -12.109375 C 2.1875 -16.554688 2.957031 -20.394531 4.5 -23.625 C 6.050781 -26.851562 8.222656 -29.320312 11.015625 -31.03125 C 13.804688 -32.738281 17.03125 -33.59375 20.6875 -33.59375 C 23.226562 -33.59375 25.359375 -33.207031 27.078125 -32.4375 C 28.796875 -31.664062 30.070312 -30.601562 30.90625 -29.25 C 31.738281 -27.90625 32.15625 -26.390625 32.15625 -24.703125 C 32.15625 -23.210938 31.804688 -21.757812 31.109375 -20.34375 C 30.410156 -18.925781 29.359375 -17.675781 27.953125 -16.59375 C 26.546875 -15.507812 24.835938 -14.703125 22.828125 -14.171875 C 24.097656 -13.828125 25.078125 -13.269531 25.765625 -12.5 C 26.453125 -11.738281 27.140625 -10.613281 27.828125 -9.125 C 28.566406 -7.539062 29.300781 -6.378906 30.03125 -5.640625 C 30.757812 -4.898438 31.601562 -4.53125 32.5625 -4.53125 C 33.40625 -4.53125 34.207031 -4.8125 34.96875 -5.375 C 35.738281 -5.945312 36.707031 -6.921875 37.875 -8.296875 C 38.195312 -8.671875 38.554688 -8.859375 38.953125 -8.859375 Z M 12.1875 -12.5 C 11.289062 -12.5 10.675781 -12.710938 10.34375 -13.140625 C 10.007812 -13.566406 9.84375 -14.046875 9.84375 -14.578125 C 9.84375 -15.210938 10.046875 -15.710938 10.453125 -16.078125 C 10.867188 -16.453125 11.34375 -16.640625 11.875 -16.640625 L 12.859375 -16.640625 C 13.285156 -19.234375 13.6875 -21.46875 14.0625 -23.34375 C 14.40625 -25.0625 15.515625 -25.921875 17.390625 -25.921875 C 18.898438 -25.921875 19.65625 -25.25 19.65625 -23.90625 C 19.65625 -23.613281 19.640625 -23.382812 19.609375 -23.21875 L 18.421875 -16.640625 C 19.847656 -16.710938 21.148438 -17.050781 22.328125 -17.65625 C 23.503906 -18.269531 24.441406 -19.117188 25.140625 -20.203125 C 25.847656 -21.296875 26.203125 -22.53125 26.203125 -23.90625 C 26.203125 -25.570312 25.632812 -26.878906 24.5 -27.828125 C 23.363281 -28.785156 21.695312 -29.265625 19.5 -29.265625 C 16.90625 -29.265625 14.632812 -28.617188 12.6875 -27.328125 C 10.738281 -26.046875 9.222656 -24.140625 8.140625 -21.609375 C 7.054688 -19.085938 6.515625 -16.015625 6.515625 -12.390625 C 6.515625 -10.691406 6.6875 -9.234375 7.03125 -8.015625 C 7.375 -6.796875 7.796875 -5.882812 8.296875 -5.28125 C 8.796875 -4.675781 9.273438 -4.375 9.734375 -4.375 C 10.078125 -4.375 10.359375 -4.546875 10.578125 -4.890625 C 10.804688 -5.234375 10.984375 -5.785156 11.109375 -6.546875 Z M 12.1875 -12.5 "/></g></g></g><g fill="#6c4646" fill-opacity="1"><g transform="translate(166.025862, 196.658578)"><g><path d="M 19.609375 -8.859375 C 19.953125 -8.859375 20.222656 -8.695312 20.421875 -8.375 C 20.617188 -8.0625 20.71875 -7.625 20.71875 -7.0625 C 20.71875 -6.007812 20.46875 -5.191406 19.96875 -4.609375 C 18.988281 -3.410156 17.601562 -2.304688 15.8125 -1.296875 C 14.03125 -0.296875 12.117188 0.203125 10.078125 0.203125 C 7.304688 0.203125 5.148438 -0.550781 3.609375 -2.0625 C 2.078125 -3.570312 1.3125 -5.640625 1.3125 -8.265625 C 1.3125 -10.085938 1.691406 -11.785156 2.453125 -13.359375 C 3.222656 -14.929688 4.289062 -16.179688 5.65625 -17.109375 C 7.019531 -18.035156 8.5625 -18.5 10.28125 -18.5 C 11.8125 -18.5 13.039062 -18.039062 13.96875 -17.125 C 14.894531 -16.21875 15.359375 -14.984375 15.359375 -13.421875 C 15.359375 -11.597656 14.703125 -10.03125 13.390625 -8.71875 C 12.085938 -7.40625 9.875 -6.363281 6.75 -5.59375 C 7.40625 -4.375 8.660156 -3.765625 10.515625 -3.765625 C 11.710938 -3.765625 13.070312 -4.179688 14.59375 -5.015625 C 16.113281 -5.847656 17.429688 -6.941406 18.546875 -8.296875 C 18.859375 -8.671875 19.210938 -8.859375 19.609375 -8.859375 Z M 9.609375 -14.609375 C 8.628906 -14.609375 7.800781 -14.039062 7.125 -12.90625 C 6.445312 -11.769531 6.109375 -10.394531 6.109375 -8.78125 L 6.109375 -8.6875 C 7.671875 -9.0625 8.898438 -9.617188 9.796875 -10.359375 C 10.703125 -11.097656 11.15625 -11.957031 11.15625 -12.9375 C 11.15625 -13.445312 11.015625 -13.851562 10.734375 -14.15625 C 10.460938 -14.457031 10.085938 -14.609375 9.609375 -14.609375 Z M 9.609375 -14.609375 "/></g></g></g><g fill="#6c4646" fill-opacity="1"><g transform="translate(181.626883, 196.658578)"><g><path d="M 9.296875 1.078125 C 7.910156 1.078125 6.851562 0.757812 6.125 0.125 C 5.40625 -0.507812 5.046875 -1.226562 5.046875 -2.03125 C 5.046875 -2.71875 5.296875 -3.3125 5.796875 -3.8125 C 6.296875 -4.3125 7.035156 -4.5625 8.015625 -4.5625 C 8.359375 -4.5625 8.757812 -4.53125 9.21875 -4.46875 C 9.6875 -4.40625 10.039062 -4.359375 10.28125 -4.328125 C 10.257812 -5.015625 10.109375 -5.660156 9.828125 -6.265625 C 9.546875 -6.878906 9.191406 -7.46875 8.765625 -8.03125 C 8.347656 -8.601562 7.953125 -9.101562 7.578125 -9.53125 C 6.765625 -7.96875 5.953125 -6.671875 5.140625 -5.640625 C 4.335938 -4.609375 3.457031 -3.628906 2.5 -2.703125 C 2.019531 -2.222656 1.519531 -1.984375 1 -1.984375 C 0.570312 -1.984375 0.226562 -2.132812 -0.03125 -2.4375 C -0.300781 -2.738281 -0.4375 -3.117188 -0.4375 -3.578125 C -0.4375 -4.109375 -0.25 -4.597656 0.125 -5.046875 L 0.640625 -5.671875 C 2.085938 -7.472656 3.1875 -8.957031 3.9375 -10.125 C 4.382812 -10.894531 4.910156 -11.921875 5.515625 -13.203125 C 6.128906 -14.484375 6.726562 -15.8125 7.3125 -17.1875 C 7.8125 -18.351562 8.851562 -18.9375 10.4375 -18.9375 C 11.175781 -18.9375 11.691406 -18.867188 11.984375 -18.734375 C 12.273438 -18.609375 12.421875 -18.398438 12.421875 -18.109375 C 12.421875 -17.941406 12.367188 -17.6875 12.265625 -17.34375 C 12.160156 -17 12.015625 -16.65625 11.828125 -16.3125 C 11.347656 -15.363281 11.109375 -14.554688 11.109375 -13.890625 C 11.109375 -13.492188 11.25 -13.054688 11.53125 -12.578125 C 11.8125 -12.109375 12.242188 -11.515625 12.828125 -10.796875 C 13.671875 -9.679688 14.3125 -8.734375 14.75 -7.953125 C 15.1875 -7.179688 15.40625 -6.332031 15.40625 -5.40625 C 15.40625 -5.132812 15.378906 -4.757812 15.328125 -4.28125 C 16.617188 -4.789062 18.140625 -6.128906 19.890625 -8.296875 C 20.210938 -8.671875 20.570312 -8.859375 20.96875 -8.859375 C 21.3125 -8.859375 21.582031 -8.695312 21.78125 -8.375 C 21.976562 -8.0625 22.078125 -7.625 22.078125 -7.0625 C 22.078125 -6.0625 21.828125 -5.242188 21.328125 -4.609375 C 19.992188 -2.960938 18.722656 -1.84375 17.515625 -1.25 C 16.316406 -0.65625 14.832031 -0.332031 13.0625 -0.28125 C 12 0.625 10.742188 1.078125 9.296875 1.078125 Z M 9.296875 1.078125 "/></g></g></g><g fill="#6c4646" fill-opacity="1"><g transform="translate(198.577616, 196.658578)"><g><path d="M 19.609375 -8.859375 C 19.953125 -8.859375 20.222656 -8.695312 20.421875 -8.375 C 20.617188 -8.0625 20.71875 -7.625 20.71875 -7.0625 C 20.71875 -6.007812 20.46875 -5.191406 19.96875 -4.609375 C 18.832031 -3.203125 17.585938 -2.046875 16.234375 -1.140625 C 14.890625 -0.242188 13.34375 0.203125 11.59375 0.203125 C 6.195312 0.203125 3.5 -3.597656 3.5 -11.203125 C 3.5 -12.359375 3.535156 -13.535156 3.609375 -14.734375 L 2.0625 -14.734375 C 1.269531 -14.734375 0.734375 -14.878906 0.453125 -15.171875 C 0.179688 -15.460938 0.046875 -15.925781 0.046875 -16.5625 C 0.046875 -18.039062 0.640625 -18.78125 1.828125 -18.78125 L 4.09375 -18.78125 C 4.539062 -21.6875 5.226562 -24.34375 6.15625 -26.75 C 7.082031 -29.164062 8.195312 -31.085938 9.5 -32.515625 C 10.8125 -33.941406 12.222656 -34.65625 13.734375 -34.65625 C 14.847656 -34.65625 15.722656 -34.164062 16.359375 -33.1875 C 16.992188 -32.207031 17.3125 -30.976562 17.3125 -29.5 C 17.3125 -25.394531 15.59375 -21.820312 12.15625 -18.78125 L 16.59375 -18.78125 C 17.019531 -18.78125 17.320312 -18.6875 17.5 -18.5 C 17.6875 -18.3125 17.78125 -17.96875 17.78125 -17.46875 C 17.78125 -15.644531 16.285156 -14.734375 13.296875 -14.734375 L 8.453125 -14.734375 C 8.398438 -13.410156 8.375 -12.378906 8.375 -11.640625 C 8.375 -8.878906 8.695312 -6.941406 9.34375 -5.828125 C 10 -4.722656 11.023438 -4.171875 12.421875 -4.171875 C 13.566406 -4.171875 14.570312 -4.515625 15.4375 -5.203125 C 16.3125 -5.890625 17.347656 -6.921875 18.546875 -8.296875 C 18.859375 -8.671875 19.210938 -8.859375 19.609375 -8.859375 Z M 12.671875 -30.84375 C 12.265625 -30.84375 11.816406 -30.347656 11.328125 -29.359375 C 10.835938 -28.367188 10.375 -26.992188 9.9375 -25.234375 C 9.507812 -23.472656 9.148438 -21.519531 8.859375 -19.375 C 10.421875 -20.726562 11.585938 -22.242188 12.359375 -23.921875 C 13.140625 -25.597656 13.53125 -27.125 13.53125 -28.5 C 13.53125 -30.0625 13.242188 -30.84375 12.671875 -30.84375 Z M 12.671875 -30.84375 "/></g></g></g><g fill="#6c4646" fill-opacity="1"><g transform="translate(214.178637, 196.658578)"><g><path d="M 17.984375 0.203125 C 14.835938 0.203125 12.097656 -0.367188 9.765625 -1.515625 C 7.429688 -2.671875 5.644531 -4.304688 4.40625 -6.421875 C 3.164062 -8.546875 2.546875 -11.007812 2.546875 -13.8125 C 2.546875 -17.707031 3.28125 -21.160156 4.75 -24.171875 C 6.21875 -27.191406 8.207031 -29.53125 10.71875 -31.1875 C 13.226562 -32.84375 16.019531 -33.671875 19.09375 -33.671875 C 21.957031 -33.671875 24.128906 -32.9375 25.609375 -31.46875 C 27.085938 -30 27.828125 -28.054688 27.828125 -25.640625 C 27.828125 -24.023438 27.539062 -22.726562 26.96875 -21.75 C 26.40625 -20.769531 25.59375 -20.28125 24.53125 -20.28125 C 23.789062 -20.28125 23.207031 -20.453125 22.78125 -20.796875 C 22.363281 -21.148438 22.15625 -21.65625 22.15625 -22.3125 C 22.15625 -22.550781 22.207031 -22.988281 22.3125 -23.625 C 22.46875 -24.414062 22.546875 -25.050781 22.546875 -25.53125 C 22.546875 -27.9375 21.265625 -29.140625 18.703125 -29.140625 C 16.953125 -29.140625 15.28125 -28.570312 13.6875 -27.4375 C 12.101562 -26.300781 10.820312 -24.625 9.84375 -22.40625 C 8.863281 -20.195312 8.375 -17.570312 8.375 -14.53125 C 8.375 -11.351562 9.257812 -8.894531 11.03125 -7.15625 C 12.8125 -5.425781 15.4375 -4.5625 18.90625 -4.5625 C 20.625 -4.5625 22.363281 -4.78125 24.125 -5.21875 C 25.882812 -5.65625 27.832031 -6.320312 29.96875 -7.21875 C 30.375 -7.382812 30.707031 -7.46875 30.96875 -7.46875 C 31.394531 -7.46875 31.710938 -7.304688 31.921875 -6.984375 C 32.128906 -6.671875 32.234375 -6.257812 32.234375 -5.75 C 32.234375 -4.132812 31.363281 -2.945312 29.625 -2.1875 C 27.738281 -1.363281 25.78125 -0.757812 23.75 -0.375 C 21.726562 0.0078125 19.804688 0.203125 17.984375 0.203125 Z M 17.984375 0.203125 "/></g></g></g><g fill="#6c4646" fill-opacity="1"><g transform="translate(241.410966, 196.658578)"><g><path d="M 22.15625 -12.1875 C 22.5 -12.1875 22.757812 -12.015625 22.9375 -11.671875 C 23.125 -11.328125 23.21875 -10.890625 23.21875 -10.359375 C 23.21875 -9.085938 22.835938 -8.332031 22.078125 -8.09375 C 20.484375 -7.539062 18.734375 -7.222656 16.828125 -7.140625 C 16.328125 -4.921875 15.335938 -3.140625 13.859375 -1.796875 C 12.378906 -0.460938 10.695312 0.203125 8.8125 0.203125 C 7.226562 0.203125 5.875 -0.179688 4.75 -0.953125 C 3.625 -1.722656 2.769531 -2.742188 2.1875 -4.015625 C 1.601562 -5.285156 1.3125 -6.660156 1.3125 -8.140625 C 1.3125 -10.148438 1.691406 -11.941406 2.453125 -13.515625 C 3.222656 -15.085938 4.28125 -16.316406 5.625 -17.203125 C 6.976562 -18.097656 8.476562 -18.546875 10.125 -18.546875 C 12.132812 -18.546875 13.753906 -17.847656 14.984375 -16.453125 C 16.210938 -15.066406 16.9375 -13.351562 17.15625 -11.3125 C 18.394531 -11.394531 19.875 -11.660156 21.59375 -12.109375 C 21.8125 -12.160156 22 -12.1875 22.15625 -12.1875 Z M 9.125 -4.015625 C 9.976562 -4.015625 10.710938 -4.359375 11.328125 -5.046875 C 11.953125 -5.734375 12.367188 -6.722656 12.578125 -8.015625 C 11.765625 -8.578125 11.140625 -9.304688 10.703125 -10.203125 C 10.265625 -11.097656 10.046875 -12.050781 10.046875 -13.0625 C 10.046875 -13.488281 10.082031 -13.910156 10.15625 -14.328125 L 9.96875 -14.328125 C 8.90625 -14.328125 8.019531 -13.816406 7.3125 -12.796875 C 6.613281 -11.785156 6.265625 -10.351562 6.265625 -8.5 C 6.265625 -7.039062 6.550781 -5.925781 7.125 -5.15625 C 7.695312 -4.394531 8.363281 -4.015625 9.125 -4.015625 Z M 9.125 -4.015625 "/></g></g></g><g fill="#6c4646" fill-opacity="1"><g transform="translate(259.314438, 196.658578)"><g><path d="M 4.71875 0.203125 C 3.71875 0.203125 3.007812 -0.328125 2.59375 -1.390625 C 2.1875 -2.453125 1.984375 -4.144531 1.984375 -6.46875 C 1.984375 -9.914062 2.472656 -13.1875 3.453125 -16.28125 C 3.691406 -17.039062 4.082031 -17.597656 4.625 -17.953125 C 5.164062 -18.316406 5.925781 -18.5 6.90625 -18.5 C 7.4375 -18.5 7.804688 -18.429688 8.015625 -18.296875 C 8.234375 -18.171875 8.34375 -17.921875 8.34375 -17.546875 C 8.34375 -17.117188 8.140625 -16.164062 7.734375 -14.6875 C 7.472656 -13.632812 7.265625 -12.707031 7.109375 -11.90625 C 6.953125 -11.113281 6.816406 -10.132812 6.703125 -8.96875 C 7.578125 -11.25 8.554688 -13.101562 9.640625 -14.53125 C 10.734375 -15.957031 11.800781 -16.972656 12.84375 -17.578125 C 13.882812 -18.191406 14.84375 -18.5 15.71875 -18.5 C 17.4375 -18.5 18.296875 -17.640625 18.296875 -15.921875 C 18.296875 -14.890625 18.003906 -13.023438 17.421875 -10.328125 C 16.921875 -8.023438 16.671875 -6.5 16.671875 -5.75 C 16.671875 -4.695312 17.054688 -4.171875 17.828125 -4.171875 C 18.359375 -4.171875 18.984375 -4.492188 19.703125 -5.140625 C 20.429688 -5.785156 21.40625 -6.835938 22.625 -8.296875 C 22.945312 -8.671875 23.304688 -8.859375 23.703125 -8.859375 C 24.046875 -8.859375 24.316406 -8.695312 24.515625 -8.375 C 24.710938 -8.0625 24.8125 -7.625 24.8125 -7.0625 C 24.8125 -6.007812 24.5625 -5.191406 24.0625 -4.609375 C 22.925781 -3.203125 21.703125 -2.046875 20.390625 -1.140625 C 19.078125 -0.242188 17.585938 0.203125 15.921875 0.203125 C 14.566406 0.203125 13.546875 -0.1875 12.859375 -0.96875 C 12.171875 -1.75 11.828125 -2.882812 11.828125 -4.375 C 11.828125 -5.113281 12.015625 -6.4375 12.390625 -8.34375 C 12.734375 -10.007812 12.90625 -11.160156 12.90625 -11.796875 C 12.90625 -12.210938 12.757812 -12.421875 12.46875 -12.421875 C 12.125 -12.421875 11.640625 -11.976562 11.015625 -11.09375 C 10.390625 -10.207031 9.753906 -9.035156 9.109375 -7.578125 C 8.460938 -6.128906 7.941406 -4.597656 7.546875 -2.984375 C 7.253906 -1.734375 6.914062 -0.890625 6.53125 -0.453125 C 6.144531 -0.015625 5.539062 0.203125 4.71875 0.203125 Z M 4.71875 0.203125 "/></g></g></g><g fill="#6c4646" fill-opacity="1"><g transform="translate(279.004282, 196.658578)"><g><path d="M 4.71875 0.203125 C 3.71875 0.203125 3.007812 -0.328125 2.59375 -1.390625 C 2.1875 -2.453125 1.984375 -4.144531 1.984375 -6.46875 C 1.984375 -9.914062 2.472656 -13.1875 3.453125 -16.28125 C 3.691406 -17.039062 4.082031 -17.597656 4.625 -17.953125 C 5.164062 -18.316406 5.925781 -18.5 6.90625 -18.5 C 7.4375 -18.5 7.804688 -18.429688 8.015625 -18.296875 C 8.234375 -18.171875 8.34375 -17.921875 8.34375 -17.546875 C 8.34375 -17.117188 8.140625 -16.164062 7.734375 -14.6875 C 7.472656 -13.632812 7.265625 -12.707031 7.109375 -11.90625 C 6.953125 -11.113281 6.816406 -10.132812 6.703125 -8.96875 C 7.578125 -11.25 8.554688 -13.101562 9.640625 -14.53125 C 10.734375 -15.957031 11.800781 -16.972656 12.84375 -17.578125 C 13.882812 -18.191406 14.84375 -18.5 15.71875 -18.5 C 17.4375 -18.5 18.296875 -17.640625 18.296875 -15.921875 C 18.296875 -14.890625 18.003906 -13.023438 17.421875 -10.328125 C 16.921875 -8.023438 16.671875 -6.5 16.671875 -5.75 C 16.671875 -4.695312 17.054688 -4.171875 17.828125 -4.171875 C 18.359375 -4.171875 18.984375 -4.492188 19.703125 -5.140625 C 20.429688 -5.785156 21.40625 -6.835938 22.625 -8.296875 C 22.945312 -8.671875 23.304688 -8.859375 23.703125 -8.859375 C 24.046875 -8.859375 24.316406 -8.695312 24.515625 -8.375 C 24.710938 -8.0625 24.8125 -7.625 24.8125 -7.0625 C 24.8125 -6.007812 24.5625 -5.191406 24.0625 -4.609375 C 22.925781 -3.203125 21.703125 -2.046875 20.390625 -1.140625 C 19.078125 -0.242188 17.585938 0.203125 15.921875 0.203125 C 14.566406 0.203125 13.546875 -0.1875 12.859375 -0.96875 C 12.171875 -1.75 11.828125 -2.882812 11.828125 -4.375 C 11.828125 -5.113281 12.015625 -6.4375 12.390625 -8.34375 C 12.734375 -10.007812 12.90625 -11.160156 12.90625 -11.796875 C 12.90625 -12.210938 12.757812 -12.421875 12.46875 -12.421875 C 12.125 -12.421875 11.640625 -11.976562 11.015625 -11.09375 C 10.390625 -10.207031 9.753906 -9.035156 9.109375 -7.578125 C 8.460938 -6.128906 7.941406 -4.597656 7.546875 -2.984375 C 7.253906 -1.734375 6.914062 -0.890625 6.53125 -0.453125 C 6.144531 -0.015625 5.539062 0.203125 4.71875 0.203125 Z M 4.71875 0.203125 "/></g></g></g><g fill="#6c4646" fill-opacity="1"><g transform="translate(298.694126, 196.658578)"><g><path d="M 19.609375 -8.859375 C 19.953125 -8.859375 20.222656 -8.695312 20.421875 -8.375 C 20.617188 -8.0625 20.71875 -7.625 20.71875 -7.0625 C 20.71875 -6.007812 20.46875 -5.191406 19.96875 -4.609375 C 18.988281 -3.410156 17.601562 -2.304688 15.8125 -1.296875 C 14.03125 -0.296875 12.117188 0.203125 10.078125 0.203125 C 7.304688 0.203125 5.148438 -0.550781 3.609375 -2.0625 C 2.078125 -3.570312 1.3125 -5.640625 1.3125 -8.265625 C 1.3125 -10.085938 1.691406 -11.785156 2.453125 -13.359375 C 3.222656 -14.929688 4.289062 -16.179688 5.65625 -17.109375 C 7.019531 -18.035156 8.5625 -18.5 10.28125 -18.5 C 11.8125 -18.5 13.039062 -18.039062 13.96875 -17.125 C 14.894531 -16.21875 15.359375 -14.984375 15.359375 -13.421875 C 15.359375 -11.597656 14.703125 -10.03125 13.390625 -8.71875 C 12.085938 -7.40625 9.875 -6.363281 6.75 -5.59375 C 7.40625 -4.375 8.660156 -3.765625 10.515625 -3.765625 C 11.710938 -3.765625 13.070312 -4.179688 14.59375 -5.015625 C 16.113281 -5.847656 17.429688 -6.941406 18.546875 -8.296875 C 18.859375 -8.671875 19.210938 -8.859375 19.609375 -8.859375 Z M 9.609375 -14.609375 C 8.628906 -14.609375 7.800781 -14.039062 7.125 -12.90625 C 6.445312 -11.769531 6.109375 -10.394531 6.109375 -8.78125 L 6.109375 -8.6875 C 7.671875 -9.0625 8.898438 -9.617188 9.796875 -10.359375 C 10.703125 -11.097656 11.15625 -11.957031 11.15625 -12.9375 C 11.15625 -13.445312 11.015625 -13.851562 10.734375 -14.15625 C 10.460938 -14.457031 10.085938 -14.609375 9.609375 -14.609375 Z M 9.609375 -14.609375 "/></g></g></g><g fill="#6c4646" fill-opacity="1"><g transform="translate(314.295147, 196.658578)"><g><path d="M 9.484375 0.203125 C 6.890625 0.203125 4.867188 -0.53125 3.421875 -2 C 1.984375 -3.46875 1.265625 -5.410156 1.265625 -7.828125 C 1.265625 -9.960938 1.6875 -11.835938 2.53125 -13.453125 C 3.382812 -15.066406 4.484375 -16.3125 5.828125 -17.1875 C 7.179688 -18.0625 8.597656 -18.5 10.078125 -18.5 C 11.535156 -18.5 12.664062 -18.066406 13.46875 -17.203125 C 14.28125 -16.347656 14.6875 -15.242188 14.6875 -13.890625 C 14.6875 -12.785156 14.441406 -11.847656 13.953125 -11.078125 C 13.460938 -10.304688 12.820312 -9.921875 12.03125 -9.921875 C 11.53125 -9.921875 11.125 -10.039062 10.8125 -10.28125 C 10.507812 -10.519531 10.359375 -10.851562 10.359375 -11.28125 C 10.359375 -11.457031 10.382812 -11.664062 10.4375 -11.90625 C 10.488281 -12.144531 10.53125 -12.316406 10.5625 -12.421875 C 10.695312 -12.816406 10.765625 -13.1875 10.765625 -13.53125 C 10.765625 -13.882812 10.675781 -14.148438 10.5 -14.328125 C 10.332031 -14.515625 10.085938 -14.609375 9.765625 -14.609375 C 9.160156 -14.609375 8.59375 -14.335938 8.0625 -13.796875 C 7.53125 -13.253906 7.101562 -12.519531 6.78125 -11.59375 C 6.46875 -10.664062 6.3125 -9.644531 6.3125 -8.53125 C 6.3125 -5.46875 7.648438 -3.9375 10.328125 -3.9375 C 11.410156 -3.9375 12.578125 -4.296875 13.828125 -5.015625 C 15.085938 -5.742188 16.328125 -6.835938 17.546875 -8.296875 C 17.867188 -8.671875 18.226562 -8.859375 18.625 -8.859375 C 18.96875 -8.859375 19.238281 -8.695312 19.4375 -8.375 C 19.632812 -8.0625 19.734375 -7.625 19.734375 -7.0625 C 19.734375 -6.0625 19.484375 -5.242188 18.984375 -4.609375 C 17.734375 -3.066406 16.238281 -1.878906 14.5 -1.046875 C 12.769531 -0.210938 11.097656 0.203125 9.484375 0.203125 Z M 9.484375 0.203125 "/></g></g></g><g fill="#6c4646" fill-opacity="1"><g transform="translate(328.90374, 196.658578)"><g><path d="M 19.609375 -8.859375 C 19.953125 -8.859375 20.222656 -8.695312 20.421875 -8.375 C 20.617188 -8.0625 20.71875 -7.625 20.71875 -7.0625 C 20.71875 -6.007812 20.46875 -5.191406 19.96875 -4.609375 C 18.832031 -3.203125 17.585938 -2.046875 16.234375 -1.140625 C 14.890625 -0.242188 13.34375 0.203125 11.59375 0.203125 C 6.195312 0.203125 3.5 -3.597656 3.5 -11.203125 C 3.5 -12.359375 3.535156 -13.535156 3.609375 -14.734375 L 2.0625 -14.734375 C 1.269531 -14.734375 0.734375 -14.878906 0.453125 -15.171875 C 0.179688 -15.460938 0.046875 -15.925781 0.046875 -16.5625 C 0.046875 -18.039062 0.640625 -18.78125 1.828125 -18.78125 L 4.09375 -18.78125 C 4.539062 -21.6875 5.226562 -24.34375 6.15625 -26.75 C 7.082031 -29.164062 8.195312 -31.085938 9.5 -32.515625 C 10.8125 -33.941406 12.222656 -34.65625 13.734375 -34.65625 C 14.847656 -34.65625 15.722656 -34.164062 16.359375 -33.1875 C 16.992188 -32.207031 17.3125 -30.976562 17.3125 -29.5 C 17.3125 -25.394531 15.59375 -21.820312 12.15625 -18.78125 L 16.59375 -18.78125 C 17.019531 -18.78125 17.320312 -18.6875 17.5 -18.5 C 17.6875 -18.3125 17.78125 -17.96875 17.78125 -17.46875 C 17.78125 -15.644531 16.285156 -14.734375 13.296875 -14.734375 L 8.453125 -14.734375 C 8.398438 -13.410156 8.375 -12.378906 8.375 -11.640625 C 8.375 -8.878906 8.695312 -6.941406 9.34375 -5.828125 C 10 -4.722656 11.023438 -4.171875 12.421875 -4.171875 C 13.566406 -4.171875 14.570312 -4.515625 15.4375 -5.203125 C 16.3125 -5.890625 17.347656 -6.921875 18.546875 -8.296875 C 18.859375 -8.671875 19.210938 -8.859375 19.609375 -8.859375 Z M 12.671875 -30.84375 C 12.265625 -30.84375 11.816406 -30.347656 11.328125 -29.359375 C 10.835938 -28.367188 10.375 -26.992188 9.9375 -25.234375 C 9.507812 -23.472656 9.148438 -21.519531 8.859375 -19.375 C 10.421875 -20.726562 11.585938 -22.242188 12.359375 -23.921875 C 13.140625 -25.597656 13.53125 -27.125 13.53125 -28.5 C 13.53125 -30.0625 13.242188 -30.84375 12.671875 -30.84375 Z M 12.671875 -30.84375 "/></g></g></g></svg>