<svg xmlns="http://www.w3.org/2000/svg" xmlns:xlink="http://www.w3.org/1999/xlink" width="500" zoomAndPan="magnify" viewBox="0 0 375 374.999991" height="500" preserveAspectRatio="xMidYMid meet" version="1.0"><defs><g/><clipPath id="a39d6b9534"><path d="M 29 203 L 108 203 L 108 216.527344 L 29 216.527344 Z M 29 203 " clip-rule="nonzero"/></clipPath><clipPath id="4e6fafc287"><path d="M 48 145.277344 L 116.308594 145.277344 L 116.308594 214 L 48 214 Z M 48 145.277344 " clip-rule="nonzero"/></clipPath><clipPath id="96dda3ba5c"><path d="M 22.558594 153 L 81 153 L 81 210 L 22.558594 210 Z M 22.558594 153 " clip-rule="nonzero"/></clipPath></defs><g clip-path="url(#a39d6b9534)"><path fill="#e07634" d="M 72.6875 209.539062 C 71.578125 209.140625 70.46875 208.738281 69.359375 208.34375 C 68.609375 208.074219 67.859375 207.8125 67.113281 207.550781 C 66.632812 207.386719 66.15625 207.222656 65.679688 207.0625 C 64.628906 206.710938 63.582031 206.375 62.535156 206.0625 C 60.5625 205.46875 58.59375 204.960938 56.628906 204.582031 C 55.53125 204.367188 54.433594 204.199219 53.335938 204.078125 C 51.320312 203.855469 49.308594 203.808594 47.300781 203.984375 C 46.199219 204.082031 45.097656 204.246094 44 204.488281 C 42.441406 204.835938 40.882812 205.339844 39.324219 206.027344 C 38.339844 206.460938 37.355469 206.972656 36.371094 207.5625 C 36.019531 207.773438 35.667969 207.996094 35.3125 208.230469 C 34.414062 208.824219 33.519531 209.488281 32.621094 210.226562 C 31.675781 211.003906 30.734375 211.867188 29.792969 212.816406 C 43.367188 204.5 53.632812 205.859375 63.148438 209.070312 C 63.632812 209.234375 64.113281 209.402344 64.597656 209.574219 C 65.441406 209.878906 66.285156 210.195312 67.125 210.515625 C 69.390625 211.382812 71.636719 212.292969 73.898438 213.140625 C 77.472656 214.480469 81.082031 215.648438 84.867188 216.210938 C 91.480469 217.191406 98.636719 216.3125 107.109375 211.230469 C 104.40625 212.683594 101.707031 213.589844 99.011719 214.070312 C 91.519531 215.410156 84.058594 213.46875 76.648438 210.9375 C 75.441406 210.523438 74.238281 210.097656 73.035156 209.664062 Z M 72.6875 209.539062 " fill-opacity="1" fill-rule="evenodd"/></g><g clip-path="url(#4e6fafc287)"><path fill="#6cdc45" d="M 101.480469 186.652344 C 101.347656 186.246094 101.222656 185.835938 101.101562 185.425781 C 101.234375 185.8125 101.363281 186.222656 101.480469 186.652344 Z M 80.488281 205.316406 C 79.34375 205.257812 78.210938 205.25 77.085938 205.292969 C 76.488281 205.3125 75.894531 205.351562 75.304688 205.402344 C 73.800781 205.527344 72.320312 205.746094 70.859375 206.054688 C 69.59375 206.320312 68.34375 206.652344 67.113281 207.046875 C 67.859375 207.308594 68.609375 207.570312 69.359375 207.839844 C 70.46875 208.234375 71.574219 208.636719 72.6875 209.035156 L 73.035156 209.160156 C 74.238281 209.59375 75.441406 210.019531 76.648438 210.433594 C 84.058594 212.964844 91.519531 214.902344 99.011719 213.566406 C 96.527344 210.46875 91.996094 207.75 86.316406 206.089844 C 89.753906 197.398438 93.621094 191.257812 98.652344 185.925781 C 97.898438 187.328125 97.300781 188.691406 96.835938 190.003906 C 99.867188 188.898438 99.761719 189.210938 96.523438 190.953125 C 95.929688 192.859375 95.625 194.644531 95.546875 196.269531 C 98.28125 195.15625 98.277344 195.613281 95.53125 197.644531 C 95.585938 199.386719 95.90625 200.90625 96.410156 202.136719 C 97.75 201.410156 98.8125 200.535156 99.636719 199.5625 C 98.675781 196.691406 98.113281 194.589844 100.71875 198.019531 C 101.46875 196.699219 101.894531 195.269531 102.089844 193.824219 C 99.082031 189.726562 99.113281 189.421875 102.179688 192.921875 C 102.335938 190.707031 101.992188 188.5 101.480469 186.652344 C 102.1875 188.839844 103.042969 190.976562 104.015625 193.027344 C 106.113281 188.296875 105.339844 191.019531 104.480469 193.976562 C 105.441406 195.910156 106.511719 197.761719 107.65625 199.503906 C 108.554688 194.652344 108.566406 196.042969 108.171875 200.269531 C 108.847656 201.265625 109.554688 202.21875 110.28125 203.128906 C 110.808594 201.023438 111.480469 198.316406 111.226562 195.519531 C 107.304688 192.316406 107.261719 191.972656 111.089844 194.488281 C 110.691406 192.226562 109.605469 189.953125 107.277344 187.925781 C 104.449219 186.96875 102.96875 186.390625 106.285156 187.132812 C 104.886719 186.109375 103.125 185.164062 100.921875 184.335938 C 103.253906 184.167969 105.277344 185.179688 107.460938 185.921875 C 107.621094 185.214844 107.386719 184.410156 107.347656 183.65625 C 108.027344 184.664062 108.371094 185.835938 108.691406 187.015625 C 109.765625 187.484375 110.644531 188.003906 111.972656 188.660156 C 111.6875 187.609375 111.347656 186.316406 111.066406 185.261719 C 111.816406 186.480469 112.707031 187.867188 112.882812 189.789062 C 113.988281 190.300781 114.464844 190.617188 116.042969 191.441406 C 113.667969 183.4375 106.871094 180.0625 101.074219 183.195312 C 107.539062 178.875 106.375 171.847656 105.839844 170.910156 C 102.914062 172.230469 102.585938 176.519531 102.371094 179.351562 C 101.800781 177.890625 101.765625 174.234375 102.449219 172.035156 C 101.800781 173.117188 100.972656 175.363281 100.273438 176.753906 C 100.054688 177.1875 99.894531 177.191406 100.171875 177.578125 C 100.675781 178.285156 100.757812 179.152344 101.09375 179.921875 L 99.496094 177.753906 L 98.863281 181.921875 C 99.519531 175.46875 92.847656 170.515625 86.371094 171.1875 C 87.523438 171.96875 88.628906 172.761719 89.675781 173.582031 C 96.984375 175.003906 90.613281 174.335938 91.0625 174.722656 C 92.019531 175.550781 92.917969 176.414062 93.75 177.339844 C 97.035156 178.132812 96.988281 177.9375 94.863281 178.667969 C 95.84375 179.929688 96.707031 181.300781 97.417969 182.820312 C 95.242188 180.1875 92.65625 178.492188 89.867188 177.539062 C 88.507812 175.128906 86.472656 172.898438 83.683594 171.015625 C 82.601562 170.285156 81.410156 169.609375 80.097656 168.996094 C 81.046875 169.328125 82.03125 169.617188 83.042969 169.871094 C 86.246094 170.667969 89.730469 171.078125 93.253906 171.179688 C 91.582031 167.140625 91.535156 166.113281 95.210938 171.207031 C 97.214844 171.199219 99.214844 171.101562 101.167969 170.917969 C 97.703125 166.070312 98.464844 165.933594 103.105469 170.710938 C 104.984375 170.480469 106.804688 170.179688 108.523438 169.816406 C 100.289062 163.824219 90.136719 160.882812 80.015625 165.546875 C 79.601562 165.738281 79.183594 165.945312 78.765625 166.160156 C 79.101562 165.855469 79.445312 165.5625 79.789062 165.273438 C 81.3125 164.011719 82.910156 162.933594 84.574219 161.996094 C 82.113281 159.804688 81.941406 160.042969 86.835938 160.832031 C 88.480469 160.054688 90.1875 159.394531 91.949219 158.816406 C 92.777344 158.550781 83.785156 155.839844 94.472656 158.0625 C 96.351562 157.546875 98.296875 157.101562 100.300781 156.699219 C 92.269531 152.308594 81.058594 154.804688 77.707031 163.035156 C 77.5625 163.386719 77.433594 163.75 77.320312 164.125 L 77.617188 162.949219 L 78.832031 158.132812 L 75.4375 160.15625 C 76.328125 159.304688 76.933594 158.179688 78.015625 157.511719 C 78.605469 157.148438 78.390625 157.050781 78.34375 156.339844 C 78.191406 154.0625 78.34375 150.558594 78.082031 148.726562 C 77.753906 152.085938 75.632812 157.011719 74.03125 158.664062 C 75.351562 154.710938 77.339844 148.722656 74.132812 145.277344 C 73.179688 146.011719 69.75 151.28125 70.898438 157.933594 C 71.183594 159.566406 71.738281 161.285156 72.679688 163.035156 C 72.953125 163.546875 73.257812 164.0625 73.597656 164.578125 C 70.789062 161.105469 66.90625 159.390625 62.773438 159.492188 C 62.597656 159.496094 62.421875 159.503906 62.246094 159.515625 C 61.039062 159.589844 59.8125 159.816406 58.589844 160.199219 C 57.933594 160.40625 57.28125 160.65625 56.628906 160.949219 C 55.515625 161.453125 54.414062 162.089844 53.335938 162.859375 C 51.707031 164.019531 50.144531 165.484375 48.695312 167.257812 C 51.007812 167.058594 51.910156 166.914062 53.335938 166.839844 L 53.898438 166.816406 C 54.65625 165.394531 55.625 164.339844 56.628906 163.472656 C 57.398438 162.808594 58.1875 162.253906 58.925781 161.722656 C 58.21875 162.636719 57.398438 163.703125 56.628906 164.699219 L 55.777344 165.804688 C 56.074219 165.785156 56.355469 165.765625 56.628906 165.746094 C 58.351562 165.617188 59.660156 165.464844 61.144531 165.445312 L 61.589844 164.875 C 62.320312 163.949219 63.085938 163.0625 63.980469 162.316406 C 64.261719 162.082031 64.554688 161.863281 64.863281 161.660156 C 64.679688 162.042969 64.453125 162.421875 64.230469 162.796875 C 63.878906 163.40625 63.542969 164.015625 63.425781 164.660156 C 64.003906 164.703125 64.582031 164.726562 65.152344 164.753906 C 66.730469 164.820312 68.289062 164.871094 69.808594 165.140625 C 70.953125 165.34375 72.078125 165.671875 73.167969 166.222656 C 72.308594 166.191406 71.480469 166.183594 70.683594 166.199219 C 68.945312 166.238281 67.359375 166.390625 65.910156 166.640625 C 65.363281 166.734375 64.835938 166.84375 64.328125 166.964844 C 65.113281 167.105469 65.714844 167.222656 66.152344 167.320312 C 67.433594 167.597656 67.292969 167.695312 66.277344 167.679688 C 65.507812 167.667969 64.238281 167.59375 62.703125 167.488281 L 62.535156 167.476562 C 60.949219 168 59.574219 168.664062 58.375 169.4375 C 56.332031 170.761719 54.808594 172.398438 53.660156 174.183594 C 54.886719 173.957031 55.875 173.785156 56.628906 173.671875 C 59.027344 173.3125 59.027344 173.535156 56.628906 174.339844 C 55.8125 174.617188 54.714844 174.960938 53.335938 175.371094 L 52.886719 175.503906 C 51.296875 178.5 50.59375 181.769531 50.125 184.589844 C 50.027344 185.191406 49.9375 185.773438 49.851562 186.328125 C 50.851562 185.78125 51.851562 185.199219 52.847656 184.589844 L 53.335938 184.289062 C 53.667969 184.082031 53.996094 183.871094 54.328125 183.660156 C 56.191406 177.71875 56.992188 175.84375 55.457031 182.914062 C 55.847656 182.652344 56.238281 182.382812 56.628906 182.109375 C 58.761719 180.617188 60.859375 178.992188 62.886719 177.242188 C 63.09375 175.429688 63.300781 173.675781 63.480469 172.730469 C 63.644531 171.867188 63.789062 171.679688 63.894531 172.730469 C 63.960938 173.378906 64.015625 174.496094 64.050781 176.222656 C 64.324219 175.972656 64.597656 175.726562 64.871094 175.472656 C 65.828125 174.59375 66.765625 173.683594 67.683594 172.75 L 67.703125 172.730469 C 68.75 171.664062 69.765625 170.566406 70.75 169.4375 L 71.09375 169.039062 L 70.785156 169.4375 C 70.027344 170.433594 69.277344 171.539062 68.597656 172.730469 C 68.367188 173.128906 68.148438 173.535156 67.9375 173.953125 C 67.421875 174.960938 66.964844 176.019531 66.59375 177.117188 C 67.25 176.796875 67.835938 176.515625 68.347656 176.273438 C 71.976562 174.566406 72.015625 174.8125 68.460938 177.015625 C 67.824219 177.410156 67.074219 177.867188 66.207031 178.386719 C 65.929688 179.410156 65.734375 180.460938 65.636719 181.527344 C 65.546875 182.535156 65.546875 183.558594 65.652344 184.589844 L 65.679688 184.839844 C 67.746094 183.644531 68.75 183.261719 69.046875 183.429688 C 69.171875 183.5 69.167969 183.667969 69.066406 183.914062 C 68.765625 184.628906 67.621094 185.996094 66.265625 187.542969 C 66.785156 189.175781 67.613281 190.808594 68.828125 192.414062 C 68.9375 192.558594 69.054688 192.707031 69.171875 192.851562 C 70.425781 191.59375 71.613281 189.929688 72.617188 187.882812 C 72.714844 187.683594 72.808594 187.484375 72.902344 187.277344 C 72.210938 186.109375 71.722656 185.214844 71.441406 184.589844 C 70.792969 183.140625 71.25 183.140625 72.816406 184.589844 C 73.070312 184.824219 73.355469 185.097656 73.664062 185.410156 C 73.761719 185.140625 73.859375 184.867188 73.949219 184.589844 C 74.621094 182.542969 75.117188 180.226562 75.363281 177.664062 C 71.96875 173.472656 72.003906 172.988281 75.476562 176.207031 C 75.496094 175.886719 75.507812 175.5625 75.519531 175.230469 C 75.578125 173.476562 75.519531 171.617188 75.332031 169.660156 C 76.285156 172.1875 77.105469 174.695312 77.804688 177.25 L 77.738281 177.265625 L 77.824219 177.324219 C 79.015625 181.707031 79.832031 186.226562 80.273438 191.234375 C 80.503906 193.890625 80.628906 196.679688 80.648438 199.660156 C 80.65625 201.324219 80.550781 203.503906 80.488281 205.316406 Z M 98.863281 181.921875 C 98.835938 182.207031 98.789062 182.5 98.730469 182.792969 Z M 80.097656 168.996094 C 79.320312 168.726562 78.570312 168.425781 77.84375 168.101562 C 77.671875 168.019531 77.5 167.941406 77.328125 167.859375 L 77.785156 168.027344 C 78.59375 168.328125 79.363281 168.652344 80.097656 168.996094 Z M 77.320312 164.125 L 77.003906 165.378906 C 77.089844 164.949219 77.195312 164.53125 77.320312 164.125 Z M 71.09375 169.042969 C 71.386719 168.671875 71.679688 168.316406 71.96875 167.980469 L 72.304688 167.597656 L 71.980469 167.992188 C 71.6875 168.34375 71.390625 168.695312 71.09375 169.042969 Z M 84.507812 199.800781 C 84.332031 197.886719 84.144531 195.980469 83.929688 194.09375 C 84.6875 194.28125 85.464844 194.28125 86.246094 194.132812 L 86.667969 193.441406 C 89.117188 189.433594 89.011719 189.925781 88.007812 193.558594 C 88.800781 193.207031 89.582031 192.734375 90.347656 192.183594 C 93.347656 185.257812 92.824219 187.121094 91.308594 191.445312 C 92.777344 189.363281 94.03125 188.363281 95.097656 187.488281 C 90.644531 191.941406 87.710938 197.234375 84.777344 202.75 Z M 95.832031 184.25 C 94.429688 184.308594 93.144531 184.507812 91.972656 184.828125 C 91.953125 184.4375 91.921875 184.050781 91.875 183.664062 C 93.21875 183.96875 94.542969 184.171875 95.832031 184.25 Z M 83.652344 191.773438 C 83.480469 190.46875 83.296875 189.175781 83.082031 187.886719 C 82.898438 186.785156 82.699219 185.6875 82.472656 184.59375 C 82.097656 182.773438 81.65625 180.960938 81.128906 179.164062 L 81.53125 179 C 81.742188 179.6875 81.945312 180.449219 82.132812 181.289062 L 82.214844 179.976562 C 82.464844 180.109375 82.71875 180.242188 82.976562 180.371094 C 82.988281 181.101562 83 181.917969 83.011719 182.832031 C 83.363281 183.40625 83.734375 183.960938 84.121094 184.488281 C 84.527344 185.035156 84.949219 185.546875 85.390625 186.019531 C 86.117188 180.40625 86.242188 179.78125 87.347656 187.109375 C 85.605469 188.488281 84.390625 190.269531 83.710938 192.234375 L 83.648438 191.773438 Z M 82.957031 179.339844 C 82.738281 179.484375 82.492188 179.640625 82.226562 179.808594 L 82.300781 178.6875 C 82.53125 178.597656 82.742188 178.519531 82.933594 178.449219 Z M 80.699219 176.734375 L 80.371094 176.777344 C 80.03125 175.777344 79.660156 174.78125 79.253906 173.792969 C 79.710938 174.65625 80.214844 175.585938 80.699219 176.734375 Z M 82.855469 176.5625 L 82.535156 176.574219 L 82.476562 176.578125 L 82.492188 176.449219 C 82.632812 175.109375 82.761719 174.921875 82.855469 176.5625 Z M 97.871094 184.265625 C 97.207031 184.300781 96.523438 184.292969 95.832031 184.25 C 96.484375 184.226562 97.167969 184.230469 97.871094 184.265625 Z M 97.871094 184.265625 " fill-opacity="1" fill-rule="nonzero"/></g><path fill="#e07634" d="M 63.488281 215.929688 C 56.261719 215.546875 41.734375 204.03125 30.699219 214.0625 C 45.484375 207.207031 48.882812 216.8125 63.488281 215.929688 Z M 63.488281 215.929688 " fill-opacity="1" fill-rule="evenodd"/><path fill="#e07634" d="M 73.003906 214.421875 C 69.632812 214.242188 62.855469 208.871094 57.707031 213.550781 C 64.605469 210.351562 66.191406 214.832031 73.003906 214.421875 Z M 73.003906 214.421875 " fill-opacity="1" fill-rule="evenodd"/><path fill="#e07634" d="M 44.472656 209.5625 C 53.910156 205.1875 56.078125 211.316406 65.402344 210.753906 C 60.789062 210.511719 51.515625 203.160156 44.472656 209.5625 Z M 44.472656 209.5625 " fill-opacity="1" fill-rule="evenodd"/><g clip-path="url(#96dda3ba5c)"><path fill="#5cbbff" d="M 57.671875 159.261719 C 57.890625 159.460938 58.109375 159.679688 58.328125 159.914062 C 58.378906 159.898438 58.429688 159.882812 58.480469 159.863281 C 59.625 159.507812 60.804688 159.269531 61.996094 159.179688 C 61.96875 159.140625 61.9375 159.101562 61.910156 159.066406 C 61.984375 159.097656 62.058594 159.132812 62.128906 159.171875 C 62.160156 159.167969 62.191406 159.164062 62.222656 159.164062 C 62.402344 159.152344 62.582031 159.144531 62.761719 159.140625 C 66.226562 159.054688 69.410156 160.21875 71.953125 162.390625 C 71.292969 160.992188 70.816406 159.523438 70.550781 157.996094 C 70.535156 157.902344 70.519531 157.808594 70.503906 157.71875 C 68.660156 156.710938 66.707031 155.882812 64.664062 155.25 C 62.15625 154.46875 59.515625 153.984375 56.789062 153.839844 L 56.789062 153.800781 L 56.628906 153.800781 L 56.628906 153.792969 L 55.441406 153.792969 L 55.019531 153.789062 L 54.523438 153.792969 L 53.335938 153.792969 L 53.335938 153.835938 C 49.46875 154.027344 45.777344 154.90625 42.386719 156.34375 C 36.5625 158.804688 31.609375 162.917969 28.109375 168.097656 C 26.363281 170.683594 24.972656 173.542969 24.027344 176.589844 C 23.074219 179.640625 22.566406 182.882812 22.566406 186.242188 C 22.566406 190.71875 23.472656 194.988281 25.117188 198.875 C 26.859375 202.996094 29.429688 206.683594 32.621094 209.726562 C 33.515625 208.988281 34.414062 208.324219 35.3125 207.730469 C 33.75 206.296875 32.347656 204.699219 31.128906 202.960938 L 33.902344 202.960938 C 34.632812 204.402344 35.460938 205.773438 36.371094 207.0625 C 37.355469 206.472656 38.339844 205.960938 39.324219 205.523438 C 38.730469 204.710938 38.171875 203.855469 37.652344 202.960938 L 43.6875 202.960938 C 43.789062 203.308594 43.894531 203.652344 44 203.988281 C 45.097656 203.746094 46.199219 203.582031 47.296875 203.484375 L 47.128906 202.960938 L 53.332031 202.960938 L 53.332031 203.578125 C 54.429688 203.699219 55.527344 203.867188 56.628906 204.078125 L 56.628906 202.960938 L 63.449219 202.960938 C 63.234375 203.640625 63.011719 204.300781 62.773438 204.9375 C 62.695312 205.148438 62.613281 205.355469 62.535156 205.5625 C 63.582031 205.875 64.628906 206.210938 65.679688 206.5625 C 66.121094 205.421875 66.527344 204.21875 66.890625 202.960938 L 72.929688 202.960938 C 72.386719 203.894531 71.800781 204.785156 71.175781 205.628906 C 72.53125 205.359375 73.898438 205.167969 75.273438 205.050781 L 75.53125 205.03125 C 75.933594 204.359375 76.316406 203.667969 76.679688 202.960938 L 78.902344 202.960938 C 78.429688 203.640625 77.925781 204.296875 77.394531 204.929688 C 78.335938 204.90625 79.277344 204.914062 80.214844 204.953125 C 80.273438 203.191406 80.300781 201.429688 80.292969 199.667969 C 80.292969 199.664062 80.292969 199.664062 80.292969 199.664062 L 78.144531 199.664062 C 78.984375 197.484375 79.621094 195.175781 80.039062 192.773438 C 80 192.269531 79.960938 191.769531 79.917969 191.269531 C 79.511719 186.617188 78.734375 182.058594 77.515625 177.546875 L 76.878906 177.109375 L 77.363281 176.996094 C 76.914062 175.367188 76.40625 173.753906 75.855469 172.160156 C 75.898438 173.1875 75.902344 174.21875 75.871094 175.25 C 75.859375 175.566406 75.84375 175.886719 75.828125 176.203125 C 76.628906 178.839844 77.125 181.65625 77.261719 184.59375 L 74.316406 184.59375 C 74.304688 184.632812 74.292969 184.667969 74.28125 184.707031 C 74.191406 184.984375 74.09375 185.261719 73.996094 185.535156 L 73.804688 186.054688 L 73.414062 185.664062 C 73.136719 185.390625 72.859375 185.117188 72.574219 184.855469 C 72.519531 184.804688 72.414062 184.707031 72.289062 184.59375 L 71.828125 184.59375 C 72.222656 185.445312 72.730469 186.300781 73.207031 187.101562 L 73.300781 187.261719 L 73.222656 187.429688 C 73.152344 187.582031 73.082031 187.734375 73.007812 187.886719 L 77.257812 187.886719 C 77.101562 191.304688 76.457031 194.566406 75.40625 197.5625 C 75.15625 198.28125 74.882812 198.980469 74.585938 199.664062 L 67.722656 199.664062 C 68.183594 197.53125 68.542969 195.277344 68.777344 192.929688 C 68.695312 192.832031 68.621094 192.730469 68.542969 192.628906 C 67.402344 191.121094 66.5 189.457031 65.925781 187.652344 L 65.867188 187.460938 L 66 187.3125 C 66.605469 186.621094 67.210938 185.925781 67.78125 185.203125 C 68.085938 184.816406 68.546875 184.234375 68.738281 183.78125 L 68.746094 183.753906 C 68.097656 183.863281 66.203125 184.945312 65.851562 185.148438 L 65.386719 185.417969 L 65.296875 184.628906 C 65.296875 184.617188 65.296875 184.605469 65.292969 184.59375 L 56.628906 184.59375 L 56.628906 182.542969 C 56.304688 182.765625 55.980469 182.988281 55.652344 183.207031 L 54.925781 183.699219 L 55.109375 182.839844 C 55.214844 182.359375 55.320312 181.875 55.421875 181.390625 C 55.160156 182.179688 54.910156 182.976562 54.660156 183.765625 L 54.625 183.886719 L 54.515625 183.957031 C 54.1875 184.171875 53.855469 184.382812 53.519531 184.589844 L 53.03125 184.894531 C 52.042969 185.5 51.039062 186.082031 50.019531 186.640625 L 49.394531 186.980469 L 49.503906 186.277344 C 49.589844 185.714844 49.675781 185.152344 49.765625 184.59375 L 44.789062 184.59375 C 44.882812 181.183594 45.234375 177.921875 45.8125 174.929688 C 45.957031 174.175781 46.117188 173.445312 46.28125 172.730469 L 53.335938 172.730469 L 53.335938 174.039062 L 53.363281 173.992188 C 54.527344 172.1875 55.984375 170.660156 57.742188 169.4375 L 56.628906 169.4375 L 56.628906 166.101562 C 56.351562 166.121094 56.074219 166.140625 55.796875 166.15625 L 55.019531 166.203125 L 56.347656 164.484375 L 56.628906 164.121094 L 56.628906 163.941406 C 55.648438 164.824219 54.835938 165.804688 54.210938 166.980469 L 54.113281 167.160156 L 53.351562 167.191406 C 53.347656 167.195312 53.339844 167.195312 53.332031 167.195312 L 53.332031 169.441406 L 47.191406 169.441406 C 47.382812 168.851562 47.578125 168.28125 47.785156 167.730469 C 48.382812 166.113281 49.054688 164.652344 49.78125 163.363281 C 50.328125 162.402344 50.902344 161.542969 51.5 160.796875 C 52.09375 160.039062 52.710938 159.402344 53.332031 158.890625 L 53.332031 162.429688 C 54.328125 161.734375 55.378906 161.128906 56.480469 160.628906 C 56.53125 160.609375 56.578125 160.585938 56.628906 160.566406 L 56.628906 158.417969 C 56.976562 158.664062 57.320312 158.941406 57.667969 159.261719 Z M 56.628906 187.886719 L 65.792969 187.886719 C 65.707031 191.355469 65.347656 194.671875 64.761719 197.71875 C 64.632812 198.378906 64.496094 199.027344 64.347656 199.660156 L 56.628906 199.660156 Z M 53.335938 187.886719 L 53.335938 199.660156 L 46.234375 199.660156 L 46.140625 199.253906 C 45.367188 195.800781 44.890625 191.953125 44.789062 187.886719 Z M 41.496094 187.886719 C 41.578125 191.566406 41.960938 195.082031 42.585938 198.34375 C 42.671875 198.789062 42.761719 199.226562 42.855469 199.660156 L 35.996094 199.660156 C 35.878906 199.390625 35.765625 199.121094 35.65625 198.847656 C 34.324219 195.507812 33.5 191.800781 33.320312 187.886719 Z M 42.902344 172.730469 C 42.09375 176.371094 41.605469 180.375 41.496094 184.589844 L 33.320312 184.589844 C 33.476562 181.179688 34.117188 177.933594 35.164062 174.945312 C 35.425781 174.191406 35.714844 173.453125 36.027344 172.730469 Z M 30.023438 187.886719 C 30.183594 191.675781 30.890625 195.300781 32.0625 198.652344 C 32.183594 198.992188 32.308594 199.328125 32.4375 199.660156 L 29.128906 199.660156 C 28.34375 198.152344 27.683594 196.566406 27.171875 194.910156 C 26.476562 192.671875 26.042969 190.320312 25.90625 187.886719 Z M 32.46875 172.730469 C 31.058594 176.375 30.199219 180.378906 30.023438 184.589844 L 25.910156 184.589844 C 26.097656 181.164062 26.878906 177.902344 28.152344 174.890625 C 28.460938 174.152344 28.804688 173.433594 29.171875 172.730469 Z M 46.851562 161.863281 C 45.625 164.054688 44.585938 166.601562 43.753906 169.4375 L 37.699219 169.4375 C 39.359375 166.601562 41.421875 164.152344 43.769531 162.195312 C 45.296875 160.933594 46.941406 159.878906 48.671875 159.0625 C 48.027344 159.914062 47.417969 160.851562 46.851562 161.863281 Z M 39.613281 161.546875 C 37.378906 163.800781 35.464844 166.464844 33.945312 169.4375 L 31.183594 169.4375 C 33.230469 166.550781 35.78125 164.042969 38.714844 162.058594 C 39.070312 161.824219 39.429688 161.59375 39.792969 161.371094 Z M 39.613281 161.546875 " fill-opacity="1" fill-rule="evenodd"/></g><g fill="#6c4646" fill-opacity="1"><g transform="translate(131.699935, 187.124904)"><g><path d="M 40.53125 -9.21875 C 40.882812 -9.21875 41.164062 -9.050781 41.375 -8.71875 C 41.582031 -8.382812 41.6875 -7.929688 41.6875 -7.359375 C 41.6875 -6.285156 41.425781 -5.429688 40.90625 -4.796875 C 39.582031 -3.191406 38.242188 -1.957031 36.890625 -1.09375 C 35.546875 -0.226562 33.945312 0.203125 32.09375 0.203125 C 30.3125 0.203125 28.789062 -0.273438 27.53125 -1.234375 C 26.28125 -2.203125 25.09375 -3.859375 23.96875 -6.203125 C 23.050781 -8.066406 22.332031 -9.445312 21.8125 -10.34375 C 21.289062 -11.238281 20.773438 -11.878906 20.265625 -12.265625 C 19.753906 -12.648438 19.128906 -12.882812 18.390625 -12.96875 C 18.273438 -12.394531 17.957031 -10.578125 17.4375 -7.515625 C 17.21875 -6.140625 17.078125 -5.300781 17.015625 -5 C 16.742188 -3.320312 16.191406 -2.035156 15.359375 -1.140625 C 14.535156 -0.242188 13.285156 0.203125 11.609375 0.203125 C 9.765625 0.203125 8.128906 -0.335938 6.703125 -1.421875 C 5.285156 -2.515625 4.191406 -4.03125 3.421875 -5.96875 C 2.648438 -7.90625 2.265625 -10.113281 2.265625 -12.59375 C 2.265625 -17.226562 3.070312 -21.222656 4.6875 -24.578125 C 6.300781 -27.941406 8.5625 -30.507812 11.46875 -32.28125 C 14.375 -34.0625 17.726562 -34.953125 21.53125 -34.953125 C 24.164062 -34.953125 26.378906 -34.550781 28.171875 -33.75 C 29.960938 -32.945312 31.289062 -31.84375 32.15625 -30.4375 C 33.03125 -29.039062 33.46875 -27.460938 33.46875 -25.703125 C 33.46875 -24.160156 33.101562 -22.648438 32.375 -21.171875 C 31.644531 -19.703125 30.546875 -18.398438 29.078125 -17.265625 C 27.617188 -16.140625 25.84375 -15.300781 23.75 -14.75 C 25.070312 -14.394531 26.09375 -13.816406 26.8125 -13.015625 C 27.53125 -12.210938 28.242188 -11.039062 28.953125 -9.5 C 29.722656 -7.84375 30.488281 -6.628906 31.25 -5.859375 C 32.007812 -5.085938 32.882812 -4.703125 33.875 -4.703125 C 34.757812 -4.703125 35.597656 -5 36.390625 -5.59375 C 37.191406 -6.1875 38.195312 -7.203125 39.40625 -8.640625 C 39.738281 -9.023438 40.113281 -9.21875 40.53125 -9.21875 Z M 12.6875 -13.015625 C 11.75 -13.015625 11.109375 -13.234375 10.765625 -13.671875 C 10.421875 -14.109375 10.25 -14.601562 10.25 -15.15625 C 10.25 -15.820312 10.460938 -16.347656 10.890625 -16.734375 C 11.316406 -17.117188 11.804688 -17.3125 12.359375 -17.3125 L 13.390625 -17.3125 C 13.828125 -20.007812 14.238281 -22.335938 14.625 -24.296875 C 14.976562 -26.085938 16.132812 -26.984375 18.09375 -26.984375 C 19.664062 -26.984375 20.453125 -26.28125 20.453125 -24.875 C 20.453125 -24.570312 20.4375 -24.335938 20.40625 -24.171875 L 19.171875 -17.3125 C 20.660156 -17.394531 22.015625 -17.75 23.234375 -18.375 C 24.460938 -19.007812 25.441406 -19.890625 26.171875 -21.015625 C 26.898438 -22.148438 27.265625 -23.4375 27.265625 -24.875 C 27.265625 -26.601562 26.671875 -27.960938 25.484375 -28.953125 C 24.304688 -29.953125 22.570312 -30.453125 20.28125 -30.453125 C 17.582031 -30.453125 15.21875 -29.78125 13.1875 -28.4375 C 11.164062 -27.101562 9.59375 -25.117188 8.46875 -22.484375 C 7.34375 -19.859375 6.78125 -16.660156 6.78125 -12.890625 C 6.78125 -11.128906 6.957031 -9.613281 7.3125 -8.34375 C 7.664062 -7.070312 8.101562 -6.117188 8.625 -5.484375 C 9.15625 -4.859375 9.65625 -4.546875 10.125 -4.546875 C 10.476562 -4.546875 10.769531 -4.722656 11 -5.078125 C 11.238281 -5.441406 11.425781 -6.019531 11.5625 -6.8125 Z M 12.6875 -13.015625 "/></g></g></g><g fill="#6c4646" fill-opacity="1"><g transform="translate(168.045332, 187.124904)"><g><path d="M 20.40625 -9.21875 C 20.769531 -9.21875 21.050781 -9.050781 21.25 -8.71875 C 21.457031 -8.382812 21.5625 -7.929688 21.5625 -7.359375 C 21.5625 -6.253906 21.300781 -5.398438 20.78125 -4.796875 C 19.757812 -3.554688 18.316406 -2.410156 16.453125 -1.359375 C 14.597656 -0.316406 12.613281 0.203125 10.5 0.203125 C 7.601562 0.203125 5.351562 -0.578125 3.75 -2.140625 C 2.15625 -3.710938 1.359375 -5.863281 1.359375 -8.59375 C 1.359375 -10.488281 1.757812 -12.253906 2.5625 -13.890625 C 3.363281 -15.535156 4.472656 -16.835938 5.890625 -17.796875 C 7.304688 -18.765625 8.910156 -19.25 10.703125 -19.25 C 12.296875 -19.25 13.570312 -18.773438 14.53125 -17.828125 C 15.5 -16.878906 15.984375 -15.59375 15.984375 -13.96875 C 15.984375 -12.0625 15.300781 -10.425781 13.9375 -9.0625 C 12.570312 -7.695312 10.265625 -6.617188 7.015625 -5.828125 C 7.710938 -4.554688 9.023438 -3.921875 10.953125 -3.921875 C 12.191406 -3.921875 13.601562 -4.351562 15.1875 -5.21875 C 16.769531 -6.09375 18.140625 -7.234375 19.296875 -8.640625 C 19.617188 -9.023438 19.988281 -9.21875 20.40625 -9.21875 Z M 10 -15.203125 C 8.976562 -15.203125 8.113281 -14.609375 7.40625 -13.421875 C 6.707031 -12.242188 6.359375 -10.8125 6.359375 -9.125 L 6.359375 -9.046875 C 7.984375 -9.429688 9.265625 -10.007812 10.203125 -10.78125 C 11.140625 -11.550781 11.609375 -12.445312 11.609375 -13.46875 C 11.609375 -13.988281 11.460938 -14.40625 11.171875 -14.71875 C 10.878906 -15.039062 10.488281 -15.203125 10 -15.203125 Z M 10 -15.203125 "/></g></g></g><g fill="#6c4646" fill-opacity="1"><g transform="translate(184.27685, 187.124904)"><g><path d="M 9.671875 1.109375 C 8.234375 1.109375 7.132812 0.773438 6.375 0.109375 C 5.625 -0.546875 5.25 -1.285156 5.25 -2.109375 C 5.25 -2.828125 5.507812 -3.445312 6.03125 -3.96875 C 6.550781 -4.488281 7.320312 -4.75 8.34375 -4.75 C 8.695312 -4.75 9.113281 -4.710938 9.59375 -4.640625 C 10.082031 -4.578125 10.453125 -4.53125 10.703125 -4.5 C 10.671875 -5.21875 10.507812 -5.894531 10.21875 -6.53125 C 9.9375 -7.164062 9.570312 -7.773438 9.125 -8.359375 C 8.6875 -8.953125 8.273438 -9.472656 7.890625 -9.921875 C 7.035156 -8.296875 6.1875 -6.941406 5.34375 -5.859375 C 4.507812 -4.785156 3.597656 -3.769531 2.609375 -2.8125 C 2.109375 -2.3125 1.582031 -2.0625 1.03125 -2.0625 C 0.59375 -2.0625 0.238281 -2.21875 -0.03125 -2.53125 C -0.3125 -2.851562 -0.453125 -3.25 -0.453125 -3.71875 C -0.453125 -4.269531 -0.257812 -4.78125 0.125 -5.25 L 0.65625 -5.90625 C 2.175781 -7.78125 3.320312 -9.320312 4.09375 -10.53125 C 4.5625 -11.332031 5.109375 -12.398438 5.734375 -13.734375 C 6.367188 -15.066406 6.988281 -16.453125 7.59375 -17.890625 C 8.125 -19.097656 9.210938 -19.703125 10.859375 -19.703125 C 11.628906 -19.703125 12.164062 -19.632812 12.46875 -19.5 C 12.78125 -19.363281 12.9375 -19.144531 12.9375 -18.84375 C 12.9375 -18.675781 12.878906 -18.410156 12.765625 -18.046875 C 12.648438 -17.691406 12.5 -17.335938 12.3125 -16.984375 C 11.8125 -15.984375 11.5625 -15.140625 11.5625 -14.453125 C 11.5625 -14.046875 11.707031 -13.59375 12 -13.09375 C 12.289062 -12.601562 12.738281 -11.984375 13.34375 -11.234375 C 14.226562 -10.078125 14.894531 -9.09375 15.34375 -8.28125 C 15.800781 -7.46875 16.03125 -6.582031 16.03125 -5.625 C 16.03125 -5.34375 16.003906 -4.957031 15.953125 -4.46875 C 17.296875 -4.988281 18.878906 -6.378906 20.703125 -8.640625 C 21.023438 -9.023438 21.394531 -9.21875 21.8125 -9.21875 C 22.164062 -9.21875 22.445312 -9.050781 22.65625 -8.71875 C 22.863281 -8.382812 22.96875 -7.929688 22.96875 -7.359375 C 22.96875 -6.304688 22.707031 -5.453125 22.1875 -4.796875 C 20.8125 -3.085938 19.492188 -1.921875 18.234375 -1.296875 C 16.984375 -0.679688 15.4375 -0.347656 13.59375 -0.296875 C 12.488281 0.640625 11.179688 1.109375 9.671875 1.109375 Z M 9.671875 1.109375 "/></g></g></g><g fill="#6c4646" fill-opacity="1"><g transform="translate(201.912627, 187.124904)"><g><path d="M 20.40625 -9.21875 C 20.769531 -9.21875 21.050781 -9.050781 21.25 -8.71875 C 21.457031 -8.382812 21.5625 -7.929688 21.5625 -7.359375 C 21.5625 -6.253906 21.300781 -5.398438 20.78125 -4.796875 C 19.59375 -3.335938 18.296875 -2.140625 16.890625 -1.203125 C 15.492188 -0.265625 13.882812 0.203125 12.0625 0.203125 C 6.445312 0.203125 3.640625 -3.75 3.640625 -11.65625 C 3.640625 -12.863281 3.679688 -14.085938 3.765625 -15.328125 L 2.140625 -15.328125 C 1.316406 -15.328125 0.757812 -15.476562 0.46875 -15.78125 C 0.1875 -16.082031 0.046875 -16.566406 0.046875 -17.234375 C 0.046875 -18.773438 0.664062 -19.546875 1.90625 -19.546875 L 4.25 -19.546875 C 4.71875 -22.566406 5.429688 -25.332031 6.390625 -27.84375 C 7.359375 -30.351562 8.523438 -32.347656 9.890625 -33.828125 C 11.253906 -35.316406 12.722656 -36.0625 14.296875 -36.0625 C 15.453125 -36.0625 16.359375 -35.550781 17.015625 -34.53125 C 17.679688 -33.519531 18.015625 -32.238281 18.015625 -30.6875 C 18.015625 -26.425781 16.222656 -22.710938 12.640625 -19.546875 L 17.265625 -19.546875 C 17.703125 -19.546875 18.019531 -19.445312 18.21875 -19.25 C 18.414062 -19.0625 18.515625 -18.703125 18.515625 -18.171875 C 18.515625 -16.273438 16.957031 -15.328125 13.84375 -15.328125 L 8.796875 -15.328125 C 8.742188 -13.953125 8.71875 -12.878906 8.71875 -12.109375 C 8.71875 -9.242188 9.050781 -7.234375 9.71875 -6.078125 C 10.394531 -4.921875 11.46875 -4.34375 12.9375 -4.34375 C 14.113281 -4.34375 15.15625 -4.695312 16.0625 -5.40625 C 16.976562 -6.125 18.054688 -7.203125 19.296875 -8.640625 C 19.617188 -9.023438 19.988281 -9.21875 20.40625 -9.21875 Z M 13.171875 -32.09375 C 12.765625 -32.09375 12.304688 -31.578125 11.796875 -30.546875 C 11.285156 -29.515625 10.800781 -28.082031 10.34375 -26.25 C 9.894531 -24.414062 9.519531 -22.382812 9.21875 -20.15625 C 10.84375 -21.5625 12.0625 -23.140625 12.875 -24.890625 C 13.6875 -26.640625 14.09375 -28.226562 14.09375 -29.65625 C 14.09375 -31.28125 13.785156 -32.09375 13.171875 -32.09375 Z M 13.171875 -32.09375 "/></g></g></g><g fill="#6c4646" fill-opacity="1"><g transform="translate(218.144145, 187.124904)"><g><path d="M 18.71875 0.203125 C 15.4375 0.203125 12.582031 -0.394531 10.15625 -1.59375 C 7.738281 -2.789062 5.878906 -4.488281 4.578125 -6.6875 C 3.285156 -8.894531 2.640625 -11.457031 2.640625 -14.375 C 2.640625 -18.425781 3.40625 -22.019531 4.9375 -25.15625 C 6.46875 -28.300781 8.539062 -30.734375 11.15625 -32.453125 C 13.769531 -34.171875 16.675781 -35.03125 19.875 -35.03125 C 22.84375 -35.03125 25.097656 -34.265625 26.640625 -32.734375 C 28.179688 -31.210938 28.953125 -29.195312 28.953125 -26.6875 C 28.953125 -25.007812 28.65625 -23.660156 28.0625 -22.640625 C 27.476562 -21.617188 26.632812 -21.109375 25.53125 -21.109375 C 24.757812 -21.109375 24.148438 -21.285156 23.703125 -21.640625 C 23.265625 -22.003906 23.046875 -22.53125 23.046875 -23.21875 C 23.046875 -23.46875 23.101562 -23.921875 23.21875 -24.578125 C 23.382812 -25.398438 23.46875 -26.0625 23.46875 -26.5625 C 23.46875 -29.070312 22.128906 -30.328125 19.453125 -30.328125 C 17.640625 -30.328125 15.90625 -29.734375 14.25 -28.546875 C 12.601562 -27.359375 11.269531 -25.613281 10.25 -23.3125 C 9.226562 -21.019531 8.71875 -18.289062 8.71875 -15.125 C 8.71875 -11.8125 9.640625 -9.253906 11.484375 -7.453125 C 13.328125 -5.648438 16.054688 -4.75 19.671875 -4.75 C 21.453125 -4.75 23.257812 -4.972656 25.09375 -5.421875 C 26.925781 -5.878906 28.957031 -6.578125 31.1875 -7.515625 C 31.601562 -7.679688 31.945312 -7.765625 32.21875 -7.765625 C 32.664062 -7.765625 33 -7.597656 33.21875 -7.265625 C 33.4375 -6.941406 33.546875 -6.515625 33.546875 -5.984375 C 33.546875 -4.304688 32.632812 -3.066406 30.8125 -2.265625 C 28.863281 -1.410156 26.832031 -0.785156 24.71875 -0.390625 C 22.613281 0.00390625 20.613281 0.203125 18.71875 0.203125 Z M 18.71875 0.203125 "/></g></g></g><g fill="#6c4646" fill-opacity="1"><g transform="translate(246.477036, 187.124904)"><g><path d="M 23.046875 -12.6875 C 23.410156 -12.6875 23.6875 -12.503906 23.875 -12.140625 C 24.070312 -11.785156 24.171875 -11.332031 24.171875 -10.78125 C 24.171875 -9.457031 23.769531 -8.671875 22.96875 -8.421875 C 21.3125 -7.847656 19.492188 -7.519531 17.515625 -7.4375 C 16.992188 -5.125 15.960938 -3.269531 14.421875 -1.875 C 12.878906 -0.488281 11.128906 0.203125 9.171875 0.203125 C 7.515625 0.203125 6.101562 -0.191406 4.9375 -0.984375 C 3.769531 -1.785156 2.878906 -2.847656 2.265625 -4.171875 C 1.660156 -5.492188 1.359375 -6.925781 1.359375 -8.46875 C 1.359375 -10.5625 1.757812 -12.425781 2.5625 -14.0625 C 3.363281 -15.707031 4.460938 -16.988281 5.859375 -17.90625 C 7.265625 -18.832031 8.820312 -19.296875 10.53125 -19.296875 C 12.625 -19.296875 14.3125 -18.570312 15.59375 -17.125 C 16.875 -15.675781 17.625 -13.894531 17.84375 -11.78125 C 19.132812 -11.851562 20.675781 -12.125 22.46875 -12.59375 C 22.6875 -12.65625 22.878906 -12.6875 23.046875 -12.6875 Z M 9.5 -4.171875 C 10.382812 -4.171875 11.148438 -4.53125 11.796875 -5.25 C 12.441406 -5.96875 12.875 -7 13.09375 -8.34375 C 12.238281 -8.925781 11.582031 -9.679688 11.125 -10.609375 C 10.675781 -11.546875 10.453125 -12.539062 10.453125 -13.59375 C 10.453125 -14.03125 10.492188 -14.46875 10.578125 -14.90625 L 10.375 -14.90625 C 9.269531 -14.90625 8.351562 -14.375 7.625 -13.3125 C 6.894531 -12.257812 6.53125 -10.769531 6.53125 -8.84375 C 6.53125 -7.320312 6.820312 -6.160156 7.40625 -5.359375 C 8 -4.566406 8.695312 -4.171875 9.5 -4.171875 Z M 9.5 -4.171875 "/></g></g></g><g fill="#6c4646" fill-opacity="1"><g transform="translate(265.104056, 187.124904)"><g><path d="M 4.921875 0.203125 C 3.867188 0.203125 3.128906 -0.34375 2.703125 -1.4375 C 2.273438 -2.539062 2.0625 -4.304688 2.0625 -6.734375 C 2.0625 -10.316406 2.570312 -13.71875 3.59375 -16.9375 C 3.84375 -17.738281 4.25 -18.320312 4.8125 -18.6875 C 5.375 -19.0625 6.164062 -19.25 7.1875 -19.25 C 7.738281 -19.25 8.125 -19.179688 8.34375 -19.046875 C 8.5625 -18.910156 8.671875 -18.648438 8.671875 -18.265625 C 8.671875 -17.816406 8.46875 -16.820312 8.0625 -15.28125 C 7.78125 -14.1875 7.554688 -13.222656 7.390625 -12.390625 C 7.222656 -11.566406 7.085938 -10.550781 6.984375 -9.34375 C 7.890625 -11.707031 8.90625 -13.628906 10.03125 -15.109375 C 11.164062 -16.597656 12.273438 -17.660156 13.359375 -18.296875 C 14.453125 -18.929688 15.453125 -19.25 16.359375 -19.25 C 18.148438 -19.25 19.046875 -18.351562 19.046875 -16.5625 C 19.046875 -15.488281 18.742188 -13.546875 18.140625 -10.734375 C 17.609375 -8.335938 17.34375 -6.753906 17.34375 -5.984375 C 17.34375 -4.890625 17.742188 -4.34375 18.546875 -4.34375 C 19.097656 -4.34375 19.75 -4.675781 20.5 -5.34375 C 21.257812 -6.019531 22.273438 -7.117188 23.546875 -8.640625 C 23.878906 -9.023438 24.25 -9.21875 24.65625 -9.21875 C 25.019531 -9.21875 25.300781 -9.050781 25.5 -8.71875 C 25.707031 -8.382812 25.8125 -7.929688 25.8125 -7.359375 C 25.8125 -6.253906 25.550781 -5.398438 25.03125 -4.796875 C 23.851562 -3.335938 22.582031 -2.140625 21.21875 -1.203125 C 19.851562 -0.265625 18.300781 0.203125 16.5625 0.203125 C 15.15625 0.203125 14.09375 -0.203125 13.375 -1.015625 C 12.664062 -1.828125 12.3125 -3.003906 12.3125 -4.546875 C 12.3125 -5.316406 12.503906 -6.691406 12.890625 -8.671875 C 13.242188 -10.410156 13.421875 -11.609375 13.421875 -12.265625 C 13.421875 -12.710938 13.269531 -12.9375 12.96875 -12.9375 C 12.613281 -12.9375 12.113281 -12.472656 11.46875 -11.546875 C 10.820312 -10.617188 10.160156 -9.398438 9.484375 -7.890625 C 8.804688 -6.378906 8.257812 -4.78125 7.84375 -3.09375 C 7.539062 -1.800781 7.191406 -0.925781 6.796875 -0.46875 C 6.398438 -0.0195312 5.773438 0.203125 4.921875 0.203125 Z M 4.921875 0.203125 "/></g></g></g><g fill="#6c4646" fill-opacity="1"><g transform="translate(285.589642, 187.124904)"><g><path d="M 4.921875 0.203125 C 3.867188 0.203125 3.128906 -0.34375 2.703125 -1.4375 C 2.273438 -2.539062 2.0625 -4.304688 2.0625 -6.734375 C 2.0625 -10.316406 2.570312 -13.71875 3.59375 -16.9375 C 3.84375 -17.738281 4.25 -18.320312 4.8125 -18.6875 C 5.375 -19.0625 6.164062 -19.25 7.1875 -19.25 C 7.738281 -19.25 8.125 -19.179688 8.34375 -19.046875 C 8.5625 -18.910156 8.671875 -18.648438 8.671875 -18.265625 C 8.671875 -17.816406 8.46875 -16.820312 8.0625 -15.28125 C 7.78125 -14.1875 7.554688 -13.222656 7.390625 -12.390625 C 7.222656 -11.566406 7.085938 -10.550781 6.984375 -9.34375 C 7.890625 -11.707031 8.90625 -13.628906 10.03125 -15.109375 C 11.164062 -16.597656 12.273438 -17.660156 13.359375 -18.296875 C 14.453125 -18.929688 15.453125 -19.25 16.359375 -19.25 C 18.148438 -19.25 19.046875 -18.351562 19.046875 -16.5625 C 19.046875 -15.488281 18.742188 -13.546875 18.140625 -10.734375 C 17.609375 -8.335938 17.34375 -6.753906 17.34375 -5.984375 C 17.34375 -4.890625 17.742188 -4.34375 18.546875 -4.34375 C 19.097656 -4.34375 19.75 -4.675781 20.5 -5.34375 C 21.257812 -6.019531 22.273438 -7.117188 23.546875 -8.640625 C 23.878906 -9.023438 24.25 -9.21875 24.65625 -9.21875 C 25.019531 -9.21875 25.300781 -9.050781 25.5 -8.71875 C 25.707031 -8.382812 25.8125 -7.929688 25.8125 -7.359375 C 25.8125 -6.253906 25.550781 -5.398438 25.03125 -4.796875 C 23.851562 -3.335938 22.582031 -2.140625 21.21875 -1.203125 C 19.851562 -0.265625 18.300781 0.203125 16.5625 0.203125 C 15.15625 0.203125 14.09375 -0.203125 13.375 -1.015625 C 12.664062 -1.828125 12.3125 -3.003906 12.3125 -4.546875 C 12.3125 -5.316406 12.503906 -6.691406 12.890625 -8.671875 C 13.242188 -10.410156 13.421875 -11.609375 13.421875 -12.265625 C 13.421875 -12.710938 13.269531 -12.9375 12.96875 -12.9375 C 12.613281 -12.9375 12.113281 -12.472656 11.46875 -11.546875 C 10.820312 -10.617188 10.160156 -9.398438 9.484375 -7.890625 C 8.804688 -6.378906 8.257812 -4.78125 7.84375 -3.09375 C 7.539062 -1.800781 7.191406 -0.925781 6.796875 -0.46875 C 6.398438 -0.0195312 5.773438 0.203125 4.921875 0.203125 Z M 4.921875 0.203125 "/></g></g></g><g fill="#6c4646" fill-opacity="1"><g transform="translate(306.075228, 187.124904)"><g><path d="M 20.40625 -9.21875 C 20.769531 -9.21875 21.050781 -9.050781 21.25 -8.71875 C 21.457031 -8.382812 21.5625 -7.929688 21.5625 -7.359375 C 21.5625 -6.253906 21.300781 -5.398438 20.78125 -4.796875 C 19.757812 -3.554688 18.316406 -2.410156 16.453125 -1.359375 C 14.597656 -0.316406 12.613281 0.203125 10.5 0.203125 C 7.601562 0.203125 5.351562 -0.578125 3.75 -2.140625 C 2.15625 -3.710938 1.359375 -5.863281 1.359375 -8.59375 C 1.359375 -10.488281 1.757812 -12.253906 2.5625 -13.890625 C 3.363281 -15.535156 4.472656 -16.835938 5.890625 -17.796875 C 7.304688 -18.765625 8.910156 -19.25 10.703125 -19.25 C 12.296875 -19.25 13.570312 -18.773438 14.53125 -17.828125 C 15.5 -16.878906 15.984375 -15.59375 15.984375 -13.96875 C 15.984375 -12.0625 15.300781 -10.425781 13.9375 -9.0625 C 12.570312 -7.695312 10.265625 -6.617188 7.015625 -5.828125 C 7.710938 -4.554688 9.023438 -3.921875 10.953125 -3.921875 C 12.191406 -3.921875 13.601562 -4.351562 15.1875 -5.21875 C 16.769531 -6.09375 18.140625 -7.234375 19.296875 -8.640625 C 19.617188 -9.023438 19.988281 -9.21875 20.40625 -9.21875 Z M 10 -15.203125 C 8.976562 -15.203125 8.113281 -14.609375 7.40625 -13.421875 C 6.707031 -12.242188 6.359375 -10.8125 6.359375 -9.125 L 6.359375 -9.046875 C 7.984375 -9.429688 9.265625 -10.007812 10.203125 -10.78125 C 11.140625 -11.550781 11.609375 -12.445312 11.609375 -13.46875 C 11.609375 -13.988281 11.460938 -14.40625 11.171875 -14.71875 C 10.878906 -15.039062 10.488281 -15.203125 10 -15.203125 Z M 10 -15.203125 "/></g></g></g><g fill="#6c4646" fill-opacity="1"><g transform="translate(322.306746, 187.124904)"><g><path d="M 9.875 0.203125 C 7.175781 0.203125 5.078125 -0.554688 3.578125 -2.078125 C 2.078125 -3.609375 1.328125 -5.628906 1.328125 -8.140625 C 1.328125 -10.367188 1.765625 -12.320312 2.640625 -14 C 3.523438 -15.6875 4.671875 -16.984375 6.078125 -17.890625 C 7.484375 -18.796875 8.957031 -19.25 10.5 -19.25 C 12.007812 -19.25 13.179688 -18.800781 14.015625 -17.90625 C 14.859375 -17.007812 15.28125 -15.859375 15.28125 -14.453125 C 15.28125 -13.296875 15.023438 -12.316406 14.515625 -11.515625 C 14.003906 -10.722656 13.335938 -10.328125 12.515625 -10.328125 C 11.992188 -10.328125 11.570312 -10.453125 11.25 -10.703125 C 10.9375 -10.953125 10.78125 -11.296875 10.78125 -11.734375 C 10.78125 -11.921875 10.804688 -12.140625 10.859375 -12.390625 C 10.921875 -12.640625 10.960938 -12.820312 10.984375 -12.9375 C 11.128906 -13.34375 11.203125 -13.726562 11.203125 -14.09375 C 11.203125 -14.445312 11.109375 -14.71875 10.921875 -14.90625 C 10.742188 -15.101562 10.488281 -15.203125 10.15625 -15.203125 C 9.53125 -15.203125 8.941406 -14.921875 8.390625 -14.359375 C 7.835938 -13.796875 7.394531 -13.03125 7.0625 -12.0625 C 6.726562 -11.101562 6.5625 -10.039062 6.5625 -8.875 C 6.5625 -5.6875 7.953125 -4.09375 10.734375 -4.09375 C 11.867188 -4.09375 13.085938 -4.46875 14.390625 -5.21875 C 15.703125 -5.976562 16.992188 -7.117188 18.265625 -8.640625 C 18.585938 -9.023438 18.957031 -9.21875 19.375 -9.21875 C 19.726562 -9.21875 20.007812 -9.050781 20.21875 -8.71875 C 20.425781 -8.382812 20.53125 -7.929688 20.53125 -7.359375 C 20.53125 -6.304688 20.269531 -5.453125 19.75 -4.796875 C 18.457031 -3.191406 16.90625 -1.957031 15.09375 -1.09375 C 13.289062 -0.226562 11.550781 0.203125 9.875 0.203125 Z M 9.875 0.203125 "/></g></g></g><g fill="#6c4646" fill-opacity="1"><g transform="translate(337.505728, 187.124904)"><g><path d="M 20.40625 -9.21875 C 20.769531 -9.21875 21.050781 -9.050781 21.25 -8.71875 C 21.457031 -8.382812 21.5625 -7.929688 21.5625 -7.359375 C 21.5625 -6.253906 21.300781 -5.398438 20.78125 -4.796875 C 19.59375 -3.335938 18.296875 -2.140625 16.890625 -1.203125 C 15.492188 -0.265625 13.882812 0.203125 12.0625 0.203125 C 6.445312 0.203125 3.640625 -3.75 3.640625 -11.65625 C 3.640625 -12.863281 3.679688 -14.085938 3.765625 -15.328125 L 2.140625 -15.328125 C 1.316406 -15.328125 0.757812 -15.476562 0.46875 -15.78125 C 0.1875 -16.082031 0.046875 -16.566406 0.046875 -17.234375 C 0.046875 -18.773438 0.664062 -19.546875 1.90625 -19.546875 L 4.25 -19.546875 C 4.71875 -22.566406 5.429688 -25.332031 6.390625 -27.84375 C 7.359375 -30.351562 8.523438 -32.347656 9.890625 -33.828125 C 11.253906 -35.316406 12.722656 -36.0625 14.296875 -36.0625 C 15.453125 -36.0625 16.359375 -35.550781 17.015625 -34.53125 C 17.679688 -33.519531 18.015625 -32.238281 18.015625 -30.6875 C 18.015625 -26.425781 16.222656 -22.710938 12.640625 -19.546875 L 17.265625 -19.546875 C 17.703125 -19.546875 18.019531 -19.445312 18.21875 -19.25 C 18.414062 -19.0625 18.515625 -18.703125 18.515625 -18.171875 C 18.515625 -16.273438 16.957031 -15.328125 13.84375 -15.328125 L 8.796875 -15.328125 C 8.742188 -13.953125 8.71875 -12.878906 8.71875 -12.109375 C 8.71875 -9.242188 9.050781 -7.234375 9.71875 -6.078125 C 10.394531 -4.921875 11.46875 -4.34375 12.9375 -4.34375 C 14.113281 -4.34375 15.15625 -4.695312 16.0625 -5.40625 C 16.976562 -6.125 18.054688 -7.203125 19.296875 -8.640625 C 19.617188 -9.023438 19.988281 -9.21875 20.40625 -9.21875 Z M 13.171875 -32.09375 C 12.765625 -32.09375 12.304688 -31.578125 11.796875 -30.546875 C 11.285156 -29.515625 10.800781 -28.082031 10.34375 -26.25 C 9.894531 -24.414062 9.519531 -22.382812 9.21875 -20.15625 C 10.84375 -21.5625 12.0625 -23.140625 12.875 -24.890625 C 13.6875 -26.640625 14.09375 -28.226562 14.09375 -29.65625 C 14.09375 -31.28125 13.785156 -32.09375 13.171875 -32.09375 Z M 13.171875 -32.09375 "/></g></g></g></svg>