<svg xmlns="http://www.w3.org/2000/svg" xmlns:xlink="http://www.w3.org/1999/xlink" width="500" zoomAndPan="magnify" viewBox="0 0 375 374.999991" height="500" preserveAspectRatio="xMidYMid meet" version="1.0"><defs><g/><clipPath id="4165672cfa"><path d="M 104 198 L 143 198 L 143 205.296875 L 104 205.296875 Z M 104 198 " clip-rule="nonzero"/></clipPath><clipPath id="8ee7a7384c"><path d="M 113 170.046875 L 146.574219 170.046875 L 146.574219 204 L 113 204 Z M 113 170.046875 " clip-rule="nonzero"/></clipPath><clipPath id="63844d440d"><path d="M 100.824219 174 L 130 174 L 130 202 L 100.824219 202 Z M 100.824219 174 " clip-rule="nonzero"/></clipPath></defs><g clip-path="url(#4165672cfa)"><path fill="#e07634" d="M 125.542969 201.742188 C 124.996094 201.542969 124.449219 201.347656 123.90625 201.152344 C 123.535156 201.019531 123.164062 200.886719 122.796875 200.761719 C 122.558594 200.679688 122.324219 200.597656 122.089844 200.519531 C 121.570312 200.347656 121.054688 200.179688 120.539062 200.027344 C 119.566406 199.734375 118.59375 199.480469 117.625 199.296875 C 117.082031 199.191406 116.542969 199.105469 116 199.046875 C 115.007812 198.9375 114.015625 198.914062 113.023438 199 C 112.480469 199.050781 111.9375 199.128906 111.398438 199.25 C 110.628906 199.421875 109.859375 199.667969 109.089844 200.007812 C 108.605469 200.222656 108.121094 200.476562 107.636719 200.765625 C 107.460938 200.871094 107.285156 200.980469 107.113281 201.09375 C 106.667969 201.386719 106.226562 201.714844 105.785156 202.078125 C 105.320312 202.464844 104.855469 202.886719 104.390625 203.359375 C 111.085938 199.257812 116.148438 199.925781 120.839844 201.511719 C 121.078125 201.589844 121.316406 201.671875 121.554688 201.757812 C 121.972656 201.90625 122.386719 202.0625 122.800781 202.222656 C 123.917969 202.648438 125.027344 203.101562 126.140625 203.515625 C 127.90625 204.175781 129.683594 204.753906 131.550781 205.03125 C 134.8125 205.515625 138.34375 205.082031 142.519531 202.574219 C 141.1875 203.292969 139.855469 203.738281 138.527344 203.976562 C 134.832031 204.636719 131.152344 203.679688 127.496094 202.429688 C 126.902344 202.226562 126.308594 202.015625 125.71875 201.804688 Z M 125.542969 201.742188 " fill-opacity="1" fill-rule="evenodd"/></g><g clip-path="url(#8ee7a7384c)"><path fill="#6cdc45" d="M 139.746094 190.453125 C 139.679688 190.253906 139.617188 190.050781 139.558594 189.847656 C 139.625 190.039062 139.6875 190.242188 139.746094 190.453125 Z M 129.390625 199.660156 C 128.828125 199.628906 128.269531 199.625 127.714844 199.644531 C 127.417969 199.65625 127.125 199.675781 126.835938 199.699219 C 126.09375 199.761719 125.363281 199.871094 124.644531 200.023438 C 124.019531 200.152344 123.402344 200.316406 122.792969 200.511719 C 123.164062 200.640625 123.535156 200.769531 123.902344 200.902344 C 124.449219 201.097656 124.996094 201.296875 125.542969 201.492188 L 125.71875 201.554688 C 126.308594 201.765625 126.902344 201.976562 127.496094 202.179688 C 131.152344 203.429688 134.832031 204.386719 138.527344 203.726562 C 137.300781 202.199219 135.066406 200.859375 132.265625 200.039062 C 133.960938 195.753906 135.867188 192.722656 138.351562 190.09375 C 137.976562 190.789062 137.683594 191.460938 137.453125 192.105469 C 138.949219 191.5625 138.898438 191.714844 137.300781 192.574219 C 137.007812 193.515625 136.855469 194.394531 136.816406 195.195312 C 138.167969 194.648438 138.164062 194.875 136.8125 195.875 C 136.835938 196.734375 136.996094 197.484375 137.242188 198.089844 C 137.90625 197.730469 138.429688 197.300781 138.835938 196.820312 C 138.363281 195.40625 138.085938 194.367188 139.367188 196.058594 C 139.738281 195.410156 139.949219 194.703125 140.042969 193.988281 C 138.5625 191.96875 138.578125 191.820312 140.089844 193.542969 C 140.167969 192.453125 139.996094 191.367188 139.746094 190.453125 C 140.09375 191.53125 140.515625 192.585938 140.996094 193.597656 C 142.03125 191.265625 141.648438 192.605469 141.222656 194.066406 C 141.699219 195.019531 142.226562 195.933594 142.789062 196.792969 C 143.234375 194.398438 143.238281 195.085938 143.042969 197.171875 C 143.378906 197.660156 143.726562 198.132812 144.085938 198.578125 C 144.347656 197.542969 144.675781 196.207031 144.550781 194.828125 C 142.617188 193.246094 142.59375 193.078125 144.484375 194.316406 C 144.285156 193.203125 143.753906 192.082031 142.605469 191.082031 C 141.207031 190.609375 140.480469 190.324219 142.113281 190.691406 C 141.425781 190.1875 140.554688 189.71875 139.46875 189.3125 C 140.617188 189.226562 141.617188 189.726562 142.695312 190.09375 C 142.773438 189.742188 142.65625 189.347656 142.640625 188.976562 C 142.972656 189.472656 143.144531 190.050781 143.300781 190.632812 C 143.832031 190.863281 144.261719 191.121094 144.917969 191.445312 C 144.777344 190.925781 144.613281 190.289062 144.472656 189.769531 C 144.84375 190.371094 145.28125 191.054688 145.367188 192 C 145.914062 192.253906 146.148438 192.410156 146.925781 192.816406 C 145.753906 188.867188 142.402344 187.203125 139.542969 188.75 C 142.730469 186.617188 142.160156 183.152344 141.894531 182.6875 C 140.453125 183.339844 140.289062 185.457031 140.183594 186.855469 C 139.902344 186.132812 139.886719 184.328125 140.222656 183.246094 C 139.902344 183.777344 139.492188 184.886719 139.148438 185.570312 C 139.042969 185.785156 138.964844 185.789062 139.097656 185.976562 C 139.347656 186.328125 139.390625 186.753906 139.554688 187.132812 L 138.765625 186.066406 L 138.453125 188.121094 C 138.777344 184.9375 135.488281 182.496094 132.292969 182.828125 C 132.863281 183.210938 133.40625 183.601562 133.921875 184.007812 C 137.527344 184.710938 134.386719 184.378906 134.605469 184.570312 C 135.078125 184.976562 135.523438 185.40625 135.933594 185.859375 C 137.550781 186.253906 137.53125 186.15625 136.480469 186.515625 C 136.964844 187.136719 137.390625 187.8125 137.742188 188.5625 C 136.667969 187.265625 135.394531 186.429688 134.019531 185.957031 C 133.347656 184.769531 132.34375 183.667969 130.96875 182.742188 C 130.433594 182.382812 129.847656 182.046875 129.199219 181.746094 C 129.667969 181.910156 130.152344 182.050781 130.652344 182.175781 C 132.234375 182.570312 133.949219 182.773438 135.6875 182.824219 C 134.863281 180.832031 134.839844 180.324219 136.652344 182.835938 C 137.640625 182.832031 138.628906 182.785156 139.589844 182.695312 C 137.882812 180.304688 138.257812 180.238281 140.546875 182.589844 C 141.472656 182.480469 142.371094 182.328125 143.21875 182.152344 C 139.15625 179.195312 134.152344 177.742188 129.160156 180.042969 C 128.953125 180.140625 128.746094 180.242188 128.542969 180.347656 C 128.707031 180.199219 128.878906 180.050781 129.046875 179.910156 C 129.796875 179.289062 130.585938 178.753906 131.40625 178.292969 C 130.191406 177.210938 130.109375 177.332031 132.523438 177.71875 C 133.332031 177.335938 134.175781 177.011719 135.046875 176.726562 C 135.453125 176.59375 131.019531 175.257812 136.289062 176.355469 C 137.214844 176.097656 138.175781 175.878906 139.164062 175.679688 C 135.203125 173.515625 129.671875 174.746094 128.019531 178.804688 C 127.949219 178.980469 127.886719 179.160156 127.828125 179.34375 L 127.976562 178.761719 L 128.574219 176.390625 L 126.902344 177.386719 C 127.339844 176.964844 127.640625 176.410156 128.171875 176.082031 C 128.464844 175.902344 128.359375 175.855469 128.335938 175.503906 C 128.257812 174.382812 128.335938 172.652344 128.203125 171.75 C 128.042969 173.40625 126.996094 175.835938 126.207031 176.652344 C 126.859375 174.699219 127.839844 171.75 126.257812 170.046875 C 125.789062 170.410156 124.097656 173.007812 124.664062 176.289062 C 124.800781 177.09375 125.078125 177.941406 125.539062 178.808594 C 125.675781 179.058594 125.824219 179.3125 125.992188 179.566406 C 124.609375 177.855469 122.691406 177.007812 120.65625 177.058594 C 120.570312 177.0625 120.480469 177.066406 120.394531 177.070312 C 119.800781 177.105469 119.195312 177.21875 118.589844 177.40625 C 118.269531 177.507812 117.945312 177.632812 117.625 177.777344 C 117.078125 178.027344 116.53125 178.339844 116 178.71875 C 115.199219 179.292969 114.425781 180.015625 113.710938 180.886719 C 114.851562 180.792969 115.296875 180.71875 116 180.683594 L 116.277344 180.671875 C 116.652344 179.96875 117.128906 179.449219 117.625 179.019531 C 118.003906 178.695312 118.394531 178.421875 118.757812 178.160156 C 118.410156 178.609375 118.003906 179.136719 117.625 179.625 L 117.203125 180.171875 C 117.351562 180.164062 117.492188 180.152344 117.625 180.144531 C 118.476562 180.082031 119.121094 180.003906 119.851562 179.996094 L 120.070312 179.714844 C 120.433594 179.257812 120.808594 178.820312 121.25 178.453125 C 121.390625 178.335938 121.535156 178.226562 121.6875 178.128906 C 121.597656 178.316406 121.484375 178.503906 121.375 178.6875 C 121.199219 178.988281 121.035156 179.289062 120.976562 179.609375 C 121.261719 179.628906 121.546875 179.640625 121.828125 179.652344 C 122.609375 179.6875 123.375 179.710938 124.125 179.84375 C 124.691406 179.945312 125.246094 180.105469 125.78125 180.378906 C 125.359375 180.363281 124.949219 180.359375 124.558594 180.367188 C 123.699219 180.386719 122.917969 180.460938 122.203125 180.585938 C 121.933594 180.632812 121.671875 180.683594 121.421875 180.746094 C 121.808594 180.8125 122.105469 180.871094 122.320312 180.917969 C 122.953125 181.054688 122.882812 181.105469 122.382812 181.097656 C 122.003906 181.089844 121.378906 181.054688 120.621094 181 L 120.539062 180.996094 C 119.753906 181.253906 119.078125 181.582031 118.488281 181.964844 C 117.476562 182.617188 116.726562 183.425781 116.160156 184.304688 C 116.765625 184.191406 117.253906 184.109375 117.625 184.050781 C 118.808594 183.875 118.808594 183.984375 117.625 184.382812 C 117.222656 184.519531 116.679688 184.6875 116 184.890625 L 115.78125 184.953125 C 114.996094 186.433594 114.648438 188.046875 114.417969 189.4375 C 114.367188 189.734375 114.324219 190.019531 114.285156 190.292969 C 114.777344 190.023438 115.269531 189.738281 115.761719 189.4375 L 116 189.289062 C 116.164062 189.1875 116.328125 189.082031 116.488281 188.976562 C 117.410156 186.046875 117.804688 185.125 117.046875 188.609375 C 117.242188 188.480469 117.433594 188.347656 117.625 188.214844 C 118.675781 187.476562 119.710938 186.675781 120.710938 185.8125 C 120.8125 184.917969 120.914062 184.054688 121.003906 183.585938 C 121.085938 183.164062 121.15625 183.070312 121.210938 183.585938 C 121.242188 183.90625 121.269531 184.457031 121.285156 185.308594 C 121.421875 185.1875 121.554688 185.066406 121.691406 184.941406 C 122.160156 184.507812 122.625 184.058594 123.078125 183.597656 L 123.085938 183.585938 C 123.601562 183.0625 124.105469 182.519531 124.589844 181.964844 L 124.757812 181.765625 L 124.605469 181.964844 C 124.230469 182.457031 123.863281 183 123.527344 183.585938 C 123.414062 183.785156 123.304688 183.984375 123.203125 184.191406 C 122.949219 184.6875 122.722656 185.210938 122.539062 185.75 C 122.863281 185.59375 123.152344 185.453125 123.40625 185.335938 C 125.195312 184.492188 125.214844 184.613281 123.460938 185.703125 C 123.144531 185.894531 122.777344 186.121094 122.347656 186.378906 C 122.210938 186.882812 122.117188 187.398438 122.066406 187.925781 C 122.023438 188.421875 122.023438 188.929688 122.074219 189.4375 L 122.089844 189.558594 C 123.109375 188.96875 123.605469 188.78125 123.75 188.863281 C 123.808594 188.898438 123.808594 188.980469 123.757812 189.101562 C 123.609375 189.457031 123.046875 190.128906 122.378906 190.890625 C 122.632812 191.699219 123.042969 192.503906 123.640625 193.292969 C 123.695312 193.367188 123.753906 193.4375 123.8125 193.511719 C 124.429688 192.890625 125.015625 192.070312 125.511719 191.0625 C 125.558594 190.960938 125.605469 190.863281 125.652344 190.761719 C 125.308594 190.1875 125.070312 189.746094 124.929688 189.4375 C 124.609375 188.722656 124.835938 188.722656 125.609375 189.4375 C 125.734375 189.550781 125.875 189.6875 126.027344 189.839844 C 126.074219 189.707031 126.121094 189.574219 126.167969 189.4375 C 126.496094 188.425781 126.742188 187.285156 126.863281 186.019531 C 125.191406 183.953125 125.207031 183.714844 126.921875 185.300781 C 126.929688 185.144531 126.9375 184.984375 126.941406 184.820312 C 126.96875 183.957031 126.941406 183.039062 126.851562 182.074219 C 127.316406 183.320312 127.722656 184.558594 128.066406 185.816406 L 128.035156 185.824219 L 128.078125 185.855469 C 128.667969 188.015625 129.070312 190.246094 129.285156 192.714844 C 129.398438 194.023438 129.460938 195.398438 129.46875 196.867188 C 129.476562 197.691406 129.421875 198.765625 129.390625 199.660156 Z M 138.453125 188.121094 C 138.441406 188.261719 138.417969 188.40625 138.390625 188.550781 Z M 129.199219 181.746094 C 128.816406 181.613281 128.445312 181.464844 128.089844 181.304688 C 128.003906 181.265625 127.917969 181.226562 127.832031 181.183594 L 128.058594 181.269531 C 128.457031 181.417969 128.835938 181.578125 129.199219 181.746094 Z M 127.828125 179.34375 L 127.671875 179.960938 C 127.714844 179.75 127.765625 179.542969 127.828125 179.34375 Z M 124.757812 181.769531 C 124.902344 181.585938 125.046875 181.410156 125.191406 181.246094 L 125.355469 181.054688 L 125.195312 181.25 C 125.050781 181.425781 124.90625 181.597656 124.757812 181.769531 Z M 131.375 196.9375 C 131.285156 195.992188 131.195312 195.054688 131.089844 194.121094 C 131.464844 194.214844 131.847656 194.214844 132.230469 194.140625 L 132.4375 193.800781 C 133.648438 191.824219 133.59375 192.066406 133.101562 193.859375 C 133.492188 193.6875 133.878906 193.453125 134.253906 193.179688 C 135.734375 189.765625 135.476562 190.6875 134.726562 192.816406 C 135.453125 191.789062 136.070312 191.296875 136.597656 190.867188 C 134.398438 193.0625 132.953125 195.671875 131.507812 198.390625 Z M 136.957031 189.269531 C 136.269531 189.296875 135.632812 189.394531 135.054688 189.554688 C 135.046875 189.363281 135.03125 189.171875 135.007812 188.980469 C 135.667969 189.128906 136.324219 189.230469 136.957031 189.269531 Z M 130.953125 192.980469 C 130.867188 192.335938 130.777344 191.699219 130.671875 191.0625 C 130.582031 190.519531 130.480469 189.976562 130.371094 189.4375 C 130.1875 188.539062 129.96875 187.648438 129.707031 186.761719 L 129.90625 186.679688 C 130.011719 187.019531 130.109375 187.394531 130.203125 187.808594 L 130.242188 187.160156 C 130.367188 187.226562 130.492188 187.292969 130.617188 187.355469 C 130.625 187.714844 130.628906 188.117188 130.636719 188.570312 C 130.808594 188.851562 130.992188 189.125 131.183594 189.386719 C 131.382812 189.65625 131.59375 189.910156 131.808594 190.140625 C 132.167969 187.375 132.230469 187.066406 132.777344 190.679688 C 131.914062 191.359375 131.316406 192.238281 130.980469 193.207031 Z M 130.609375 186.847656 C 130.5 186.917969 130.382812 186.996094 130.25 187.078125 L 130.285156 186.527344 C 130.398438 186.480469 130.503906 186.441406 130.597656 186.410156 Z M 129.496094 185.5625 L 129.335938 185.582031 C 129.167969 185.089844 128.984375 184.601562 128.785156 184.109375 C 129.007812 184.539062 129.257812 184.996094 129.496094 185.5625 Z M 130.558594 185.476562 L 130.402344 185.484375 L 130.371094 185.484375 L 130.378906 185.421875 C 130.449219 184.761719 130.511719 184.667969 130.558594 185.476562 Z M 137.964844 189.277344 C 137.636719 189.292969 137.300781 189.289062 136.957031 189.269531 C 137.28125 189.257812 137.617188 189.257812 137.964844 189.277344 Z M 137.964844 189.277344 " fill-opacity="1" fill-rule="nonzero"/></g><path fill="#e07634" d="M 121.007812 204.890625 C 117.445312 204.703125 110.277344 199.023438 104.835938 203.972656 C 112.128906 200.589844 113.804688 205.328125 121.007812 204.890625 Z M 121.007812 204.890625 " fill-opacity="1" fill-rule="evenodd"/><path fill="#e07634" d="M 125.703125 204.148438 C 124.039062 204.0625 120.695312 201.410156 118.15625 203.71875 C 121.558594 202.140625 122.339844 204.351562 125.703125 204.148438 Z M 125.703125 204.148438 " fill-opacity="1" fill-rule="evenodd"/><path fill="#e07634" d="M 111.628906 201.753906 C 116.285156 199.59375 117.351562 202.617188 121.953125 202.339844 C 119.675781 202.21875 115.101562 198.59375 111.628906 201.753906 Z M 111.628906 201.753906 " fill-opacity="1" fill-rule="evenodd"/><g clip-path="url(#63844d440d)"><path fill="#5cbbff" d="M 118.140625 176.945312 C 118.246094 177.042969 118.355469 177.152344 118.460938 177.265625 C 118.488281 177.257812 118.511719 177.25 118.539062 177.242188 C 119.101562 177.066406 119.683594 176.949219 120.273438 176.90625 C 120.257812 176.886719 120.242188 176.867188 120.230469 176.847656 C 120.265625 176.863281 120.300781 176.882812 120.339844 176.898438 C 120.355469 176.898438 120.367188 176.898438 120.382812 176.898438 C 120.472656 176.890625 120.5625 176.886719 120.652344 176.886719 C 122.359375 176.84375 123.929688 177.417969 125.183594 178.488281 C 124.859375 177.800781 124.621094 177.074219 124.492188 176.320312 C 124.484375 176.273438 124.476562 176.230469 124.46875 176.183594 C 123.558594 175.6875 122.59375 175.277344 121.589844 174.964844 C 120.351562 174.582031 119.046875 174.34375 117.703125 174.269531 L 117.703125 174.25 L 117.625 174.253906 L 117.625 174.246094 L 116 174.246094 L 116 174.269531 C 114.09375 174.363281 112.273438 174.796875 110.601562 175.503906 C 107.730469 176.71875 105.285156 178.75 103.5625 181.300781 C 102.699219 182.578125 102.011719 183.988281 101.546875 185.492188 C 101.078125 186.996094 100.824219 188.59375 100.824219 190.25 C 100.824219 192.460938 101.273438 194.566406 102.082031 196.480469 C 102.945312 198.515625 104.210938 200.332031 105.785156 201.832031 C 106.226562 201.46875 106.667969 201.140625 107.113281 200.847656 C 106.34375 200.140625 105.648438 199.355469 105.050781 198.496094 L 106.417969 198.496094 C 106.777344 199.207031 107.1875 199.882812 107.632812 200.519531 C 108.121094 200.226562 108.605469 199.976562 109.089844 199.761719 C 108.796875 199.359375 108.523438 198.9375 108.265625 198.496094 L 111.242188 198.496094 C 111.292969 198.667969 111.34375 198.835938 111.398438 199.003906 C 111.9375 198.882812 112.480469 198.800781 113.023438 198.753906 L 112.941406 198.496094 L 116 198.496094 L 116 198.800781 C 116.539062 198.859375 117.082031 198.945312 117.625 199.046875 L 117.625 198.496094 L 120.988281 198.496094 C 120.882812 198.832031 120.773438 199.15625 120.65625 199.472656 C 120.617188 199.574219 120.578125 199.675781 120.539062 199.777344 C 121.054688 199.933594 121.570312 200.097656 122.089844 200.273438 C 122.304688 199.710938 122.507812 199.117188 122.6875 198.496094 L 125.664062 198.496094 C 125.398438 198.957031 125.109375 199.394531 124.800781 199.8125 C 125.46875 199.679688 126.140625 199.585938 126.820312 199.527344 L 126.945312 199.515625 C 127.144531 199.1875 127.335938 198.847656 127.511719 198.496094 L 128.609375 198.496094 C 128.375 198.832031 128.128906 199.15625 127.867188 199.46875 C 128.332031 199.457031 128.792969 199.460938 129.257812 199.480469 C 129.285156 198.609375 129.300781 197.742188 129.296875 196.871094 L 128.238281 196.871094 C 128.648438 195.796875 128.964844 194.65625 129.167969 193.472656 C 129.152344 193.226562 129.132812 192.976562 129.109375 192.730469 C 128.910156 190.4375 128.527344 188.1875 127.925781 185.964844 L 127.609375 185.746094 L 127.851562 185.691406 C 127.628906 184.886719 127.378906 184.09375 127.105469 183.304688 C 127.128906 183.8125 127.128906 184.320312 127.113281 184.828125 C 127.109375 184.988281 127.101562 185.144531 127.09375 185.300781 C 127.488281 186.601562 127.734375 187.988281 127.800781 189.4375 L 126.347656 189.4375 C 126.34375 189.457031 126.335938 189.476562 126.332031 189.492188 C 126.285156 189.628906 126.238281 189.765625 126.191406 189.902344 L 126.097656 190.160156 L 125.902344 189.964844 C 125.765625 189.832031 125.628906 189.695312 125.488281 189.566406 C 125.460938 189.542969 125.410156 189.496094 125.347656 189.4375 L 125.121094 189.4375 C 125.316406 189.859375 125.566406 190.28125 125.800781 190.675781 L 125.847656 190.753906 L 125.808594 190.835938 C 125.773438 190.910156 125.738281 190.988281 125.703125 191.0625 L 127.800781 191.0625 C 127.722656 192.75 127.402344 194.355469 126.886719 195.835938 C 126.761719 196.1875 126.628906 196.535156 126.480469 196.871094 L 123.09375 196.871094 C 123.324219 195.820312 123.5 194.707031 123.617188 193.550781 C 123.578125 193.5 123.539062 193.449219 123.5 193.402344 C 122.9375 192.65625 122.492188 191.835938 122.210938 190.945312 L 122.179688 190.851562 L 122.246094 190.78125 C 122.546875 190.4375 122.84375 190.09375 123.125 189.738281 C 123.277344 189.546875 123.503906 189.261719 123.597656 189.039062 L 123.601562 189.023438 C 123.28125 189.078125 122.347656 189.613281 122.175781 189.710938 L 121.945312 189.84375 L 121.902344 189.457031 C 121.898438 189.449219 121.898438 189.445312 121.898438 189.4375 L 117.625 189.4375 L 117.625 188.425781 C 117.464844 188.539062 117.304688 188.648438 117.144531 188.753906 L 116.785156 188.996094 L 116.875 188.574219 C 116.929688 188.335938 116.980469 188.097656 117.03125 187.859375 C 116.902344 188.25 116.777344 188.640625 116.65625 189.03125 L 116.636719 189.089844 L 116.582031 189.125 C 116.421875 189.230469 116.257812 189.332031 116.09375 189.4375 L 115.851562 189.585938 C 115.363281 189.886719 114.867188 190.171875 114.367188 190.445312 L 114.058594 190.617188 L 114.109375 190.269531 C 114.152344 189.992188 114.195312 189.714844 114.242188 189.4375 L 111.785156 189.4375 C 111.832031 187.753906 112.007812 186.148438 112.289062 184.671875 C 112.363281 184.300781 112.441406 183.941406 112.523438 183.589844 L 116 183.589844 L 116 184.230469 L 116.015625 184.210938 C 116.589844 183.320312 117.308594 182.566406 118.175781 181.964844 L 117.625 181.964844 L 117.625 180.316406 C 117.488281 180.328125 117.351562 180.335938 117.214844 180.34375 L 116.832031 180.367188 L 117.488281 179.519531 L 117.625 179.34375 L 117.625 179.253906 C 117.140625 179.6875 116.742188 180.171875 116.433594 180.753906 L 116.386719 180.839844 L 116.007812 180.855469 C 116.007812 180.855469 116.003906 180.855469 116 180.855469 L 116 181.964844 L 112.972656 181.964844 C 113.066406 181.675781 113.160156 181.394531 113.261719 181.121094 C 113.558594 180.324219 113.890625 179.601562 114.25 178.96875 C 114.519531 178.496094 114.800781 178.070312 115.09375 177.703125 C 115.386719 177.328125 115.695312 177.015625 116 176.761719 L 116 178.507812 C 116.488281 178.164062 117.007812 177.867188 117.550781 177.621094 C 117.578125 177.609375 117.601562 177.597656 117.625 177.585938 L 117.625 176.527344 C 117.796875 176.652344 117.96875 176.789062 118.136719 176.945312 Z M 117.625 191.0625 L 122.144531 191.0625 C 122.101562 192.773438 121.925781 194.410156 121.636719 195.910156 C 121.574219 196.234375 121.503906 196.558594 121.429688 196.871094 L 117.625 196.871094 Z M 116 191.0625 L 116 196.871094 L 112.5 196.871094 L 112.453125 196.667969 C 112.070312 194.964844 111.835938 193.066406 111.785156 191.0625 Z M 110.160156 191.0625 C 110.203125 192.878906 110.390625 194.609375 110.699219 196.21875 C 110.742188 196.4375 110.785156 196.65625 110.832031 196.871094 L 107.449219 196.871094 C 107.390625 196.738281 107.335938 196.601562 107.28125 196.46875 C 106.625 194.820312 106.21875 192.992188 106.128906 191.0625 Z M 110.855469 183.589844 C 110.457031 185.382812 110.214844 187.355469 110.164062 189.4375 L 106.128906 189.4375 C 106.207031 187.753906 106.523438 186.15625 107.039062 184.679688 C 107.167969 184.308594 107.308594 183.945312 107.464844 183.589844 Z M 104.503906 191.0625 C 104.582031 192.933594 104.933594 194.71875 105.511719 196.371094 C 105.570312 196.539062 105.632812 196.703125 105.695312 196.871094 L 104.0625 196.871094 C 103.675781 196.125 103.351562 195.34375 103.097656 194.527344 C 102.753906 193.421875 102.539062 192.261719 102.472656 191.0625 Z M 105.710938 183.589844 C 105.011719 185.386719 104.589844 187.359375 104.503906 189.4375 L 102.472656 189.4375 C 102.566406 187.746094 102.953125 186.136719 103.582031 184.652344 C 103.734375 184.289062 103.902344 183.933594 104.085938 183.589844 Z M 112.800781 178.230469 C 112.199219 179.308594 111.683594 180.566406 111.273438 181.964844 L 108.289062 181.964844 C 109.109375 180.566406 110.125 179.355469 111.285156 178.390625 C 112.035156 177.769531 112.847656 177.25 113.699219 176.847656 C 113.382812 177.265625 113.082031 177.730469 112.800781 178.230469 Z M 109.234375 178.074219 C 108.132812 179.183594 107.1875 180.5 106.4375 181.964844 L 105.078125 181.964844 C 106.085938 180.539062 107.34375 179.304688 108.789062 178.324219 C 108.964844 178.207031 109.144531 178.09375 109.320312 177.984375 Z M 109.234375 178.074219 " fill-opacity="1" fill-rule="evenodd"/></g><g fill="#6c4646" fill-opacity="1"><g transform="translate(154.810335, 196.36845)"><g><path d="M 20.40625 -4.640625 C 20.582031 -4.640625 20.722656 -4.554688 20.828125 -4.390625 C 20.929688 -4.222656 20.984375 -3.992188 20.984375 -3.703125 C 20.984375 -3.160156 20.851562 -2.726562 20.59375 -2.40625 C 19.925781 -1.601562 19.25 -0.984375 18.5625 -0.546875 C 17.882812 -0.109375 17.082031 0.109375 16.15625 0.109375 C 15.257812 0.109375 14.492188 -0.132812 13.859375 -0.625 C 13.234375 -1.113281 12.632812 -1.945312 12.0625 -3.125 C 11.601562 -4.0625 11.238281 -4.753906 10.96875 -5.203125 C 10.707031 -5.660156 10.445312 -5.984375 10.1875 -6.171875 C 9.9375 -6.367188 9.625 -6.488281 9.25 -6.53125 C 9.195312 -6.238281 9.039062 -5.320312 8.78125 -3.78125 C 8.664062 -3.09375 8.59375 -2.671875 8.5625 -2.515625 C 8.425781 -1.671875 8.148438 -1.019531 7.734375 -0.5625 C 7.316406 -0.113281 6.6875 0.109375 5.84375 0.109375 C 4.914062 0.109375 4.09375 -0.160156 3.375 -0.703125 C 2.664062 -1.253906 2.113281 -2.019531 1.71875 -3 C 1.332031 -3.976562 1.140625 -5.09375 1.140625 -6.34375 C 1.140625 -8.675781 1.546875 -10.6875 2.359375 -12.375 C 3.171875 -14.0625 4.304688 -15.351562 5.765625 -16.25 C 7.234375 -17.144531 8.921875 -17.59375 10.828125 -17.59375 C 12.160156 -17.59375 13.273438 -17.390625 14.171875 -16.984375 C 15.078125 -16.585938 15.75 -16.035156 16.1875 -15.328125 C 16.625 -14.617188 16.84375 -13.820312 16.84375 -12.9375 C 16.84375 -12.15625 16.660156 -11.394531 16.296875 -10.65625 C 15.929688 -9.914062 15.378906 -9.257812 14.640625 -8.6875 C 13.898438 -8.125 13.003906 -7.703125 11.953125 -7.421875 C 12.617188 -7.242188 13.128906 -6.953125 13.484375 -6.546875 C 13.847656 -6.148438 14.210938 -5.5625 14.578125 -4.78125 C 14.960938 -3.945312 15.34375 -3.335938 15.71875 -2.953125 C 16.101562 -2.566406 16.546875 -2.375 17.046875 -2.375 C 17.492188 -2.375 17.914062 -2.519531 18.3125 -2.8125 C 18.71875 -3.113281 19.226562 -3.625 19.84375 -4.34375 C 20.007812 -4.539062 20.195312 -4.640625 20.40625 -4.640625 Z M 6.390625 -6.546875 C 5.910156 -6.546875 5.582031 -6.65625 5.40625 -6.875 C 5.238281 -7.101562 5.15625 -7.351562 5.15625 -7.625 C 5.15625 -7.957031 5.257812 -8.222656 5.46875 -8.421875 C 5.6875 -8.617188 5.9375 -8.71875 6.21875 -8.71875 L 6.734375 -8.71875 C 6.960938 -10.070312 7.171875 -11.242188 7.359375 -12.234375 C 7.535156 -13.128906 8.117188 -13.578125 9.109375 -13.578125 C 9.898438 -13.578125 10.296875 -13.222656 10.296875 -12.515625 C 10.296875 -12.367188 10.289062 -12.253906 10.28125 -12.171875 L 9.65625 -8.71875 C 10.394531 -8.757812 11.070312 -8.9375 11.6875 -9.25 C 12.3125 -9.570312 12.804688 -10.015625 13.171875 -10.578125 C 13.535156 -11.148438 13.71875 -11.796875 13.71875 -12.515625 C 13.71875 -13.390625 13.421875 -14.078125 12.828125 -14.578125 C 12.234375 -15.078125 11.363281 -15.328125 10.21875 -15.328125 C 8.851562 -15.328125 7.660156 -14.988281 6.640625 -14.3125 C 5.617188 -13.644531 4.820312 -12.648438 4.25 -11.328125 C 3.6875 -10.003906 3.40625 -8.390625 3.40625 -6.484375 C 3.40625 -5.597656 3.492188 -4.835938 3.671875 -4.203125 C 3.859375 -3.566406 4.082031 -3.085938 4.34375 -2.765625 C 4.601562 -2.441406 4.851562 -2.28125 5.09375 -2.28125 C 5.269531 -2.28125 5.414062 -2.367188 5.53125 -2.546875 C 5.65625 -2.734375 5.753906 -3.03125 5.828125 -3.4375 Z M 6.390625 -6.546875 "/></g></g></g><g fill="#6c4646" fill-opacity="1"><g transform="translate(173.111185, 196.36845)"><g><path d="M 10.28125 -4.640625 C 10.457031 -4.640625 10.597656 -4.554688 10.703125 -4.390625 C 10.804688 -4.222656 10.859375 -3.992188 10.859375 -3.703125 C 10.859375 -3.148438 10.722656 -2.71875 10.453125 -2.40625 C 9.941406 -1.789062 9.21875 -1.21875 8.28125 -0.6875 C 7.351562 -0.15625 6.351562 0.109375 5.28125 0.109375 C 3.820312 0.109375 2.691406 -0.285156 1.890625 -1.078125 C 1.085938 -1.867188 0.6875 -2.953125 0.6875 -4.328125 C 0.6875 -5.285156 0.882812 -6.175781 1.28125 -7 C 1.6875 -7.820312 2.242188 -8.472656 2.953125 -8.953125 C 3.671875 -9.441406 4.484375 -9.6875 5.390625 -9.6875 C 6.191406 -9.6875 6.832031 -9.445312 7.3125 -8.96875 C 7.800781 -8.488281 8.046875 -7.84375 8.046875 -7.03125 C 8.046875 -6.070312 7.703125 -5.25 7.015625 -4.5625 C 6.328125 -3.875 5.164062 -3.332031 3.53125 -2.9375 C 3.882812 -2.289062 4.546875 -1.96875 5.515625 -1.96875 C 6.140625 -1.96875 6.847656 -2.1875 7.640625 -2.625 C 8.441406 -3.0625 9.132812 -3.632812 9.71875 -4.34375 C 9.882812 -4.539062 10.070312 -4.640625 10.28125 -4.640625 Z M 5.03125 -7.65625 C 4.519531 -7.65625 4.085938 -7.351562 3.734375 -6.75 C 3.378906 -6.15625 3.203125 -5.4375 3.203125 -4.59375 L 3.203125 -4.546875 C 4.023438 -4.742188 4.671875 -5.035156 5.140625 -5.421875 C 5.609375 -5.816406 5.84375 -6.269531 5.84375 -6.78125 C 5.84375 -7.039062 5.769531 -7.25 5.625 -7.40625 C 5.476562 -7.570312 5.28125 -7.65625 5.03125 -7.65625 Z M 5.03125 -7.65625 "/></g></g></g><g fill="#6c4646" fill-opacity="1"><g transform="translate(181.284175, 196.36845)"><g><path d="M 4.859375 0.5625 C 4.140625 0.5625 3.585938 0.394531 3.203125 0.0625 C 2.828125 -0.269531 2.640625 -0.644531 2.640625 -1.0625 C 2.640625 -1.414062 2.769531 -1.722656 3.03125 -1.984375 C 3.300781 -2.253906 3.691406 -2.390625 4.203125 -2.390625 C 4.378906 -2.390625 4.585938 -2.367188 4.828125 -2.328125 C 5.078125 -2.296875 5.265625 -2.273438 5.390625 -2.265625 C 5.367188 -2.628906 5.285156 -2.96875 5.140625 -3.28125 C 4.992188 -3.601562 4.8125 -3.910156 4.59375 -4.203125 C 4.375 -4.503906 4.164062 -4.765625 3.96875 -4.984375 C 3.539062 -4.171875 3.113281 -3.492188 2.6875 -2.953125 C 2.269531 -2.410156 1.8125 -1.898438 1.3125 -1.421875 C 1.0625 -1.171875 0.796875 -1.046875 0.515625 -1.046875 C 0.296875 -1.046875 0.117188 -1.125 -0.015625 -1.28125 C -0.160156 -1.4375 -0.234375 -1.632812 -0.234375 -1.875 C -0.234375 -2.144531 -0.132812 -2.398438 0.0625 -2.640625 L 0.328125 -2.96875 C 1.097656 -3.914062 1.675781 -4.691406 2.0625 -5.296875 C 2.289062 -5.703125 2.566406 -6.238281 2.890625 -6.90625 C 3.210938 -7.582031 3.523438 -8.28125 3.828125 -9 C 4.085938 -9.613281 4.632812 -9.921875 5.46875 -9.921875 C 5.851562 -9.921875 6.125 -9.882812 6.28125 -9.8125 C 6.4375 -9.75 6.515625 -9.640625 6.515625 -9.484375 C 6.515625 -9.398438 6.484375 -9.265625 6.421875 -9.078125 C 6.367188 -8.898438 6.296875 -8.722656 6.203125 -8.546875 C 5.953125 -8.046875 5.828125 -7.625 5.828125 -7.28125 C 5.828125 -7.070312 5.898438 -6.84375 6.046875 -6.59375 C 6.191406 -6.34375 6.414062 -6.03125 6.71875 -5.65625 C 7.164062 -5.070312 7.5 -4.578125 7.71875 -4.171875 C 7.945312 -3.765625 8.0625 -3.316406 8.0625 -2.828125 C 8.0625 -2.691406 8.050781 -2.5 8.03125 -2.25 C 8.707031 -2.507812 9.503906 -3.207031 10.421875 -4.34375 C 10.585938 -4.539062 10.773438 -4.640625 10.984375 -4.640625 C 11.160156 -4.640625 11.300781 -4.554688 11.40625 -4.390625 C 11.507812 -4.222656 11.5625 -3.992188 11.5625 -3.703125 C 11.5625 -3.171875 11.429688 -2.738281 11.171875 -2.40625 C 10.472656 -1.550781 9.804688 -0.96875 9.171875 -0.65625 C 8.546875 -0.34375 7.769531 -0.171875 6.84375 -0.140625 C 6.289062 0.328125 5.628906 0.5625 4.859375 0.5625 Z M 4.859375 0.5625 "/></g></g></g><g fill="#6c4646" fill-opacity="1"><g transform="translate(190.164247, 196.36845)"><g><path d="M 10.28125 -4.640625 C 10.457031 -4.640625 10.597656 -4.554688 10.703125 -4.390625 C 10.804688 -4.222656 10.859375 -3.992188 10.859375 -3.703125 C 10.859375 -3.148438 10.722656 -2.71875 10.453125 -2.40625 C 9.859375 -1.675781 9.207031 -1.070312 8.5 -0.59375 C 7.789062 -0.125 6.984375 0.109375 6.078125 0.109375 C 3.242188 0.109375 1.828125 -1.878906 1.828125 -5.859375 C 1.828125 -6.472656 1.847656 -7.09375 1.890625 -7.71875 L 1.078125 -7.71875 C 0.660156 -7.71875 0.378906 -7.789062 0.234375 -7.9375 C 0.0859375 -8.09375 0.015625 -8.335938 0.015625 -8.671875 C 0.015625 -9.453125 0.328125 -9.84375 0.953125 -9.84375 L 2.140625 -9.84375 C 2.378906 -11.363281 2.738281 -12.753906 3.21875 -14.015625 C 3.707031 -15.273438 4.296875 -16.28125 4.984375 -17.03125 C 5.671875 -17.78125 6.410156 -18.15625 7.203125 -18.15625 C 7.773438 -18.15625 8.226562 -17.894531 8.5625 -17.375 C 8.894531 -16.863281 9.0625 -16.222656 9.0625 -15.453125 C 9.0625 -13.304688 8.160156 -11.4375 6.359375 -9.84375 L 8.6875 -9.84375 C 8.914062 -9.84375 9.078125 -9.789062 9.171875 -9.6875 C 9.265625 -9.59375 9.3125 -9.414062 9.3125 -9.15625 C 9.3125 -8.195312 8.53125 -7.71875 6.96875 -7.71875 L 4.4375 -7.71875 C 4.40625 -7.019531 4.390625 -6.476562 4.390625 -6.09375 C 4.390625 -4.65625 4.554688 -3.644531 4.890625 -3.0625 C 5.234375 -2.476562 5.773438 -2.1875 6.515625 -2.1875 C 7.109375 -2.1875 7.632812 -2.363281 8.09375 -2.71875 C 8.550781 -3.082031 9.09375 -3.625 9.71875 -4.34375 C 9.882812 -4.539062 10.070312 -4.640625 10.28125 -4.640625 Z M 6.640625 -16.15625 C 6.429688 -16.15625 6.195312 -15.894531 5.9375 -15.375 C 5.675781 -14.851562 5.429688 -14.128906 5.203125 -13.203125 C 4.972656 -12.285156 4.785156 -11.269531 4.640625 -10.15625 C 5.453125 -10.851562 6.0625 -11.640625 6.46875 -12.515625 C 6.882812 -13.398438 7.09375 -14.207031 7.09375 -14.9375 C 7.09375 -15.75 6.941406 -16.15625 6.640625 -16.15625 Z M 6.640625 -16.15625 "/></g></g></g><g fill="#6c4646" fill-opacity="1"><g transform="translate(198.337237, 196.36845)"><g><path d="M 9.421875 0.109375 C 7.773438 0.109375 6.335938 -0.191406 5.109375 -0.796875 C 3.890625 -1.398438 2.953125 -2.253906 2.296875 -3.359375 C 1.648438 -4.472656 1.328125 -5.765625 1.328125 -7.234375 C 1.328125 -9.273438 1.710938 -11.082031 2.484375 -12.65625 C 3.253906 -14.238281 4.296875 -15.460938 5.609375 -16.328125 C 6.929688 -17.203125 8.394531 -17.640625 10 -17.640625 C 11.5 -17.640625 12.632812 -17.253906 13.40625 -16.484375 C 14.1875 -15.710938 14.578125 -14.695312 14.578125 -13.4375 C 14.578125 -12.59375 14.425781 -11.910156 14.125 -11.390625 C 13.832031 -10.878906 13.410156 -10.625 12.859375 -10.625 C 12.460938 -10.625 12.15625 -10.710938 11.9375 -10.890625 C 11.71875 -11.078125 11.609375 -11.34375 11.609375 -11.6875 C 11.609375 -11.8125 11.632812 -12.039062 11.6875 -12.375 C 11.769531 -12.789062 11.8125 -13.125 11.8125 -13.375 C 11.8125 -14.632812 11.140625 -15.265625 9.796875 -15.265625 C 8.878906 -15.265625 8.003906 -14.960938 7.171875 -14.359375 C 6.335938 -13.765625 5.664062 -12.890625 5.15625 -11.734375 C 4.644531 -10.578125 4.390625 -9.203125 4.390625 -7.609375 C 4.390625 -5.941406 4.851562 -4.65625 5.78125 -3.75 C 6.707031 -2.84375 8.082031 -2.390625 9.90625 -2.390625 C 10.800781 -2.390625 11.707031 -2.503906 12.625 -2.734375 C 13.550781 -2.960938 14.578125 -3.3125 15.703125 -3.78125 C 15.910156 -3.863281 16.082031 -3.90625 16.21875 -3.90625 C 16.4375 -3.90625 16.601562 -3.820312 16.71875 -3.65625 C 16.832031 -3.488281 16.890625 -3.273438 16.890625 -3.015625 C 16.890625 -2.171875 16.429688 -1.546875 15.515625 -1.140625 C 14.523438 -0.710938 13.5 -0.394531 12.4375 -0.1875 C 11.382812 0.0078125 10.378906 0.109375 9.421875 0.109375 Z M 9.421875 0.109375 "/></g></g></g><g fill="#6c4646" fill-opacity="1"><g transform="translate(212.603583, 196.36845)"><g><path d="M 11.609375 -6.390625 C 11.785156 -6.390625 11.921875 -6.296875 12.015625 -6.109375 C 12.117188 -5.929688 12.171875 -5.703125 12.171875 -5.421875 C 12.171875 -4.765625 11.96875 -4.375 11.5625 -4.25 C 10.726562 -3.957031 9.8125 -3.789062 8.8125 -3.75 C 8.550781 -2.582031 8.03125 -1.644531 7.25 -0.9375 C 6.476562 -0.238281 5.597656 0.109375 4.609375 0.109375 C 3.785156 0.109375 3.078125 -0.09375 2.484375 -0.5 C 1.890625 -0.90625 1.441406 -1.4375 1.140625 -2.09375 C 0.835938 -2.757812 0.6875 -3.484375 0.6875 -4.265625 C 0.6875 -5.316406 0.882812 -6.253906 1.28125 -7.078125 C 1.6875 -7.898438 2.242188 -8.546875 2.953125 -9.015625 C 3.660156 -9.484375 4.441406 -9.71875 5.296875 -9.71875 C 6.359375 -9.71875 7.207031 -9.351562 7.84375 -8.625 C 8.488281 -7.894531 8.867188 -6.992188 8.984375 -5.921875 C 9.640625 -5.960938 10.414062 -6.101562 11.3125 -6.34375 C 11.425781 -6.375 11.523438 -6.390625 11.609375 -6.390625 Z M 4.78125 -2.09375 C 5.226562 -2.09375 5.613281 -2.273438 5.9375 -2.640625 C 6.257812 -3.003906 6.476562 -3.523438 6.59375 -4.203125 C 6.164062 -4.492188 5.835938 -4.875 5.609375 -5.34375 C 5.378906 -5.8125 5.265625 -6.3125 5.265625 -6.84375 C 5.265625 -7.0625 5.285156 -7.28125 5.328125 -7.5 L 5.21875 -7.5 C 4.664062 -7.5 4.203125 -7.234375 3.828125 -6.703125 C 3.460938 -6.171875 3.28125 -5.421875 3.28125 -4.453125 C 3.28125 -3.691406 3.429688 -3.109375 3.734375 -2.703125 C 4.035156 -2.296875 4.382812 -2.09375 4.78125 -2.09375 Z M 4.78125 -2.09375 "/></g></g></g><g fill="#6c4646" fill-opacity="1"><g transform="translate(221.982771, 196.36845)"><g><path d="M 2.46875 0.109375 C 1.945312 0.109375 1.578125 -0.164062 1.359375 -0.71875 C 1.148438 -1.28125 1.046875 -2.171875 1.046875 -3.390625 C 1.046875 -5.191406 1.300781 -6.90625 1.8125 -8.53125 C 1.9375 -8.925781 2.140625 -9.21875 2.421875 -9.40625 C 2.703125 -9.59375 3.101562 -9.6875 3.625 -9.6875 C 3.894531 -9.6875 4.085938 -9.648438 4.203125 -9.578125 C 4.316406 -9.515625 4.375 -9.382812 4.375 -9.1875 C 4.375 -8.96875 4.269531 -8.46875 4.0625 -7.6875 C 3.914062 -7.132812 3.800781 -6.648438 3.71875 -6.234375 C 3.632812 -5.816406 3.566406 -5.304688 3.515625 -4.703125 C 3.972656 -5.890625 4.484375 -6.859375 5.046875 -7.609375 C 5.617188 -8.359375 6.175781 -8.890625 6.71875 -9.203125 C 7.269531 -9.523438 7.773438 -9.6875 8.234375 -9.6875 C 9.140625 -9.6875 9.59375 -9.238281 9.59375 -8.34375 C 9.59375 -7.800781 9.4375 -6.820312 9.125 -5.40625 C 8.863281 -4.195312 8.734375 -3.398438 8.734375 -3.015625 C 8.734375 -2.460938 8.9375 -2.1875 9.34375 -2.1875 C 9.613281 -2.1875 9.9375 -2.351562 10.3125 -2.6875 C 10.695312 -3.03125 11.210938 -3.582031 11.859375 -4.34375 C 12.023438 -4.539062 12.210938 -4.640625 12.421875 -4.640625 C 12.597656 -4.640625 12.738281 -4.554688 12.84375 -4.390625 C 12.945312 -4.222656 13 -3.992188 13 -3.703125 C 13 -3.148438 12.867188 -2.71875 12.609375 -2.40625 C 12.003906 -1.675781 11.359375 -1.070312 10.671875 -0.59375 C 9.992188 -0.125 9.21875 0.109375 8.34375 0.109375 C 7.632812 0.109375 7.097656 -0.09375 6.734375 -0.5 C 6.378906 -0.914062 6.203125 -1.507812 6.203125 -2.28125 C 6.203125 -2.675781 6.296875 -3.375 6.484375 -4.375 C 6.671875 -5.238281 6.765625 -5.835938 6.765625 -6.171875 C 6.765625 -6.398438 6.6875 -6.515625 6.53125 -6.515625 C 6.351562 -6.515625 6.097656 -6.28125 5.765625 -5.8125 C 5.441406 -5.34375 5.109375 -4.726562 4.765625 -3.96875 C 4.429688 -3.207031 4.160156 -2.40625 3.953125 -1.5625 C 3.796875 -0.90625 3.617188 -0.460938 3.421875 -0.234375 C 3.222656 -0.00390625 2.90625 0.109375 2.46875 0.109375 Z M 2.46875 0.109375 "/></g></g></g><g fill="#6c4646" fill-opacity="1"><g transform="translate(232.297795, 196.36845)"><g><path d="M 2.46875 0.109375 C 1.945312 0.109375 1.578125 -0.164062 1.359375 -0.71875 C 1.148438 -1.28125 1.046875 -2.171875 1.046875 -3.390625 C 1.046875 -5.191406 1.300781 -6.90625 1.8125 -8.53125 C 1.9375 -8.925781 2.140625 -9.21875 2.421875 -9.40625 C 2.703125 -9.59375 3.101562 -9.6875 3.625 -9.6875 C 3.894531 -9.6875 4.085938 -9.648438 4.203125 -9.578125 C 4.316406 -9.515625 4.375 -9.382812 4.375 -9.1875 C 4.375 -8.96875 4.269531 -8.46875 4.0625 -7.6875 C 3.914062 -7.132812 3.800781 -6.648438 3.71875 -6.234375 C 3.632812 -5.816406 3.566406 -5.304688 3.515625 -4.703125 C 3.972656 -5.890625 4.484375 -6.859375 5.046875 -7.609375 C 5.617188 -8.359375 6.175781 -8.890625 6.71875 -9.203125 C 7.269531 -9.523438 7.773438 -9.6875 8.234375 -9.6875 C 9.140625 -9.6875 9.59375 -9.238281 9.59375 -8.34375 C 9.59375 -7.800781 9.4375 -6.820312 9.125 -5.40625 C 8.863281 -4.195312 8.734375 -3.398438 8.734375 -3.015625 C 8.734375 -2.460938 8.9375 -2.1875 9.34375 -2.1875 C 9.613281 -2.1875 9.9375 -2.351562 10.3125 -2.6875 C 10.695312 -3.03125 11.210938 -3.582031 11.859375 -4.34375 C 12.023438 -4.539062 12.210938 -4.640625 12.421875 -4.640625 C 12.597656 -4.640625 12.738281 -4.554688 12.84375 -4.390625 C 12.945312 -4.222656 13 -3.992188 13 -3.703125 C 13 -3.148438 12.867188 -2.71875 12.609375 -2.40625 C 12.003906 -1.675781 11.359375 -1.070312 10.671875 -0.59375 C 9.992188 -0.125 9.21875 0.109375 8.34375 0.109375 C 7.632812 0.109375 7.097656 -0.09375 6.734375 -0.5 C 6.378906 -0.914062 6.203125 -1.507812 6.203125 -2.28125 C 6.203125 -2.675781 6.296875 -3.375 6.484375 -4.375 C 6.671875 -5.238281 6.765625 -5.835938 6.765625 -6.171875 C 6.765625 -6.398438 6.6875 -6.515625 6.53125 -6.515625 C 6.351562 -6.515625 6.097656 -6.28125 5.765625 -5.8125 C 5.441406 -5.34375 5.109375 -4.726562 4.765625 -3.96875 C 4.429688 -3.207031 4.160156 -2.40625 3.953125 -1.5625 C 3.796875 -0.90625 3.617188 -0.460938 3.421875 -0.234375 C 3.222656 -0.00390625 2.90625 0.109375 2.46875 0.109375 Z M 2.46875 0.109375 "/></g></g></g><g fill="#6c4646" fill-opacity="1"><g transform="translate(242.612819, 196.36845)"><g><path d="M 10.28125 -4.640625 C 10.457031 -4.640625 10.597656 -4.554688 10.703125 -4.390625 C 10.804688 -4.222656 10.859375 -3.992188 10.859375 -3.703125 C 10.859375 -3.148438 10.722656 -2.71875 10.453125 -2.40625 C 9.941406 -1.789062 9.21875 -1.21875 8.28125 -0.6875 C 7.351562 -0.15625 6.351562 0.109375 5.28125 0.109375 C 3.820312 0.109375 2.691406 -0.285156 1.890625 -1.078125 C 1.085938 -1.867188 0.6875 -2.953125 0.6875 -4.328125 C 0.6875 -5.285156 0.882812 -6.175781 1.28125 -7 C 1.6875 -7.820312 2.242188 -8.472656 2.953125 -8.953125 C 3.671875 -9.441406 4.484375 -9.6875 5.390625 -9.6875 C 6.191406 -9.6875 6.832031 -9.445312 7.3125 -8.96875 C 7.800781 -8.488281 8.046875 -7.84375 8.046875 -7.03125 C 8.046875 -6.070312 7.703125 -5.25 7.015625 -4.5625 C 6.328125 -3.875 5.164062 -3.332031 3.53125 -2.9375 C 3.882812 -2.289062 4.546875 -1.96875 5.515625 -1.96875 C 6.140625 -1.96875 6.847656 -2.1875 7.640625 -2.625 C 8.441406 -3.0625 9.132812 -3.632812 9.71875 -4.34375 C 9.882812 -4.539062 10.070312 -4.640625 10.28125 -4.640625 Z M 5.03125 -7.65625 C 4.519531 -7.65625 4.085938 -7.351562 3.734375 -6.75 C 3.378906 -6.15625 3.203125 -5.4375 3.203125 -4.59375 L 3.203125 -4.546875 C 4.023438 -4.742188 4.671875 -5.035156 5.140625 -5.421875 C 5.609375 -5.816406 5.84375 -6.269531 5.84375 -6.78125 C 5.84375 -7.039062 5.769531 -7.25 5.625 -7.40625 C 5.476562 -7.570312 5.28125 -7.65625 5.03125 -7.65625 Z M 5.03125 -7.65625 "/></g></g></g><g fill="#6c4646" fill-opacity="1"><g transform="translate(250.785809, 196.36845)"><g><path d="M 4.96875 0.109375 C 3.613281 0.109375 2.554688 -0.273438 1.796875 -1.046875 C 1.046875 -1.816406 0.671875 -2.832031 0.671875 -4.09375 C 0.671875 -5.21875 0.890625 -6.203125 1.328125 -7.046875 C 1.773438 -7.890625 2.351562 -8.539062 3.0625 -9 C 3.769531 -9.457031 4.507812 -9.6875 5.28125 -9.6875 C 6.039062 -9.6875 6.628906 -9.460938 7.046875 -9.015625 C 7.472656 -8.566406 7.6875 -7.988281 7.6875 -7.28125 C 7.6875 -6.695312 7.554688 -6.203125 7.296875 -5.796875 C 7.046875 -5.398438 6.710938 -5.203125 6.296875 -5.203125 C 6.035156 -5.203125 5.820312 -5.265625 5.65625 -5.390625 C 5.5 -5.515625 5.421875 -5.6875 5.421875 -5.90625 C 5.421875 -6 5.4375 -6.109375 5.46875 -6.234375 C 5.5 -6.359375 5.519531 -6.453125 5.53125 -6.515625 C 5.601562 -6.722656 5.640625 -6.914062 5.640625 -7.09375 C 5.640625 -7.269531 5.59375 -7.40625 5.5 -7.5 C 5.40625 -7.601562 5.273438 -7.65625 5.109375 -7.65625 C 4.796875 -7.65625 4.5 -7.507812 4.21875 -7.21875 C 3.945312 -6.9375 3.726562 -6.550781 3.5625 -6.0625 C 3.394531 -5.582031 3.3125 -5.050781 3.3125 -4.46875 C 3.3125 -2.863281 4.007812 -2.0625 5.40625 -2.0625 C 5.976562 -2.0625 6.59375 -2.25 7.25 -2.625 C 7.90625 -3.007812 8.550781 -3.582031 9.1875 -4.34375 C 9.351562 -4.539062 9.539062 -4.640625 9.75 -4.640625 C 9.9375 -4.640625 10.082031 -4.554688 10.1875 -4.390625 C 10.289062 -4.222656 10.34375 -3.992188 10.34375 -3.703125 C 10.34375 -3.171875 10.207031 -2.738281 9.9375 -2.40625 C 9.289062 -1.601562 8.507812 -0.984375 7.59375 -0.546875 C 6.6875 -0.109375 5.8125 0.109375 4.96875 0.109375 Z M 4.96875 0.109375 "/></g></g></g><g fill="#6c4646" fill-opacity="1"><g transform="translate(258.438891, 196.36845)"><g><path d="M 10.28125 -4.640625 C 10.457031 -4.640625 10.597656 -4.554688 10.703125 -4.390625 C 10.804688 -4.222656 10.859375 -3.992188 10.859375 -3.703125 C 10.859375 -3.148438 10.722656 -2.71875 10.453125 -2.40625 C 9.859375 -1.675781 9.207031 -1.070312 8.5 -0.59375 C 7.789062 -0.125 6.984375 0.109375 6.078125 0.109375 C 3.242188 0.109375 1.828125 -1.878906 1.828125 -5.859375 C 1.828125 -6.472656 1.847656 -7.09375 1.890625 -7.71875 L 1.078125 -7.71875 C 0.660156 -7.71875 0.378906 -7.789062 0.234375 -7.9375 C 0.0859375 -8.09375 0.015625 -8.335938 0.015625 -8.671875 C 0.015625 -9.453125 0.328125 -9.84375 0.953125 -9.84375 L 2.140625 -9.84375 C 2.378906 -11.363281 2.738281 -12.753906 3.21875 -14.015625 C 3.707031 -15.273438 4.296875 -16.28125 4.984375 -17.03125 C 5.671875 -17.78125 6.410156 -18.15625 7.203125 -18.15625 C 7.773438 -18.15625 8.226562 -17.894531 8.5625 -17.375 C 8.894531 -16.863281 9.0625 -16.222656 9.0625 -15.453125 C 9.0625 -13.304688 8.160156 -11.4375 6.359375 -9.84375 L 8.6875 -9.84375 C 8.914062 -9.84375 9.078125 -9.789062 9.171875 -9.6875 C 9.265625 -9.59375 9.3125 -9.414062 9.3125 -9.15625 C 9.3125 -8.195312 8.53125 -7.71875 6.96875 -7.71875 L 4.4375 -7.71875 C 4.40625 -7.019531 4.390625 -6.476562 4.390625 -6.09375 C 4.390625 -4.65625 4.554688 -3.644531 4.890625 -3.0625 C 5.234375 -2.476562 5.773438 -2.1875 6.515625 -2.1875 C 7.109375 -2.1875 7.632812 -2.363281 8.09375 -2.71875 C 8.550781 -3.082031 9.09375 -3.625 9.71875 -4.34375 C 9.882812 -4.539062 10.070312 -4.640625 10.28125 -4.640625 Z M 6.640625 -16.15625 C 6.429688 -16.15625 6.195312 -15.894531 5.9375 -15.375 C 5.675781 -14.851562 5.429688 -14.128906 5.203125 -13.203125 C 4.972656 -12.285156 4.785156 -11.269531 4.640625 -10.15625 C 5.453125 -10.851562 6.0625 -11.640625 6.46875 -12.515625 C 6.882812 -13.398438 7.09375 -14.207031 7.09375 -14.9375 C 7.09375 -15.75 6.941406 -16.15625 6.640625 -16.15625 Z M 6.640625 -16.15625 "/></g></g></g></svg>