<svg xmlns="http://www.w3.org/2000/svg" xmlns:xlink="http://www.w3.org/1999/xlink" width="500" zoomAndPan="magnify" viewBox="0 0 375 374.999991" height="500" preserveAspectRatio="xMidYMid meet" version="1.0"><defs><g/><clipPath id="c34e271fce"><path d="M 59 204 L 118 204 L 118 214.496094 L 59 214.496094 Z M 59 204 " clip-rule="nonzero"/></clipPath><clipPath id="c025fc78d0"><path d="M 73 160.386719 L 124.820312 160.386719 L 124.820312 213 L 73 213 Z M 73 160.386719 " clip-rule="nonzero"/></clipPath><clipPath id="e00ad16b8c"><path d="M 59 209 L 85 209 L 85 214.496094 L 59 214.496094 Z M 59 209 " clip-rule="nonzero"/></clipPath><clipPath id="dbcc3b478b"><path d="M 53.570312 166 L 98 166 L 98 210 L 53.570312 210 Z M 53.570312 166 " clip-rule="nonzero"/></clipPath></defs><g clip-path="url(#c34e271fce)"><path fill="#e07634" d="M 91.699219 209.261719 C 90.855469 208.957031 90.011719 208.652344 89.167969 208.351562 C 88.597656 208.148438 88.027344 207.949219 87.457031 207.75 C 87.09375 207.625 86.734375 207.5 86.371094 207.378906 C 85.570312 207.113281 84.773438 206.855469 83.976562 206.617188 C 82.476562 206.167969 80.980469 205.777344 79.488281 205.492188 C 78.648438 205.328125 77.816406 205.199219 76.980469 205.109375 C 75.449219 204.941406 73.917969 204.902344 72.390625 205.035156 C 71.554688 205.109375 70.71875 205.238281 69.882812 205.421875 C 68.695312 205.683594 67.507812 206.066406 66.324219 206.589844 C 65.578125 206.921875 64.828125 207.308594 64.082031 207.757812 C 63.8125 207.921875 63.542969 208.089844 63.273438 208.265625 C 62.589844 208.71875 61.910156 209.222656 61.226562 209.785156 C 60.507812 210.375 59.792969 211.03125 59.074219 211.753906 C 69.402344 205.429688 77.207031 206.460938 84.445312 208.90625 C 84.8125 209.03125 85.179688 209.160156 85.546875 209.289062 C 86.1875 209.519531 86.828125 209.757812 87.46875 210.003906 C 89.191406 210.664062 90.902344 211.359375 92.617188 212 C 95.339844 213.019531 98.082031 213.910156 100.964844 214.335938 C 105.992188 215.082031 111.433594 214.414062 117.878906 210.546875 C 115.820312 211.65625 113.769531 212.34375 111.71875 212.710938 C 106.023438 213.726562 100.347656 212.25 94.710938 210.324219 C 93.792969 210.011719 92.878906 209.6875 91.964844 209.359375 Z M 91.699219 209.261719 " fill-opacity="1" fill-rule="evenodd"/></g><g clip-path="url(#c025fc78d0)"><path fill="#6cdc45" d="M 113.597656 191.855469 C 113.496094 191.546875 113.402344 191.234375 113.308594 190.925781 C 113.410156 191.21875 113.507812 191.53125 113.597656 191.855469 Z M 97.632812 206.050781 C 96.761719 206.007812 95.898438 206 95.046875 206.03125 C 94.589844 206.046875 94.136719 206.074219 93.6875 206.113281 C 92.546875 206.210938 91.417969 206.378906 90.308594 206.609375 C 89.347656 206.8125 88.398438 207.066406 87.457031 207.367188 C 88.027344 207.5625 88.597656 207.765625 89.167969 207.96875 C 90.011719 208.269531 90.855469 208.574219 91.699219 208.878906 L 91.964844 208.972656 C 92.878906 209.304688 93.792969 209.628906 94.710938 209.941406 C 100.347656 211.867188 106.023438 213.34375 111.71875 212.324219 C 109.828125 209.96875 106.382812 207.902344 102.0625 206.640625 C 104.679688 200.027344 107.621094 195.359375 111.445312 191.300781 C 110.875 192.371094 110.417969 193.40625 110.066406 194.40625 C 112.371094 193.5625 112.289062 193.800781 109.828125 195.125 C 109.375 196.574219 109.144531 197.933594 109.082031 199.171875 C 111.167969 198.324219 111.164062 198.671875 109.074219 200.214844 C 109.113281 201.542969 109.359375 202.695312 109.742188 203.632812 C 110.761719 203.078125 111.566406 202.414062 112.195312 201.675781 C 111.464844 199.492188 111.039062 197.894531 113.019531 200.5 C 113.589844 199.496094 113.914062 198.410156 114.058594 197.308594 C 111.773438 194.191406 111.796875 193.964844 114.128906 196.621094 C 114.25 194.9375 113.988281 193.261719 113.597656 191.855469 C 114.136719 193.519531 114.785156 195.144531 115.527344 196.703125 C 117.121094 193.109375 116.535156 195.175781 115.878906 197.425781 C 116.609375 198.898438 117.421875 200.304688 118.292969 201.628906 C 118.980469 197.941406 118.984375 199 118.6875 202.214844 C 119.203125 202.96875 119.738281 203.695312 120.289062 204.386719 C 120.691406 202.785156 121.203125 200.726562 121.011719 198.601562 C 118.027344 196.164062 117.992188 195.902344 120.90625 197.816406 C 120.601562 196.097656 119.777344 194.363281 118.007812 192.824219 C 115.855469 192.097656 114.730469 191.65625 117.253906 192.222656 C 116.1875 191.441406 114.847656 190.722656 113.171875 190.09375 C 114.945312 189.964844 116.484375 190.734375 118.144531 191.300781 C 118.269531 190.761719 118.089844 190.152344 118.058594 189.574219 C 118.578125 190.34375 118.839844 191.234375 119.082031 192.132812 C 119.898438 192.488281 120.566406 192.882812 121.578125 193.382812 C 121.359375 192.582031 121.101562 191.597656 120.890625 190.800781 C 121.460938 191.726562 122.136719 192.78125 122.269531 194.242188 C 123.109375 194.632812 123.472656 194.871094 124.671875 195.496094 C 122.867188 189.410156 117.699219 186.84375 113.289062 189.226562 C 118.203125 185.9375 117.320312 180.597656 116.914062 179.882812 C 114.6875 180.886719 114.4375 184.148438 114.277344 186.304688 C 113.84375 185.191406 113.816406 182.410156 114.332031 180.738281 C 113.839844 181.5625 113.210938 183.269531 112.679688 184.328125 C 112.515625 184.65625 112.390625 184.660156 112.601562 184.953125 C 112.984375 185.492188 113.050781 186.152344 113.304688 186.738281 L 112.085938 185.089844 L 111.609375 188.257812 C 112.105469 183.351562 107.03125 179.582031 102.105469 180.09375 C 102.984375 180.6875 103.824219 181.289062 104.617188 181.914062 C 110.175781 182.996094 105.332031 182.488281 105.675781 182.78125 C 106.402344 183.410156 107.085938 184.070312 107.71875 184.769531 C 110.214844 185.375 110.183594 185.226562 108.566406 185.78125 C 109.3125 186.742188 109.964844 187.785156 110.507812 188.941406 C 108.851562 186.9375 106.886719 185.652344 104.765625 184.921875 C 103.734375 183.09375 102.183594 181.394531 100.0625 179.960938 C 99.242188 179.40625 98.332031 178.894531 97.335938 178.425781 C 98.058594 178.679688 98.804688 178.898438 99.574219 179.089844 C 102.011719 179.699219 104.664062 180.011719 107.339844 180.089844 C 106.066406 177.015625 106.035156 176.234375 108.832031 180.109375 C 110.351562 180.105469 111.875 180.027344 113.359375 179.890625 C 110.726562 176.203125 111.304688 176.097656 114.835938 179.730469 C 116.261719 179.558594 117.648438 179.328125 118.953125 179.050781 C 112.691406 174.492188 104.972656 172.253906 97.273438 175.800781 C 96.957031 175.949219 96.640625 176.105469 96.320312 176.269531 C 96.578125 176.039062 96.839844 175.816406 97.101562 175.597656 C 98.257812 174.636719 99.472656 173.816406 100.742188 173.101562 C 98.867188 171.433594 98.738281 171.617188 102.460938 172.21875 C 103.710938 171.625 105.007812 171.125 106.351562 170.6875 C 106.980469 170.480469 100.140625 168.421875 108.269531 170.113281 C 109.699219 169.71875 111.175781 169.378906 112.699219 169.074219 C 106.589844 165.734375 98.066406 167.632812 95.515625 173.894531 C 95.40625 174.160156 95.308594 174.4375 95.222656 174.722656 L 95.449219 173.828125 L 96.371094 170.167969 L 93.789062 171.707031 C 94.46875 171.058594 94.929688 170.199219 95.753906 169.691406 C 96.199219 169.414062 96.039062 169.339844 96 168.800781 C 95.886719 167.070312 96.003906 164.40625 95.800781 163.011719 C 95.554688 165.566406 93.9375 169.3125 92.722656 170.570312 C 93.726562 167.5625 95.238281 163.007812 92.796875 160.386719 C 92.074219 160.949219 89.464844 164.953125 90.339844 170.011719 C 90.554688 171.253906 90.976562 172.5625 91.691406 173.894531 C 91.898438 174.285156 92.132812 174.675781 92.390625 175.066406 C 90.257812 172.425781 87.300781 171.121094 84.160156 171.199219 C 84.023438 171.203125 83.890625 171.207031 83.757812 171.214844 C 82.839844 171.273438 81.90625 171.445312 80.976562 171.738281 C 80.476562 171.894531 79.980469 172.082031 79.488281 172.308594 C 78.640625 172.691406 77.800781 173.175781 76.980469 173.757812 C 75.742188 174.644531 74.554688 175.757812 73.453125 177.105469 C 75.210938 176.953125 75.898438 176.84375 76.980469 176.789062 L 77.410156 176.769531 C 77.984375 175.6875 78.722656 174.886719 79.488281 174.226562 C 80.070312 173.722656 80.671875 173.296875 81.230469 172.894531 C 80.695312 173.589844 80.070312 174.402344 79.488281 175.160156 L 78.835938 176 C 79.0625 175.984375 79.277344 175.972656 79.488281 175.957031 C 80.796875 175.859375 81.792969 175.738281 82.917969 175.726562 L 83.257812 175.292969 C 83.816406 174.589844 84.398438 173.914062 85.078125 173.347656 C 85.289062 173.167969 85.511719 173 85.75 172.847656 C 85.609375 173.140625 85.4375 173.425781 85.269531 173.714844 C 85 174.175781 84.742188 174.636719 84.65625 175.128906 C 85.09375 175.160156 85.53125 175.179688 85.96875 175.199219 C 87.167969 175.25 88.355469 175.289062 89.507812 175.496094 C 90.382812 175.648438 91.234375 175.898438 92.066406 176.316406 C 91.410156 176.292969 90.78125 176.289062 90.175781 176.300781 C 88.851562 176.328125 87.644531 176.445312 86.542969 176.636719 C 86.128906 176.707031 85.726562 176.789062 85.339844 176.882812 C 85.941406 176.988281 86.398438 177.078125 86.730469 177.152344 C 87.703125 177.363281 87.597656 177.4375 86.824219 177.425781 C 86.238281 177.417969 85.273438 177.359375 84.105469 177.277344 L 83.976562 177.269531 C 82.773438 177.667969 81.726562 178.175781 80.816406 178.761719 C 79.257812 179.769531 78.101562 181.015625 77.226562 182.371094 C 78.160156 182.199219 78.914062 182.070312 79.488281 181.984375 C 81.308594 181.710938 81.308594 181.878906 79.488281 182.492188 C 78.863281 182.703125 78.027344 182.960938 76.980469 183.273438 L 76.640625 183.375 C 75.433594 185.65625 74.894531 188.144531 74.539062 190.289062 C 74.464844 190.746094 74.394531 191.1875 74.332031 191.609375 C 75.09375 191.191406 75.851562 190.75 76.609375 190.289062 L 76.980469 190.058594 C 77.234375 189.902344 77.484375 189.742188 77.734375 189.578125 C 79.152344 185.0625 79.761719 183.636719 78.59375 189.011719 C 78.894531 188.8125 79.191406 188.609375 79.484375 188.402344 C 81.109375 187.265625 82.703125 186.027344 84.246094 184.699219 C 84.402344 183.320312 84.558594 181.984375 84.695312 181.265625 C 84.820312 180.613281 84.929688 180.46875 85.011719 181.265625 C 85.0625 181.757812 85.101562 182.609375 85.128906 183.921875 C 85.339844 183.734375 85.546875 183.546875 85.753906 183.355469 C 86.480469 182.683594 87.195312 181.992188 87.894531 181.28125 L 87.910156 181.265625 C 88.703125 180.457031 89.476562 179.621094 90.226562 178.761719 L 90.488281 178.460938 L 90.253906 178.761719 C 89.675781 179.519531 89.105469 180.363281 88.585938 181.265625 C 88.414062 181.570312 88.246094 181.878906 88.085938 182.195312 C 87.695312 182.964844 87.347656 183.769531 87.066406 184.605469 C 87.566406 184.359375 88.007812 184.148438 88.398438 183.964844 C 91.160156 182.664062 91.1875 182.851562 88.484375 184.527344 C 88 184.828125 87.429688 185.175781 86.769531 185.570312 C 86.5625 186.347656 86.410156 187.148438 86.335938 187.957031 C 86.269531 188.722656 86.265625 189.503906 86.347656 190.285156 L 86.371094 190.476562 C 87.941406 189.570312 88.707031 189.277344 88.929688 189.40625 C 89.023438 189.457031 89.023438 189.585938 88.945312 189.773438 C 88.71875 190.316406 87.84375 191.359375 86.816406 192.53125 C 87.210938 193.773438 87.839844 195.015625 88.761719 196.234375 C 88.847656 196.347656 88.933594 196.460938 89.023438 196.570312 C 89.980469 195.613281 90.882812 194.347656 91.644531 192.792969 C 91.71875 192.640625 91.792969 192.488281 91.863281 192.328125 C 91.335938 191.441406 90.964844 190.761719 90.753906 190.285156 C 90.257812 189.183594 90.605469 189.183594 91.796875 190.285156 C 91.988281 190.464844 92.207031 190.671875 92.441406 190.910156 C 92.515625 190.707031 92.589844 190.496094 92.660156 190.285156 C 93.167969 188.730469 93.546875 186.96875 93.734375 185.019531 C 91.152344 181.832031 91.179688 181.464844 93.820312 183.910156 C 93.835938 183.667969 93.84375 183.421875 93.851562 183.167969 C 93.898438 181.835938 93.855469 180.421875 93.710938 178.933594 C 94.433594 180.855469 95.058594 182.761719 95.589844 184.703125 L 95.539062 184.714844 L 95.605469 184.761719 C 96.511719 188.09375 97.132812 191.53125 97.46875 195.339844 C 97.644531 197.359375 97.738281 199.480469 97.753906 201.75 C 97.761719 203.015625 97.679688 204.671875 97.632812 206.050781 Z M 111.605469 188.257812 C 111.585938 188.476562 111.550781 188.695312 111.507812 188.921875 Z M 97.335938 178.425781 C 96.742188 178.222656 96.171875 177.992188 95.621094 177.746094 C 95.488281 177.683594 95.359375 177.625 95.230469 177.5625 L 95.578125 177.691406 C 96.191406 177.917969 96.777344 178.167969 97.335938 178.425781 Z M 95.222656 174.722656 L 94.980469 175.675781 C 95.046875 175.347656 95.125 175.03125 95.222656 174.722656 Z M 90.488281 178.460938 C 90.710938 178.179688 90.933594 177.910156 91.152344 177.652344 L 91.40625 177.363281 L 91.160156 177.664062 C 90.9375 177.933594 90.714844 178.199219 90.488281 178.460938 Z M 100.6875 201.855469 C 100.554688 200.398438 100.414062 198.949219 100.25 197.515625 C 100.828125 197.660156 101.417969 197.65625 102.011719 197.542969 L 102.332031 197.015625 C 104.195312 193.96875 104.113281 194.34375 103.351562 197.109375 C 103.953125 196.839844 104.550781 196.480469 105.132812 196.0625 C 107.410156 190.792969 107.011719 192.214844 105.859375 195.5 C 106.980469 193.917969 107.933594 193.15625 108.742188 192.492188 C 105.355469 195.878906 103.125 199.902344 100.894531 204.097656 L 100.691406 201.855469 Z M 109.300781 190.027344 C 108.234375 190.070312 107.257812 190.222656 106.367188 190.46875 C 106.351562 190.171875 106.328125 189.878906 106.292969 189.582031 C 107.3125 189.816406 108.324219 189.96875 109.300781 190.027344 Z M 100.039062 195.75 C 99.910156 194.757812 99.765625 193.773438 99.605469 192.792969 C 99.464844 191.957031 99.3125 191.121094 99.140625 190.289062 C 98.855469 188.902344 98.523438 187.527344 98.121094 186.160156 L 98.425781 186.035156 C 98.585938 186.558594 98.742188 187.136719 98.882812 187.777344 L 98.945312 186.777344 C 99.136719 186.878906 99.328125 186.980469 99.523438 187.078125 C 99.535156 187.632812 99.542969 188.253906 99.550781 188.949219 C 99.820312 189.386719 100.101562 189.808594 100.394531 190.207031 C 100.703125 190.625 101.023438 191.015625 101.363281 191.375 C 101.914062 187.105469 102.007812 186.628906 102.851562 192.203125 C 101.523438 193.253906 100.601562 194.605469 100.082031 196.101562 L 100.035156 195.75 Z M 99.507812 186.296875 C 99.34375 186.402344 99.15625 186.523438 98.953125 186.648438 L 99.011719 185.796875 C 99.1875 185.730469 99.34375 185.671875 99.492188 185.617188 Z M 97.792969 184.3125 L 97.542969 184.34375 C 97.285156 183.585938 97 182.828125 96.691406 182.074219 C 97.042969 182.730469 97.421875 183.441406 97.792969 184.3125 Z M 99.433594 184.183594 L 99.1875 184.191406 L 99.144531 184.195312 L 99.15625 184.09375 C 99.265625 183.078125 99.359375 182.933594 99.433594 184.179688 Z M 110.851562 190.042969 C 110.347656 190.066406 109.828125 190.0625 109.300781 190.03125 C 109.800781 190.007812 110.316406 190.011719 110.851562 190.042969 Z M 110.851562 190.042969 " fill-opacity="1" fill-rule="nonzero"/></g><g clip-path="url(#e00ad16b8c)"><path fill="#e07634" d="M 84.703125 214.121094 C 79.207031 213.832031 68.15625 205.074219 59.765625 212.703125 C 71.011719 207.488281 73.59375 214.792969 84.703125 214.121094 Z M 84.703125 214.121094 " fill-opacity="1" fill-rule="evenodd"/></g><path fill="#e07634" d="M 91.941406 212.976562 C 89.375 212.839844 84.222656 208.753906 80.304688 212.3125 C 85.550781 209.878906 86.757812 213.289062 91.941406 212.976562 Z M 91.941406 212.976562 " fill-opacity="1" fill-rule="evenodd"/><path fill="#e07634" d="M 70.238281 209.28125 C 77.417969 205.953125 79.066406 210.613281 86.160156 210.1875 C 82.648438 210 75.597656 204.410156 70.238281 209.28125 Z M 70.238281 209.28125 " fill-opacity="1" fill-rule="evenodd"/><g clip-path="url(#dbcc3b478b)"><path fill="#5cbbff" d="M 80.277344 171.023438 C 80.445312 171.175781 80.613281 171.34375 80.777344 171.519531 C 80.816406 171.507812 80.855469 171.496094 80.894531 171.480469 C 81.761719 171.210938 82.660156 171.03125 83.570312 170.960938 C 83.546875 170.929688 83.523438 170.902344 83.503906 170.875 C 83.558594 170.898438 83.613281 170.925781 83.671875 170.953125 C 83.695312 170.953125 83.714844 170.949219 83.738281 170.949219 C 83.878906 170.941406 84.015625 170.933594 84.152344 170.933594 C 86.785156 170.867188 89.207031 171.753906 91.140625 173.402344 C 90.640625 172.339844 90.273438 171.222656 90.074219 170.058594 C 90.0625 169.988281 90.050781 169.917969 90.039062 169.847656 C 88.636719 169.085938 87.148438 168.453125 85.597656 167.972656 C 83.691406 167.378906 81.679688 167.011719 79.609375 166.898438 L 79.609375 166.871094 L 79.484375 166.871094 L 79.484375 166.863281 L 76.980469 166.863281 L 76.980469 166.894531 C 74.039062 167.042969 71.234375 167.710938 68.652344 168.804688 C 64.222656 170.675781 60.457031 173.804688 57.796875 177.742188 C 56.464844 179.710938 55.410156 181.882812 54.691406 184.203125 C 53.964844 186.523438 53.578125 188.988281 53.578125 191.542969 C 53.578125 194.949219 54.269531 198.195312 55.519531 201.148438 C 56.84375 204.285156 58.800781 207.089844 61.226562 209.402344 C 61.90625 208.839844 62.589844 208.335938 63.273438 207.886719 C 62.085938 206.796875 61.019531 205.582031 60.089844 204.261719 L 62.199219 204.261719 C 62.757812 205.355469 63.386719 206.398438 64.078125 207.378906 C 64.828125 206.929688 65.574219 206.539062 66.324219 206.210938 C 65.871094 205.589844 65.449219 204.9375 65.050781 204.261719 L 69.644531 204.261719 C 69.722656 204.523438 69.800781 204.785156 69.878906 205.039062 C 70.714844 204.855469 71.550781 204.730469 72.390625 204.65625 L 72.261719 204.261719 L 76.980469 204.261719 L 76.980469 204.726562 C 77.8125 204.820312 78.648438 204.949219 79.484375 205.109375 L 79.484375 204.261719 L 84.675781 204.261719 C 84.511719 204.777344 84.339844 205.277344 84.160156 205.761719 C 84.097656 205.921875 84.039062 206.082031 83.976562 206.234375 C 84.773438 206.476562 85.570312 206.730469 86.367188 207 C 86.703125 206.128906 87.011719 205.214844 87.292969 204.261719 L 91.882812 204.261719 C 91.472656 204.96875 91.027344 205.644531 90.550781 206.289062 C 91.578125 206.085938 92.621094 205.9375 93.664062 205.847656 L 93.859375 205.832031 C 94.167969 205.320312 94.460938 204.796875 94.734375 204.261719 L 96.425781 204.261719 C 96.066406 204.777344 95.683594 205.273438 95.28125 205.757812 C 95.996094 205.738281 96.710938 205.742188 97.425781 205.773438 C 97.46875 204.433594 97.492188 203.09375 97.484375 201.753906 C 97.484375 201.753906 97.484375 201.753906 97.484375 201.75 L 95.851562 201.75 C 96.488281 200.09375 96.972656 198.339844 97.289062 196.511719 C 97.261719 196.128906 97.230469 195.746094 97.199219 195.367188 C 96.890625 191.828125 96.296875 188.359375 95.371094 184.929688 L 94.886719 184.597656 L 95.257812 184.511719 C 94.914062 183.273438 94.527344 182.046875 94.109375 180.832031 C 94.140625 181.617188 94.144531 182.398438 94.121094 183.183594 C 94.109375 183.425781 94.101562 183.667969 94.085938 183.910156 C 94.695312 185.914062 95.074219 188.054688 95.175781 190.292969 L 92.9375 190.292969 C 92.929688 190.320312 92.921875 190.347656 92.910156 190.375 C 92.84375 190.585938 92.769531 190.796875 92.695312 191.007812 L 92.550781 191.402344 L 92.253906 191.105469 C 92.042969 190.894531 91.832031 190.6875 91.613281 190.488281 C 91.570312 190.449219 91.492188 190.375 91.394531 190.289062 L 91.046875 190.289062 C 91.34375 190.9375 91.730469 191.589844 92.09375 192.195312 L 92.164062 192.316406 L 92.105469 192.445312 C 92.054688 192.5625 92 192.679688 91.941406 192.796875 L 95.175781 192.796875 C 95.054688 195.394531 94.566406 197.875 93.765625 200.152344 C 93.574219 200.699219 93.367188 201.230469 93.144531 201.75 L 87.921875 201.75 C 88.273438 200.128906 88.546875 198.414062 88.722656 196.628906 C 88.664062 196.554688 88.605469 196.476562 88.546875 196.402344 C 87.679688 195.253906 86.992188 193.988281 86.558594 192.617188 L 86.511719 192.472656 L 86.613281 192.359375 C 87.074219 191.832031 87.535156 191.300781 87.96875 190.753906 C 88.199219 190.460938 88.550781 190.015625 88.695312 189.671875 L 88.703125 189.652344 C 88.207031 189.734375 86.765625 190.558594 86.5 190.710938 L 86.148438 190.917969 L 86.078125 190.316406 C 86.078125 190.308594 86.078125 190.296875 86.078125 190.289062 L 79.484375 190.289062 L 79.484375 188.730469 C 79.238281 188.902344 78.992188 189.070312 78.742188 189.238281 L 78.191406 189.609375 L 78.332031 188.957031 C 78.410156 188.589844 78.492188 188.222656 78.566406 187.855469 C 78.367188 188.453125 78.179688 189.058594 77.988281 189.660156 L 77.960938 189.753906 L 77.878906 189.804688 C 77.628906 189.96875 77.375 190.128906 77.121094 190.289062 L 76.75 190.519531 C 75.996094 190.980469 75.234375 191.421875 74.460938 191.84375 L 73.984375 192.105469 L 74.066406 191.570312 C 74.132812 191.140625 74.195312 190.714844 74.265625 190.289062 L 70.480469 190.289062 C 70.550781 187.695312 70.820312 185.21875 71.257812 182.941406 C 71.371094 182.367188 71.488281 181.808594 71.617188 181.269531 L 76.980469 181.269531 L 76.980469 182.261719 L 77 182.226562 C 77.886719 180.851562 78.996094 179.691406 80.332031 178.765625 L 79.484375 178.765625 L 79.484375 176.226562 C 79.273438 176.242188 79.0625 176.253906 78.851562 176.265625 L 78.261719 176.304688 L 79.273438 174.996094 L 79.484375 174.71875 L 79.484375 174.582031 C 78.742188 175.253906 78.121094 176 77.644531 176.894531 L 77.574219 177.03125 L 76.992188 177.054688 C 76.988281 177.054688 76.984375 177.054688 76.980469 177.054688 L 76.980469 178.765625 L 72.308594 178.765625 C 72.453125 178.316406 72.601562 177.882812 72.757812 177.464844 C 73.214844 176.234375 73.726562 175.121094 74.277344 174.144531 C 74.695312 173.414062 75.132812 172.757812 75.582031 172.191406 C 76.035156 171.613281 76.507812 171.128906 76.980469 170.742188 L 76.980469 173.429688 C 77.734375 172.90625 78.535156 172.445312 79.375 172.0625 C 79.410156 172.046875 79.449219 172.03125 79.484375 172.015625 L 79.484375 170.382812 C 79.75 170.570312 80.011719 170.78125 80.277344 171.023438 Z M 79.488281 192.792969 L 86.453125 192.792969 C 86.390625 195.433594 86.117188 197.953125 85.671875 200.273438 C 85.574219 200.773438 85.46875 201.269531 85.355469 201.75 L 79.484375 201.75 L 79.484375 192.792969 Z M 76.980469 192.792969 L 76.980469 201.75 L 71.582031 201.75 L 71.511719 201.441406 C 70.917969 198.8125 70.558594 195.886719 70.480469 192.792969 Z M 67.976562 192.792969 C 68.039062 195.59375 68.328125 198.265625 68.804688 200.746094 C 68.871094 201.085938 68.941406 201.417969 69.011719 201.75 L 63.792969 201.75 C 63.703125 201.546875 63.617188 201.339844 63.535156 201.128906 C 62.519531 198.589844 61.894531 195.769531 61.757812 192.792969 Z M 69.046875 181.269531 C 68.429688 184.035156 68.058594 187.078125 67.976562 190.289062 L 61.757812 190.289062 C 61.878906 187.695312 62.367188 185.226562 63.160156 182.953125 C 63.359375 182.378906 63.578125 181.816406 63.816406 181.269531 Z M 59.25 192.792969 C 59.371094 195.675781 59.910156 198.433594 60.800781 200.980469 C 60.894531 201.242188 60.992188 201.496094 61.085938 201.75 L 58.570312 201.75 C 57.972656 200.601562 57.472656 199.394531 57.082031 198.136719 C 56.550781 196.433594 56.222656 194.644531 56.121094 192.792969 Z M 61.113281 181.269531 C 60.035156 184.039062 59.386719 187.085938 59.25 190.289062 L 56.121094 190.289062 C 56.265625 187.679688 56.859375 185.199219 57.828125 182.910156 C 58.0625 182.351562 58.324219 181.800781 58.605469 181.269531 Z M 72.046875 173.003906 C 71.117188 174.667969 70.324219 176.605469 69.691406 178.765625 L 65.089844 178.765625 C 66.351562 176.605469 67.921875 174.742188 69.707031 173.253906 C 70.867188 172.296875 72.117188 171.492188 73.433594 170.875 C 72.941406 171.519531 72.480469 172.230469 72.046875 173.003906 Z M 66.542969 172.761719 C 64.84375 174.476562 63.390625 176.503906 62.234375 178.765625 L 60.132812 178.765625 C 61.691406 176.566406 63.632812 174.660156 65.863281 173.152344 C 66.132812 172.972656 66.40625 172.796875 66.679688 172.628906 Z M 66.542969 172.761719 " fill-opacity="1" fill-rule="evenodd"/></g><g fill="#6c4646" fill-opacity="1"><g transform="translate(136.832421, 200.980894)"><g><path d="M 31.46875 -7.15625 C 31.75 -7.15625 31.96875 -7.023438 32.125 -6.765625 C 32.28125 -6.515625 32.359375 -6.160156 32.359375 -5.703125 C 32.359375 -4.867188 32.15625 -4.207031 31.75 -3.71875 C 30.726562 -2.476562 29.691406 -1.519531 28.640625 -0.84375 C 27.597656 -0.175781 26.359375 0.15625 24.921875 0.15625 C 23.535156 0.15625 22.351562 -0.210938 21.375 -0.953125 C 20.40625 -1.703125 19.484375 -2.988281 18.609375 -4.8125 C 17.898438 -6.269531 17.34375 -7.34375 16.9375 -8.03125 C 16.53125 -8.726562 16.128906 -9.222656 15.734375 -9.515625 C 15.335938 -9.816406 14.851562 -10.003906 14.28125 -10.078125 C 14.1875 -9.628906 13.9375 -8.21875 13.53125 -5.84375 C 13.363281 -4.769531 13.257812 -4.113281 13.21875 -3.875 C 13 -2.570312 12.566406 -1.570312 11.921875 -0.875 C 11.285156 -0.1875 10.316406 0.15625 9.015625 0.15625 C 7.578125 0.15625 6.304688 -0.265625 5.203125 -1.109375 C 4.109375 -1.953125 3.257812 -3.125 2.65625 -4.625 C 2.0625 -6.132812 1.765625 -7.851562 1.765625 -9.78125 C 1.765625 -13.375 2.390625 -16.472656 3.640625 -19.078125 C 4.890625 -21.691406 6.640625 -23.6875 8.890625 -25.0625 C 11.148438 -26.445312 13.757812 -27.140625 16.71875 -27.140625 C 18.769531 -27.140625 20.488281 -26.828125 21.875 -26.203125 C 23.269531 -25.585938 24.300781 -24.734375 24.96875 -23.640625 C 25.644531 -22.546875 25.984375 -21.316406 25.984375 -19.953125 C 25.984375 -18.753906 25.695312 -17.582031 25.125 -16.4375 C 24.5625 -15.289062 23.710938 -14.28125 22.578125 -13.40625 C 21.441406 -12.53125 20.0625 -11.878906 18.4375 -11.453125 C 19.46875 -11.171875 20.257812 -10.71875 20.8125 -10.09375 C 21.375 -9.476562 21.929688 -8.570312 22.484375 -7.375 C 23.085938 -6.09375 23.679688 -5.148438 24.265625 -4.546875 C 24.859375 -3.953125 25.535156 -3.65625 26.296875 -3.65625 C 26.984375 -3.65625 27.632812 -3.882812 28.25 -4.34375 C 28.875 -4.800781 29.660156 -5.585938 30.609375 -6.703125 C 30.859375 -7.003906 31.144531 -7.15625 31.46875 -7.15625 Z M 9.84375 -10.109375 C 9.113281 -10.109375 8.613281 -10.273438 8.34375 -10.609375 C 8.082031 -10.953125 7.953125 -11.335938 7.953125 -11.765625 C 7.953125 -12.285156 8.117188 -12.691406 8.453125 -12.984375 C 8.785156 -13.285156 9.164062 -13.4375 9.59375 -13.4375 L 10.390625 -13.4375 C 10.734375 -15.53125 11.054688 -17.335938 11.359375 -18.859375 C 11.628906 -20.253906 12.523438 -20.953125 14.046875 -20.953125 C 15.265625 -20.953125 15.875 -20.40625 15.875 -19.3125 C 15.875 -19.070312 15.863281 -18.890625 15.84375 -18.765625 L 14.890625 -13.4375 C 16.035156 -13.5 17.082031 -13.773438 18.03125 -14.265625 C 18.988281 -14.765625 19.75 -15.453125 20.3125 -16.328125 C 20.882812 -17.203125 21.171875 -18.195312 21.171875 -19.3125 C 21.171875 -20.65625 20.707031 -21.710938 19.78125 -22.484375 C 18.863281 -23.253906 17.519531 -23.640625 15.75 -23.640625 C 13.65625 -23.640625 11.820312 -23.117188 10.25 -22.078125 C 8.675781 -21.046875 7.453125 -19.507812 6.578125 -17.46875 C 5.703125 -15.425781 5.265625 -12.941406 5.265625 -10.015625 C 5.265625 -8.640625 5.398438 -7.457031 5.671875 -6.46875 C 5.953125 -5.488281 6.296875 -4.753906 6.703125 -4.265625 C 7.109375 -3.773438 7.492188 -3.53125 7.859375 -3.53125 C 8.140625 -3.53125 8.367188 -3.664062 8.546875 -3.9375 C 8.734375 -4.21875 8.878906 -4.671875 8.984375 -5.296875 Z M 9.84375 -10.109375 "/></g></g></g><g fill="#6c4646" fill-opacity="1"><g transform="translate(165.05764, 200.980894)"><g><path d="M 15.84375 -7.15625 C 16.125 -7.15625 16.34375 -7.023438 16.5 -6.765625 C 16.664062 -6.515625 16.75 -6.160156 16.75 -5.703125 C 16.75 -4.847656 16.546875 -4.1875 16.140625 -3.71875 C 15.347656 -2.757812 14.226562 -1.875 12.78125 -1.0625 C 11.34375 -0.25 9.796875 0.15625 8.140625 0.15625 C 5.898438 0.15625 4.160156 -0.453125 2.921875 -1.671875 C 1.679688 -2.890625 1.0625 -4.554688 1.0625 -6.671875 C 1.0625 -8.148438 1.367188 -9.523438 1.984375 -10.796875 C 2.609375 -12.066406 3.46875 -13.078125 4.5625 -13.828125 C 5.664062 -14.578125 6.914062 -14.953125 8.3125 -14.953125 C 9.550781 -14.953125 10.546875 -14.582031 11.296875 -13.84375 C 12.046875 -13.101562 12.421875 -12.101562 12.421875 -10.84375 C 12.421875 -9.363281 11.890625 -8.09375 10.828125 -7.03125 C 9.765625 -5.976562 7.972656 -5.140625 5.453125 -4.515625 C 5.984375 -3.535156 7 -3.046875 8.5 -3.046875 C 9.457031 -3.046875 10.550781 -3.378906 11.78125 -4.046875 C 13.019531 -4.722656 14.085938 -5.609375 14.984375 -6.703125 C 15.234375 -7.003906 15.519531 -7.15625 15.84375 -7.15625 Z M 7.765625 -11.8125 C 6.972656 -11.8125 6.300781 -11.347656 5.75 -10.421875 C 5.207031 -9.503906 4.9375 -8.394531 4.9375 -7.09375 L 4.9375 -7.03125 C 6.195312 -7.320312 7.191406 -7.765625 7.921875 -8.359375 C 8.648438 -8.960938 9.015625 -9.660156 9.015625 -10.453125 C 9.015625 -10.859375 8.898438 -11.1875 8.671875 -11.4375 C 8.453125 -11.6875 8.148438 -11.8125 7.765625 -11.8125 Z M 7.765625 -11.8125 "/></g></g></g><g fill="#6c4646" fill-opacity="1"><g transform="translate(177.662761, 200.980894)"><g><path d="M 7.5 0.859375 C 6.394531 0.859375 5.546875 0.601562 4.953125 0.09375 C 4.367188 -0.414062 4.078125 -0.992188 4.078125 -1.640625 C 4.078125 -2.191406 4.28125 -2.671875 4.6875 -3.078125 C 5.09375 -3.484375 5.691406 -3.6875 6.484375 -3.6875 C 6.753906 -3.6875 7.078125 -3.660156 7.453125 -3.609375 C 7.828125 -3.554688 8.113281 -3.519531 8.3125 -3.5 C 8.289062 -4.050781 8.164062 -4.570312 7.9375 -5.0625 C 7.71875 -5.5625 7.4375 -6.039062 7.09375 -6.5 C 6.75 -6.957031 6.425781 -7.359375 6.125 -7.703125 C 5.457031 -6.441406 4.796875 -5.390625 4.140625 -4.546875 C 3.492188 -3.710938 2.785156 -2.925781 2.015625 -2.1875 C 1.628906 -1.800781 1.222656 -1.609375 0.796875 -1.609375 C 0.453125 -1.609375 0.175781 -1.726562 -0.03125 -1.96875 C -0.25 -2.21875 -0.359375 -2.523438 -0.359375 -2.890625 C -0.359375 -3.316406 -0.207031 -3.710938 0.09375 -4.078125 L 0.515625 -4.59375 C 1.691406 -6.039062 2.578125 -7.238281 3.171875 -8.1875 C 3.535156 -8.800781 3.960938 -9.625 4.453125 -10.65625 C 4.953125 -11.695312 5.4375 -12.773438 5.90625 -13.890625 C 6.3125 -14.828125 7.15625 -15.296875 8.4375 -15.296875 C 9.03125 -15.296875 9.445312 -15.242188 9.6875 -15.140625 C 9.925781 -15.035156 10.046875 -14.863281 10.046875 -14.625 C 10.046875 -14.5 10 -14.296875 9.90625 -14.015625 C 9.820312 -13.734375 9.707031 -13.457031 9.5625 -13.1875 C 9.175781 -12.414062 8.984375 -11.765625 8.984375 -11.234375 C 8.984375 -10.910156 9.09375 -10.554688 9.3125 -10.171875 C 9.539062 -9.785156 9.890625 -9.300781 10.359375 -8.71875 C 11.046875 -7.820312 11.566406 -7.054688 11.921875 -6.421875 C 12.273438 -5.796875 12.453125 -5.109375 12.453125 -4.359375 C 12.453125 -4.148438 12.425781 -3.851562 12.375 -3.46875 C 13.425781 -3.875 14.660156 -4.953125 16.078125 -6.703125 C 16.328125 -7.003906 16.613281 -7.15625 16.9375 -7.15625 C 17.21875 -7.15625 17.4375 -7.023438 17.59375 -6.765625 C 17.75 -6.515625 17.828125 -6.160156 17.828125 -5.703125 C 17.828125 -4.890625 17.625 -4.226562 17.21875 -3.71875 C 16.15625 -2.394531 15.132812 -1.488281 14.15625 -1 C 13.1875 -0.519531 11.984375 -0.257812 10.546875 -0.21875 C 9.691406 0.5 8.675781 0.859375 7.5 0.859375 Z M 7.5 0.859375 "/></g></g></g><g fill="#6c4646" fill-opacity="1"><g transform="translate(191.358406, 200.980894)"><g><path d="M 15.84375 -7.15625 C 16.125 -7.15625 16.34375 -7.023438 16.5 -6.765625 C 16.664062 -6.515625 16.75 -6.160156 16.75 -5.703125 C 16.75 -4.847656 16.546875 -4.1875 16.140625 -3.71875 C 15.210938 -2.582031 14.203125 -1.648438 13.109375 -0.921875 C 12.023438 -0.203125 10.773438 0.15625 9.359375 0.15625 C 5.003906 0.15625 2.828125 -2.910156 2.828125 -9.046875 C 2.828125 -9.984375 2.859375 -10.9375 2.921875 -11.90625 L 1.671875 -11.90625 C 1.023438 -11.90625 0.585938 -12.019531 0.359375 -12.25 C 0.140625 -12.488281 0.03125 -12.863281 0.03125 -13.375 C 0.03125 -14.570312 0.507812 -15.171875 1.46875 -15.171875 L 3.296875 -15.171875 C 3.660156 -17.523438 4.21875 -19.675781 4.96875 -21.625 C 5.71875 -23.570312 6.617188 -25.117188 7.671875 -26.265625 C 8.734375 -27.421875 9.875 -28 11.09375 -28 C 12 -28 12.707031 -27.601562 13.21875 -26.8125 C 13.726562 -26.019531 13.984375 -25.023438 13.984375 -23.828125 C 13.984375 -20.515625 12.59375 -17.628906 9.8125 -15.171875 L 13.40625 -15.171875 C 13.75 -15.171875 13.992188 -15.09375 14.140625 -14.9375 C 14.296875 -14.789062 14.375 -14.515625 14.375 -14.109375 C 14.375 -12.640625 13.164062 -11.90625 10.75 -11.90625 L 6.828125 -11.90625 C 6.785156 -10.832031 6.765625 -10 6.765625 -9.40625 C 6.765625 -7.175781 7.023438 -5.613281 7.546875 -4.71875 C 8.078125 -3.820312 8.910156 -3.375 10.046875 -3.375 C 10.960938 -3.375 11.769531 -3.648438 12.46875 -4.203125 C 13.175781 -4.753906 14.015625 -5.585938 14.984375 -6.703125 C 15.234375 -7.003906 15.519531 -7.15625 15.84375 -7.15625 Z M 10.234375 -24.921875 C 9.910156 -24.921875 9.550781 -24.519531 9.15625 -23.71875 C 8.757812 -22.914062 8.382812 -21.800781 8.03125 -20.375 C 7.675781 -18.957031 7.382812 -17.382812 7.15625 -15.65625 C 8.414062 -16.75 9.359375 -17.972656 9.984375 -19.328125 C 10.617188 -20.679688 10.9375 -21.914062 10.9375 -23.03125 C 10.9375 -24.289062 10.703125 -24.921875 10.234375 -24.921875 Z M 10.234375 -24.921875 "/></g></g></g><g fill="#6c4646" fill-opacity="1"><g transform="translate(203.963527, 200.980894)"><g><path d="M 14.53125 0.15625 C 11.988281 0.15625 9.773438 -0.304688 7.890625 -1.234375 C 6.003906 -2.160156 4.554688 -3.476562 3.546875 -5.1875 C 2.546875 -6.90625 2.046875 -8.894531 2.046875 -11.15625 C 2.046875 -14.300781 2.640625 -17.09375 3.828125 -19.53125 C 5.015625 -21.96875 6.625 -23.851562 8.65625 -25.1875 C 10.6875 -26.53125 12.941406 -27.203125 15.421875 -27.203125 C 17.734375 -27.203125 19.488281 -26.609375 20.6875 -25.421875 C 21.882812 -24.234375 22.484375 -22.664062 22.484375 -20.71875 C 22.484375 -19.414062 22.253906 -18.367188 21.796875 -17.578125 C 21.335938 -16.785156 20.679688 -16.390625 19.828125 -16.390625 C 19.222656 -16.390625 18.75 -16.523438 18.40625 -16.796875 C 18.070312 -17.078125 17.90625 -17.488281 17.90625 -18.03125 C 17.90625 -18.21875 17.945312 -18.570312 18.03125 -19.09375 C 18.15625 -19.726562 18.21875 -20.238281 18.21875 -20.625 C 18.21875 -22.570312 17.179688 -23.546875 15.109375 -23.546875 C 13.691406 -23.546875 12.34375 -23.082031 11.0625 -22.15625 C 9.78125 -21.238281 8.742188 -19.882812 7.953125 -18.09375 C 7.160156 -16.3125 6.765625 -14.191406 6.765625 -11.734375 C 6.765625 -9.171875 7.476562 -7.1875 8.90625 -5.78125 C 10.34375 -4.382812 12.460938 -3.6875 15.265625 -3.6875 C 16.660156 -3.6875 18.066406 -3.863281 19.484375 -4.21875 C 20.910156 -4.570312 22.488281 -5.113281 24.21875 -5.84375 C 24.539062 -5.96875 24.804688 -6.03125 25.015625 -6.03125 C 25.359375 -6.03125 25.613281 -5.898438 25.78125 -5.640625 C 25.957031 -5.390625 26.046875 -5.0625 26.046875 -4.65625 C 26.046875 -3.34375 25.34375 -2.378906 23.9375 -1.765625 C 22.414062 -1.097656 20.835938 -0.609375 19.203125 -0.296875 C 17.566406 0.00390625 16.007812 0.15625 14.53125 0.15625 Z M 14.53125 0.15625 "/></g></g></g><g fill="#6c4646" fill-opacity="1"><g transform="translate(225.96637, 200.980894)"><g><path d="M 17.90625 -9.84375 C 18.175781 -9.84375 18.382812 -9.703125 18.53125 -9.421875 C 18.6875 -9.148438 18.765625 -8.800781 18.765625 -8.375 C 18.765625 -7.34375 18.453125 -6.734375 17.828125 -6.546875 C 16.546875 -6.097656 15.132812 -5.84375 13.59375 -5.78125 C 13.1875 -3.976562 12.382812 -2.535156 11.1875 -1.453125 C 10 -0.378906 8.644531 0.15625 7.125 0.15625 C 5.84375 0.15625 4.742188 -0.148438 3.828125 -0.765625 C 2.921875 -1.390625 2.234375 -2.210938 1.765625 -3.234375 C 1.296875 -4.265625 1.0625 -5.378906 1.0625 -6.578125 C 1.0625 -8.203125 1.367188 -9.648438 1.984375 -10.921875 C 2.609375 -12.191406 3.460938 -13.1875 4.546875 -13.90625 C 5.640625 -14.625 6.851562 -14.984375 8.1875 -14.984375 C 9.8125 -14.984375 11.117188 -14.421875 12.109375 -13.296875 C 13.097656 -12.171875 13.679688 -10.785156 13.859375 -9.140625 C 14.859375 -9.203125 16.054688 -9.414062 17.453125 -9.78125 C 17.617188 -9.820312 17.769531 -9.84375 17.90625 -9.84375 Z M 7.375 -3.234375 C 8.0625 -3.234375 8.65625 -3.507812 9.15625 -4.0625 C 9.65625 -4.625 9.992188 -5.429688 10.171875 -6.484375 C 9.503906 -6.929688 8.992188 -7.515625 8.640625 -8.234375 C 8.285156 -8.960938 8.109375 -9.734375 8.109375 -10.546875 C 8.109375 -10.890625 8.144531 -11.234375 8.21875 -11.578125 L 8.046875 -11.578125 C 7.191406 -11.578125 6.476562 -11.164062 5.90625 -10.34375 C 5.34375 -9.519531 5.0625 -8.359375 5.0625 -6.859375 C 5.0625 -5.679688 5.289062 -4.78125 5.75 -4.15625 C 6.21875 -3.539062 6.757812 -3.234375 7.375 -3.234375 Z M 7.375 -3.234375 "/></g></g></g><g fill="#6c4646" fill-opacity="1"><g transform="translate(240.431797, 200.980894)"><g><path d="M 3.8125 0.15625 C 3 0.15625 2.425781 -0.269531 2.09375 -1.125 C 1.769531 -1.976562 1.609375 -3.347656 1.609375 -5.234375 C 1.609375 -8.015625 2.003906 -10.65625 2.796875 -13.15625 C 2.984375 -13.769531 3.296875 -14.222656 3.734375 -14.515625 C 4.171875 -14.804688 4.785156 -14.953125 5.578125 -14.953125 C 6.003906 -14.953125 6.300781 -14.894531 6.46875 -14.78125 C 6.644531 -14.675781 6.734375 -14.472656 6.734375 -14.171875 C 6.734375 -13.835938 6.570312 -13.070312 6.25 -11.875 C 6.039062 -11.007812 5.867188 -10.253906 5.734375 -9.609375 C 5.609375 -8.972656 5.503906 -8.1875 5.421875 -7.25 C 6.128906 -9.09375 6.921875 -10.585938 7.796875 -11.734375 C 8.671875 -12.890625 9.53125 -13.710938 10.375 -14.203125 C 11.21875 -14.703125 11.992188 -14.953125 12.703125 -14.953125 C 14.085938 -14.953125 14.78125 -14.253906 14.78125 -12.859375 C 14.78125 -12.023438 14.546875 -10.519531 14.078125 -8.34375 C 13.671875 -6.476562 13.46875 -5.25 13.46875 -4.65625 C 13.46875 -3.800781 13.78125 -3.375 14.40625 -3.375 C 14.832031 -3.375 15.335938 -3.632812 15.921875 -4.15625 C 16.515625 -4.675781 17.300781 -5.523438 18.28125 -6.703125 C 18.539062 -7.003906 18.832031 -7.15625 19.15625 -7.15625 C 19.425781 -7.15625 19.640625 -7.023438 19.796875 -6.765625 C 19.960938 -6.515625 20.046875 -6.160156 20.046875 -5.703125 C 20.046875 -4.847656 19.84375 -4.1875 19.4375 -3.71875 C 18.519531 -2.582031 17.53125 -1.648438 16.46875 -0.921875 C 15.414062 -0.203125 14.210938 0.15625 12.859375 0.15625 C 11.773438 0.15625 10.953125 -0.15625 10.390625 -0.78125 C 9.835938 -1.414062 9.5625 -2.332031 9.5625 -3.53125 C 9.5625 -4.125 9.710938 -5.191406 10.015625 -6.734375 C 10.285156 -8.078125 10.421875 -9.007812 10.421875 -9.53125 C 10.421875 -9.875 10.304688 -10.046875 10.078125 -10.046875 C 9.796875 -10.046875 9.398438 -9.6875 8.890625 -8.96875 C 8.390625 -8.25 7.878906 -7.300781 7.359375 -6.125 C 6.835938 -4.945312 6.414062 -3.707031 6.09375 -2.40625 C 5.851562 -1.394531 5.578125 -0.710938 5.265625 -0.359375 C 4.960938 -0.015625 4.476562 0.15625 3.8125 0.15625 Z M 3.8125 0.15625 "/></g></g></g><g fill="#6c4646" fill-opacity="1"><g transform="translate(256.340556, 200.980894)"><g><path d="M 3.8125 0.15625 C 3 0.15625 2.425781 -0.269531 2.09375 -1.125 C 1.769531 -1.976562 1.609375 -3.347656 1.609375 -5.234375 C 1.609375 -8.015625 2.003906 -10.65625 2.796875 -13.15625 C 2.984375 -13.769531 3.296875 -14.222656 3.734375 -14.515625 C 4.171875 -14.804688 4.785156 -14.953125 5.578125 -14.953125 C 6.003906 -14.953125 6.300781 -14.894531 6.46875 -14.78125 C 6.644531 -14.675781 6.734375 -14.472656 6.734375 -14.171875 C 6.734375 -13.835938 6.570312 -13.070312 6.25 -11.875 C 6.039062 -11.007812 5.867188 -10.253906 5.734375 -9.609375 C 5.609375 -8.972656 5.503906 -8.1875 5.421875 -7.25 C 6.128906 -9.09375 6.921875 -10.585938 7.796875 -11.734375 C 8.671875 -12.890625 9.53125 -13.710938 10.375 -14.203125 C 11.21875 -14.703125 11.992188 -14.953125 12.703125 -14.953125 C 14.085938 -14.953125 14.78125 -14.253906 14.78125 -12.859375 C 14.78125 -12.023438 14.546875 -10.519531 14.078125 -8.34375 C 13.671875 -6.476562 13.46875 -5.25 13.46875 -4.65625 C 13.46875 -3.800781 13.78125 -3.375 14.40625 -3.375 C 14.832031 -3.375 15.335938 -3.632812 15.921875 -4.15625 C 16.515625 -4.675781 17.300781 -5.523438 18.28125 -6.703125 C 18.539062 -7.003906 18.832031 -7.15625 19.15625 -7.15625 C 19.425781 -7.15625 19.640625 -7.023438 19.796875 -6.765625 C 19.960938 -6.515625 20.046875 -6.160156 20.046875 -5.703125 C 20.046875 -4.847656 19.84375 -4.1875 19.4375 -3.71875 C 18.519531 -2.582031 17.53125 -1.648438 16.46875 -0.921875 C 15.414062 -0.203125 14.210938 0.15625 12.859375 0.15625 C 11.773438 0.15625 10.953125 -0.15625 10.390625 -0.78125 C 9.835938 -1.414062 9.5625 -2.332031 9.5625 -3.53125 C 9.5625 -4.125 9.710938 -5.191406 10.015625 -6.734375 C 10.285156 -8.078125 10.421875 -9.007812 10.421875 -9.53125 C 10.421875 -9.875 10.304688 -10.046875 10.078125 -10.046875 C 9.796875 -10.046875 9.398438 -9.6875 8.890625 -8.96875 C 8.390625 -8.25 7.878906 -7.300781 7.359375 -6.125 C 6.835938 -4.945312 6.414062 -3.707031 6.09375 -2.40625 C 5.851562 -1.394531 5.578125 -0.710938 5.265625 -0.359375 C 4.960938 -0.015625 4.476562 0.15625 3.8125 0.15625 Z M 3.8125 0.15625 "/></g></g></g><g fill="#6c4646" fill-opacity="1"><g transform="translate(272.249314, 200.980894)"><g><path d="M 15.84375 -7.15625 C 16.125 -7.15625 16.34375 -7.023438 16.5 -6.765625 C 16.664062 -6.515625 16.75 -6.160156 16.75 -5.703125 C 16.75 -4.847656 16.546875 -4.1875 16.140625 -3.71875 C 15.347656 -2.757812 14.226562 -1.875 12.78125 -1.0625 C 11.34375 -0.25 9.796875 0.15625 8.140625 0.15625 C 5.898438 0.15625 4.160156 -0.453125 2.921875 -1.671875 C 1.679688 -2.890625 1.0625 -4.554688 1.0625 -6.671875 C 1.0625 -8.148438 1.367188 -9.523438 1.984375 -10.796875 C 2.609375 -12.066406 3.46875 -13.078125 4.5625 -13.828125 C 5.664062 -14.578125 6.914062 -14.953125 8.3125 -14.953125 C 9.550781 -14.953125 10.546875 -14.582031 11.296875 -13.84375 C 12.046875 -13.101562 12.421875 -12.101562 12.421875 -10.84375 C 12.421875 -9.363281 11.890625 -8.09375 10.828125 -7.03125 C 9.765625 -5.976562 7.972656 -5.140625 5.453125 -4.515625 C 5.984375 -3.535156 7 -3.046875 8.5 -3.046875 C 9.457031 -3.046875 10.550781 -3.378906 11.78125 -4.046875 C 13.019531 -4.722656 14.085938 -5.609375 14.984375 -6.703125 C 15.234375 -7.003906 15.519531 -7.15625 15.84375 -7.15625 Z M 7.765625 -11.8125 C 6.972656 -11.8125 6.300781 -11.347656 5.75 -10.421875 C 5.207031 -9.503906 4.9375 -8.394531 4.9375 -7.09375 L 4.9375 -7.03125 C 6.195312 -7.320312 7.191406 -7.765625 7.921875 -8.359375 C 8.648438 -8.960938 9.015625 -9.660156 9.015625 -10.453125 C 9.015625 -10.859375 8.898438 -11.1875 8.671875 -11.4375 C 8.453125 -11.6875 8.148438 -11.8125 7.765625 -11.8125 Z M 7.765625 -11.8125 "/></g></g></g><g fill="#6c4646" fill-opacity="1"><g transform="translate(284.854435, 200.980894)"><g><path d="M 7.671875 0.15625 C 5.566406 0.15625 3.929688 -0.4375 2.765625 -1.625 C 1.609375 -2.8125 1.03125 -4.375 1.03125 -6.3125 C 1.03125 -8.050781 1.367188 -9.570312 2.046875 -10.875 C 2.734375 -12.175781 3.617188 -13.179688 4.703125 -13.890625 C 5.796875 -14.597656 6.941406 -14.953125 8.140625 -14.953125 C 9.316406 -14.953125 10.234375 -14.601562 10.890625 -13.90625 C 11.546875 -13.207031 11.875 -12.316406 11.875 -11.234375 C 11.875 -10.328125 11.675781 -9.5625 11.28125 -8.9375 C 10.882812 -8.320312 10.363281 -8.015625 9.71875 -8.015625 C 9.3125 -8.015625 8.984375 -8.109375 8.734375 -8.296875 C 8.492188 -8.492188 8.375 -8.765625 8.375 -9.109375 C 8.375 -9.253906 8.394531 -9.421875 8.4375 -9.609375 C 8.476562 -9.804688 8.507812 -9.953125 8.53125 -10.046875 C 8.632812 -10.359375 8.6875 -10.65625 8.6875 -10.9375 C 8.6875 -11.21875 8.617188 -11.429688 8.484375 -11.578125 C 8.347656 -11.734375 8.148438 -11.8125 7.890625 -11.8125 C 7.398438 -11.8125 6.941406 -11.585938 6.515625 -11.140625 C 6.085938 -10.703125 5.742188 -10.109375 5.484375 -9.359375 C 5.222656 -8.617188 5.09375 -7.796875 5.09375 -6.890625 C 5.09375 -4.410156 6.175781 -3.171875 8.34375 -3.171875 C 9.21875 -3.171875 10.160156 -3.460938 11.171875 -4.046875 C 12.191406 -4.640625 13.191406 -5.523438 14.171875 -6.703125 C 14.429688 -7.003906 14.722656 -7.15625 15.046875 -7.15625 C 15.328125 -7.15625 15.546875 -7.023438 15.703125 -6.765625 C 15.859375 -6.515625 15.9375 -6.160156 15.9375 -5.703125 C 15.9375 -4.890625 15.734375 -4.226562 15.328125 -3.71875 C 14.328125 -2.476562 13.125 -1.519531 11.71875 -0.84375 C 10.320312 -0.175781 8.972656 0.15625 7.671875 0.15625 Z M 7.671875 0.15625 "/></g></g></g><g fill="#6c4646" fill-opacity="1"><g transform="translate(296.657707, 200.980894)"><g><path d="M 15.84375 -7.15625 C 16.125 -7.15625 16.34375 -7.023438 16.5 -6.765625 C 16.664062 -6.515625 16.75 -6.160156 16.75 -5.703125 C 16.75 -4.847656 16.546875 -4.1875 16.140625 -3.71875 C 15.210938 -2.582031 14.203125 -1.648438 13.109375 -0.921875 C 12.023438 -0.203125 10.773438 0.15625 9.359375 0.15625 C 5.003906 0.15625 2.828125 -2.910156 2.828125 -9.046875 C 2.828125 -9.984375 2.859375 -10.9375 2.921875 -11.90625 L 1.671875 -11.90625 C 1.023438 -11.90625 0.585938 -12.019531 0.359375 -12.25 C 0.140625 -12.488281 0.03125 -12.863281 0.03125 -13.375 C 0.03125 -14.570312 0.507812 -15.171875 1.46875 -15.171875 L 3.296875 -15.171875 C 3.660156 -17.523438 4.21875 -19.675781 4.96875 -21.625 C 5.71875 -23.570312 6.617188 -25.117188 7.671875 -26.265625 C 8.734375 -27.421875 9.875 -28 11.09375 -28 C 12 -28 12.707031 -27.601562 13.21875 -26.8125 C 13.726562 -26.019531 13.984375 -25.023438 13.984375 -23.828125 C 13.984375 -20.515625 12.59375 -17.628906 9.8125 -15.171875 L 13.40625 -15.171875 C 13.75 -15.171875 13.992188 -15.09375 14.140625 -14.9375 C 14.296875 -14.789062 14.375 -14.515625 14.375 -14.109375 C 14.375 -12.640625 13.164062 -11.90625 10.75 -11.90625 L 6.828125 -11.90625 C 6.785156 -10.832031 6.765625 -10 6.765625 -9.40625 C 6.765625 -7.175781 7.023438 -5.613281 7.546875 -4.71875 C 8.078125 -3.820312 8.910156 -3.375 10.046875 -3.375 C 10.960938 -3.375 11.769531 -3.648438 12.46875 -4.203125 C 13.175781 -4.753906 14.015625 -5.585938 14.984375 -6.703125 C 15.234375 -7.003906 15.519531 -7.15625 15.84375 -7.15625 Z M 10.234375 -24.921875 C 9.910156 -24.921875 9.550781 -24.519531 9.15625 -23.71875 C 8.757812 -22.914062 8.382812 -21.800781 8.03125 -20.375 C 7.675781 -18.957031 7.382812 -17.382812 7.15625 -15.65625 C 8.414062 -16.75 9.359375 -17.972656 9.984375 -19.328125 C 10.617188 -20.679688 10.9375 -21.914062 10.9375 -23.03125 C 10.9375 -24.289062 10.703125 -24.921875 10.234375 -24.921875 Z M 10.234375 -24.921875 "/></g></g></g></svg>