<svg xmlns="http://www.w3.org/2000/svg" xmlns:xlink="http://www.w3.org/1999/xlink" width="500" zoomAndPan="magnify" viewBox="0 0 375 374.999991" height="500" preserveAspectRatio="xMidYMid meet" version="1.0"><defs><g/><clipPath id="fb81de26cc"><path d="M 23 202 L 163 202 L 163 224.878906 L 23 224.878906 Z M 23 202 " clip-rule="nonzero"/></clipPath><clipPath id="8457db2a3e"><path d="M 57 96.628906 L 179 96.628906 L 179 221 L 57 221 Z M 57 96.628906 " clip-rule="nonzero"/></clipPath><clipPath id="9eea4c93ff"><path d="M 25 213 L 85 213 L 85 224.878906 L 25 224.878906 Z M 25 213 " clip-rule="nonzero"/></clipPath><clipPath id="1a6fce9cb3"><path d="M 10.394531 111 L 115 111 L 115 213 L 10.394531 213 Z M 10.394531 111 " clip-rule="nonzero"/></clipPath></defs><g clip-path="url(#fb81de26cc)"><path fill="#e07634" d="M 100.730469 212.441406 C 98.730469 211.722656 96.734375 211 94.738281 210.289062 C 93.386719 209.804688 92.035156 209.328125 90.6875 208.859375 C 89.824219 208.5625 88.964844 208.269531 88.105469 207.980469 C 86.214844 207.347656 84.324219 206.742188 82.4375 206.175781 C 78.882812 205.109375 75.335938 204.191406 71.792969 203.507812 C 69.8125 203.125 67.835938 202.816406 65.859375 202.601562 C 62.222656 202.203125 58.597656 202.113281 54.980469 202.429688 C 52.996094 202.605469 51.011719 202.90625 49.035156 203.34375 C 46.21875 203.96875 43.410156 204.875 40.609375 206.113281 C 38.832031 206.898438 37.058594 207.816406 35.285156 208.878906 C 34.652344 209.261719 34.011719 209.664062 33.375 210.085938 C 31.757812 211.15625 30.140625 212.351562 28.527344 213.683594 C 26.824219 215.085938 25.125 216.636719 23.425781 218.351562 C 47.894531 203.363281 66.394531 205.808594 83.542969 211.601562 C 84.414062 211.894531 85.285156 212.199219 86.152344 212.507812 C 87.675781 213.054688 89.195312 213.621094 90.707031 214.199219 C 94.792969 215.765625 98.839844 217.410156 102.914062 218.933594 C 109.355469 221.347656 115.859375 223.453125 122.6875 224.464844 C 134.601562 226.230469 147.5 224.652344 162.769531 215.492188 C 157.898438 218.113281 153.03125 219.746094 148.171875 220.613281 C 134.671875 223.023438 121.230469 219.527344 107.871094 214.960938 C 105.699219 214.21875 103.53125 213.449219 101.363281 212.671875 L 100.730469 212.445312 Z M 100.730469 212.441406 " fill-opacity="1" fill-rule="evenodd"/></g><g clip-path="url(#8457db2a3e)"><path fill="#6cdc45" d="M 152.625 171.199219 C 152.386719 170.464844 152.160156 169.726562 151.941406 168.988281 C 152.183594 169.683594 152.414062 170.425781 152.625 171.199219 Z M 114.792969 204.835938 C 112.726562 204.730469 110.683594 204.714844 108.664062 204.789062 C 107.585938 204.828125 106.515625 204.894531 105.449219 204.984375 C 102.742188 205.214844 100.070312 205.609375 97.4375 206.160156 C 95.160156 206.640625 92.90625 207.238281 90.683594 207.953125 C 92.035156 208.417969 93.386719 208.898438 94.738281 209.378906 C 96.734375 210.09375 98.730469 210.816406 100.730469 211.535156 L 101.363281 211.761719 C 103.53125 212.539062 105.699219 213.308594 107.871094 214.050781 C 121.230469 218.617188 134.675781 222.113281 148.171875 219.703125 C 143.695312 214.117188 135.53125 209.222656 125.292969 206.226562 C 131.488281 190.558594 138.460938 179.496094 147.527344 169.886719 C 146.167969 172.414062 145.089844 174.871094 144.253906 177.238281 C 149.714844 175.242188 149.527344 175.808594 143.6875 178.945312 C 142.621094 182.378906 142.074219 185.597656 141.929688 188.53125 C 146.863281 186.519531 146.855469 187.347656 141.90625 191.007812 C 142 194.148438 142.582031 196.882812 143.484375 199.101562 C 145.902344 197.792969 147.816406 196.21875 149.304688 194.464844 C 147.570312 189.292969 146.558594 185.5 151.253906 191.679688 C 152.601562 189.304688 153.371094 186.726562 153.722656 184.117188 C 148.304688 176.734375 148.359375 176.191406 153.886719 182.492188 C 154.167969 178.5 153.546875 174.527344 152.625 171.199219 C 153.902344 175.136719 155.441406 178.988281 157.199219 182.6875 C 160.976562 174.164062 159.582031 179.066406 158.03125 184.398438 C 159.765625 187.878906 161.691406 191.21875 163.753906 194.359375 C 165.378906 185.613281 165.394531 188.121094 164.683594 195.742188 C 165.90625 197.53125 167.179688 199.25 168.484375 200.890625 C 169.441406 197.097656 170.648438 192.214844 170.191406 187.179688 C 163.125 181.40625 163.042969 180.785156 169.945312 185.316406 C 169.222656 181.246094 167.269531 177.144531 163.074219 173.492188 C 157.972656 171.765625 155.308594 170.726562 161.285156 172.066406 C 158.765625 170.21875 155.589844 168.511719 151.617188 167.019531 C 155.820312 166.71875 159.46875 168.542969 163.402344 169.878906 C 163.691406 168.601562 163.269531 167.15625 163.199219 165.792969 C 164.425781 167.617188 165.046875 169.722656 165.617188 171.855469 C 167.554688 172.695312 169.136719 173.632812 171.53125 174.816406 C 171.019531 172.917969 170.410156 170.585938 169.902344 168.691406 C 171.257812 170.890625 172.855469 173.386719 173.175781 176.851562 C 175.167969 177.773438 176.023438 178.339844 178.867188 179.824219 C 174.589844 165.398438 162.339844 159.320312 151.894531 164.964844 C 163.542969 157.175781 161.445312 144.515625 160.484375 142.824219 C 155.210938 145.203125 154.617188 152.933594 154.230469 158.042969 C 153.203125 155.410156 153.144531 148.8125 154.371094 144.855469 C 153.199219 146.804688 151.707031 150.851562 150.453125 153.355469 C 150.058594 154.136719 149.769531 154.148438 150.265625 154.839844 C 151.175781 156.113281 151.328125 157.675781 151.933594 159.066406 L 149.046875 155.160156 L 147.910156 162.667969 C 149.089844 151.039062 137.0625 142.117188 125.390625 143.324219 C 127.472656 144.734375 129.464844 146.160156 131.347656 147.640625 C 144.519531 150.203125 133.039062 148.996094 133.851562 149.695312 C 135.574219 151.1875 137.195312 152.746094 138.691406 154.410156 C 144.613281 155.84375 144.53125 155.488281 140.699219 156.804688 C 142.46875 159.078125 144.019531 161.550781 145.304688 164.285156 C 141.382812 159.546875 136.722656 156.492188 131.699219 154.769531 C 129.25 150.429688 125.578125 146.40625 120.550781 143.011719 C 118.605469 141.699219 116.453125 140.480469 114.089844 139.375 C 115.800781 139.96875 117.574219 140.496094 119.398438 140.949219 C 125.171875 142.386719 131.453125 143.128906 137.800781 143.3125 C 134.785156 136.03125 134.703125 134.179688 141.328125 143.359375 C 144.9375 143.347656 148.542969 143.167969 152.0625 142.839844 C 145.820312 134.101562 147.191406 133.859375 155.558594 142.464844 C 158.941406 142.050781 162.21875 141.507812 165.320312 140.855469 C 150.480469 130.054688 132.183594 124.75 113.945312 133.15625 C 113.191406 133.503906 112.4375 133.875 111.6875 134.265625 C 112.296875 133.71875 112.910156 133.183594 113.535156 132.667969 C 116.277344 130.394531 119.15625 128.445312 122.160156 126.757812 C 117.71875 122.808594 117.410156 123.242188 126.230469 124.660156 C 129.199219 123.257812 132.273438 122.070312 135.449219 121.03125 C 136.941406 120.546875 120.734375 115.667969 140 119.671875 C 143.386719 118.738281 146.886719 117.9375 150.5 117.210938 C 136.023438 109.296875 115.824219 113.796875 109.777344 128.632812 C 109.519531 129.269531 109.285156 129.921875 109.082031 130.59375 L 109.617188 128.476562 L 111.804688 119.800781 L 105.6875 123.445312 C 107.292969 121.910156 108.386719 119.882812 110.339844 118.675781 C 111.398438 118.019531 111.015625 117.84375 110.929688 116.5625 C 110.652344 112.460938 110.929688 106.144531 110.453125 102.847656 C 109.867188 108.894531 106.042969 117.777344 103.160156 120.753906 C 105.535156 113.628906 109.117188 102.839844 103.335938 96.628906 C 101.625 97.953125 95.441406 107.445312 97.511719 119.4375 C 98.019531 122.382812 99.027344 125.476562 100.71875 128.632812 C 101.210938 129.554688 101.761719 130.484375 102.375 131.414062 C 97.316406 125.152344 90.3125 122.0625 82.867188 122.246094 C 82.550781 122.253906 82.230469 122.269531 81.914062 122.285156 C 79.738281 122.421875 77.53125 122.832031 75.324219 123.523438 C 74.144531 123.894531 72.964844 124.34375 71.796875 124.875 C 69.785156 125.78125 67.796875 126.929688 65.859375 128.3125 C 62.925781 130.40625 60.105469 133.046875 57.492188 136.238281 C 61.664062 135.886719 63.292969 135.625 65.859375 135.488281 L 66.875 135.445312 C 68.238281 132.886719 69.980469 130.988281 71.796875 129.417969 C 73.175781 128.222656 74.601562 127.222656 75.929688 126.269531 C 74.65625 127.914062 73.179688 129.835938 71.796875 131.628906 L 70.253906 133.621094 C 70.789062 133.589844 71.300781 133.554688 71.796875 133.519531 C 74.898438 133.289062 77.257812 133.007812 79.929688 132.972656 L 80.730469 131.949219 C 82.050781 130.28125 83.429688 128.683594 85.039062 127.339844 C 85.546875 126.914062 86.074219 126.519531 86.632812 126.152344 C 86.300781 126.84375 85.894531 127.523438 85.496094 128.207031 C 84.859375 129.300781 84.25 130.398438 84.046875 131.5625 C 85.085938 131.636719 86.121094 131.683594 87.15625 131.726562 C 90 131.851562 92.808594 131.941406 95.542969 132.425781 C 97.613281 132.792969 99.636719 133.382812 101.601562 134.378906 C 100.050781 134.320312 98.558594 134.308594 97.125 134.335938 C 93.992188 134.40625 91.128906 134.679688 88.515625 135.132812 C 87.53125 135.300781 86.582031 135.496094 85.667969 135.71875 C 87.085938 135.96875 88.167969 136.179688 88.957031 136.351562 C 91.261719 136.855469 91.011719 137.03125 89.179688 137.003906 C 87.796875 136.984375 85.511719 136.847656 82.742188 136.65625 L 82.433594 136.632812 C 79.578125 137.578125 77.097656 138.777344 74.941406 140.171875 C 71.253906 142.554688 68.511719 145.507812 66.441406 148.726562 C 68.652344 148.316406 70.4375 148.007812 71.792969 147.804688 C 76.113281 147.15625 76.117188 147.558594 71.792969 149.007812 C 70.320312 149.503906 68.339844 150.121094 65.859375 150.863281 L 65.050781 151.101562 C 62.1875 156.5 60.914062 162.398438 60.074219 167.480469 C 59.894531 168.566406 59.730469 169.613281 59.582031 170.609375 C 61.382812 169.625 63.183594 168.578125 64.976562 167.480469 L 65.855469 166.9375 C 66.453125 166.5625 67.046875 166.1875 67.644531 165.800781 C 71.003906 155.097656 72.449219 151.714844 69.683594 164.457031 C 70.386719 163.984375 71.089844 163.503906 71.792969 163.011719 C 75.636719 160.320312 79.414062 157.386719 83.074219 154.238281 C 83.445312 150.96875 83.8125 147.808594 84.136719 146.105469 C 84.433594 144.550781 84.695312 144.210938 84.890625 146.105469 C 85.007812 147.269531 85.105469 149.289062 85.167969 152.394531 C 85.664062 151.949219 86.15625 151.503906 86.648438 151.050781 C 88.371094 149.460938 90.0625 147.824219 91.714844 146.140625 L 91.75 146.105469 C 93.636719 144.183594 95.46875 142.203125 97.242188 140.167969 L 97.859375 139.453125 L 97.308594 140.167969 C 95.9375 141.96875 94.589844 143.960938 93.359375 146.105469 C 92.949219 146.820312 92.550781 147.558594 92.171875 148.308594 C 91.246094 150.125 90.421875 152.035156 89.753906 154.011719 C 90.9375 153.433594 91.988281 152.929688 92.914062 152.492188 C 99.453125 149.410156 99.519531 149.855469 93.113281 153.832031 C 91.96875 154.542969 90.617188 155.367188 89.054688 156.300781 C 88.558594 158.144531 88.199219 160.039062 88.027344 161.960938 C 87.863281 163.777344 87.863281 165.621094 88.054688 167.476562 L 88.105469 167.929688 C 91.828125 165.777344 93.640625 165.089844 94.171875 165.386719 C 94.394531 165.515625 94.390625 165.816406 94.207031 166.261719 C 93.667969 167.546875 91.601562 170.015625 89.160156 172.796875 C 90.09375 175.742188 91.589844 178.6875 93.777344 181.578125 C 93.976562 181.839844 94.183594 182.105469 94.394531 182.371094 C 96.65625 180.101562 98.796875 177.101562 100.605469 173.414062 C 100.78125 173.054688 100.953125 172.691406 101.125 172.320312 C 99.875 170.21875 98.996094 168.605469 98.492188 167.476562 C 97.320312 164.863281 98.144531 164.863281 100.964844 167.476562 C 101.421875 167.902344 101.933594 168.394531 102.496094 168.957031 C 102.671875 168.472656 102.84375 167.980469 103.007812 167.476562 C 104.21875 163.785156 105.109375 159.617188 105.558594 154.996094 C 99.4375 147.445312 99.503906 146.570312 105.757812 152.371094 C 105.792969 151.792969 105.820312 151.207031 105.835938 150.613281 C 105.941406 147.449219 105.839844 144.097656 105.503906 140.570312 C 107.214844 145.128906 108.699219 149.648438 109.957031 154.25 L 109.835938 154.277344 L 109.992188 154.386719 C 112.140625 162.285156 113.613281 170.429688 114.402344 179.453125 C 114.820312 184.238281 115.046875 189.269531 115.078125 194.640625 C 115.097656 197.640625 114.90625 201.566406 114.792969 204.832031 Z M 147.910156 162.667969 C 147.855469 163.1875 147.777344 163.710938 147.671875 164.238281 Z M 114.085938 139.375 C 112.6875 138.886719 111.332031 138.347656 110.027344 137.757812 C 109.714844 137.617188 109.40625 137.472656 109.097656 137.328125 L 109.925781 137.628906 C 111.378906 138.171875 112.765625 138.757812 114.085938 139.375 Z M 109.078125 130.597656 L 108.511719 132.855469 C 108.667969 132.082031 108.855469 131.328125 109.078125 130.597656 Z M 97.863281 139.457031 C 98.386719 138.789062 98.917969 138.148438 99.4375 137.542969 L 100.039062 136.855469 L 99.457031 137.566406 C 98.929688 138.203125 98.398438 138.832031 97.863281 139.457031 Z M 122.035156 194.890625 C 121.71875 191.441406 121.386719 188.007812 121 184.605469 C 122.363281 184.945312 123.761719 184.945312 125.167969 184.675781 L 125.929688 183.425781 C 130.34375 176.207031 130.152344 177.09375 128.347656 183.644531 C 129.769531 183.007812 131.183594 182.152344 132.5625 181.160156 C 137.964844 168.679688 137.023438 172.042969 134.292969 179.835938 C 136.941406 176.078125 139.203125 174.277344 141.121094 172.703125 C 133.09375 180.730469 127.808594 190.265625 122.523438 200.207031 L 122.039062 194.890625 Z M 142.445312 166.867188 C 139.917969 166.96875 137.601562 167.328125 135.492188 167.90625 C 135.457031 167.207031 135.402344 166.507812 135.316406 165.8125 C 137.734375 166.359375 140.125 166.726562 142.445312 166.867188 Z M 120.492188 180.421875 C 120.1875 178.078125 119.851562 175.742188 119.46875 173.417969 C 119.140625 171.433594 118.777344 169.453125 118.371094 167.484375 C 117.695312 164.203125 116.902344 160.941406 115.949219 157.703125 L 116.667969 157.402344 C 117.054688 158.644531 117.421875 160.011719 117.757812 161.53125 L 117.902344 159.164062 C 118.355469 159.40625 118.8125 159.640625 119.273438 159.875 C 119.296875 161.191406 119.320312 162.660156 119.335938 164.308594 C 119.976562 165.347656 120.644531 166.347656 121.34375 167.292969 C 122.070312 168.28125 122.832031 169.207031 123.628906 170.058594 C 124.9375 159.941406 125.164062 158.8125 127.160156 172.019531 C 124.015625 174.507812 121.828125 177.714844 120.597656 181.257812 Z M 119.238281 158.019531 C 118.84375 158.277344 118.40625 158.558594 117.921875 158.859375 L 118.0625 156.84375 C 118.472656 156.679688 118.851562 156.539062 119.195312 156.414062 Z M 115.175781 153.320312 L 114.582031 153.394531 C 113.96875 151.597656 113.296875 149.804688 112.566406 148.015625 C 113.394531 149.578125 114.296875 151.253906 115.175781 153.320312 Z M 119.0625 153.011719 L 118.480469 153.035156 L 118.375 153.039062 L 118.402344 152.808594 C 118.660156 150.394531 118.886719 150.058594 119.0625 153.011719 Z M 146.121094 166.898438 C 144.921875 166.957031 143.695312 166.945312 142.445312 166.867188 C 143.625 166.820312 144.851562 166.828125 146.121094 166.898438 Z M 146.121094 166.898438 " fill-opacity="1" fill-rule="nonzero"/></g><g clip-path="url(#9eea4c93ff)"><path fill="#e07634" d="M 84.15625 223.957031 C 71.132812 223.269531 44.949219 202.519531 25.0625 220.597656 C 51.710938 208.238281 57.828125 225.550781 84.15625 223.957031 Z M 84.15625 223.957031 " fill-opacity="1" fill-rule="evenodd"/></g><path fill="#e07634" d="M 101.308594 221.242188 C 95.230469 220.921875 83.011719 211.238281 73.734375 219.671875 C 86.167969 213.90625 89.023438 221.984375 101.308594 221.242188 Z M 101.308594 221.242188 " fill-opacity="1" fill-rule="evenodd"/><path fill="#e07634" d="M 49.882812 212.488281 C 66.894531 204.597656 70.800781 215.648438 87.605469 214.632812 C 79.292969 214.191406 62.578125 200.945312 49.882812 212.488281 Z M 49.882812 212.488281 " fill-opacity="1" fill-rule="evenodd"/><g clip-path="url(#1a6fce9cb3)"><path fill="#5cbbff" d="M 73.667969 121.828125 C 74.066406 122.195312 74.460938 122.585938 74.851562 123.007812 C 74.945312 122.976562 75.039062 122.949219 75.132812 122.917969 C 77.191406 122.273438 79.316406 121.847656 81.46875 121.683594 C 81.414062 121.613281 81.363281 121.542969 81.3125 121.476562 C 81.445312 121.539062 81.574219 121.601562 81.707031 121.667969 C 81.761719 121.664062 81.816406 121.660156 81.875 121.65625 C 82.199219 121.636719 82.523438 121.621094 82.847656 121.613281 C 89.089844 121.460938 94.824219 123.558594 99.414062 127.46875 C 98.222656 124.953125 97.359375 122.300781 96.882812 119.546875 C 96.855469 119.382812 96.828125 119.214844 96.800781 119.046875 C 93.476562 117.238281 89.953125 115.738281 86.277344 114.597656 C 81.753906 113.195312 76.996094 112.324219 72.085938 112.058594 L 72.085938 111.988281 L 71.792969 111.992188 L 71.792969 111.972656 L 69.652344 111.972656 L 68.890625 111.96875 L 68 111.972656 L 65.855469 111.972656 L 65.855469 112.050781 C 58.890625 112.398438 52.238281 113.980469 46.121094 116.570312 C 35.628906 121.007812 26.703125 128.421875 20.394531 137.753906 C 17.246094 142.417969 14.742188 147.566406 13.035156 153.0625 C 11.320312 158.558594 10.402344 164.402344 10.402344 170.457031 C 10.402344 178.527344 12.039062 186.222656 15 193.222656 C 18.140625 200.652344 22.777344 207.296875 28.523438 212.777344 C 30.136719 211.445312 31.753906 210.25 33.375 209.179688 C 30.5625 206.601562 28.03125 203.71875 25.835938 200.589844 L 30.832031 200.589844 C 32.152344 203.1875 33.644531 205.65625 35.285156 207.976562 C 37.054688 206.914062 38.828125 205.996094 40.605469 205.210938 C 39.535156 203.742188 38.527344 202.199219 37.589844 200.589844 L 48.46875 200.589844 C 48.652344 201.214844 48.839844 201.832031 49.03125 202.441406 C 51.011719 202 52.992188 201.703125 54.976562 201.527344 L 54.675781 200.589844 L 65.855469 200.589844 L 65.855469 201.699219 C 67.832031 201.914062 69.808594 202.222656 71.789062 202.605469 L 71.789062 200.589844 L 84.085938 200.589844 C 83.699219 201.8125 83.292969 203 82.867188 204.152344 C 82.722656 204.53125 82.582031 204.902344 82.433594 205.273438 C 84.320312 205.839844 86.210938 206.445312 88.101562 207.078125 C 88.898438 205.019531 89.628906 202.855469 90.289062 200.589844 L 101.171875 200.589844 C 100.195312 202.269531 99.140625 203.875 98.011719 205.398438 C 100.449219 204.914062 102.914062 204.566406 105.394531 204.355469 L 105.855469 204.316406 C 106.585938 203.105469 107.277344 201.863281 107.925781 200.589844 L 111.9375 200.589844 C 111.078125 201.8125 110.171875 202.996094 109.21875 204.140625 C 110.914062 204.089844 112.609375 204.105469 114.300781 204.179688 C 114.40625 201.003906 114.457031 197.828125 114.4375 194.648438 L 110.570312 194.648438 C 112.082031 190.71875 113.234375 186.558594 113.980469 182.226562 C 113.914062 181.320312 113.84375 180.417969 113.765625 179.519531 C 113.03125 171.132812 111.628906 162.914062 109.4375 154.789062 L 108.285156 153.996094 L 109.164062 153.789062 C 108.347656 150.859375 107.4375 147.953125 106.445312 145.078125 C 106.519531 146.929688 106.527344 148.789062 106.46875 150.644531 C 106.449219 151.21875 106.421875 151.789062 106.390625 152.363281 C 107.835938 157.117188 108.734375 162.191406 108.976562 167.488281 L 103.671875 167.488281 C 103.648438 167.554688 103.628906 167.621094 103.609375 167.6875 C 103.445312 168.1875 103.269531 168.6875 103.089844 169.183594 L 102.75 170.121094 L 102.042969 169.417969 C 101.546875 168.921875 101.042969 168.429688 100.53125 167.953125 C 100.433594 167.863281 100.246094 167.691406 100.011719 167.488281 L 99.183594 167.488281 C 99.894531 169.019531 100.808594 170.5625 101.667969 172.003906 L 101.835938 172.289062 L 101.699219 172.59375 C 101.570312 172.871094 101.441406 173.148438 101.308594 173.421875 L 108.972656 173.421875 C 108.6875 179.582031 107.527344 185.457031 105.632812 190.859375 C 105.179688 192.15625 104.6875 193.414062 104.15625 194.644531 L 91.78125 194.644531 C 92.621094 190.804688 93.261719 186.742188 93.683594 182.507812 C 93.542969 182.332031 93.402344 182.148438 93.265625 181.96875 C 91.207031 179.25 89.582031 176.253906 88.550781 172.996094 L 88.441406 172.65625 L 88.679688 172.386719 C 89.773438 171.140625 90.867188 169.882812 91.894531 168.582031 C 92.441406 167.886719 93.273438 166.839844 93.613281 166.023438 L 93.632812 165.972656 C 92.460938 166.171875 89.046875 168.121094 88.417969 168.484375 L 87.578125 168.96875 L 87.417969 167.550781 C 87.414062 167.527344 87.410156 167.503906 87.410156 167.484375 L 71.789062 167.484375 L 71.789062 163.789062 C 71.207031 164.195312 70.621094 164.59375 70.03125 164.988281 L 68.722656 165.871094 L 69.058594 164.328125 C 69.246094 163.457031 69.433594 162.585938 69.617188 161.710938 C 69.144531 163.136719 68.695312 164.566406 68.246094 165.996094 L 68.179688 166.214844 L 67.984375 166.339844 C 67.390625 166.722656 66.792969 167.105469 66.1875 167.480469 L 65.308594 168.027344 C 63.527344 169.117188 61.71875 170.167969 59.882812 171.171875 L 58.757812 171.789062 L 58.949219 170.515625 C 59.105469 169.503906 59.257812 168.492188 59.425781 167.484375 L 50.457031 167.484375 C 50.621094 161.335938 51.257812 155.464844 52.296875 150.070312 C 52.558594 148.710938 52.84375 147.390625 53.148438 146.105469 L 65.855469 146.105469 L 65.855469 148.460938 L 65.90625 148.382812 C 68.003906 145.125 70.628906 142.371094 73.796875 140.171875 L 71.792969 140.171875 L 71.792969 134.15625 C 71.292969 134.195312 70.792969 134.226562 70.292969 134.257812 L 68.890625 134.34375 L 71.289062 131.242188 L 71.792969 130.589844 L 71.792969 130.265625 C 70.027344 131.855469 68.5625 133.621094 67.429688 135.742188 L 67.261719 136.0625 L 65.886719 136.125 C 65.875 136.125 65.867188 136.125 65.855469 136.128906 L 65.855469 140.175781 L 54.789062 140.175781 C 55.128906 139.117188 55.480469 138.085938 55.851562 137.09375 C 56.929688 134.183594 58.144531 131.542969 59.453125 129.226562 C 60.441406 127.492188 61.476562 125.941406 62.546875 124.59375 C 63.621094 123.230469 64.734375 122.085938 65.851562 121.160156 L 65.851562 127.539062 C 67.644531 126.289062 69.539062 125.195312 71.527344 124.296875 C 71.613281 124.257812 71.703125 124.21875 71.789062 124.179688 L 71.789062 120.3125 C 72.417969 120.753906 73.042969 121.257812 73.664062 121.832031 Z M 71.792969 173.417969 L 88.304688 173.417969 C 88.15625 179.675781 87.503906 185.648438 86.449219 191.140625 C 86.21875 192.328125 85.96875 193.5 85.699219 194.640625 L 71.792969 194.640625 Z M 65.859375 173.417969 L 65.859375 194.640625 L 53.058594 194.640625 L 52.894531 193.90625 C 51.492188 187.683594 50.636719 180.746094 50.457031 173.417969 Z M 44.515625 173.417969 C 44.671875 180.054688 45.355469 186.390625 46.484375 192.265625 C 46.636719 193.066406 46.800781 193.859375 46.972656 194.640625 L 34.605469 194.640625 C 34.398438 194.15625 34.191406 193.667969 33.996094 193.175781 C 31.59375 187.152344 30.109375 180.472656 29.785156 173.417969 L 44.519531 173.417969 Z M 47.054688 146.105469 C 45.597656 152.667969 44.714844 159.878906 44.523438 167.480469 L 29.785156 167.480469 C 30.066406 161.335938 31.222656 155.484375 33.105469 150.097656 C 33.582031 148.734375 34.097656 147.40625 34.664062 146.105469 Z M 23.84375 173.417969 C 24.128906 180.253906 25.410156 186.78125 27.519531 192.820312 C 27.734375 193.433594 27.964844 194.039062 28.191406 194.640625 L 22.234375 194.640625 C 20.816406 191.921875 19.628906 189.0625 18.703125 186.078125 C 17.449219 182.042969 16.667969 177.804688 16.425781 173.417969 Z M 28.25 146.105469 C 25.707031 152.675781 24.164062 159.894531 23.84375 167.480469 L 16.425781 167.480469 C 16.765625 161.304688 18.175781 155.421875 20.46875 149.996094 C 21.027344 148.671875 21.648438 147.375 22.3125 146.105469 Z M 54.167969 126.519531 C 51.957031 130.464844 50.085938 135.0625 48.585938 140.171875 L 37.675781 140.171875 C 40.667969 135.0625 44.390625 130.644531 48.621094 127.121094 C 51.367188 124.847656 54.332031 122.941406 57.453125 121.476562 C 56.289062 123.007812 55.195312 124.695312 54.167969 126.519531 Z M 41.125 125.949219 C 37.097656 130.015625 33.652344 134.816406 30.90625 140.171875 L 25.9375 140.171875 C 29.625 134.964844 34.222656 130.449219 39.507812 126.875 C 40.148438 126.449219 40.796875 126.035156 41.449219 125.632812 Z M 41.125 125.949219 " fill-opacity="1" fill-rule="evenodd"/></g><g fill="#6c4646" fill-opacity="1"><g transform="translate(179.410555, 181.802362)"><g><path d="M 32.390625 -7.359375 C 32.671875 -7.359375 32.894531 -7.222656 33.0625 -6.953125 C 33.226562 -6.691406 33.3125 -6.332031 33.3125 -5.875 C 33.3125 -5.019531 33.101562 -4.335938 32.6875 -3.828125 C 31.625 -2.554688 30.550781 -1.570312 29.46875 -0.875 C 28.394531 -0.175781 27.125 0.171875 25.65625 0.171875 C 24.21875 0.171875 23 -0.210938 22 -0.984375 C 21 -1.753906 20.050781 -3.078125 19.15625 -4.953125 C 18.425781 -6.453125 17.851562 -7.554688 17.4375 -8.265625 C 17.019531 -8.984375 16.601562 -9.492188 16.1875 -9.796875 C 15.78125 -10.109375 15.28125 -10.296875 14.6875 -10.359375 C 14.601562 -9.898438 14.351562 -8.453125 13.9375 -6.015625 C 13.757812 -4.910156 13.648438 -4.238281 13.609375 -4 C 13.378906 -2.65625 12.9375 -1.625 12.28125 -0.90625 C 11.625 -0.1875 10.625 0.171875 9.28125 0.171875 C 7.800781 0.171875 6.492188 -0.257812 5.359375 -1.125 C 4.234375 -2 3.359375 -3.210938 2.734375 -4.765625 C 2.117188 -6.316406 1.8125 -8.082031 1.8125 -10.0625 C 1.8125 -13.757812 2.453125 -16.953125 3.734375 -19.640625 C 5.023438 -22.328125 6.832031 -24.378906 9.15625 -25.796875 C 11.476562 -27.222656 14.160156 -27.9375 17.203125 -27.9375 C 19.316406 -27.9375 21.085938 -27.613281 22.515625 -26.96875 C 23.941406 -26.332031 25.003906 -25.453125 25.703125 -24.328125 C 26.398438 -23.210938 26.75 -21.945312 26.75 -20.53125 C 26.75 -19.300781 26.457031 -18.097656 25.875 -16.921875 C 25.289062 -15.742188 24.414062 -14.703125 23.25 -13.796875 C 22.082031 -12.898438 20.660156 -12.226562 18.984375 -11.78125 C 20.035156 -11.5 20.847656 -11.035156 21.421875 -10.390625 C 21.992188 -9.753906 22.566406 -8.820312 23.140625 -7.59375 C 23.753906 -6.269531 24.363281 -5.300781 24.96875 -4.6875 C 25.582031 -4.070312 26.285156 -3.765625 27.078125 -3.765625 C 27.773438 -3.765625 28.441406 -4 29.078125 -4.46875 C 29.722656 -4.945312 30.53125 -5.757812 31.5 -6.90625 C 31.757812 -7.207031 32.054688 -7.359375 32.390625 -7.359375 Z M 10.140625 -10.40625 C 9.390625 -10.40625 8.875 -10.578125 8.59375 -10.921875 C 8.320312 -11.273438 8.1875 -11.671875 8.1875 -12.109375 C 8.1875 -12.640625 8.359375 -13.054688 8.703125 -13.359375 C 9.046875 -13.671875 9.4375 -13.828125 9.875 -13.828125 L 10.703125 -13.828125 C 11.046875 -15.984375 11.375 -17.84375 11.6875 -19.40625 C 11.96875 -20.84375 12.890625 -21.5625 14.453125 -21.5625 C 15.710938 -21.5625 16.34375 -21 16.34375 -19.875 C 16.34375 -19.632812 16.332031 -19.445312 16.3125 -19.3125 L 15.3125 -13.828125 C 16.507812 -13.898438 17.597656 -14.1875 18.578125 -14.6875 C 19.554688 -15.195312 20.335938 -15.898438 20.921875 -16.796875 C 21.503906 -17.703125 21.796875 -18.726562 21.796875 -19.875 C 21.796875 -21.257812 21.320312 -22.347656 20.375 -23.140625 C 19.425781 -23.929688 18.035156 -24.328125 16.203125 -24.328125 C 14.046875 -24.328125 12.160156 -23.789062 10.546875 -22.71875 C 8.929688 -21.65625 7.671875 -20.070312 6.765625 -17.96875 C 5.867188 -15.875 5.421875 -13.316406 5.421875 -10.296875 C 5.421875 -8.890625 5.5625 -7.679688 5.84375 -6.671875 C 6.125 -5.660156 6.472656 -4.898438 6.890625 -4.390625 C 7.316406 -3.878906 7.71875 -3.625 8.09375 -3.625 C 8.375 -3.625 8.609375 -3.765625 8.796875 -4.046875 C 8.984375 -4.335938 9.132812 -4.804688 9.25 -5.453125 Z M 10.140625 -10.40625 "/></g></g></g><g fill="#6c4646" fill-opacity="1"><g transform="translate(208.460877, 181.802362)"><g><path d="M 16.3125 -7.359375 C 16.59375 -7.359375 16.816406 -7.222656 16.984375 -6.953125 C 17.148438 -6.691406 17.234375 -6.332031 17.234375 -5.875 C 17.234375 -5 17.023438 -4.316406 16.609375 -3.828125 C 15.796875 -2.835938 14.644531 -1.921875 13.15625 -1.078125 C 11.664062 -0.242188 10.078125 0.171875 8.390625 0.171875 C 6.078125 0.171875 4.28125 -0.453125 3 -1.703125 C 1.726562 -2.960938 1.09375 -4.6875 1.09375 -6.875 C 1.09375 -8.382812 1.410156 -9.796875 2.046875 -11.109375 C 2.679688 -12.421875 3.566406 -13.460938 4.703125 -14.234375 C 5.835938 -15.003906 7.117188 -15.390625 8.546875 -15.390625 C 9.828125 -15.390625 10.851562 -15.007812 11.625 -14.25 C 12.394531 -13.488281 12.78125 -12.457031 12.78125 -11.15625 C 12.78125 -9.632812 12.234375 -8.328125 11.140625 -7.234375 C 10.054688 -6.148438 8.210938 -5.289062 5.609375 -4.65625 C 6.160156 -3.644531 7.207031 -3.140625 8.75 -3.140625 C 9.738281 -3.140625 10.863281 -3.484375 12.125 -4.171875 C 13.394531 -4.867188 14.492188 -5.78125 15.421875 -6.90625 C 15.679688 -7.207031 15.976562 -7.359375 16.3125 -7.359375 Z M 7.984375 -12.15625 C 7.171875 -12.15625 6.484375 -11.679688 5.921875 -10.734375 C 5.359375 -9.785156 5.078125 -8.640625 5.078125 -7.296875 L 5.078125 -7.234375 C 6.378906 -7.535156 7.40625 -7.992188 8.15625 -8.609375 C 8.90625 -9.234375 9.28125 -9.953125 9.28125 -10.765625 C 9.28125 -11.179688 9.160156 -11.515625 8.921875 -11.765625 C 8.691406 -12.023438 8.378906 -12.15625 7.984375 -12.15625 Z M 7.984375 -12.15625 "/></g></g></g><g fill="#6c4646" fill-opacity="1"><g transform="translate(221.434482, 181.802362)"><g><path d="M 7.71875 0.890625 C 6.582031 0.890625 5.707031 0.625 5.09375 0.09375 C 4.488281 -0.425781 4.1875 -1.019531 4.1875 -1.6875 C 4.1875 -2.257812 4.394531 -2.753906 4.8125 -3.171875 C 5.238281 -3.585938 5.859375 -3.796875 6.671875 -3.796875 C 6.953125 -3.796875 7.285156 -3.765625 7.671875 -3.703125 C 8.054688 -3.648438 8.347656 -3.613281 8.546875 -3.59375 C 8.523438 -4.164062 8.398438 -4.703125 8.171875 -5.203125 C 7.941406 -5.710938 7.648438 -6.203125 7.296875 -6.671875 C 6.941406 -7.148438 6.613281 -7.566406 6.3125 -7.921875 C 5.625 -6.617188 4.941406 -5.539062 4.265625 -4.6875 C 3.597656 -3.832031 2.867188 -3.019531 2.078125 -2.25 C 1.679688 -1.851562 1.265625 -1.65625 0.828125 -1.65625 C 0.472656 -1.65625 0.1875 -1.78125 -0.03125 -2.03125 C -0.25 -2.28125 -0.359375 -2.59375 -0.359375 -2.96875 C -0.359375 -3.40625 -0.207031 -3.8125 0.09375 -4.1875 L 0.53125 -4.71875 C 1.738281 -6.21875 2.648438 -7.453125 3.265625 -8.421875 C 3.640625 -9.054688 4.078125 -9.90625 4.578125 -10.96875 C 5.085938 -12.039062 5.585938 -13.148438 6.078125 -14.296875 C 6.492188 -15.265625 7.363281 -15.75 8.6875 -15.75 C 9.300781 -15.75 9.726562 -15.691406 9.96875 -15.578125 C 10.207031 -15.472656 10.328125 -15.300781 10.328125 -15.0625 C 10.328125 -14.925781 10.28125 -14.710938 10.1875 -14.421875 C 10.101562 -14.140625 9.988281 -13.851562 9.84375 -13.5625 C 9.445312 -12.769531 9.25 -12.101562 9.25 -11.5625 C 9.25 -11.226562 9.363281 -10.863281 9.59375 -10.46875 C 9.820312 -10.070312 10.179688 -9.578125 10.671875 -8.984375 C 11.367188 -8.054688 11.898438 -7.265625 12.265625 -6.609375 C 12.628906 -5.960938 12.8125 -5.253906 12.8125 -4.484375 C 12.8125 -4.265625 12.789062 -3.957031 12.75 -3.5625 C 13.820312 -3.976562 15.085938 -5.09375 16.546875 -6.90625 C 16.804688 -7.207031 17.101562 -7.359375 17.4375 -7.359375 C 17.71875 -7.359375 17.941406 -7.222656 18.109375 -6.953125 C 18.273438 -6.691406 18.359375 -6.332031 18.359375 -5.875 C 18.359375 -5.039062 18.148438 -4.359375 17.734375 -3.828125 C 16.628906 -2.460938 15.578125 -1.53125 14.578125 -1.03125 C 13.578125 -0.539062 12.335938 -0.273438 10.859375 -0.234375 C 9.984375 0.515625 8.9375 0.890625 7.71875 0.890625 Z M 7.71875 0.890625 "/></g></g></g><g fill="#6c4646" fill-opacity="1"><g transform="translate(235.530489, 181.802362)"><g><path d="M 16.3125 -7.359375 C 16.59375 -7.359375 16.816406 -7.222656 16.984375 -6.953125 C 17.148438 -6.691406 17.234375 -6.332031 17.234375 -5.875 C 17.234375 -5 17.023438 -4.316406 16.609375 -3.828125 C 15.660156 -2.660156 14.625 -1.703125 13.5 -0.953125 C 12.375 -0.203125 11.085938 0.171875 9.640625 0.171875 C 5.148438 0.171875 2.90625 -2.988281 2.90625 -9.3125 C 2.90625 -10.28125 2.9375 -11.257812 3 -12.25 L 1.71875 -12.25 C 1.050781 -12.25 0.601562 -12.367188 0.375 -12.609375 C 0.144531 -12.847656 0.03125 -13.234375 0.03125 -13.765625 C 0.03125 -14.992188 0.523438 -15.609375 1.515625 -15.609375 L 3.40625 -15.609375 C 3.78125 -18.035156 4.347656 -20.25 5.109375 -22.25 C 5.878906 -24.25 6.8125 -25.84375 7.90625 -27.03125 C 9 -28.226562 10.171875 -28.828125 11.421875 -28.828125 C 12.347656 -28.828125 13.070312 -28.414062 13.59375 -27.59375 C 14.125 -26.78125 14.390625 -25.757812 14.390625 -24.53125 C 14.390625 -21.113281 12.960938 -18.140625 10.109375 -15.609375 L 13.796875 -15.609375 C 14.148438 -15.609375 14.40625 -15.53125 14.5625 -15.375 C 14.71875 -15.226562 14.796875 -14.945312 14.796875 -14.53125 C 14.796875 -13.007812 13.550781 -12.25 11.0625 -12.25 L 7.03125 -12.25 C 6.988281 -11.144531 6.96875 -10.285156 6.96875 -9.671875 C 6.96875 -7.378906 7.234375 -5.769531 7.765625 -4.84375 C 8.304688 -3.925781 9.160156 -3.46875 10.328125 -3.46875 C 11.273438 -3.46875 12.113281 -3.753906 12.84375 -4.328125 C 13.570312 -4.898438 14.429688 -5.757812 15.421875 -6.90625 C 15.679688 -7.207031 15.976562 -7.359375 16.3125 -7.359375 Z M 10.53125 -25.65625 C 10.195312 -25.65625 9.828125 -25.238281 9.421875 -24.40625 C 9.015625 -23.582031 8.628906 -22.4375 8.265625 -20.96875 C 7.898438 -19.507812 7.597656 -17.890625 7.359375 -16.109375 C 8.660156 -17.234375 9.632812 -18.492188 10.28125 -19.890625 C 10.9375 -21.285156 11.265625 -22.554688 11.265625 -23.703125 C 11.265625 -25.003906 11.019531 -25.65625 10.53125 -25.65625 Z M 10.53125 -25.65625 "/></g></g></g><g fill="#6c4646" fill-opacity="1"><g transform="translate(248.504094, 181.802362)"><g><path d="M 14.953125 0.171875 C 12.335938 0.171875 10.0625 -0.304688 8.125 -1.265625 C 6.1875 -2.222656 4.695312 -3.582031 3.65625 -5.34375 C 2.625 -7.101562 2.109375 -9.148438 2.109375 -11.484375 C 2.109375 -14.722656 2.71875 -17.597656 3.9375 -20.109375 C 5.164062 -22.617188 6.820312 -24.5625 8.90625 -25.9375 C 11 -27.3125 13.320312 -28 15.875 -28 C 18.257812 -28 20.066406 -27.382812 21.296875 -26.15625 C 22.523438 -24.9375 23.140625 -23.328125 23.140625 -21.328125 C 23.140625 -19.984375 22.898438 -18.90625 22.421875 -18.09375 C 21.953125 -17.28125 21.28125 -16.875 20.40625 -16.875 C 19.789062 -16.875 19.304688 -17.015625 18.953125 -17.296875 C 18.597656 -17.585938 18.421875 -18.007812 18.421875 -18.5625 C 18.421875 -18.757812 18.46875 -19.117188 18.5625 -19.640625 C 18.6875 -20.304688 18.75 -20.835938 18.75 -21.234375 C 18.75 -23.234375 17.679688 -24.234375 15.546875 -24.234375 C 14.097656 -24.234375 12.710938 -23.757812 11.390625 -22.8125 C 10.066406 -21.863281 9 -20.46875 8.1875 -18.625 C 7.375 -16.789062 6.96875 -14.609375 6.96875 -12.078125 C 6.96875 -9.441406 7.703125 -7.398438 9.171875 -5.953125 C 10.648438 -4.515625 12.832031 -3.796875 15.71875 -3.796875 C 17.144531 -3.796875 18.585938 -3.976562 20.046875 -4.34375 C 21.515625 -4.707031 23.140625 -5.265625 24.921875 -6.015625 C 25.253906 -6.140625 25.53125 -6.203125 25.75 -6.203125 C 26.101562 -6.203125 26.367188 -6.070312 26.546875 -5.8125 C 26.722656 -5.550781 26.8125 -5.207031 26.8125 -4.78125 C 26.8125 -3.4375 26.082031 -2.445312 24.625 -1.8125 C 23.0625 -1.132812 21.4375 -0.632812 19.75 -0.3125 C 18.070312 0.0078125 16.472656 0.171875 14.953125 0.171875 Z M 14.953125 0.171875 "/></g></g></g><g fill="#6c4646" fill-opacity="1"><g transform="translate(271.150142, 181.802362)"><g><path d="M 18.421875 -10.140625 C 18.710938 -10.140625 18.929688 -9.992188 19.078125 -9.703125 C 19.234375 -9.421875 19.3125 -9.054688 19.3125 -8.609375 C 19.3125 -7.554688 18.992188 -6.929688 18.359375 -6.734375 C 17.035156 -6.273438 15.582031 -6.007812 14 -5.9375 C 13.582031 -4.09375 12.753906 -2.613281 11.515625 -1.5 C 10.285156 -0.382812 8.890625 0.171875 7.328125 0.171875 C 6.003906 0.171875 4.875 -0.144531 3.9375 -0.78125 C 3.007812 -1.425781 2.300781 -2.273438 1.8125 -3.328125 C 1.332031 -4.390625 1.09375 -5.535156 1.09375 -6.765625 C 1.09375 -8.441406 1.410156 -9.929688 2.046875 -11.234375 C 2.679688 -12.546875 3.5625 -13.570312 4.6875 -14.3125 C 5.8125 -15.050781 7.054688 -15.421875 8.421875 -15.421875 C 10.085938 -15.421875 11.429688 -14.84375 12.453125 -13.6875 C 13.484375 -12.53125 14.085938 -11.101562 14.265625 -9.40625 C 15.296875 -9.476562 16.523438 -9.695312 17.953125 -10.0625 C 18.128906 -10.113281 18.285156 -10.140625 18.421875 -10.140625 Z M 7.59375 -3.328125 C 8.300781 -3.328125 8.910156 -3.613281 9.421875 -4.1875 C 9.941406 -4.757812 10.289062 -5.585938 10.46875 -6.671875 C 9.78125 -7.128906 9.253906 -7.734375 8.890625 -8.484375 C 8.535156 -9.234375 8.359375 -10.023438 8.359375 -10.859375 C 8.359375 -11.210938 8.390625 -11.566406 8.453125 -11.921875 L 8.28125 -11.921875 C 7.40625 -11.921875 6.675781 -11.492188 6.09375 -10.640625 C 5.507812 -9.796875 5.21875 -8.601562 5.21875 -7.0625 C 5.21875 -5.851562 5.453125 -4.925781 5.921875 -4.28125 C 6.398438 -3.644531 6.957031 -3.328125 7.59375 -3.328125 Z M 7.59375 -3.328125 "/></g></g></g><g fill="#6c4646" fill-opacity="1"><g transform="translate(286.038436, 181.802362)"><g><path d="M 3.921875 0.171875 C 3.085938 0.171875 2.5 -0.265625 2.15625 -1.140625 C 1.820312 -2.023438 1.65625 -3.4375 1.65625 -5.375 C 1.65625 -8.238281 2.0625 -10.957031 2.875 -13.53125 C 3.070312 -14.175781 3.394531 -14.644531 3.84375 -14.9375 C 4.289062 -15.238281 4.925781 -15.390625 5.75 -15.390625 C 6.1875 -15.390625 6.492188 -15.332031 6.671875 -15.21875 C 6.847656 -15.113281 6.9375 -14.90625 6.9375 -14.59375 C 6.9375 -14.238281 6.769531 -13.445312 6.4375 -12.21875 C 6.21875 -11.332031 6.039062 -10.5625 5.90625 -9.90625 C 5.78125 -9.25 5.671875 -8.4375 5.578125 -7.46875 C 6.304688 -9.351562 7.117188 -10.890625 8.015625 -12.078125 C 8.921875 -13.265625 9.804688 -14.113281 10.671875 -14.625 C 11.546875 -15.132812 12.347656 -15.390625 13.078125 -15.390625 C 14.503906 -15.390625 15.21875 -14.671875 15.21875 -13.234375 C 15.21875 -12.378906 14.976562 -10.828125 14.5 -8.578125 C 14.070312 -6.671875 13.859375 -5.40625 13.859375 -4.78125 C 13.859375 -3.90625 14.179688 -3.46875 14.828125 -3.46875 C 15.265625 -3.46875 15.785156 -3.734375 16.390625 -4.265625 C 16.992188 -4.804688 17.800781 -5.6875 18.8125 -6.90625 C 19.082031 -7.207031 19.378906 -7.359375 19.703125 -7.359375 C 19.992188 -7.359375 20.222656 -7.222656 20.390625 -6.953125 C 20.554688 -6.691406 20.640625 -6.332031 20.640625 -5.875 C 20.640625 -5 20.425781 -4.316406 20 -3.828125 C 19.0625 -2.660156 18.046875 -1.703125 16.953125 -0.953125 C 15.859375 -0.203125 14.617188 0.171875 13.234375 0.171875 C 12.117188 0.171875 11.273438 -0.148438 10.703125 -0.796875 C 10.128906 -1.453125 9.84375 -2.394531 9.84375 -3.625 C 9.84375 -4.25 9.992188 -5.351562 10.296875 -6.9375 C 10.585938 -8.320312 10.734375 -9.28125 10.734375 -9.8125 C 10.734375 -10.15625 10.609375 -10.328125 10.359375 -10.328125 C 10.078125 -10.328125 9.675781 -9.957031 9.15625 -9.21875 C 8.644531 -8.488281 8.117188 -7.515625 7.578125 -6.296875 C 7.035156 -5.085938 6.597656 -3.8125 6.265625 -2.46875 C 6.023438 -1.4375 5.742188 -0.738281 5.421875 -0.375 C 5.109375 -0.0078125 4.609375 0.171875 3.921875 0.171875 Z M 3.921875 0.171875 "/></g></g></g><g fill="#6c4646" fill-opacity="1"><g transform="translate(302.412252, 181.802362)"><g><path d="M 3.921875 0.171875 C 3.085938 0.171875 2.5 -0.265625 2.15625 -1.140625 C 1.820312 -2.023438 1.65625 -3.4375 1.65625 -5.375 C 1.65625 -8.238281 2.0625 -10.957031 2.875 -13.53125 C 3.070312 -14.175781 3.394531 -14.644531 3.84375 -14.9375 C 4.289062 -15.238281 4.925781 -15.390625 5.75 -15.390625 C 6.1875 -15.390625 6.492188 -15.332031 6.671875 -15.21875 C 6.847656 -15.113281 6.9375 -14.90625 6.9375 -14.59375 C 6.9375 -14.238281 6.769531 -13.445312 6.4375 -12.21875 C 6.21875 -11.332031 6.039062 -10.5625 5.90625 -9.90625 C 5.78125 -9.25 5.671875 -8.4375 5.578125 -7.46875 C 6.304688 -9.351562 7.117188 -10.890625 8.015625 -12.078125 C 8.921875 -13.265625 9.804688 -14.113281 10.671875 -14.625 C 11.546875 -15.132812 12.347656 -15.390625 13.078125 -15.390625 C 14.503906 -15.390625 15.21875 -14.671875 15.21875 -13.234375 C 15.21875 -12.378906 14.976562 -10.828125 14.5 -8.578125 C 14.070312 -6.671875 13.859375 -5.40625 13.859375 -4.78125 C 13.859375 -3.90625 14.179688 -3.46875 14.828125 -3.46875 C 15.265625 -3.46875 15.785156 -3.734375 16.390625 -4.265625 C 16.992188 -4.804688 17.800781 -5.6875 18.8125 -6.90625 C 19.082031 -7.207031 19.378906 -7.359375 19.703125 -7.359375 C 19.992188 -7.359375 20.222656 -7.222656 20.390625 -6.953125 C 20.554688 -6.691406 20.640625 -6.332031 20.640625 -5.875 C 20.640625 -5 20.425781 -4.316406 20 -3.828125 C 19.0625 -2.660156 18.046875 -1.703125 16.953125 -0.953125 C 15.859375 -0.203125 14.617188 0.171875 13.234375 0.171875 C 12.117188 0.171875 11.273438 -0.148438 10.703125 -0.796875 C 10.128906 -1.453125 9.84375 -2.394531 9.84375 -3.625 C 9.84375 -4.25 9.992188 -5.351562 10.296875 -6.9375 C 10.585938 -8.320312 10.734375 -9.28125 10.734375 -9.8125 C 10.734375 -10.15625 10.609375 -10.328125 10.359375 -10.328125 C 10.078125 -10.328125 9.675781 -9.957031 9.15625 -9.21875 C 8.644531 -8.488281 8.117188 -7.515625 7.578125 -6.296875 C 7.035156 -5.085938 6.597656 -3.8125 6.265625 -2.46875 C 6.023438 -1.4375 5.742188 -0.738281 5.421875 -0.375 C 5.109375 -0.0078125 4.609375 0.171875 3.921875 0.171875 Z M 3.921875 0.171875 "/></g></g></g><g fill="#6c4646" fill-opacity="1"><g transform="translate(318.786069, 181.802362)"><g><path d="M 16.3125 -7.359375 C 16.59375 -7.359375 16.816406 -7.222656 16.984375 -6.953125 C 17.148438 -6.691406 17.234375 -6.332031 17.234375 -5.875 C 17.234375 -5 17.023438 -4.316406 16.609375 -3.828125 C 15.796875 -2.835938 14.644531 -1.921875 13.15625 -1.078125 C 11.664062 -0.242188 10.078125 0.171875 8.390625 0.171875 C 6.078125 0.171875 4.28125 -0.453125 3 -1.703125 C 1.726562 -2.960938 1.09375 -4.6875 1.09375 -6.875 C 1.09375 -8.382812 1.410156 -9.796875 2.046875 -11.109375 C 2.679688 -12.421875 3.566406 -13.460938 4.703125 -14.234375 C 5.835938 -15.003906 7.117188 -15.390625 8.546875 -15.390625 C 9.828125 -15.390625 10.851562 -15.007812 11.625 -14.25 C 12.394531 -13.488281 12.78125 -12.457031 12.78125 -11.15625 C 12.78125 -9.632812 12.234375 -8.328125 11.140625 -7.234375 C 10.054688 -6.148438 8.210938 -5.289062 5.609375 -4.65625 C 6.160156 -3.644531 7.207031 -3.140625 8.75 -3.140625 C 9.738281 -3.140625 10.863281 -3.484375 12.125 -4.171875 C 13.394531 -4.867188 14.492188 -5.78125 15.421875 -6.90625 C 15.679688 -7.207031 15.976562 -7.359375 16.3125 -7.359375 Z M 7.984375 -12.15625 C 7.171875 -12.15625 6.484375 -11.679688 5.921875 -10.734375 C 5.359375 -9.785156 5.078125 -8.640625 5.078125 -7.296875 L 5.078125 -7.234375 C 6.378906 -7.535156 7.40625 -7.992188 8.15625 -8.609375 C 8.90625 -9.234375 9.28125 -9.953125 9.28125 -10.765625 C 9.28125 -11.179688 9.160156 -11.515625 8.921875 -11.765625 C 8.691406 -12.023438 8.378906 -12.15625 7.984375 -12.15625 Z M 7.984375 -12.15625 "/></g></g></g><g fill="#6c4646" fill-opacity="1"><g transform="translate(331.759674, 181.802362)"><g><path d="M 7.890625 0.171875 C 5.734375 0.171875 4.054688 -0.4375 2.859375 -1.65625 C 1.660156 -2.882812 1.0625 -4.5 1.0625 -6.5 C 1.0625 -8.28125 1.410156 -9.84375 2.109375 -11.1875 C 2.816406 -12.53125 3.726562 -13.566406 4.84375 -14.296875 C 5.96875 -15.023438 7.148438 -15.390625 8.390625 -15.390625 C 9.597656 -15.390625 10.535156 -15.03125 11.203125 -14.3125 C 11.878906 -13.59375 12.21875 -12.675781 12.21875 -11.5625 C 12.21875 -10.632812 12.015625 -9.847656 11.609375 -9.203125 C 11.203125 -8.566406 10.664062 -8.25 10 -8.25 C 9.582031 -8.25 9.242188 -8.347656 8.984375 -8.546875 C 8.734375 -8.742188 8.609375 -9.019531 8.609375 -9.375 C 8.609375 -9.53125 8.628906 -9.707031 8.671875 -9.90625 C 8.722656 -10.101562 8.757812 -10.242188 8.78125 -10.328125 C 8.894531 -10.660156 8.953125 -10.972656 8.953125 -11.265625 C 8.953125 -11.546875 8.878906 -11.765625 8.734375 -11.921875 C 8.585938 -12.078125 8.382812 -12.15625 8.125 -12.15625 C 7.613281 -12.15625 7.140625 -11.925781 6.703125 -11.46875 C 6.265625 -11.019531 5.910156 -10.410156 5.640625 -9.640625 C 5.378906 -8.867188 5.25 -8.019531 5.25 -7.09375 C 5.25 -4.539062 6.359375 -3.265625 8.578125 -3.265625 C 9.484375 -3.265625 10.457031 -3.566406 11.5 -4.171875 C 12.550781 -4.773438 13.582031 -5.6875 14.59375 -6.90625 C 14.851562 -7.207031 15.148438 -7.359375 15.484375 -7.359375 C 15.765625 -7.359375 15.988281 -7.222656 16.15625 -6.953125 C 16.320312 -6.691406 16.40625 -6.332031 16.40625 -5.875 C 16.40625 -5.039062 16.195312 -4.359375 15.78125 -3.828125 C 14.75 -2.554688 13.507812 -1.570312 12.0625 -0.875 C 10.625 -0.175781 9.234375 0.171875 7.890625 0.171875 Z M 7.890625 0.171875 "/></g></g></g><g fill="#6c4646" fill-opacity="1"><g transform="translate(343.907989, 181.802362)"><g><path d="M 16.3125 -7.359375 C 16.59375 -7.359375 16.816406 -7.222656 16.984375 -6.953125 C 17.148438 -6.691406 17.234375 -6.332031 17.234375 -5.875 C 17.234375 -5 17.023438 -4.316406 16.609375 -3.828125 C 15.660156 -2.660156 14.625 -1.703125 13.5 -0.953125 C 12.375 -0.203125 11.085938 0.171875 9.640625 0.171875 C 5.148438 0.171875 2.90625 -2.988281 2.90625 -9.3125 C 2.90625 -10.28125 2.9375 -11.257812 3 -12.25 L 1.71875 -12.25 C 1.050781 -12.25 0.601562 -12.367188 0.375 -12.609375 C 0.144531 -12.847656 0.03125 -13.234375 0.03125 -13.765625 C 0.03125 -14.992188 0.523438 -15.609375 1.515625 -15.609375 L 3.40625 -15.609375 C 3.78125 -18.035156 4.347656 -20.25 5.109375 -22.25 C 5.878906 -24.25 6.8125 -25.84375 7.90625 -27.03125 C 9 -28.226562 10.171875 -28.828125 11.421875 -28.828125 C 12.347656 -28.828125 13.070312 -28.414062 13.59375 -27.59375 C 14.125 -26.78125 14.390625 -25.757812 14.390625 -24.53125 C 14.390625 -21.113281 12.960938 -18.140625 10.109375 -15.609375 L 13.796875 -15.609375 C 14.148438 -15.609375 14.40625 -15.53125 14.5625 -15.375 C 14.71875 -15.226562 14.796875 -14.945312 14.796875 -14.53125 C 14.796875 -13.007812 13.550781 -12.25 11.0625 -12.25 L 7.03125 -12.25 C 6.988281 -11.144531 6.96875 -10.285156 6.96875 -9.671875 C 6.96875 -7.378906 7.234375 -5.769531 7.765625 -4.84375 C 8.304688 -3.925781 9.160156 -3.46875 10.328125 -3.46875 C 11.273438 -3.46875 12.113281 -3.753906 12.84375 -4.328125 C 13.570312 -4.898438 14.429688 -5.757812 15.421875 -6.90625 C 15.679688 -7.207031 15.976562 -7.359375 16.3125 -7.359375 Z M 10.53125 -25.65625 C 10.195312 -25.65625 9.828125 -25.238281 9.421875 -24.40625 C 9.015625 -23.582031 8.628906 -22.4375 8.265625 -20.96875 C 7.898438 -19.507812 7.597656 -17.890625 7.359375 -16.109375 C 8.660156 -17.234375 9.632812 -18.492188 10.28125 -19.890625 C 10.9375 -21.285156 11.265625 -22.554688 11.265625 -23.703125 C 11.265625 -25.003906 11.019531 -25.65625 10.53125 -25.65625 Z M 10.53125 -25.65625 "/></g></g></g></svg>