<svg xmlns="http://www.w3.org/2000/svg" xmlns:xlink="http://www.w3.org/1999/xlink" width="532" zoomAndPan="magnify" viewBox="0 0 398.88 104.249996" height="139" preserveAspectRatio="xMidYMid meet" version="1.0"><defs><g/><clipPath id="68238d7b04"><path d="M 28 13.980469 L 99.65625 13.980469 L 99.65625 87 L 28 87 Z M 28 13.980469 " clip-rule="nonzero"/></clipPath><clipPath id="7a6d6fb1f3"><path d="M 1.363281 22 L 63 22 L 63 82 L 1.363281 82 Z M 1.363281 22 " clip-rule="nonzero"/></clipPath></defs><path fill="#e07634" d="M 54.074219 81.550781 C 52.90625 81.128906 51.742188 80.707031 50.578125 80.292969 C 49.789062 80.011719 49 79.730469 48.214844 79.460938 C 47.710938 79.285156 47.210938 79.113281 46.707031 78.945312 C 45.605469 78.578125 44.5 78.222656 43.402344 77.894531 C 41.328125 77.269531 39.257812 76.734375 37.191406 76.335938 C 36.035156 76.113281 34.882812 75.933594 33.726562 75.808594 C 31.609375 75.574219 29.492188 75.523438 27.382812 75.707031 C 26.222656 75.8125 25.066406 75.984375 23.914062 76.242188 C 22.269531 76.605469 20.632812 77.132812 18.996094 77.855469 C 17.960938 78.3125 16.925781 78.851562 15.894531 79.472656 C 15.523438 79.695312 15.148438 79.929688 14.777344 80.171875 C 13.835938 80.796875 12.890625 81.496094 11.949219 82.273438 C 10.957031 83.089844 9.964844 83.996094 8.972656 84.996094 C 23.246094 76.25 34.042969 77.679688 44.046875 81.058594 C 44.554688 81.230469 45.0625 81.40625 45.566406 81.585938 C 46.457031 81.90625 47.34375 82.238281 48.226562 82.574219 C 50.609375 83.488281 52.972656 84.445312 55.347656 85.335938 C 59.105469 86.742188 62.898438 87.972656 66.882812 88.5625 C 73.835938 89.59375 81.359375 88.671875 90.265625 83.328125 C 87.425781 84.859375 84.585938 85.808594 81.753906 86.316406 C 73.875 87.722656 66.035156 85.683594 58.238281 83.019531 C 56.972656 82.585938 55.707031 82.136719 54.441406 81.683594 Z M 54.074219 81.550781 " fill-opacity="1" fill-rule="evenodd"/><g clip-path="url(#68238d7b04)"><path fill="#6cdc45" d="M 84.351562 57.488281 C 84.210938 57.058594 84.078125 56.628906 83.953125 56.195312 C 84.089844 56.605469 84.226562 57.035156 84.351562 57.488281 Z M 62.277344 77.113281 C 61.074219 77.050781 59.882812 77.039062 58.703125 77.082031 C 58.074219 77.105469 57.449219 77.144531 56.828125 77.199219 C 55.246094 77.332031 53.6875 77.5625 52.152344 77.882812 C 50.824219 78.164062 49.511719 78.511719 48.210938 78.929688 C 49 79.203125 49.789062 79.480469 50.578125 79.761719 C 51.742188 80.179688 52.90625 80.601562 54.074219 81.019531 L 54.441406 81.152344 C 55.707031 81.605469 56.972656 82.054688 58.238281 82.488281 C 66.035156 85.152344 73.878906 87.191406 81.753906 85.785156 C 79.140625 82.523438 74.375 79.667969 68.40625 77.921875 C 72.019531 68.78125 76.085938 62.328125 81.375 56.71875 C 80.582031 58.195312 79.953125 59.628906 79.464844 61.011719 C 82.652344 59.84375 82.542969 60.175781 79.136719 62.003906 C 78.515625 64.007812 78.195312 65.886719 78.109375 67.597656 C 80.988281 66.425781 80.984375 66.90625 78.09375 69.042969 C 78.152344 70.875 78.492188 72.472656 79.015625 73.765625 C 80.429688 73.003906 81.542969 72.082031 82.410156 71.0625 C 81.402344 68.042969 80.8125 65.832031 83.546875 69.4375 C 84.335938 68.050781 84.785156 66.546875 84.988281 65.023438 C 81.828125 60.714844 81.859375 60.398438 85.085938 64.074219 C 85.25 61.746094 84.886719 59.429688 84.351562 57.488281 C 85.09375 59.785156 85.992188 62.03125 87.015625 64.1875 C 89.222656 59.214844 88.410156 62.078125 87.503906 65.1875 C 88.515625 67.21875 89.640625 69.167969 90.84375 71 C 91.789062 65.898438 91.796875 67.359375 91.382812 71.804688 C 92.097656 72.847656 92.839844 73.851562 93.601562 74.808594 C 94.160156 72.597656 94.867188 69.75 94.597656 66.808594 C 90.476562 63.441406 90.425781 63.082031 94.453125 65.722656 C 94.03125 63.347656 92.894531 60.953125 90.445312 58.824219 C 87.46875 57.820312 85.914062 57.210938 89.402344 57.992188 C 87.933594 56.914062 86.082031 55.917969 83.761719 55.046875 C 86.214844 54.871094 88.34375 55.9375 90.636719 56.71875 C 90.808594 55.972656 90.558594 55.128906 90.519531 54.332031 C 91.234375 55.394531 91.597656 56.625 91.929688 57.867188 C 93.058594 58.359375 93.984375 58.90625 95.378906 59.597656 C 95.082031 58.492188 94.726562 57.128906 94.429688 56.023438 C 95.21875 57.304688 96.152344 58.761719 96.339844 60.785156 C 97.503906 61.324219 98 61.652344 99.660156 62.519531 C 97.164062 54.105469 90.019531 50.558594 83.921875 53.851562 C 90.71875 49.304688 89.496094 41.917969 88.9375 40.933594 C 85.859375 42.320312 85.511719 46.832031 85.289062 49.8125 C 84.6875 48.273438 84.652344 44.425781 85.367188 42.117188 C 84.683594 43.253906 83.8125 45.613281 83.082031 47.078125 C 82.851562 47.535156 82.683594 47.539062 82.972656 47.941406 C 83.503906 48.6875 83.59375 49.597656 83.945312 50.410156 L 82.261719 48.128906 L 81.597656 52.507812 C 82.285156 45.726562 75.269531 40.519531 68.460938 41.222656 C 69.675781 42.046875 70.835938 42.878906 71.9375 43.742188 C 79.621094 45.238281 72.921875 44.535156 73.394531 44.941406 C 74.402344 45.8125 75.347656 46.722656 76.21875 47.691406 C 79.675781 48.527344 79.628906 48.320312 77.390625 49.089844 C 78.425781 50.414062 79.328125 51.859375 80.078125 53.453125 C 77.792969 50.6875 75.074219 48.90625 72.140625 47.902344 C 70.710938 45.371094 68.570312 43.023438 65.636719 41.042969 C 64.5 40.277344 63.246094 39.566406 61.867188 38.917969 C 62.863281 39.269531 63.898438 39.574219 64.964844 39.839844 C 68.332031 40.675781 71.996094 41.109375 75.699219 41.21875 C 73.941406 36.96875 73.894531 35.886719 77.757812 41.242188 C 79.863281 41.238281 81.96875 41.132812 84.023438 40.941406 C 80.378906 35.84375 81.179688 35.703125 86.0625 40.722656 C 88.035156 40.484375 89.949219 40.164062 91.757812 39.785156 C 83.097656 33.484375 72.425781 30.386719 61.78125 35.292969 C 61.34375 35.496094 60.90625 35.710938 60.464844 35.941406 C 60.820312 35.621094 61.179688 35.308594 61.542969 35.007812 C 63.144531 33.679688 64.824219 32.542969 66.574219 31.558594 C 63.984375 29.253906 63.804688 29.507812 68.953125 30.335938 C 70.683594 29.519531 72.476562 28.824219 74.332031 28.21875 C 75.199219 27.9375 65.746094 25.089844 76.984375 27.425781 C 78.960938 26.878906 81.003906 26.414062 83.109375 25.988281 C 74.664062 21.371094 62.878906 23.996094 59.351562 32.652344 C 59.203125 33.023438 59.066406 33.40625 58.945312 33.796875 L 59.257812 32.5625 L 60.535156 27.5 L 56.964844 29.628906 C 57.902344 28.730469 58.539062 27.546875 59.679688 26.84375 C 60.296875 26.460938 60.074219 26.359375 60.023438 25.609375 C 59.863281 23.21875 60.023438 19.535156 59.746094 17.609375 C 59.402344 21.136719 57.171875 26.320312 55.492188 28.058594 C 56.875 23.898438 58.964844 17.605469 55.59375 13.980469 C 54.59375 14.753906 50.988281 20.292969 52.195312 27.289062 C 52.492188 29.007812 53.078125 30.8125 54.066406 32.65625 C 54.351562 33.191406 54.675781 33.734375 55.03125 34.277344 C 52.082031 30.625 47.996094 28.820312 43.652344 28.925781 C 43.464844 28.933594 43.28125 28.941406 43.097656 28.949219 C 41.828125 29.027344 40.539062 29.269531 39.25 29.671875 C 38.5625 29.886719 37.875 30.152344 37.191406 30.460938 C 36.019531 30.992188 34.859375 31.660156 33.730469 32.46875 C 32.015625 33.6875 30.371094 35.230469 28.847656 37.089844 C 31.28125 36.882812 32.230469 36.734375 33.730469 36.652344 L 34.320312 36.628906 C 35.117188 35.136719 36.132812 34.027344 37.191406 33.109375 C 38 32.414062 38.828125 31.828125 39.605469 31.273438 C 38.863281 32.234375 38 33.355469 37.191406 34.402344 L 36.292969 35.5625 C 36.605469 35.546875 36.90625 35.523438 37.191406 35.503906 C 39.003906 35.371094 40.378906 35.207031 41.9375 35.1875 L 42.40625 34.589844 C 43.175781 33.617188 43.980469 32.683594 44.917969 31.898438 C 45.214844 31.652344 45.523438 31.417969 45.847656 31.207031 C 45.65625 31.609375 45.417969 32.007812 45.183594 32.402344 C 44.8125 33.042969 44.460938 33.683594 44.339844 34.363281 C 44.945312 34.40625 45.550781 34.433594 46.152344 34.457031 C 47.8125 34.53125 49.453125 34.582031 51.046875 34.867188 C 52.253906 35.082031 53.433594 35.425781 54.582031 36.003906 C 53.675781 35.972656 52.804688 35.964844 51.96875 35.980469 C 50.140625 36.019531 48.472656 36.179688 46.949219 36.445312 C 46.371094 36.542969 45.820312 36.65625 45.285156 36.785156 C 46.113281 36.933594 46.746094 37.054688 47.203125 37.15625 C 48.550781 37.449219 48.402344 37.554688 47.335938 37.539062 C 46.527344 37.523438 45.195312 37.445312 43.578125 37.332031 L 43.398438 37.320312 C 41.734375 37.871094 40.285156 38.570312 39.027344 39.386719 C 36.878906 40.777344 35.277344 42.5 34.070312 44.375 C 35.359375 44.136719 36.398438 43.957031 37.191406 43.835938 C 39.710938 43.460938 39.710938 43.695312 37.191406 44.539062 C 36.332031 44.832031 35.175781 45.191406 33.726562 45.621094 L 33.257812 45.761719 C 31.585938 48.910156 30.84375 52.351562 30.351562 55.316406 C 30.25 55.949219 30.15625 56.5625 30.066406 57.144531 C 31.117188 56.570312 32.167969 55.960938 33.214844 55.316406 L 33.726562 55 C 34.074219 54.78125 34.421875 54.5625 34.769531 54.339844 C 36.730469 48.09375 37.574219 46.121094 35.960938 53.554688 C 36.371094 53.277344 36.78125 52.996094 37.191406 52.710938 C 39.433594 51.140625 41.636719 49.429688 43.773438 47.589844 C 43.988281 45.683594 44.203125 43.839844 44.394531 42.847656 C 44.566406 41.941406 44.71875 41.742188 44.832031 42.847656 C 44.902344 43.527344 44.957031 44.703125 44.996094 46.515625 C 45.285156 46.257812 45.570312 45.996094 45.859375 45.730469 C 46.863281 44.804688 47.851562 43.851562 48.8125 42.867188 L 48.835938 42.847656 C 49.933594 41.726562 51.003906 40.570312 52.039062 39.382812 L 52.398438 38.964844 L 52.074219 39.382812 C 51.277344 40.433594 50.492188 41.59375 49.773438 42.847656 C 49.535156 43.265625 49.300781 43.695312 49.078125 44.132812 C 48.542969 45.191406 48.058594 46.304688 47.667969 47.460938 C 48.359375 47.121094 48.972656 46.828125 49.511719 46.574219 C 53.328125 44.777344 53.367188 45.035156 49.628906 47.355469 C 48.960938 47.769531 48.171875 48.25 47.261719 48.796875 C 46.972656 49.871094 46.765625 50.976562 46.664062 52.097656 C 46.566406 53.15625 46.566406 54.234375 46.679688 55.316406 L 46.707031 55.578125 C 48.878906 54.324219 49.9375 53.921875 50.246094 54.097656 C 50.378906 54.171875 50.375 54.347656 50.265625 54.605469 C 49.953125 55.355469 48.746094 56.796875 47.324219 58.417969 C 47.867188 60.136719 48.742188 61.855469 50.015625 63.542969 C 50.132812 63.695312 50.253906 63.851562 50.378906 64.003906 C 51.695312 62.679688 52.945312 60.929688 54 58.777344 C 54.105469 58.570312 54.203125 58.359375 54.304688 58.140625 C 53.574219 56.914062 53.0625 55.972656 52.765625 55.316406 C 52.082031 53.792969 52.566406 53.792969 54.210938 55.316406 C 54.476562 55.5625 54.777344 55.851562 55.105469 56.179688 C 55.207031 55.894531 55.304688 55.609375 55.402344 55.316406 C 56.109375 53.164062 56.628906 50.730469 56.890625 48.035156 C 53.320312 43.628906 53.359375 43.117188 57.007812 46.503906 C 57.027344 46.164062 57.042969 45.824219 57.054688 45.476562 C 57.113281 43.632812 57.054688 41.675781 56.859375 39.617188 C 57.855469 42.277344 58.722656 44.914062 59.457031 47.597656 L 59.386719 47.617188 L 59.476562 47.679688 C 60.730469 52.285156 61.589844 57.039062 62.050781 62.304688 C 62.292969 65.09375 62.425781 68.027344 62.445312 71.164062 C 62.453125 72.914062 62.34375 75.203125 62.277344 77.109375 Z M 81.597656 52.507812 C 81.566406 52.8125 81.523438 53.117188 81.460938 53.425781 Z M 61.867188 38.921875 C 61.050781 38.636719 60.261719 38.320312 59.5 37.976562 C 59.316406 37.894531 59.136719 37.8125 58.957031 37.726562 L 59.4375 37.902344 C 60.285156 38.21875 61.09375 38.558594 61.867188 38.921875 Z M 58.945312 33.800781 L 58.613281 35.117188 C 58.703125 34.664062 58.8125 34.226562 58.945312 33.800781 Z M 52.398438 38.96875 C 52.707031 38.578125 53.015625 38.203125 53.320312 37.851562 L 53.671875 37.449219 L 53.332031 37.863281 C 53.023438 38.234375 52.714844 38.605469 52.398438 38.96875 Z M 66.503906 71.308594 C 66.316406 69.296875 66.125 67.292969 65.898438 65.308594 C 66.695312 65.507812 67.511719 65.507812 68.332031 65.347656 L 68.773438 64.621094 C 71.347656 60.410156 71.238281 60.925781 70.1875 64.75 C 71.015625 64.375 71.839844 63.878906 72.644531 63.300781 C 75.796875 56.015625 75.246094 57.980469 73.652344 62.527344 C 75.199219 60.335938 76.519531 59.28125 77.636719 58.363281 C 72.953125 63.046875 69.871094 68.609375 66.789062 74.410156 Z M 78.410156 54.960938 C 76.9375 55.019531 75.585938 55.230469 74.351562 55.566406 C 74.335938 55.15625 74.300781 54.75 74.253906 54.34375 C 75.660156 54.664062 77.058594 54.878906 78.410156 54.960938 Z M 65.601562 62.867188 C 65.425781 61.5 65.230469 60.136719 65.003906 58.78125 C 64.8125 57.625 64.601562 56.46875 64.367188 55.320312 C 63.972656 53.40625 63.507812 51.503906 62.953125 49.613281 L 63.371094 49.4375 C 63.597656 50.164062 63.8125 50.960938 64.007812 51.847656 L 64.09375 50.464844 C 64.355469 50.605469 64.625 50.746094 64.894531 50.878906 C 64.90625 51.648438 64.917969 52.507812 64.929688 53.464844 C 65.300781 54.074219 65.691406 54.65625 66.097656 55.207031 C 66.523438 55.785156 66.96875 56.324219 67.433594 56.820312 C 68.195312 50.917969 68.328125 50.261719 69.492188 57.964844 C 67.65625 59.417969 66.382812 61.289062 65.664062 63.355469 Z M 64.871094 49.796875 C 64.640625 49.949219 64.386719 50.113281 64.105469 50.289062 L 64.183594 49.113281 C 64.425781 49.015625 64.644531 48.933594 64.847656 48.863281 Z M 62.5 47.054688 L 62.15625 47.101562 C 61.796875 46.050781 61.40625 45.003906 60.980469 43.960938 C 61.460938 44.871094 61.988281 45.851562 62.5 47.054688 Z M 64.769531 46.875 L 64.429688 46.890625 L 64.367188 46.894531 L 64.382812 46.757812 C 64.535156 45.347656 64.667969 45.152344 64.769531 46.875 Z M 80.554688 54.976562 C 79.855469 55.011719 79.140625 55.003906 78.410156 54.960938 C 79.097656 54.933594 79.8125 54.9375 80.554688 54.976562 Z M 80.554688 54.976562 " fill-opacity="1" fill-rule="nonzero"/></g><path fill="#e07634" d="M 44.402344 88.265625 C 36.804688 87.867188 21.527344 75.757812 9.929688 86.308594 C 25.472656 79.097656 29.042969 89.195312 44.402344 88.265625 Z M 44.402344 88.265625 " fill-opacity="1" fill-rule="evenodd"/><path fill="#e07634" d="M 54.410156 86.683594 C 50.863281 86.496094 43.738281 80.847656 38.324219 85.769531 C 45.578125 82.402344 47.242188 87.117188 54.410156 86.683594 Z M 54.410156 86.683594 " fill-opacity="1" fill-rule="evenodd"/><path fill="#e07634" d="M 24.40625 81.574219 C 34.332031 76.972656 36.613281 83.417969 46.417969 82.828125 C 41.566406 82.570312 31.8125 74.84375 24.40625 81.574219 Z M 24.40625 81.574219 " fill-opacity="1" fill-rule="evenodd"/><g clip-path="url(#7a6d6fb1f3)"><path fill="#5cbbff" d="M 38.285156 28.683594 C 38.515625 28.894531 38.75 29.125 38.976562 29.371094 C 39.03125 29.355469 39.085938 29.335938 39.140625 29.320312 C 40.339844 28.941406 41.582031 28.695312 42.835938 28.597656 C 42.804688 28.558594 42.773438 28.519531 42.746094 28.476562 C 42.820312 28.515625 42.898438 28.550781 42.976562 28.589844 C 43.007812 28.585938 43.039062 28.585938 43.070312 28.582031 C 43.261719 28.570312 43.453125 28.5625 43.640625 28.558594 C 47.28125 28.46875 50.628906 29.691406 53.304688 31.972656 C 52.609375 30.507812 52.105469 28.960938 51.828125 27.351562 C 51.8125 27.257812 51.796875 27.160156 51.78125 27.0625 C 49.839844 26.003906 47.785156 25.132812 45.640625 24.464844 C 43.003906 23.644531 40.226562 23.136719 37.359375 22.984375 L 37.359375 22.941406 L 37.191406 22.945312 L 37.191406 22.933594 L 35.941406 22.933594 L 35.496094 22.929688 L 34.976562 22.933594 L 33.726562 22.933594 L 33.726562 22.980469 C 29.664062 23.179688 25.78125 24.105469 22.214844 25.617188 C 16.089844 28.203125 10.882812 32.527344 7.207031 37.976562 C 5.367188 40.695312 3.90625 43.699219 2.910156 46.90625 C 1.910156 50.113281 1.375 53.523438 1.375 57.054688 C 1.375 61.761719 2.332031 66.25 4.054688 70.335938 C 5.890625 74.671875 8.59375 78.546875 11.945312 81.746094 C 12.890625 80.96875 13.832031 80.269531 14.777344 79.644531 C 13.136719 78.140625 11.660156 76.460938 10.378906 74.632812 L 13.292969 74.632812 C 14.066406 76.148438 14.933594 77.589844 15.890625 78.945312 C 16.925781 78.324219 17.960938 77.789062 18.996094 77.328125 C 18.371094 76.472656 17.78125 75.574219 17.238281 74.632812 L 23.585938 74.632812 C 23.691406 75 23.800781 75.359375 23.910156 75.714844 C 25.066406 75.457031 26.222656 75.285156 27.378906 75.183594 L 27.203125 74.632812 L 33.726562 74.632812 L 33.726562 75.28125 C 34.878906 75.40625 36.035156 75.585938 37.191406 75.808594 L 37.191406 74.632812 L 44.363281 74.632812 C 44.136719 75.347656 43.902344 76.039062 43.652344 76.710938 C 43.570312 76.933594 43.484375 77.152344 43.398438 77.367188 C 44.5 77.695312 45.601562 78.050781 46.707031 78.417969 C 47.171875 77.21875 47.597656 75.957031 47.980469 74.632812 L 54.332031 74.632812 C 53.761719 75.613281 53.144531 76.550781 52.488281 77.4375 C 53.910156 77.15625 55.347656 76.953125 56.792969 76.832031 L 57.066406 76.808594 C 57.488281 76.101562 57.890625 75.378906 58.269531 74.632812 L 60.609375 74.632812 C 60.113281 75.347656 59.582031 76.039062 59.027344 76.703125 C 60.015625 76.675781 61.003906 76.683594 61.992188 76.730469 C 62.050781 74.875 62.082031 73.023438 62.070312 71.167969 L 59.816406 71.167969 C 60.695312 68.875 61.367188 66.449219 61.804688 63.921875 C 61.765625 63.394531 61.726562 62.867188 61.679688 62.339844 C 61.25 57.449219 60.433594 52.652344 59.152344 47.914062 L 58.480469 47.449219 L 58.992188 47.332031 C 58.519531 45.621094 57.984375 43.925781 57.40625 42.246094 C 57.449219 43.328125 57.457031 44.414062 57.421875 45.496094 C 57.410156 45.828125 57.394531 46.164062 57.375 46.5 C 58.21875 49.269531 58.742188 52.234375 58.882812 55.324219 L 55.789062 55.324219 C 55.777344 55.359375 55.765625 55.398438 55.753906 55.4375 C 55.65625 55.730469 55.554688 56.019531 55.449219 56.3125 L 55.25 56.859375 L 54.839844 56.445312 C 54.550781 56.15625 54.257812 55.871094 53.957031 55.59375 C 53.898438 55.542969 53.789062 55.441406 53.65625 55.320312 L 53.171875 55.320312 C 53.585938 56.214844 54.117188 57.117188 54.621094 57.957031 L 54.71875 58.125 L 54.636719 58.300781 C 54.566406 58.460938 54.488281 58.625 54.410156 58.785156 L 58.882812 58.785156 C 58.714844 62.378906 58.039062 65.804688 56.933594 68.957031 C 56.667969 69.710938 56.382812 70.449219 56.074219 71.167969 L 48.851562 71.167969 C 49.34375 68.925781 49.714844 66.554688 49.960938 64.085938 C 49.878906 63.980469 49.796875 63.875 49.71875 63.769531 C 48.519531 62.183594 47.570312 60.433594 46.96875 58.535156 L 46.90625 58.335938 L 47.042969 58.179688 C 47.679688 57.453125 48.320312 56.71875 48.917969 55.960938 C 49.238281 55.554688 49.722656 54.941406 49.921875 54.46875 L 49.933594 54.4375 C 49.25 54.554688 47.257812 55.691406 46.890625 55.902344 L 46.398438 56.1875 L 46.304688 55.359375 C 46.304688 55.34375 46.304688 55.332031 46.300781 55.320312 L 37.1875 55.320312 L 37.1875 53.164062 C 36.847656 53.398438 36.507812 53.632812 36.164062 53.863281 L 35.398438 54.378906 L 35.59375 53.476562 C 35.703125 52.972656 35.816406 52.460938 35.921875 51.953125 C 35.648438 52.785156 35.382812 53.617188 35.121094 54.453125 L 35.082031 54.578125 L 34.96875 54.652344 C 34.621094 54.875 34.273438 55.097656 33.921875 55.316406 L 33.40625 55.636719 C 32.367188 56.273438 31.3125 56.886719 30.242188 57.472656 L 29.585938 57.832031 L 29.699219 57.089844 C 29.789062 56.5 29.878906 55.90625 29.976562 55.320312 L 24.742188 55.320312 C 24.839844 51.734375 25.210938 48.308594 25.816406 45.160156 C 25.96875 44.367188 26.136719 43.597656 26.3125 42.847656 L 33.726562 42.847656 L 33.726562 44.222656 L 33.757812 44.175781 C 34.980469 42.273438 36.511719 40.667969 38.359375 39.386719 L 37.191406 39.386719 L 37.191406 35.875 C 36.898438 35.898438 36.605469 35.917969 36.316406 35.933594 L 35.5 35.984375 L 36.898438 34.175781 L 37.191406 33.796875 L 37.191406 33.605469 C 36.160156 34.535156 35.304688 35.5625 34.648438 36.800781 L 34.546875 36.988281 L 33.746094 37.023438 C 33.738281 37.023438 33.734375 37.023438 33.726562 37.027344 L 33.726562 39.386719 L 27.269531 39.386719 C 27.46875 38.769531 27.675781 38.167969 27.890625 37.589844 C 28.519531 35.890625 29.230469 34.351562 29.992188 33 C 30.566406 31.988281 31.171875 31.082031 31.796875 30.296875 C 32.421875 29.503906 33.074219 28.832031 33.726562 28.292969 L 33.726562 32.015625 C 34.769531 31.285156 35.875 30.648438 37.035156 30.125 C 37.085938 30.101562 37.136719 30.078125 37.1875 30.054688 L 37.1875 27.796875 C 37.554688 28.058594 37.917969 28.351562 38.28125 28.683594 Z M 37.191406 58.78125 L 46.824219 58.78125 C 46.738281 62.433594 46.355469 65.917969 45.742188 69.121094 C 45.605469 69.8125 45.460938 70.496094 45.304688 71.164062 L 37.191406 71.164062 Z M 33.726562 58.78125 L 33.726562 71.164062 L 26.261719 71.164062 L 26.164062 70.734375 C 25.347656 67.105469 24.847656 63.058594 24.742188 58.78125 Z M 21.277344 58.78125 C 21.367188 62.652344 21.765625 66.347656 22.425781 69.777344 C 22.515625 70.246094 22.609375 70.707031 22.710938 71.164062 L 15.496094 71.164062 C 15.375 70.878906 15.253906 70.59375 15.140625 70.308594 C 13.738281 66.792969 12.871094 62.898438 12.683594 58.78125 Z M 22.757812 42.847656 C 21.90625 46.675781 21.394531 50.882812 21.28125 55.320312 L 12.683594 55.320312 C 12.847656 51.734375 13.523438 48.320312 14.621094 45.175781 C 14.898438 44.382812 15.199219 43.605469 15.53125 42.847656 Z M 9.21875 58.78125 C 9.382812 62.769531 10.128906 66.578125 11.363281 70.101562 C 11.488281 70.460938 11.621094 70.8125 11.753906 71.164062 L 8.277344 71.164062 C 7.449219 69.578125 6.757812 67.910156 6.21875 66.167969 C 5.484375 63.8125 5.03125 61.339844 4.890625 58.78125 Z M 11.789062 42.847656 C 10.304688 46.679688 9.402344 50.890625 9.21875 55.320312 L 4.890625 55.320312 C 5.089844 51.714844 5.910156 48.28125 7.25 45.117188 C 7.574219 44.34375 7.9375 43.585938 8.324219 42.847656 Z M 26.910156 31.421875 C 25.621094 33.722656 24.527344 36.40625 23.652344 39.386719 L 17.285156 39.386719 C 19.03125 36.40625 21.203125 33.828125 23.671875 31.769531 C 25.273438 30.445312 27.003906 29.332031 28.824219 28.476562 C 28.144531 29.371094 27.507812 30.355469 26.910156 31.421875 Z M 19.300781 31.089844 C 16.949219 33.460938 14.9375 36.261719 13.339844 39.386719 L 10.4375 39.386719 C 12.589844 36.347656 15.273438 33.710938 18.355469 31.628906 C 18.730469 31.378906 19.109375 31.136719 19.488281 30.902344 Z M 19.300781 31.089844 " fill-opacity="1" fill-rule="evenodd"/></g><g fill="#6c4646" fill-opacity="1"><g transform="translate(116.473047, 70.10127)"><g><path d="M 43.515625 -9.890625 C 43.898438 -9.890625 44.203125 -9.710938 44.421875 -9.359375 C 44.648438 -9.003906 44.765625 -8.515625 44.765625 -7.890625 C 44.765625 -6.742188 44.484375 -5.828125 43.921875 -5.140625 C 42.492188 -3.429688 41.054688 -2.109375 39.609375 -1.171875 C 38.160156 -0.242188 36.445312 0.21875 34.46875 0.21875 C 32.539062 0.21875 30.90625 -0.296875 29.5625 -1.328125 C 28.21875 -2.367188 26.941406 -4.144531 25.734375 -6.65625 C 24.753906 -8.664062 23.984375 -10.148438 23.421875 -11.109375 C 22.859375 -12.066406 22.300781 -12.753906 21.75 -13.171875 C 21.207031 -13.585938 20.535156 -13.835938 19.734375 -13.921875 C 19.617188 -13.304688 19.28125 -11.359375 18.71875 -8.078125 C 18.476562 -6.597656 18.332031 -5.695312 18.28125 -5.375 C 17.976562 -3.5625 17.382812 -2.175781 16.5 -1.21875 C 15.613281 -0.257812 14.269531 0.21875 12.46875 0.21875 C 10.488281 0.21875 8.734375 -0.363281 7.203125 -1.53125 C 5.679688 -2.695312 4.503906 -4.320312 3.671875 -6.40625 C 2.847656 -8.488281 2.4375 -10.863281 2.4375 -13.53125 C 2.4375 -18.5 3.300781 -22.785156 5.03125 -26.390625 C 6.757812 -30.003906 9.179688 -32.765625 12.296875 -34.671875 C 15.421875 -36.578125 19.023438 -37.53125 23.109375 -37.53125 C 25.953125 -37.53125 28.332031 -37.097656 30.25 -36.234375 C 32.175781 -35.378906 33.601562 -34.195312 34.53125 -32.6875 C 35.46875 -31.1875 35.9375 -29.488281 35.9375 -27.59375 C 35.9375 -25.9375 35.539062 -24.316406 34.75 -22.734375 C 33.96875 -21.148438 32.789062 -19.75 31.21875 -18.53125 C 29.65625 -17.320312 27.75 -16.425781 25.5 -15.84375 C 26.925781 -15.457031 28.019531 -14.832031 28.78125 -13.96875 C 29.550781 -13.113281 30.320312 -11.859375 31.09375 -10.203125 C 31.925781 -8.429688 32.75 -7.128906 33.5625 -6.296875 C 34.375 -5.472656 35.3125 -5.0625 36.375 -5.0625 C 37.320312 -5.0625 38.222656 -5.378906 39.078125 -6.015625 C 39.929688 -6.648438 41.007812 -7.734375 42.3125 -9.265625 C 42.664062 -9.679688 43.066406 -9.890625 43.515625 -9.890625 Z M 13.625 -13.96875 C 12.613281 -13.96875 11.921875 -14.203125 11.546875 -14.671875 C 11.179688 -15.148438 11 -15.6875 11 -16.28125 C 11 -16.988281 11.226562 -17.550781 11.6875 -17.96875 C 12.144531 -18.382812 12.671875 -18.59375 13.265625 -18.59375 L 14.375 -18.59375 C 14.84375 -21.488281 15.285156 -23.984375 15.703125 -26.078125 C 16.085938 -28.003906 17.328125 -28.96875 19.421875 -28.96875 C 21.109375 -28.96875 21.953125 -28.210938 21.953125 -26.703125 C 21.953125 -26.378906 21.9375 -26.128906 21.90625 -25.953125 L 20.578125 -18.59375 C 22.179688 -18.675781 23.640625 -19.054688 24.953125 -19.734375 C 26.265625 -20.421875 27.3125 -21.367188 28.09375 -22.578125 C 28.882812 -23.785156 29.28125 -25.160156 29.28125 -26.703125 C 29.28125 -28.566406 28.644531 -30.03125 27.375 -31.09375 C 26.101562 -32.15625 24.238281 -32.6875 21.78125 -32.6875 C 18.882812 -32.6875 16.347656 -31.96875 14.171875 -30.53125 C 11.992188 -29.101562 10.300781 -26.976562 9.09375 -24.15625 C 7.882812 -21.332031 7.28125 -17.894531 7.28125 -13.84375 C 7.28125 -11.945312 7.46875 -10.316406 7.84375 -8.953125 C 8.226562 -7.597656 8.703125 -6.578125 9.265625 -5.890625 C 9.828125 -5.210938 10.363281 -4.875 10.875 -4.875 C 11.25 -4.875 11.5625 -5.066406 11.8125 -5.453125 C 12.070312 -5.835938 12.273438 -6.457031 12.421875 -7.3125 Z M 13.625 -13.96875 "/></g></g></g><g fill="#6c4646" fill-opacity="1"><g transform="translate(155.494314, 70.10127)"><g><path d="M 21.90625 -9.890625 C 22.289062 -9.890625 22.59375 -9.710938 22.8125 -9.359375 C 23.039062 -9.003906 23.15625 -8.515625 23.15625 -7.890625 C 23.15625 -6.710938 22.875 -5.796875 22.3125 -5.140625 C 21.21875 -3.816406 19.671875 -2.59375 17.671875 -1.46875 C 15.679688 -0.34375 13.546875 0.21875 11.265625 0.21875 C 8.160156 0.21875 5.75 -0.617188 4.03125 -2.296875 C 2.320312 -3.984375 1.46875 -6.296875 1.46875 -9.234375 C 1.46875 -11.265625 1.894531 -13.160156 2.75 -14.921875 C 3.601562 -16.679688 4.789062 -18.078125 6.3125 -19.109375 C 7.84375 -20.148438 9.566406 -20.671875 11.484375 -20.671875 C 13.203125 -20.671875 14.578125 -20.160156 15.609375 -19.140625 C 16.648438 -18.117188 17.171875 -16.738281 17.171875 -15 C 17.171875 -12.957031 16.4375 -11.203125 14.96875 -9.734375 C 13.507812 -8.273438 11.035156 -7.113281 7.546875 -6.25 C 8.285156 -4.894531 9.6875 -4.21875 11.75 -4.21875 C 13.082031 -4.21875 14.597656 -4.679688 16.296875 -5.609375 C 18.003906 -6.546875 19.476562 -7.765625 20.71875 -9.265625 C 21.070312 -9.679688 21.46875 -9.890625 21.90625 -9.890625 Z M 10.734375 -16.328125 C 9.640625 -16.328125 8.710938 -15.691406 7.953125 -14.421875 C 7.203125 -13.148438 6.828125 -11.609375 6.828125 -9.796875 L 6.828125 -9.71875 C 8.578125 -10.125 9.953125 -10.738281 10.953125 -11.5625 C 11.960938 -12.394531 12.46875 -13.363281 12.46875 -14.46875 C 12.46875 -15.019531 12.3125 -15.46875 12 -15.8125 C 11.6875 -16.15625 11.265625 -16.328125 10.734375 -16.328125 Z M 10.734375 -16.328125 "/></g></g></g><g fill="#6c4646" fill-opacity="1"><g transform="translate(172.920851, 70.10127)"><g><path d="M 10.375 1.203125 C 8.84375 1.203125 7.671875 0.84375 6.859375 0.125 C 6.046875 -0.582031 5.640625 -1.378906 5.640625 -2.265625 C 5.640625 -3.035156 5.914062 -3.695312 6.46875 -4.25 C 7.03125 -4.8125 7.859375 -5.09375 8.953125 -5.09375 C 9.335938 -5.09375 9.789062 -5.054688 10.3125 -4.984375 C 10.832031 -4.910156 11.222656 -4.859375 11.484375 -4.828125 C 11.453125 -5.597656 11.28125 -6.320312 10.96875 -7 C 10.664062 -7.6875 10.273438 -8.347656 9.796875 -8.984375 C 9.328125 -9.617188 8.882812 -10.171875 8.46875 -10.640625 C 7.550781 -8.898438 6.640625 -7.453125 5.734375 -6.296875 C 4.835938 -5.140625 3.859375 -4.046875 2.796875 -3.015625 C 2.265625 -2.484375 1.703125 -2.21875 1.109375 -2.21875 C 0.640625 -2.21875 0.257812 -2.382812 -0.03125 -2.71875 C -0.332031 -3.0625 -0.484375 -3.488281 -0.484375 -4 C -0.484375 -4.582031 -0.273438 -5.128906 0.140625 -5.640625 L 0.703125 -6.34375 C 2.335938 -8.351562 3.566406 -10.007812 4.390625 -11.3125 C 4.890625 -12.164062 5.476562 -13.3125 6.15625 -14.75 C 6.84375 -16.1875 7.507812 -17.671875 8.15625 -19.203125 C 8.71875 -20.503906 9.890625 -21.15625 11.671875 -21.15625 C 12.492188 -21.15625 13.066406 -21.082031 13.390625 -20.9375 C 13.722656 -20.789062 13.890625 -20.554688 13.890625 -20.234375 C 13.890625 -20.054688 13.828125 -19.773438 13.703125 -19.390625 C 13.585938 -19.003906 13.425781 -18.617188 13.21875 -18.234375 C 12.6875 -17.171875 12.421875 -16.269531 12.421875 -15.53125 C 12.421875 -15.082031 12.578125 -14.59375 12.890625 -14.0625 C 13.203125 -13.53125 13.679688 -12.863281 14.328125 -12.0625 C 15.273438 -10.820312 15.992188 -9.765625 16.484375 -8.890625 C 16.972656 -8.015625 17.21875 -7.0625 17.21875 -6.03125 C 17.21875 -5.738281 17.1875 -5.328125 17.125 -4.796875 C 18.570312 -5.359375 20.269531 -6.847656 22.21875 -9.265625 C 22.570312 -9.679688 22.972656 -9.890625 23.421875 -9.890625 C 23.804688 -9.890625 24.109375 -9.710938 24.328125 -9.359375 C 24.546875 -9.003906 24.65625 -8.515625 24.65625 -7.890625 C 24.65625 -6.765625 24.378906 -5.847656 23.828125 -5.140625 C 22.347656 -3.304688 20.929688 -2.054688 19.578125 -1.390625 C 18.234375 -0.734375 16.570312 -0.375 14.59375 -0.3125 C 13.40625 0.695312 12 1.203125 10.375 1.203125 Z M 10.375 1.203125 "/></g></g></g><g fill="#6c4646" fill-opacity="1"><g transform="translate(191.855033, 70.10127)"><g><path d="M 21.90625 -9.890625 C 22.289062 -9.890625 22.59375 -9.710938 22.8125 -9.359375 C 23.039062 -9.003906 23.15625 -8.515625 23.15625 -7.890625 C 23.15625 -6.710938 22.875 -5.796875 22.3125 -5.140625 C 21.039062 -3.578125 19.648438 -2.289062 18.140625 -1.28125 C 16.628906 -0.28125 14.898438 0.21875 12.953125 0.21875 C 6.921875 0.21875 3.90625 -4.023438 3.90625 -12.515625 C 3.90625 -13.816406 3.945312 -15.128906 4.03125 -16.453125 L 2.3125 -16.453125 C 1.414062 -16.453125 0.8125 -16.613281 0.5 -16.9375 C 0.195312 -17.269531 0.046875 -17.789062 0.046875 -18.5 C 0.046875 -20.15625 0.710938 -20.984375 2.046875 -20.984375 L 4.5625 -20.984375 C 5.070312 -24.234375 5.84375 -27.203125 6.875 -29.890625 C 7.90625 -32.585938 9.148438 -34.734375 10.609375 -36.328125 C 12.078125 -37.921875 13.65625 -38.71875 15.34375 -38.71875 C 16.59375 -38.71875 17.570312 -38.171875 18.28125 -37.078125 C 18.988281 -35.984375 19.34375 -34.609375 19.34375 -32.953125 C 19.34375 -28.367188 17.421875 -24.378906 13.578125 -20.984375 L 18.546875 -20.984375 C 19.015625 -20.984375 19.351562 -20.878906 19.5625 -20.671875 C 19.769531 -20.460938 19.875 -20.078125 19.875 -19.515625 C 19.875 -17.472656 18.203125 -16.453125 14.859375 -16.453125 L 9.453125 -16.453125 C 9.390625 -14.972656 9.359375 -13.820312 9.359375 -13 C 9.359375 -9.925781 9.71875 -7.765625 10.4375 -6.515625 C 11.164062 -5.273438 12.316406 -4.65625 13.890625 -4.65625 C 15.160156 -4.65625 16.28125 -5.039062 17.25 -5.8125 C 18.226562 -6.582031 19.382812 -7.734375 20.71875 -9.265625 C 21.070312 -9.679688 21.46875 -9.890625 21.90625 -9.890625 Z M 14.15625 -34.46875 C 13.707031 -34.46875 13.207031 -33.910156 12.65625 -32.796875 C 12.113281 -31.691406 11.597656 -30.15625 11.109375 -28.1875 C 10.617188 -26.21875 10.210938 -24.035156 9.890625 -21.640625 C 11.640625 -23.148438 12.945312 -24.84375 13.8125 -26.71875 C 14.6875 -28.601562 15.125 -30.3125 15.125 -31.84375 C 15.125 -33.59375 14.800781 -34.46875 14.15625 -34.46875 Z M 14.15625 -34.46875 "/></g></g></g><g fill="#6c4646" fill-opacity="1"><g transform="translate(209.28157, 70.10127)"><g><path d="M 20.09375 0.21875 C 16.570312 0.21875 13.507812 -0.421875 10.90625 -1.703125 C 8.3125 -2.992188 6.316406 -4.820312 4.921875 -7.1875 C 3.535156 -9.550781 2.84375 -12.300781 2.84375 -15.4375 C 2.84375 -19.78125 3.660156 -23.640625 5.296875 -27.015625 C 6.941406 -30.390625 9.164062 -33 11.96875 -34.84375 C 14.78125 -36.6875 17.90625 -37.609375 21.34375 -37.609375 C 24.53125 -37.609375 26.953125 -36.785156 28.609375 -35.140625 C 30.265625 -33.503906 31.09375 -31.34375 31.09375 -28.65625 C 31.09375 -26.851562 30.773438 -25.40625 30.140625 -24.3125 C 29.503906 -23.21875 28.597656 -22.671875 27.421875 -22.671875 C 26.585938 -22.671875 25.929688 -22.863281 25.453125 -23.25 C 24.984375 -23.632812 24.75 -24.195312 24.75 -24.9375 C 24.75 -25.195312 24.8125 -25.679688 24.9375 -26.390625 C 25.113281 -27.273438 25.203125 -27.984375 25.203125 -28.515625 C 25.203125 -31.210938 23.765625 -32.5625 20.890625 -32.5625 C 18.941406 -32.5625 17.078125 -31.925781 15.296875 -30.65625 C 13.523438 -29.382812 12.09375 -27.515625 11 -25.046875 C 9.90625 -22.578125 9.359375 -19.640625 9.359375 -16.234375 C 9.359375 -12.679688 10.347656 -9.9375 12.328125 -8 C 14.304688 -6.0625 17.234375 -5.09375 21.109375 -5.09375 C 23.035156 -5.09375 24.976562 -5.335938 26.9375 -5.828125 C 28.90625 -6.316406 31.085938 -7.066406 33.484375 -8.078125 C 33.929688 -8.253906 34.300781 -8.34375 34.59375 -8.34375 C 35.070312 -8.34375 35.425781 -8.164062 35.65625 -7.8125 C 35.894531 -7.457031 36.015625 -7 36.015625 -6.4375 C 36.015625 -4.625 35.039062 -3.289062 33.09375 -2.4375 C 30.988281 -1.519531 28.804688 -0.847656 26.546875 -0.421875 C 24.285156 0.00390625 22.132812 0.21875 20.09375 0.21875 Z M 20.09375 0.21875 "/></g></g></g><g fill="#6c4646" fill-opacity="1"><g transform="translate(239.700424, 70.10127)"><g><path d="M 24.75 -13.625 C 25.132812 -13.625 25.429688 -13.429688 25.640625 -13.046875 C 25.847656 -12.660156 25.953125 -12.171875 25.953125 -11.578125 C 25.953125 -10.160156 25.519531 -9.316406 24.65625 -9.046875 C 22.882812 -8.429688 20.9375 -8.078125 18.8125 -7.984375 C 18.25 -5.503906 17.140625 -3.515625 15.484375 -2.015625 C 13.828125 -0.523438 11.945312 0.21875 9.84375 0.21875 C 8.070312 0.21875 6.554688 -0.207031 5.296875 -1.0625 C 4.046875 -1.914062 3.09375 -3.050781 2.4375 -4.46875 C 1.789062 -5.894531 1.46875 -7.4375 1.46875 -9.09375 C 1.46875 -11.34375 1.894531 -13.347656 2.75 -15.109375 C 3.601562 -16.867188 4.785156 -18.242188 6.296875 -19.234375 C 7.804688 -20.222656 9.476562 -20.71875 11.3125 -20.71875 C 13.5625 -20.71875 15.375 -19.941406 16.75 -18.390625 C 18.125 -16.835938 18.925781 -14.921875 19.15625 -12.640625 C 20.550781 -12.734375 22.207031 -13.03125 24.125 -13.53125 C 24.363281 -13.59375 24.570312 -13.625 24.75 -13.625 Z M 10.203125 -4.484375 C 11.148438 -4.484375 11.96875 -4.863281 12.65625 -5.625 C 13.351562 -6.394531 13.820312 -7.503906 14.0625 -8.953125 C 13.144531 -9.578125 12.441406 -10.390625 11.953125 -11.390625 C 11.460938 -12.398438 11.21875 -13.46875 11.21875 -14.59375 C 11.21875 -15.0625 11.265625 -15.535156 11.359375 -16.015625 L 11.140625 -16.015625 C 9.953125 -16.015625 8.96875 -15.441406 8.1875 -14.296875 C 7.40625 -13.160156 7.015625 -11.5625 7.015625 -9.5 C 7.015625 -7.863281 7.332031 -6.617188 7.96875 -5.765625 C 8.601562 -4.910156 9.347656 -4.484375 10.203125 -4.484375 Z M 10.203125 -4.484375 "/></g></g></g><g fill="#6c4646" fill-opacity="1"><g transform="translate(259.698828, 70.10127)"><g><path d="M 5.28125 0.21875 C 4.15625 0.21875 3.363281 -0.367188 2.90625 -1.546875 C 2.445312 -2.734375 2.21875 -4.628906 2.21875 -7.234375 C 2.21875 -11.078125 2.765625 -14.726562 3.859375 -18.1875 C 4.128906 -19.039062 4.566406 -19.664062 5.171875 -20.0625 C 5.773438 -20.46875 6.625 -20.671875 7.71875 -20.671875 C 8.3125 -20.671875 8.722656 -20.597656 8.953125 -20.453125 C 9.191406 -20.304688 9.3125 -20.023438 9.3125 -19.609375 C 9.3125 -19.128906 9.09375 -18.0625 8.65625 -16.40625 C 8.351562 -15.226562 8.113281 -14.195312 7.9375 -13.3125 C 7.757812 -12.425781 7.613281 -11.332031 7.5 -10.03125 C 8.46875 -12.570312 9.554688 -14.640625 10.765625 -16.234375 C 11.984375 -17.828125 13.175781 -18.960938 14.34375 -19.640625 C 15.519531 -20.328125 16.59375 -20.671875 17.5625 -20.671875 C 19.488281 -20.671875 20.453125 -19.707031 20.453125 -17.78125 C 20.453125 -16.632812 20.125 -14.550781 19.46875 -11.53125 C 18.90625 -8.957031 18.625 -7.257812 18.625 -6.4375 C 18.625 -5.25 19.054688 -4.65625 19.921875 -4.65625 C 20.503906 -4.65625 21.203125 -5.015625 22.015625 -5.734375 C 22.835938 -6.460938 23.925781 -7.640625 25.28125 -9.265625 C 25.632812 -9.679688 26.035156 -9.890625 26.484375 -9.890625 C 26.867188 -9.890625 27.171875 -9.710938 27.390625 -9.359375 C 27.609375 -9.003906 27.71875 -8.515625 27.71875 -7.890625 C 27.71875 -6.710938 27.4375 -5.796875 26.875 -5.140625 C 25.601562 -3.578125 24.234375 -2.289062 22.765625 -1.28125 C 21.304688 -0.28125 19.644531 0.21875 17.78125 0.21875 C 16.28125 0.21875 15.144531 -0.210938 14.375 -1.078125 C 13.601562 -1.953125 13.21875 -3.21875 13.21875 -4.875 C 13.21875 -5.707031 13.425781 -7.1875 13.84375 -9.3125 C 14.226562 -11.175781 14.421875 -12.460938 14.421875 -13.171875 C 14.421875 -13.648438 14.253906 -13.890625 13.921875 -13.890625 C 13.546875 -13.890625 13.007812 -13.390625 12.3125 -12.390625 C 11.613281 -11.398438 10.898438 -10.09375 10.171875 -8.46875 C 9.453125 -6.84375 8.867188 -5.128906 8.421875 -3.328125 C 8.097656 -1.929688 7.722656 -0.988281 7.296875 -0.5 C 6.867188 -0.0195312 6.195312 0.21875 5.28125 0.21875 Z M 5.28125 0.21875 "/></g></g></g><g fill="#6c4646" fill-opacity="1"><g transform="translate(281.692632, 70.10127)"><g><path d="M 5.28125 0.21875 C 4.15625 0.21875 3.363281 -0.367188 2.90625 -1.546875 C 2.445312 -2.734375 2.21875 -4.628906 2.21875 -7.234375 C 2.21875 -11.078125 2.765625 -14.726562 3.859375 -18.1875 C 4.128906 -19.039062 4.566406 -19.664062 5.171875 -20.0625 C 5.773438 -20.46875 6.625 -20.671875 7.71875 -20.671875 C 8.3125 -20.671875 8.722656 -20.597656 8.953125 -20.453125 C 9.191406 -20.304688 9.3125 -20.023438 9.3125 -19.609375 C 9.3125 -19.128906 9.09375 -18.0625 8.65625 -16.40625 C 8.351562 -15.226562 8.113281 -14.195312 7.9375 -13.3125 C 7.757812 -12.425781 7.613281 -11.332031 7.5 -10.03125 C 8.46875 -12.570312 9.554688 -14.640625 10.765625 -16.234375 C 11.984375 -17.828125 13.175781 -18.960938 14.34375 -19.640625 C 15.519531 -20.328125 16.59375 -20.671875 17.5625 -20.671875 C 19.488281 -20.671875 20.453125 -19.707031 20.453125 -17.78125 C 20.453125 -16.632812 20.125 -14.550781 19.46875 -11.53125 C 18.90625 -8.957031 18.625 -7.257812 18.625 -6.4375 C 18.625 -5.25 19.054688 -4.65625 19.921875 -4.65625 C 20.503906 -4.65625 21.203125 -5.015625 22.015625 -5.734375 C 22.835938 -6.460938 23.925781 -7.640625 25.28125 -9.265625 C 25.632812 -9.679688 26.035156 -9.890625 26.484375 -9.890625 C 26.867188 -9.890625 27.171875 -9.710938 27.390625 -9.359375 C 27.609375 -9.003906 27.71875 -8.515625 27.71875 -7.890625 C 27.71875 -6.710938 27.4375 -5.796875 26.875 -5.140625 C 25.601562 -3.578125 24.234375 -2.289062 22.765625 -1.28125 C 21.304688 -0.28125 19.644531 0.21875 17.78125 0.21875 C 16.28125 0.21875 15.144531 -0.210938 14.375 -1.078125 C 13.601562 -1.953125 13.21875 -3.21875 13.21875 -4.875 C 13.21875 -5.707031 13.425781 -7.1875 13.84375 -9.3125 C 14.226562 -11.175781 14.421875 -12.460938 14.421875 -13.171875 C 14.421875 -13.648438 14.253906 -13.890625 13.921875 -13.890625 C 13.546875 -13.890625 13.007812 -13.390625 12.3125 -12.390625 C 11.613281 -11.398438 10.898438 -10.09375 10.171875 -8.46875 C 9.453125 -6.84375 8.867188 -5.128906 8.421875 -3.328125 C 8.097656 -1.929688 7.722656 -0.988281 7.296875 -0.5 C 6.867188 -0.0195312 6.195312 0.21875 5.28125 0.21875 Z M 5.28125 0.21875 "/></g></g></g><g fill="#6c4646" fill-opacity="1"><g transform="translate(303.686436, 70.10127)"><g><path d="M 21.90625 -9.890625 C 22.289062 -9.890625 22.59375 -9.710938 22.8125 -9.359375 C 23.039062 -9.003906 23.15625 -8.515625 23.15625 -7.890625 C 23.15625 -6.710938 22.875 -5.796875 22.3125 -5.140625 C 21.21875 -3.816406 19.671875 -2.59375 17.671875 -1.46875 C 15.679688 -0.34375 13.546875 0.21875 11.265625 0.21875 C 8.160156 0.21875 5.75 -0.617188 4.03125 -2.296875 C 2.320312 -3.984375 1.46875 -6.296875 1.46875 -9.234375 C 1.46875 -11.265625 1.894531 -13.160156 2.75 -14.921875 C 3.601562 -16.679688 4.789062 -18.078125 6.3125 -19.109375 C 7.84375 -20.148438 9.566406 -20.671875 11.484375 -20.671875 C 13.203125 -20.671875 14.578125 -20.160156 15.609375 -19.140625 C 16.648438 -18.117188 17.171875 -16.738281 17.171875 -15 C 17.171875 -12.957031 16.4375 -11.203125 14.96875 -9.734375 C 13.507812 -8.273438 11.035156 -7.113281 7.546875 -6.25 C 8.285156 -4.894531 9.6875 -4.21875 11.75 -4.21875 C 13.082031 -4.21875 14.597656 -4.679688 16.296875 -5.609375 C 18.003906 -6.546875 19.476562 -7.765625 20.71875 -9.265625 C 21.070312 -9.679688 21.46875 -9.890625 21.90625 -9.890625 Z M 10.734375 -16.328125 C 9.640625 -16.328125 8.710938 -15.691406 7.953125 -14.421875 C 7.203125 -13.148438 6.828125 -11.609375 6.828125 -9.796875 L 6.828125 -9.71875 C 8.578125 -10.125 9.953125 -10.738281 10.953125 -11.5625 C 11.960938 -12.394531 12.46875 -13.363281 12.46875 -14.46875 C 12.46875 -15.019531 12.3125 -15.46875 12 -15.8125 C 11.6875 -16.15625 11.265625 -16.328125 10.734375 -16.328125 Z M 10.734375 -16.328125 "/></g></g></g><g fill="#6c4646" fill-opacity="1"><g transform="translate(321.112973, 70.10127)"><g><path d="M 10.609375 0.21875 C 7.703125 0.21875 5.441406 -0.597656 3.828125 -2.234375 C 2.222656 -3.878906 1.421875 -6.046875 1.421875 -8.734375 C 1.421875 -11.128906 1.894531 -13.226562 2.84375 -15.03125 C 3.789062 -16.84375 5.015625 -18.234375 6.515625 -19.203125 C 8.023438 -20.179688 9.609375 -20.671875 11.265625 -20.671875 C 12.890625 -20.671875 14.148438 -20.1875 15.046875 -19.21875 C 15.953125 -18.257812 16.40625 -17.03125 16.40625 -15.53125 C 16.40625 -14.28125 16.128906 -13.226562 15.578125 -12.375 C 15.035156 -11.519531 14.320312 -11.09375 13.4375 -11.09375 C 12.875 -11.09375 12.421875 -11.222656 12.078125 -11.484375 C 11.742188 -11.753906 11.578125 -12.125 11.578125 -12.59375 C 11.578125 -12.800781 11.601562 -13.035156 11.65625 -13.296875 C 11.71875 -13.566406 11.765625 -13.765625 11.796875 -13.890625 C 11.941406 -14.328125 12.015625 -14.738281 12.015625 -15.125 C 12.015625 -15.507812 11.914062 -15.804688 11.71875 -16.015625 C 11.53125 -16.222656 11.257812 -16.328125 10.90625 -16.328125 C 10.226562 -16.328125 9.59375 -16.019531 9 -15.40625 C 8.414062 -14.800781 7.941406 -13.984375 7.578125 -12.953125 C 7.222656 -11.921875 7.046875 -10.78125 7.046875 -9.53125 C 7.046875 -6.101562 8.539062 -4.390625 11.53125 -4.390625 C 12.75 -4.390625 14.054688 -4.796875 15.453125 -5.609375 C 16.859375 -6.421875 18.242188 -7.640625 19.609375 -9.265625 C 19.960938 -9.679688 20.359375 -9.890625 20.796875 -9.890625 C 21.179688 -9.890625 21.484375 -9.710938 21.703125 -9.359375 C 21.929688 -9.003906 22.046875 -8.515625 22.046875 -7.890625 C 22.046875 -6.765625 21.765625 -5.847656 21.203125 -5.140625 C 19.816406 -3.429688 18.15625 -2.109375 16.21875 -1.171875 C 14.28125 -0.242188 12.410156 0.21875 10.609375 0.21875 Z M 10.609375 0.21875 "/></g></g></g><g fill="#6c4646" fill-opacity="1"><g transform="translate(337.430955, 70.10127)"><g><path d="M 21.90625 -9.890625 C 22.289062 -9.890625 22.59375 -9.710938 22.8125 -9.359375 C 23.039062 -9.003906 23.15625 -8.515625 23.15625 -7.890625 C 23.15625 -6.710938 22.875 -5.796875 22.3125 -5.140625 C 21.039062 -3.578125 19.648438 -2.289062 18.140625 -1.28125 C 16.628906 -0.28125 14.898438 0.21875 12.953125 0.21875 C 6.921875 0.21875 3.90625 -4.023438 3.90625 -12.515625 C 3.90625 -13.816406 3.945312 -15.128906 4.03125 -16.453125 L 2.3125 -16.453125 C 1.414062 -16.453125 0.8125 -16.613281 0.5 -16.9375 C 0.195312 -17.269531 0.046875 -17.789062 0.046875 -18.5 C 0.046875 -20.15625 0.710938 -20.984375 2.046875 -20.984375 L 4.5625 -20.984375 C 5.070312 -24.234375 5.84375 -27.203125 6.875 -29.890625 C 7.90625 -32.585938 9.148438 -34.734375 10.609375 -36.328125 C 12.078125 -37.921875 13.65625 -38.71875 15.34375 -38.71875 C 16.59375 -38.71875 17.570312 -38.171875 18.28125 -37.078125 C 18.988281 -35.984375 19.34375 -34.609375 19.34375 -32.953125 C 19.34375 -28.367188 17.421875 -24.378906 13.578125 -20.984375 L 18.546875 -20.984375 C 19.015625 -20.984375 19.351562 -20.878906 19.5625 -20.671875 C 19.769531 -20.460938 19.875 -20.078125 19.875 -19.515625 C 19.875 -17.472656 18.203125 -16.453125 14.859375 -16.453125 L 9.453125 -16.453125 C 9.390625 -14.972656 9.359375 -13.820312 9.359375 -13 C 9.359375 -9.925781 9.71875 -7.765625 10.4375 -6.515625 C 11.164062 -5.273438 12.316406 -4.65625 13.890625 -4.65625 C 15.160156 -4.65625 16.28125 -5.039062 17.25 -5.8125 C 18.226562 -6.582031 19.382812 -7.734375 20.71875 -9.265625 C 21.070312 -9.679688 21.46875 -9.890625 21.90625 -9.890625 Z M 14.15625 -34.46875 C 13.707031 -34.46875 13.207031 -33.910156 12.65625 -32.796875 C 12.113281 -31.691406 11.597656 -30.15625 11.109375 -28.1875 C 10.617188 -26.21875 10.210938 -24.035156 9.890625 -21.640625 C 11.640625 -23.148438 12.945312 -24.84375 13.8125 -26.71875 C 14.6875 -28.601562 15.125 -30.3125 15.125 -31.84375 C 15.125 -33.59375 14.800781 -34.46875 14.15625 -34.46875 Z M 14.15625 -34.46875 "/></g></g></g></svg>