<svg xmlns="http://www.w3.org/2000/svg" xmlns:xlink="http://www.w3.org/1999/xlink" width="500" zoomAndPan="magnify" viewBox="0 0 375 374.999991" height="500" preserveAspectRatio="xMidYMid meet" version="1.0"><defs><g/><clipPath id="cc8646af46"><path d="M 25 195 L 113 195 L 113 209.730469 L 25 209.730469 Z M 25 195 " clip-rule="nonzero"/></clipPath><clipPath id="28a650c66b"><path d="M 46 129.480469 L 122.738281 129.480469 L 122.738281 208 L 46 208 Z M 46 129.480469 " clip-rule="nonzero"/></clipPath><clipPath id="cb80e6fde9"><path d="M 26 202 L 64 202 L 64 209.730469 L 26 209.730469 Z M 26 202 " clip-rule="nonzero"/></clipPath><clipPath id="08288e6f42"><path d="M 16.988281 139 L 83 139 L 83 203 L 16.988281 203 Z M 16.988281 139 " clip-rule="nonzero"/></clipPath></defs><g clip-path="url(#cc8646af46)"><path fill="#e07634" d="M 73.640625 202.109375 C 72.386719 201.660156 71.132812 201.203125 69.882812 200.757812 C 69.035156 200.453125 68.1875 200.15625 67.339844 199.863281 C 66.800781 199.675781 66.261719 199.492188 65.722656 199.3125 C 64.535156 198.914062 63.351562 198.535156 62.167969 198.179688 C 59.9375 197.511719 57.710938 196.933594 55.492188 196.503906 C 54.25 196.265625 53.007812 196.074219 51.769531 195.9375 C 49.492188 195.6875 47.214844 195.632812 44.949219 195.832031 C 43.703125 195.941406 42.460938 196.128906 41.21875 196.402344 C 39.453125 196.792969 37.695312 197.363281 35.9375 198.140625 C 34.820312 198.632812 33.710938 199.207031 32.597656 199.875 C 32.199219 200.113281 31.800781 200.367188 31.402344 200.628906 C 30.386719 201.300781 29.371094 202.050781 28.359375 202.886719 C 27.292969 203.765625 26.226562 204.738281 25.160156 205.816406 C 40.503906 196.414062 52.105469 197.949219 62.859375 201.582031 C 63.40625 201.765625 63.953125 201.957031 64.496094 202.152344 C 65.453125 202.492188 66.40625 202.847656 67.351562 203.210938 C 69.917969 204.191406 72.453125 205.222656 75.007812 206.179688 C 79.046875 207.691406 83.125 209.015625 87.40625 209.648438 C 94.878906 210.757812 102.96875 209.765625 112.542969 204.019531 C 109.488281 205.664062 106.4375 206.6875 103.390625 207.234375 C 94.925781 208.742188 86.496094 206.550781 78.117188 203.6875 C 76.753906 203.222656 75.394531 202.742188 74.035156 202.253906 Z M 73.640625 202.109375 " fill-opacity="1" fill-rule="evenodd"/></g><g clip-path="url(#28a650c66b)"><path fill="#6cdc45" d="M 106.183594 176.246094 C 106.035156 175.785156 105.890625 175.324219 105.753906 174.859375 C 105.90625 175.296875 106.050781 175.757812 106.183594 176.246094 Z M 82.457031 197.339844 C 81.164062 197.273438 79.882812 197.261719 78.613281 197.308594 C 77.9375 197.335938 77.265625 197.375 76.597656 197.433594 C 74.898438 197.578125 73.222656 197.824219 71.574219 198.171875 C 70.144531 198.46875 68.734375 198.84375 67.339844 199.292969 C 68.183594 199.585938 69.03125 199.886719 69.878906 200.1875 C 71.132812 200.636719 72.386719 201.089844 73.640625 201.539062 L 74.035156 201.683594 C 75.394531 202.171875 76.753906 202.652344 78.117188 203.117188 C 86.496094 205.980469 94.925781 208.171875 103.390625 206.664062 C 100.582031 203.160156 95.460938 200.089844 89.042969 198.210938 C 92.925781 188.386719 97.300781 181.445312 102.984375 175.421875 C 102.132812 177.007812 101.457031 178.550781 100.933594 180.03125 C 104.359375 178.78125 104.238281 179.136719 100.578125 181.101562 C 99.910156 183.257812 99.566406 185.277344 99.476562 187.113281 C 102.570312 185.851562 102.5625 186.371094 99.460938 188.667969 C 99.519531 190.636719 99.882812 192.351562 100.449219 193.742188 C 101.96875 192.921875 103.164062 191.933594 104.097656 190.835938 C 103.011719 187.589844 102.378906 185.214844 105.320312 189.089844 C 106.167969 187.597656 106.648438 185.980469 106.871094 184.347656 C 103.472656 179.714844 103.507812 179.375 106.972656 183.328125 C 107.148438 180.824219 106.761719 178.332031 106.183594 176.246094 C 106.984375 178.714844 107.949219 181.128906 109.050781 183.449219 C 111.421875 178.105469 110.546875 181.179688 109.570312 184.523438 C 110.660156 186.707031 111.867188 188.800781 113.160156 190.769531 C 114.179688 185.285156 114.1875 186.859375 113.742188 191.636719 C 114.511719 192.757812 115.308594 193.835938 116.128906 194.867188 C 116.726562 192.484375 117.484375 189.425781 117.199219 186.265625 C 112.765625 182.644531 112.714844 182.257812 117.042969 185.097656 C 116.589844 182.542969 115.367188 179.972656 112.734375 177.683594 C 109.535156 176.601562 107.867188 175.949219 111.613281 176.789062 C 110.035156 175.628906 108.042969 174.558594 105.550781 173.625 C 108.1875 173.433594 110.472656 174.578125 112.941406 175.417969 C 113.125 174.617188 112.855469 173.710938 112.8125 172.855469 C 113.582031 173.996094 113.972656 175.320312 114.332031 176.65625 C 115.546875 177.183594 116.539062 177.773438 118.039062 178.511719 C 117.71875 177.324219 117.335938 175.863281 117.015625 174.671875 C 117.867188 176.050781 118.871094 177.617188 119.070312 179.789062 C 120.320312 180.367188 120.855469 180.722656 122.640625 181.65625 C 119.957031 172.609375 112.277344 168.796875 105.722656 172.335938 C 113.027344 167.453125 111.714844 159.511719 111.113281 158.449219 C 107.804688 159.941406 107.433594 164.789062 107.191406 167.992188 C 106.546875 166.34375 106.507812 162.207031 107.277344 159.722656 C 106.542969 160.945312 105.605469 163.484375 104.820312 165.054688 C 104.574219 165.546875 104.390625 165.550781 104.703125 165.984375 C 105.273438 166.785156 105.367188 167.765625 105.746094 168.636719 L 103.9375 166.1875 L 103.226562 170.894531 C 103.964844 163.601562 96.425781 158.007812 89.105469 158.765625 C 90.410156 159.648438 91.65625 160.542969 92.839844 161.472656 C 101.097656 163.078125 93.898438 162.324219 94.410156 162.761719 C 95.488281 163.695312 96.507812 164.671875 97.445312 165.714844 C 101.15625 166.617188 101.109375 166.394531 98.703125 167.21875 C 99.8125 168.644531 100.785156 170.195312 101.589844 171.910156 C 99.132812 168.9375 96.210938 167.023438 93.058594 165.941406 C 91.523438 163.21875 89.222656 160.695312 86.070312 158.570312 C 84.847656 157.746094 83.496094 156.980469 82.015625 156.289062 C 83.089844 156.660156 84.203125 156.988281 85.34375 157.273438 C 88.96875 158.175781 92.90625 158.640625 96.886719 158.757812 C 94.992188 154.191406 94.945312 153.027344 99.097656 158.785156 C 101.359375 158.78125 103.621094 158.664062 105.832031 158.460938 C 101.914062 152.980469 102.773438 152.828125 108.019531 158.226562 C 110.144531 157.96875 112.199219 157.625 114.144531 157.214844 C 104.835938 150.441406 93.363281 147.117188 81.925781 152.386719 C 81.453125 152.605469 80.980469 152.835938 80.507812 153.085938 C 80.890625 152.738281 81.277344 152.40625 81.667969 152.082031 C 83.386719 150.65625 85.191406 149.433594 87.078125 148.375 C 84.292969 145.898438 84.097656 146.171875 89.632812 147.058594 C 91.492188 146.179688 93.417969 145.433594 95.414062 144.785156 C 96.347656 144.480469 86.183594 141.421875 98.265625 143.929688 C 100.386719 143.347656 102.585938 142.84375 104.851562 142.390625 C 95.769531 137.425781 83.101562 140.246094 79.3125 149.550781 C 79.148438 149.949219 79.003906 150.359375 78.875 150.78125 L 79.210938 149.453125 L 80.582031 144.011719 L 76.746094 146.300781 C 77.753906 145.335938 78.441406 144.0625 79.664062 143.308594 C 80.328125 142.894531 80.089844 142.785156 80.035156 141.980469 C 79.859375 139.410156 80.035156 135.449219 79.734375 133.378906 C 79.367188 137.175781 76.96875 142.742188 75.160156 144.609375 C 76.652344 140.140625 78.898438 133.375 75.273438 129.480469 C 74.199219 130.3125 70.324219 136.265625 71.621094 143.785156 C 71.9375 145.632812 72.570312 147.570312 73.628906 149.550781 C 73.9375 150.128906 74.285156 150.710938 74.667969 151.296875 C 71.496094 147.371094 67.105469 145.433594 62.4375 145.546875 C 62.238281 145.550781 62.039062 145.558594 61.839844 145.570312 C 60.472656 145.65625 59.089844 145.914062 57.707031 146.347656 C 56.964844 146.578125 56.226562 146.859375 55.492188 147.195312 C 54.234375 147.765625 52.988281 148.484375 51.769531 149.351562 C 49.929688 150.664062 48.160156 152.320312 46.523438 154.320312 C 49.140625 154.101562 50.160156 153.9375 51.769531 153.851562 L 52.40625 153.824219 C 53.261719 152.21875 54.355469 151.027344 55.492188 150.042969 C 56.359375 149.292969 57.253906 148.667969 58.085938 148.070312 C 57.289062 149.101562 56.363281 150.304688 55.492188 151.429688 L 54.527344 152.679688 C 54.863281 152.660156 55.183594 152.636719 55.492188 152.613281 C 57.441406 152.472656 58.917969 152.296875 60.59375 152.273438 L 61.097656 151.632812 C 61.925781 150.585938 62.789062 149.582031 63.800781 148.738281 C 64.117188 148.476562 64.449219 148.226562 64.796875 147.996094 C 64.589844 148.429688 64.335938 148.855469 64.085938 149.285156 C 63.683594 149.96875 63.304688 150.65625 63.175781 151.390625 C 63.828125 151.433594 64.476562 151.464844 65.125 151.492188 C 66.910156 151.570312 68.671875 151.625 70.386719 151.929688 C 71.683594 152.160156 72.953125 152.53125 74.183594 153.152344 C 73.210938 153.117188 72.277344 153.109375 71.375 153.128906 C 69.410156 153.171875 67.617188 153.34375 65.980469 153.625 C 65.359375 153.734375 64.765625 153.855469 64.191406 153.992188 C 65.082031 154.152344 65.761719 154.285156 66.253906 154.390625 C 67.699219 154.707031 67.542969 154.816406 66.394531 154.800781 C 65.527344 154.789062 64.09375 154.703125 62.359375 154.582031 L 62.164062 154.570312 C 60.375 155.160156 58.820312 155.914062 57.464844 156.789062 C 55.15625 158.28125 53.433594 160.136719 52.136719 162.152344 C 53.523438 161.894531 54.640625 161.703125 55.492188 161.574219 C 58.203125 161.167969 58.203125 161.417969 55.492188 162.328125 C 54.566406 162.640625 53.328125 163.027344 51.769531 163.492188 L 51.261719 163.640625 C 49.46875 167.027344 48.671875 170.726562 48.140625 173.914062 C 48.027344 174.59375 47.929688 175.25 47.832031 175.875 C 48.964844 175.257812 50.09375 174.601562 51.21875 173.914062 L 51.769531 173.570312 C 52.144531 173.339844 52.515625 173.101562 52.890625 172.859375 C 54.996094 166.148438 55.902344 164.027344 54.167969 172.019531 C 54.609375 171.722656 55.050781 171.417969 55.492188 171.109375 C 57.902344 169.425781 60.273438 167.585938 62.566406 165.609375 C 62.796875 163.558594 63.03125 161.574219 63.234375 160.507812 C 63.417969 159.535156 63.582031 159.320312 63.703125 160.507812 C 63.78125 161.238281 63.839844 162.503906 63.878906 164.453125 C 64.191406 164.175781 64.5 163.894531 64.808594 163.609375 C 65.886719 162.613281 66.949219 161.585938 67.984375 160.53125 L 68.007812 160.507812 C 69.1875 159.304688 70.339844 158.0625 71.449219 156.785156 L 71.839844 156.335938 L 71.492188 156.785156 C 70.632812 157.914062 69.789062 159.164062 69.015625 160.507812 C 68.757812 160.957031 68.507812 161.417969 68.269531 161.890625 C 67.691406 163.03125 67.175781 164.226562 66.753906 165.464844 C 67.496094 165.105469 68.15625 164.789062 68.738281 164.515625 C 72.839844 162.582031 72.878906 162.863281 68.863281 165.355469 C 68.144531 165.800781 67.296875 166.316406 66.316406 166.902344 C 66.003906 168.058594 65.78125 169.246094 65.671875 170.453125 C 65.570312 171.589844 65.570312 172.746094 65.6875 173.910156 L 65.722656 174.195312 C 68.054688 172.84375 69.191406 172.414062 69.527344 172.601562 C 69.664062 172.679688 69.664062 172.871094 69.546875 173.148438 C 69.210938 173.953125 67.914062 175.503906 66.382812 177.246094 C 66.96875 179.09375 67.90625 180.941406 69.277344 182.753906 C 69.402344 182.917969 69.535156 183.085938 69.667969 183.25 C 71.085938 181.828125 72.425781 179.945312 73.5625 177.632812 C 73.671875 177.410156 73.777344 177.179688 73.886719 176.949219 C 73.101562 175.628906 72.550781 174.617188 72.234375 173.910156 C 71.5 172.273438 72.015625 172.273438 73.785156 173.910156 C 74.074219 174.175781 74.394531 174.488281 74.746094 174.839844 C 74.855469 174.535156 74.964844 174.226562 75.066406 173.910156 C 75.824219 171.597656 76.386719 168.984375 76.664062 166.082031 C 72.828125 161.347656 72.871094 160.800781 76.792969 164.4375 C 76.8125 164.074219 76.828125 163.707031 76.839844 163.335938 C 76.90625 161.351562 76.84375 159.25 76.632812 157.039062 C 77.707031 159.898438 78.636719 162.730469 79.425781 165.617188 L 79.347656 165.632812 L 79.445312 165.703125 C 80.792969 170.652344 81.71875 175.765625 82.210938 181.421875 C 82.476562 184.421875 82.617188 187.578125 82.636719 190.945312 C 82.648438 192.824219 82.527344 195.289062 82.457031 197.335938 Z M 103.226562 170.894531 C 103.191406 171.21875 103.140625 171.546875 103.074219 171.878906 Z M 82.015625 156.289062 C 81.136719 155.980469 80.289062 155.644531 79.46875 155.273438 C 79.273438 155.1875 79.078125 155.097656 78.886719 155.003906 L 79.402344 155.191406 C 80.316406 155.535156 81.1875 155.898438 82.015625 156.289062 Z M 78.875 150.78125 L 78.515625 152.199219 C 78.617188 151.714844 78.734375 151.242188 78.875 150.78125 Z M 71.839844 156.339844 C 72.167969 155.917969 72.5 155.519531 72.828125 155.136719 L 73.207031 154.707031 L 72.839844 155.152344 C 72.511719 155.550781 72.175781 155.949219 71.839844 156.339844 Z M 87 191.101562 C 86.800781 188.9375 86.589844 186.789062 86.347656 184.652344 C 87.203125 184.867188 88.082031 184.867188 88.964844 184.695312 L 89.441406 183.914062 C 92.207031 179.386719 92.089844 179.941406 90.957031 184.050781 C 91.851562 183.652344 92.738281 183.113281 93.601562 182.492188 C 96.988281 174.664062 96.398438 176.773438 94.6875 181.660156 C 96.347656 179.304688 97.765625 178.175781 98.96875 177.1875 C 93.933594 182.222656 90.621094 188.203125 87.304688 194.433594 Z M 99.796875 173.527344 C 98.214844 173.59375 96.761719 173.816406 95.4375 174.179688 C 95.417969 173.742188 95.378906 173.304688 95.328125 172.867188 C 96.84375 173.210938 98.34375 173.441406 99.796875 173.527344 Z M 86.03125 182.03125 C 85.839844 180.558594 85.628906 179.09375 85.390625 177.636719 C 85.183594 176.390625 84.957031 175.152344 84.703125 173.914062 C 84.277344 171.855469 83.777344 169.8125 83.183594 167.78125 L 83.632812 167.59375 C 83.875 168.371094 84.105469 169.230469 84.316406 170.183594 L 84.40625 168.699219 C 84.691406 168.847656 84.980469 168.996094 85.269531 169.144531 C 85.28125 169.96875 85.296875 170.890625 85.308594 171.921875 C 85.707031 172.574219 86.125 173.203125 86.5625 173.796875 C 87.019531 174.414062 87.5 174.996094 88 175.527344 C 88.820312 169.1875 88.960938 168.476562 90.210938 176.761719 C 88.238281 178.320312 86.867188 180.332031 86.097656 182.550781 Z M 85.246094 167.980469 C 85 168.140625 84.722656 168.316406 84.421875 168.507812 L 84.507812 167.242188 C 84.765625 167.140625 85.003906 167.050781 85.21875 166.972656 Z M 82.695312 165.03125 L 82.324219 165.082031 C 81.941406 163.953125 81.519531 162.828125 81.0625 161.707031 C 81.582031 162.683594 82.148438 163.738281 82.695312 165.03125 Z M 85.132812 164.839844 L 84.769531 164.855469 L 84.703125 164.855469 L 84.71875 164.710938 C 84.882812 163.199219 85.023438 162.988281 85.132812 164.839844 Z M 102.105469 173.546875 C 101.351562 173.585938 100.582031 173.578125 99.796875 173.53125 C 100.539062 173.5 101.308594 173.503906 102.105469 173.546875 Z M 102.105469 173.546875 " fill-opacity="1" fill-rule="nonzero"/></g><g clip-path="url(#cb80e6fde9)"><path fill="#e07634" d="M 63.246094 209.332031 C 55.078125 208.898438 38.65625 195.886719 26.1875 207.222656 C 42.898438 199.472656 46.734375 210.328125 63.246094 209.332031 Z M 63.246094 209.332031 " fill-opacity="1" fill-rule="evenodd"/></g><path fill="#e07634" d="M 74 207.628906 C 70.191406 207.425781 62.527344 201.355469 56.710938 206.644531 C 64.507812 203.027344 66.296875 208.09375 74 207.628906 Z M 74 207.628906 " fill-opacity="1" fill-rule="evenodd"/><path fill="#e07634" d="M 41.75 202.136719 C 52.417969 197.191406 54.867188 204.121094 65.40625 203.484375 C 60.195312 203.207031 49.710938 194.898438 41.75 202.136719 Z M 41.75 202.136719 " fill-opacity="1" fill-rule="evenodd"/><g clip-path="url(#08288e6f42)"><path fill="#5cbbff" d="M 56.667969 145.285156 C 56.917969 145.511719 57.164062 145.761719 57.410156 146.023438 C 57.46875 146.003906 57.527344 145.984375 57.585938 145.96875 C 58.875 145.5625 60.210938 145.296875 61.558594 145.191406 C 61.527344 145.148438 61.492188 145.105469 61.460938 145.0625 C 61.542969 145.101562 61.625 145.140625 61.710938 145.183594 C 61.746094 145.179688 61.777344 145.175781 61.8125 145.175781 C 62.015625 145.164062 62.222656 145.15625 62.425781 145.148438 C 66.335938 145.054688 69.9375 146.371094 72.8125 148.820312 C 72.066406 147.242188 71.523438 145.582031 71.226562 143.855469 C 71.207031 143.75 71.191406 143.644531 71.175781 143.539062 C 69.089844 142.40625 66.882812 141.464844 64.574219 140.75 C 61.738281 139.871094 58.753906 139.324219 55.675781 139.160156 L 55.675781 139.113281 L 55.492188 139.117188 L 55.492188 139.105469 L 54.148438 139.105469 L 53.671875 139.101562 L 53.113281 139.105469 L 51.769531 139.105469 L 51.769531 139.152344 C 47.398438 139.371094 43.226562 140.363281 39.394531 141.988281 C 32.8125 144.769531 27.214844 149.417969 23.261719 155.269531 C 21.285156 158.195312 19.714844 161.425781 18.644531 164.871094 C 17.570312 168.320312 16.992188 171.984375 16.992188 175.777344 C 16.992188 180.839844 18.019531 185.664062 19.875 190.054688 C 21.847656 194.714844 24.753906 198.882812 28.355469 202.320312 C 29.371094 201.484375 30.382812 200.734375 31.398438 200.0625 C 29.636719 198.445312 28.046875 196.640625 26.671875 194.675781 L 29.804688 194.675781 C 30.632812 196.304688 31.566406 197.855469 32.597656 199.308594 C 33.707031 198.640625 34.820312 198.066406 35.933594 197.574219 C 35.261719 196.652344 34.628906 195.6875 34.042969 194.675781 L 40.867188 194.675781 C 40.980469 195.066406 41.097656 195.453125 41.21875 195.835938 C 42.460938 195.5625 43.703125 195.375 44.945312 195.265625 L 44.757812 194.675781 L 51.769531 194.675781 L 51.769531 195.371094 C 53.007812 195.507812 54.25 195.699219 55.492188 195.941406 L 55.492188 194.675781 L 63.203125 194.675781 C 62.957031 195.445312 62.703125 196.1875 62.4375 196.910156 C 62.347656 197.148438 62.257812 197.382812 62.164062 197.613281 C 63.347656 197.96875 64.53125 198.347656 65.71875 198.746094 C 66.21875 197.457031 66.675781 196.097656 67.089844 194.675781 L 73.914062 194.675781 C 73.300781 195.730469 72.640625 196.734375 71.933594 197.691406 C 73.464844 197.386719 75.007812 197.167969 76.5625 197.039062 L 76.855469 197.011719 C 77.308594 196.253906 77.742188 195.476562 78.152344 194.675781 L 80.667969 194.675781 C 80.128906 195.441406 79.558594 196.183594 78.960938 196.902344 C 80.023438 196.871094 81.085938 196.882812 82.148438 196.929688 C 82.214844 194.9375 82.246094 192.945312 82.234375 190.953125 C 82.234375 190.949219 82.234375 190.949219 82.234375 190.949219 L 79.808594 190.949219 C 80.757812 188.484375 81.480469 185.878906 81.949219 183.160156 C 81.90625 182.59375 81.863281 182.027344 81.8125 181.460938 C 81.351562 176.203125 80.472656 171.050781 79.097656 165.953125 L 78.375 165.457031 L 78.925781 165.328125 C 78.414062 163.488281 77.84375 161.667969 77.222656 159.863281 C 77.269531 161.027344 77.273438 162.191406 77.238281 163.355469 C 77.226562 163.714844 77.207031 164.074219 77.1875 164.433594 C 78.09375 167.414062 78.65625 170.597656 78.808594 173.917969 L 75.484375 173.917969 C 75.46875 173.960938 75.457031 174 75.441406 174.042969 C 75.339844 174.355469 75.230469 174.667969 75.117188 174.980469 L 74.90625 175.570312 L 74.460938 175.128906 C 74.152344 174.816406 73.835938 174.507812 73.511719 174.210938 C 73.453125 174.152344 73.332031 174.046875 73.1875 173.917969 L 72.667969 173.917969 C 73.113281 174.878906 73.6875 175.847656 74.226562 176.75 L 74.332031 176.929688 L 74.246094 177.121094 C 74.167969 177.292969 74.085938 177.46875 74.003906 177.640625 L 78.808594 177.640625 C 78.628906 181.503906 77.902344 185.1875 76.714844 188.574219 C 76.429688 189.386719 76.121094 190.175781 75.789062 190.949219 L 68.027344 190.949219 C 68.550781 188.539062 68.957031 185.992188 69.21875 183.335938 C 69.128906 183.226562 69.042969 183.113281 68.957031 183 C 67.667969 181.292969 66.648438 179.414062 66 177.375 L 65.933594 177.160156 L 66.082031 176.988281 C 66.765625 176.210938 67.453125 175.417969 68.097656 174.605469 C 68.441406 174.167969 68.960938 173.511719 69.175781 173 L 69.1875 172.96875 C 68.453125 173.09375 66.3125 174.3125 65.917969 174.542969 L 65.390625 174.847656 L 65.289062 173.957031 C 65.289062 173.941406 65.285156 173.929688 65.285156 173.914062 L 55.488281 173.914062 L 55.488281 171.597656 C 55.125 171.851562 54.757812 172.101562 54.386719 172.351562 L 53.566406 172.902344 L 53.777344 171.9375 C 53.894531 171.390625 54.011719 170.84375 54.125 170.296875 C 53.832031 171.1875 53.546875 172.085938 53.269531 172.980469 L 53.226562 173.121094 L 53.105469 173.199219 C 52.730469 173.4375 52.355469 173.675781 51.976562 173.914062 L 51.425781 174.253906 C 50.308594 174.941406 49.171875 175.597656 48.023438 176.226562 L 47.316406 176.613281 L 47.4375 175.816406 C 47.535156 175.183594 47.632812 174.546875 47.738281 173.914062 L 42.109375 173.914062 C 42.214844 170.0625 42.613281 166.378906 43.265625 162.996094 C 43.429688 162.140625 43.609375 161.316406 43.796875 160.511719 L 51.769531 160.511719 L 51.769531 161.984375 L 51.800781 161.9375 C 53.117188 159.894531 54.761719 158.167969 56.75 156.789062 L 55.492188 156.789062 L 55.492188 153.015625 C 55.175781 153.039062 54.863281 153.058594 54.550781 153.078125 L 53.671875 153.132812 L 55.175781 151.1875 L 55.492188 150.777344 L 55.492188 150.574219 C 54.382812 151.574219 53.464844 152.679688 52.757812 154.011719 L 52.648438 154.210938 L 51.789062 154.25 C 51.78125 154.25 51.773438 154.25 51.769531 154.25 L 51.769531 156.789062 L 44.828125 156.789062 C 45.039062 156.125 45.261719 155.480469 45.496094 154.859375 C 46.171875 153.03125 46.933594 151.378906 47.753906 149.921875 C 48.371094 148.835938 49.019531 147.863281 49.691406 147.019531 C 50.367188 146.164062 51.066406 145.445312 51.765625 144.867188 L 51.765625 148.863281 C 52.890625 148.082031 54.078125 147.394531 55.324219 146.832031 C 55.378906 146.808594 55.433594 146.78125 55.488281 146.757812 L 55.488281 144.332031 C 55.882812 144.613281 56.273438 144.925781 56.664062 145.285156 Z M 55.492188 177.636719 L 65.847656 177.636719 C 65.753906 181.5625 65.34375 185.308594 64.683594 188.75 C 64.539062 189.496094 64.382812 190.230469 64.214844 190.945312 L 55.492188 190.945312 Z M 51.769531 177.636719 L 51.769531 190.945312 L 43.742188 190.945312 L 43.640625 190.484375 C 42.761719 186.582031 42.222656 182.234375 42.113281 177.636719 Z M 38.386719 177.636719 C 38.484375 181.800781 38.914062 185.769531 39.621094 189.457031 C 39.714844 189.960938 39.820312 190.457031 39.925781 190.945312 L 32.171875 190.945312 C 32.039062 190.640625 31.910156 190.335938 31.789062 190.027344 C 30.28125 186.25 29.351562 182.0625 29.148438 177.636719 Z M 39.980469 160.507812 C 39.0625 164.625 38.511719 169.144531 38.390625 173.914062 L 29.148438 173.914062 C 29.324219 170.058594 30.050781 166.390625 31.230469 163.011719 C 31.527344 162.15625 31.855469 161.324219 32.207031 160.507812 Z M 25.421875 177.636719 C 25.601562 181.921875 26.402344 186.015625 27.726562 189.804688 C 27.863281 190.1875 28.007812 190.570312 28.148438 190.945312 L 24.414062 190.945312 C 23.523438 189.242188 22.777344 187.445312 22.199219 185.574219 C 21.410156 183.046875 20.921875 180.386719 20.769531 177.636719 Z M 28.1875 160.507812 C 26.589844 164.628906 25.621094 169.15625 25.421875 173.914062 L 20.769531 173.914062 C 20.984375 170.039062 21.867188 166.351562 23.308594 162.949219 C 23.65625 162.117188 24.046875 161.304688 24.460938 160.507812 Z M 44.441406 148.226562 C 43.054688 150.699219 41.878906 153.582031 40.9375 156.789062 L 34.097656 156.789062 C 35.972656 153.582031 38.304688 150.8125 40.960938 148.601562 C 42.683594 147.175781 44.542969 145.984375 46.496094 145.0625 C 45.769531 146.023438 45.082031 147.082031 44.441406 148.226562 Z M 36.261719 147.871094 C 33.734375 150.417969 31.574219 153.429688 29.851562 156.789062 L 26.734375 156.789062 C 29.046875 153.523438 31.929688 150.691406 35.246094 148.449219 C 35.648438 148.179688 36.054688 147.921875 36.460938 147.667969 Z M 36.261719 147.871094 " fill-opacity="1" fill-rule="evenodd"/></g><g fill="#6c4646" fill-opacity="1"><g transform="translate(131.699935, 187.124904)"><g><path d="M 40.53125 -9.21875 C 40.882812 -9.21875 41.164062 -9.050781 41.375 -8.71875 C 41.582031 -8.382812 41.6875 -7.929688 41.6875 -7.359375 C 41.6875 -6.285156 41.425781 -5.429688 40.90625 -4.796875 C 39.582031 -3.191406 38.242188 -1.957031 36.890625 -1.09375 C 35.546875 -0.226562 33.945312 0.203125 32.09375 0.203125 C 30.3125 0.203125 28.789062 -0.273438 27.53125 -1.234375 C 26.28125 -2.203125 25.09375 -3.859375 23.96875 -6.203125 C 23.050781 -8.066406 22.332031 -9.445312 21.8125 -10.34375 C 21.289062 -11.238281 20.773438 -11.878906 20.265625 -12.265625 C 19.753906 -12.648438 19.128906 -12.882812 18.390625 -12.96875 C 18.273438 -12.394531 17.957031 -10.578125 17.4375 -7.515625 C 17.21875 -6.140625 17.078125 -5.300781 17.015625 -5 C 16.742188 -3.320312 16.191406 -2.035156 15.359375 -1.140625 C 14.535156 -0.242188 13.285156 0.203125 11.609375 0.203125 C 9.765625 0.203125 8.128906 -0.335938 6.703125 -1.421875 C 5.285156 -2.515625 4.191406 -4.03125 3.421875 -5.96875 C 2.648438 -7.90625 2.265625 -10.113281 2.265625 -12.59375 C 2.265625 -17.226562 3.070312 -21.222656 4.6875 -24.578125 C 6.300781 -27.941406 8.5625 -30.507812 11.46875 -32.28125 C 14.375 -34.0625 17.726562 -34.953125 21.53125 -34.953125 C 24.164062 -34.953125 26.378906 -34.550781 28.171875 -33.75 C 29.960938 -32.945312 31.289062 -31.84375 32.15625 -30.4375 C 33.03125 -29.039062 33.46875 -27.460938 33.46875 -25.703125 C 33.46875 -24.160156 33.101562 -22.648438 32.375 -21.171875 C 31.644531 -19.703125 30.546875 -18.398438 29.078125 -17.265625 C 27.617188 -16.140625 25.84375 -15.300781 23.75 -14.75 C 25.070312 -14.394531 26.09375 -13.816406 26.8125 -13.015625 C 27.53125 -12.210938 28.242188 -11.039062 28.953125 -9.5 C 29.722656 -7.84375 30.488281 -6.628906 31.25 -5.859375 C 32.007812 -5.085938 32.882812 -4.703125 33.875 -4.703125 C 34.757812 -4.703125 35.597656 -5 36.390625 -5.59375 C 37.191406 -6.1875 38.195312 -7.203125 39.40625 -8.640625 C 39.738281 -9.023438 40.113281 -9.21875 40.53125 -9.21875 Z M 12.6875 -13.015625 C 11.75 -13.015625 11.109375 -13.234375 10.765625 -13.671875 C 10.421875 -14.109375 10.25 -14.601562 10.25 -15.15625 C 10.25 -15.820312 10.460938 -16.347656 10.890625 -16.734375 C 11.316406 -17.117188 11.804688 -17.3125 12.359375 -17.3125 L 13.390625 -17.3125 C 13.828125 -20.007812 14.238281 -22.335938 14.625 -24.296875 C 14.976562 -26.085938 16.132812 -26.984375 18.09375 -26.984375 C 19.664062 -26.984375 20.453125 -26.28125 20.453125 -24.875 C 20.453125 -24.570312 20.4375 -24.335938 20.40625 -24.171875 L 19.171875 -17.3125 C 20.660156 -17.394531 22.015625 -17.75 23.234375 -18.375 C 24.460938 -19.007812 25.441406 -19.890625 26.171875 -21.015625 C 26.898438 -22.148438 27.265625 -23.4375 27.265625 -24.875 C 27.265625 -26.601562 26.671875 -27.960938 25.484375 -28.953125 C 24.304688 -29.953125 22.570312 -30.453125 20.28125 -30.453125 C 17.582031 -30.453125 15.21875 -29.78125 13.1875 -28.4375 C 11.164062 -27.101562 9.59375 -25.117188 8.46875 -22.484375 C 7.34375 -19.859375 6.78125 -16.660156 6.78125 -12.890625 C 6.78125 -11.128906 6.957031 -9.613281 7.3125 -8.34375 C 7.664062 -7.070312 8.101562 -6.117188 8.625 -5.484375 C 9.15625 -4.859375 9.65625 -4.546875 10.125 -4.546875 C 10.476562 -4.546875 10.769531 -4.722656 11 -5.078125 C 11.238281 -5.441406 11.425781 -6.019531 11.5625 -6.8125 Z M 12.6875 -13.015625 "/></g></g></g><g fill="#6c4646" fill-opacity="1"><g transform="translate(168.045332, 187.124904)"><g><path d="M 20.40625 -9.21875 C 20.769531 -9.21875 21.050781 -9.050781 21.25 -8.71875 C 21.457031 -8.382812 21.5625 -7.929688 21.5625 -7.359375 C 21.5625 -6.253906 21.300781 -5.398438 20.78125 -4.796875 C 19.757812 -3.554688 18.316406 -2.410156 16.453125 -1.359375 C 14.597656 -0.316406 12.613281 0.203125 10.5 0.203125 C 7.601562 0.203125 5.351562 -0.578125 3.75 -2.140625 C 2.15625 -3.710938 1.359375 -5.863281 1.359375 -8.59375 C 1.359375 -10.488281 1.757812 -12.253906 2.5625 -13.890625 C 3.363281 -15.535156 4.472656 -16.835938 5.890625 -17.796875 C 7.304688 -18.765625 8.910156 -19.25 10.703125 -19.25 C 12.296875 -19.25 13.570312 -18.773438 14.53125 -17.828125 C 15.5 -16.878906 15.984375 -15.59375 15.984375 -13.96875 C 15.984375 -12.0625 15.300781 -10.425781 13.9375 -9.0625 C 12.570312 -7.695312 10.265625 -6.617188 7.015625 -5.828125 C 7.710938 -4.554688 9.023438 -3.921875 10.953125 -3.921875 C 12.191406 -3.921875 13.601562 -4.351562 15.1875 -5.21875 C 16.769531 -6.09375 18.140625 -7.234375 19.296875 -8.640625 C 19.617188 -9.023438 19.988281 -9.21875 20.40625 -9.21875 Z M 10 -15.203125 C 8.976562 -15.203125 8.113281 -14.609375 7.40625 -13.421875 C 6.707031 -12.242188 6.359375 -10.8125 6.359375 -9.125 L 6.359375 -9.046875 C 7.984375 -9.429688 9.265625 -10.007812 10.203125 -10.78125 C 11.140625 -11.550781 11.609375 -12.445312 11.609375 -13.46875 C 11.609375 -13.988281 11.460938 -14.40625 11.171875 -14.71875 C 10.878906 -15.039062 10.488281 -15.203125 10 -15.203125 Z M 10 -15.203125 "/></g></g></g><g fill="#6c4646" fill-opacity="1"><g transform="translate(184.27685, 187.124904)"><g><path d="M 9.671875 1.109375 C 8.234375 1.109375 7.132812 0.773438 6.375 0.109375 C 5.625 -0.546875 5.25 -1.285156 5.25 -2.109375 C 5.25 -2.828125 5.507812 -3.445312 6.03125 -3.96875 C 6.550781 -4.488281 7.320312 -4.75 8.34375 -4.75 C 8.695312 -4.75 9.113281 -4.710938 9.59375 -4.640625 C 10.082031 -4.578125 10.453125 -4.53125 10.703125 -4.5 C 10.671875 -5.21875 10.507812 -5.894531 10.21875 -6.53125 C 9.9375 -7.164062 9.570312 -7.773438 9.125 -8.359375 C 8.6875 -8.953125 8.273438 -9.472656 7.890625 -9.921875 C 7.035156 -8.296875 6.1875 -6.941406 5.34375 -5.859375 C 4.507812 -4.785156 3.597656 -3.769531 2.609375 -2.8125 C 2.109375 -2.3125 1.582031 -2.0625 1.03125 -2.0625 C 0.59375 -2.0625 0.238281 -2.21875 -0.03125 -2.53125 C -0.3125 -2.851562 -0.453125 -3.25 -0.453125 -3.71875 C -0.453125 -4.269531 -0.257812 -4.78125 0.125 -5.25 L 0.65625 -5.90625 C 2.175781 -7.78125 3.320312 -9.320312 4.09375 -10.53125 C 4.5625 -11.332031 5.109375 -12.398438 5.734375 -13.734375 C 6.367188 -15.066406 6.988281 -16.453125 7.59375 -17.890625 C 8.125 -19.097656 9.210938 -19.703125 10.859375 -19.703125 C 11.628906 -19.703125 12.164062 -19.632812 12.46875 -19.5 C 12.78125 -19.363281 12.9375 -19.144531 12.9375 -18.84375 C 12.9375 -18.675781 12.878906 -18.410156 12.765625 -18.046875 C 12.648438 -17.691406 12.5 -17.335938 12.3125 -16.984375 C 11.8125 -15.984375 11.5625 -15.140625 11.5625 -14.453125 C 11.5625 -14.046875 11.707031 -13.59375 12 -13.09375 C 12.289062 -12.601562 12.738281 -11.984375 13.34375 -11.234375 C 14.226562 -10.078125 14.894531 -9.09375 15.34375 -8.28125 C 15.800781 -7.46875 16.03125 -6.582031 16.03125 -5.625 C 16.03125 -5.34375 16.003906 -4.957031 15.953125 -4.46875 C 17.296875 -4.988281 18.878906 -6.378906 20.703125 -8.640625 C 21.023438 -9.023438 21.394531 -9.21875 21.8125 -9.21875 C 22.164062 -9.21875 22.445312 -9.050781 22.65625 -8.71875 C 22.863281 -8.382812 22.96875 -7.929688 22.96875 -7.359375 C 22.96875 -6.304688 22.707031 -5.453125 22.1875 -4.796875 C 20.8125 -3.085938 19.492188 -1.921875 18.234375 -1.296875 C 16.984375 -0.679688 15.4375 -0.347656 13.59375 -0.296875 C 12.488281 0.640625 11.179688 1.109375 9.671875 1.109375 Z M 9.671875 1.109375 "/></g></g></g><g fill="#6c4646" fill-opacity="1"><g transform="translate(201.912627, 187.124904)"><g><path d="M 20.40625 -9.21875 C 20.769531 -9.21875 21.050781 -9.050781 21.25 -8.71875 C 21.457031 -8.382812 21.5625 -7.929688 21.5625 -7.359375 C 21.5625 -6.253906 21.300781 -5.398438 20.78125 -4.796875 C 19.59375 -3.335938 18.296875 -2.140625 16.890625 -1.203125 C 15.492188 -0.265625 13.882812 0.203125 12.0625 0.203125 C 6.445312 0.203125 3.640625 -3.75 3.640625 -11.65625 C 3.640625 -12.863281 3.679688 -14.085938 3.765625 -15.328125 L 2.140625 -15.328125 C 1.316406 -15.328125 0.757812 -15.476562 0.46875 -15.78125 C 0.1875 -16.082031 0.046875 -16.566406 0.046875 -17.234375 C 0.046875 -18.773438 0.664062 -19.546875 1.90625 -19.546875 L 4.25 -19.546875 C 4.71875 -22.566406 5.429688 -25.332031 6.390625 -27.84375 C 7.359375 -30.351562 8.523438 -32.347656 9.890625 -33.828125 C 11.253906 -35.316406 12.722656 -36.0625 14.296875 -36.0625 C 15.453125 -36.0625 16.359375 -35.550781 17.015625 -34.53125 C 17.679688 -33.519531 18.015625 -32.238281 18.015625 -30.6875 C 18.015625 -26.425781 16.222656 -22.710938 12.640625 -19.546875 L 17.265625 -19.546875 C 17.703125 -19.546875 18.019531 -19.445312 18.21875 -19.25 C 18.414062 -19.0625 18.515625 -18.703125 18.515625 -18.171875 C 18.515625 -16.273438 16.957031 -15.328125 13.84375 -15.328125 L 8.796875 -15.328125 C 8.742188 -13.953125 8.71875 -12.878906 8.71875 -12.109375 C 8.71875 -9.242188 9.050781 -7.234375 9.71875 -6.078125 C 10.394531 -4.921875 11.46875 -4.34375 12.9375 -4.34375 C 14.113281 -4.34375 15.15625 -4.695312 16.0625 -5.40625 C 16.976562 -6.125 18.054688 -7.203125 19.296875 -8.640625 C 19.617188 -9.023438 19.988281 -9.21875 20.40625 -9.21875 Z M 13.171875 -32.09375 C 12.765625 -32.09375 12.304688 -31.578125 11.796875 -30.546875 C 11.285156 -29.515625 10.800781 -28.082031 10.34375 -26.25 C 9.894531 -24.414062 9.519531 -22.382812 9.21875 -20.15625 C 10.84375 -21.5625 12.0625 -23.140625 12.875 -24.890625 C 13.6875 -26.640625 14.09375 -28.226562 14.09375 -29.65625 C 14.09375 -31.28125 13.785156 -32.09375 13.171875 -32.09375 Z M 13.171875 -32.09375 "/></g></g></g><g fill="#6c4646" fill-opacity="1"><g transform="translate(218.144145, 187.124904)"><g><path d="M 18.71875 0.203125 C 15.4375 0.203125 12.582031 -0.394531 10.15625 -1.59375 C 7.738281 -2.789062 5.878906 -4.488281 4.578125 -6.6875 C 3.285156 -8.894531 2.640625 -11.457031 2.640625 -14.375 C 2.640625 -18.425781 3.40625 -22.019531 4.9375 -25.15625 C 6.46875 -28.300781 8.539062 -30.734375 11.15625 -32.453125 C 13.769531 -34.171875 16.675781 -35.03125 19.875 -35.03125 C 22.84375 -35.03125 25.097656 -34.265625 26.640625 -32.734375 C 28.179688 -31.210938 28.953125 -29.195312 28.953125 -26.6875 C 28.953125 -25.007812 28.65625 -23.660156 28.0625 -22.640625 C 27.476562 -21.617188 26.632812 -21.109375 25.53125 -21.109375 C 24.757812 -21.109375 24.148438 -21.285156 23.703125 -21.640625 C 23.265625 -22.003906 23.046875 -22.53125 23.046875 -23.21875 C 23.046875 -23.46875 23.101562 -23.921875 23.21875 -24.578125 C 23.382812 -25.398438 23.46875 -26.0625 23.46875 -26.5625 C 23.46875 -29.070312 22.128906 -30.328125 19.453125 -30.328125 C 17.640625 -30.328125 15.90625 -29.734375 14.25 -28.546875 C 12.601562 -27.359375 11.269531 -25.613281 10.25 -23.3125 C 9.226562 -21.019531 8.71875 -18.289062 8.71875 -15.125 C 8.71875 -11.8125 9.640625 -9.253906 11.484375 -7.453125 C 13.328125 -5.648438 16.054688 -4.75 19.671875 -4.75 C 21.453125 -4.75 23.257812 -4.972656 25.09375 -5.421875 C 26.925781 -5.878906 28.957031 -6.578125 31.1875 -7.515625 C 31.601562 -7.679688 31.945312 -7.765625 32.21875 -7.765625 C 32.664062 -7.765625 33 -7.597656 33.21875 -7.265625 C 33.4375 -6.941406 33.546875 -6.515625 33.546875 -5.984375 C 33.546875 -4.304688 32.632812 -3.066406 30.8125 -2.265625 C 28.863281 -1.410156 26.832031 -0.785156 24.71875 -0.390625 C 22.613281 0.00390625 20.613281 0.203125 18.71875 0.203125 Z M 18.71875 0.203125 "/></g></g></g><g fill="#6c4646" fill-opacity="1"><g transform="translate(246.477036, 187.124904)"><g><path d="M 23.046875 -12.6875 C 23.410156 -12.6875 23.6875 -12.503906 23.875 -12.140625 C 24.070312 -11.785156 24.171875 -11.332031 24.171875 -10.78125 C 24.171875 -9.457031 23.769531 -8.671875 22.96875 -8.421875 C 21.3125 -7.847656 19.492188 -7.519531 17.515625 -7.4375 C 16.992188 -5.125 15.960938 -3.269531 14.421875 -1.875 C 12.878906 -0.488281 11.128906 0.203125 9.171875 0.203125 C 7.515625 0.203125 6.101562 -0.191406 4.9375 -0.984375 C 3.769531 -1.785156 2.878906 -2.847656 2.265625 -4.171875 C 1.660156 -5.492188 1.359375 -6.925781 1.359375 -8.46875 C 1.359375 -10.5625 1.757812 -12.425781 2.5625 -14.0625 C 3.363281 -15.707031 4.460938 -16.988281 5.859375 -17.90625 C 7.265625 -18.832031 8.820312 -19.296875 10.53125 -19.296875 C 12.625 -19.296875 14.3125 -18.570312 15.59375 -17.125 C 16.875 -15.675781 17.625 -13.894531 17.84375 -11.78125 C 19.132812 -11.851562 20.675781 -12.125 22.46875 -12.59375 C 22.6875 -12.65625 22.878906 -12.6875 23.046875 -12.6875 Z M 9.5 -4.171875 C 10.382812 -4.171875 11.148438 -4.53125 11.796875 -5.25 C 12.441406 -5.96875 12.875 -7 13.09375 -8.34375 C 12.238281 -8.925781 11.582031 -9.679688 11.125 -10.609375 C 10.675781 -11.546875 10.453125 -12.539062 10.453125 -13.59375 C 10.453125 -14.03125 10.492188 -14.46875 10.578125 -14.90625 L 10.375 -14.90625 C 9.269531 -14.90625 8.351562 -14.375 7.625 -13.3125 C 6.894531 -12.257812 6.53125 -10.769531 6.53125 -8.84375 C 6.53125 -7.320312 6.820312 -6.160156 7.40625 -5.359375 C 8 -4.566406 8.695312 -4.171875 9.5 -4.171875 Z M 9.5 -4.171875 "/></g></g></g><g fill="#6c4646" fill-opacity="1"><g transform="translate(265.104056, 187.124904)"><g><path d="M 4.921875 0.203125 C 3.867188 0.203125 3.128906 -0.34375 2.703125 -1.4375 C 2.273438 -2.539062 2.0625 -4.304688 2.0625 -6.734375 C 2.0625 -10.316406 2.570312 -13.71875 3.59375 -16.9375 C 3.84375 -17.738281 4.25 -18.320312 4.8125 -18.6875 C 5.375 -19.0625 6.164062 -19.25 7.1875 -19.25 C 7.738281 -19.25 8.125 -19.179688 8.34375 -19.046875 C 8.5625 -18.910156 8.671875 -18.648438 8.671875 -18.265625 C 8.671875 -17.816406 8.46875 -16.820312 8.0625 -15.28125 C 7.78125 -14.1875 7.554688 -13.222656 7.390625 -12.390625 C 7.222656 -11.566406 7.085938 -10.550781 6.984375 -9.34375 C 7.890625 -11.707031 8.90625 -13.628906 10.03125 -15.109375 C 11.164062 -16.597656 12.273438 -17.660156 13.359375 -18.296875 C 14.453125 -18.929688 15.453125 -19.25 16.359375 -19.25 C 18.148438 -19.25 19.046875 -18.351562 19.046875 -16.5625 C 19.046875 -15.488281 18.742188 -13.546875 18.140625 -10.734375 C 17.609375 -8.335938 17.34375 -6.753906 17.34375 -5.984375 C 17.34375 -4.890625 17.742188 -4.34375 18.546875 -4.34375 C 19.097656 -4.34375 19.75 -4.675781 20.5 -5.34375 C 21.257812 -6.019531 22.273438 -7.117188 23.546875 -8.640625 C 23.878906 -9.023438 24.25 -9.21875 24.65625 -9.21875 C 25.019531 -9.21875 25.300781 -9.050781 25.5 -8.71875 C 25.707031 -8.382812 25.8125 -7.929688 25.8125 -7.359375 C 25.8125 -6.253906 25.550781 -5.398438 25.03125 -4.796875 C 23.851562 -3.335938 22.582031 -2.140625 21.21875 -1.203125 C 19.851562 -0.265625 18.300781 0.203125 16.5625 0.203125 C 15.15625 0.203125 14.09375 -0.203125 13.375 -1.015625 C 12.664062 -1.828125 12.3125 -3.003906 12.3125 -4.546875 C 12.3125 -5.316406 12.503906 -6.691406 12.890625 -8.671875 C 13.242188 -10.410156 13.421875 -11.609375 13.421875 -12.265625 C 13.421875 -12.710938 13.269531 -12.9375 12.96875 -12.9375 C 12.613281 -12.9375 12.113281 -12.472656 11.46875 -11.546875 C 10.820312 -10.617188 10.160156 -9.398438 9.484375 -7.890625 C 8.804688 -6.378906 8.257812 -4.78125 7.84375 -3.09375 C 7.539062 -1.800781 7.191406 -0.925781 6.796875 -0.46875 C 6.398438 -0.0195312 5.773438 0.203125 4.921875 0.203125 Z M 4.921875 0.203125 "/></g></g></g><g fill="#6c4646" fill-opacity="1"><g transform="translate(285.589642, 187.124904)"><g><path d="M 4.921875 0.203125 C 3.867188 0.203125 3.128906 -0.34375 2.703125 -1.4375 C 2.273438 -2.539062 2.0625 -4.304688 2.0625 -6.734375 C 2.0625 -10.316406 2.570312 -13.71875 3.59375 -16.9375 C 3.84375 -17.738281 4.25 -18.320312 4.8125 -18.6875 C 5.375 -19.0625 6.164062 -19.25 7.1875 -19.25 C 7.738281 -19.25 8.125 -19.179688 8.34375 -19.046875 C 8.5625 -18.910156 8.671875 -18.648438 8.671875 -18.265625 C 8.671875 -17.816406 8.46875 -16.820312 8.0625 -15.28125 C 7.78125 -14.1875 7.554688 -13.222656 7.390625 -12.390625 C 7.222656 -11.566406 7.085938 -10.550781 6.984375 -9.34375 C 7.890625 -11.707031 8.90625 -13.628906 10.03125 -15.109375 C 11.164062 -16.597656 12.273438 -17.660156 13.359375 -18.296875 C 14.453125 -18.929688 15.453125 -19.25 16.359375 -19.25 C 18.148438 -19.25 19.046875 -18.351562 19.046875 -16.5625 C 19.046875 -15.488281 18.742188 -13.546875 18.140625 -10.734375 C 17.609375 -8.335938 17.34375 -6.753906 17.34375 -5.984375 C 17.34375 -4.890625 17.742188 -4.34375 18.546875 -4.34375 C 19.097656 -4.34375 19.75 -4.675781 20.5 -5.34375 C 21.257812 -6.019531 22.273438 -7.117188 23.546875 -8.640625 C 23.878906 -9.023438 24.25 -9.21875 24.65625 -9.21875 C 25.019531 -9.21875 25.300781 -9.050781 25.5 -8.71875 C 25.707031 -8.382812 25.8125 -7.929688 25.8125 -7.359375 C 25.8125 -6.253906 25.550781 -5.398438 25.03125 -4.796875 C 23.851562 -3.335938 22.582031 -2.140625 21.21875 -1.203125 C 19.851562 -0.265625 18.300781 0.203125 16.5625 0.203125 C 15.15625 0.203125 14.09375 -0.203125 13.375 -1.015625 C 12.664062 -1.828125 12.3125 -3.003906 12.3125 -4.546875 C 12.3125 -5.316406 12.503906 -6.691406 12.890625 -8.671875 C 13.242188 -10.410156 13.421875 -11.609375 13.421875 -12.265625 C 13.421875 -12.710938 13.269531 -12.9375 12.96875 -12.9375 C 12.613281 -12.9375 12.113281 -12.472656 11.46875 -11.546875 C 10.820312 -10.617188 10.160156 -9.398438 9.484375 -7.890625 C 8.804688 -6.378906 8.257812 -4.78125 7.84375 -3.09375 C 7.539062 -1.800781 7.191406 -0.925781 6.796875 -0.46875 C 6.398438 -0.0195312 5.773438 0.203125 4.921875 0.203125 Z M 4.921875 0.203125 "/></g></g></g><g fill="#6c4646" fill-opacity="1"><g transform="translate(306.075228, 187.124904)"><g><path d="M 20.40625 -9.21875 C 20.769531 -9.21875 21.050781 -9.050781 21.25 -8.71875 C 21.457031 -8.382812 21.5625 -7.929688 21.5625 -7.359375 C 21.5625 -6.253906 21.300781 -5.398438 20.78125 -4.796875 C 19.757812 -3.554688 18.316406 -2.410156 16.453125 -1.359375 C 14.597656 -0.316406 12.613281 0.203125 10.5 0.203125 C 7.601562 0.203125 5.351562 -0.578125 3.75 -2.140625 C 2.15625 -3.710938 1.359375 -5.863281 1.359375 -8.59375 C 1.359375 -10.488281 1.757812 -12.253906 2.5625 -13.890625 C 3.363281 -15.535156 4.472656 -16.835938 5.890625 -17.796875 C 7.304688 -18.765625 8.910156 -19.25 10.703125 -19.25 C 12.296875 -19.25 13.570312 -18.773438 14.53125 -17.828125 C 15.5 -16.878906 15.984375 -15.59375 15.984375 -13.96875 C 15.984375 -12.0625 15.300781 -10.425781 13.9375 -9.0625 C 12.570312 -7.695312 10.265625 -6.617188 7.015625 -5.828125 C 7.710938 -4.554688 9.023438 -3.921875 10.953125 -3.921875 C 12.191406 -3.921875 13.601562 -4.351562 15.1875 -5.21875 C 16.769531 -6.09375 18.140625 -7.234375 19.296875 -8.640625 C 19.617188 -9.023438 19.988281 -9.21875 20.40625 -9.21875 Z M 10 -15.203125 C 8.976562 -15.203125 8.113281 -14.609375 7.40625 -13.421875 C 6.707031 -12.242188 6.359375 -10.8125 6.359375 -9.125 L 6.359375 -9.046875 C 7.984375 -9.429688 9.265625 -10.007812 10.203125 -10.78125 C 11.140625 -11.550781 11.609375 -12.445312 11.609375 -13.46875 C 11.609375 -13.988281 11.460938 -14.40625 11.171875 -14.71875 C 10.878906 -15.039062 10.488281 -15.203125 10 -15.203125 Z M 10 -15.203125 "/></g></g></g><g fill="#6c4646" fill-opacity="1"><g transform="translate(322.306746, 187.124904)"><g><path d="M 9.875 0.203125 C 7.175781 0.203125 5.078125 -0.554688 3.578125 -2.078125 C 2.078125 -3.609375 1.328125 -5.628906 1.328125 -8.140625 C 1.328125 -10.367188 1.765625 -12.320312 2.640625 -14 C 3.523438 -15.6875 4.671875 -16.984375 6.078125 -17.890625 C 7.484375 -18.796875 8.957031 -19.25 10.5 -19.25 C 12.007812 -19.25 13.179688 -18.800781 14.015625 -17.90625 C 14.859375 -17.007812 15.28125 -15.859375 15.28125 -14.453125 C 15.28125 -13.296875 15.023438 -12.316406 14.515625 -11.515625 C 14.003906 -10.722656 13.335938 -10.328125 12.515625 -10.328125 C 11.992188 -10.328125 11.570312 -10.453125 11.25 -10.703125 C 10.9375 -10.953125 10.78125 -11.296875 10.78125 -11.734375 C 10.78125 -11.921875 10.804688 -12.140625 10.859375 -12.390625 C 10.921875 -12.640625 10.960938 -12.820312 10.984375 -12.9375 C 11.128906 -13.34375 11.203125 -13.726562 11.203125 -14.09375 C 11.203125 -14.445312 11.109375 -14.71875 10.921875 -14.90625 C 10.742188 -15.101562 10.488281 -15.203125 10.15625 -15.203125 C 9.53125 -15.203125 8.941406 -14.921875 8.390625 -14.359375 C 7.835938 -13.796875 7.394531 -13.03125 7.0625 -12.0625 C 6.726562 -11.101562 6.5625 -10.039062 6.5625 -8.875 C 6.5625 -5.6875 7.953125 -4.09375 10.734375 -4.09375 C 11.867188 -4.09375 13.085938 -4.46875 14.390625 -5.21875 C 15.703125 -5.976562 16.992188 -7.117188 18.265625 -8.640625 C 18.585938 -9.023438 18.957031 -9.21875 19.375 -9.21875 C 19.726562 -9.21875 20.007812 -9.050781 20.21875 -8.71875 C 20.425781 -8.382812 20.53125 -7.929688 20.53125 -7.359375 C 20.53125 -6.304688 20.269531 -5.453125 19.75 -4.796875 C 18.457031 -3.191406 16.90625 -1.957031 15.09375 -1.09375 C 13.289062 -0.226562 11.550781 0.203125 9.875 0.203125 Z M 9.875 0.203125 "/></g></g></g><g fill="#6c4646" fill-opacity="1"><g transform="translate(337.505728, 187.124904)"><g><path d="M 20.40625 -9.21875 C 20.769531 -9.21875 21.050781 -9.050781 21.25 -8.71875 C 21.457031 -8.382812 21.5625 -7.929688 21.5625 -7.359375 C 21.5625 -6.253906 21.300781 -5.398438 20.78125 -4.796875 C 19.59375 -3.335938 18.296875 -2.140625 16.890625 -1.203125 C 15.492188 -0.265625 13.882812 0.203125 12.0625 0.203125 C 6.445312 0.203125 3.640625 -3.75 3.640625 -11.65625 C 3.640625 -12.863281 3.679688 -14.085938 3.765625 -15.328125 L 2.140625 -15.328125 C 1.316406 -15.328125 0.757812 -15.476562 0.46875 -15.78125 C 0.1875 -16.082031 0.046875 -16.566406 0.046875 -17.234375 C 0.046875 -18.773438 0.664062 -19.546875 1.90625 -19.546875 L 4.25 -19.546875 C 4.71875 -22.566406 5.429688 -25.332031 6.390625 -27.84375 C 7.359375 -30.351562 8.523438 -32.347656 9.890625 -33.828125 C 11.253906 -35.316406 12.722656 -36.0625 14.296875 -36.0625 C 15.453125 -36.0625 16.359375 -35.550781 17.015625 -34.53125 C 17.679688 -33.519531 18.015625 -32.238281 18.015625 -30.6875 C 18.015625 -26.425781 16.222656 -22.710938 12.640625 -19.546875 L 17.265625 -19.546875 C 17.703125 -19.546875 18.019531 -19.445312 18.21875 -19.25 C 18.414062 -19.0625 18.515625 -18.703125 18.515625 -18.171875 C 18.515625 -16.273438 16.957031 -15.328125 13.84375 -15.328125 L 8.796875 -15.328125 C 8.742188 -13.953125 8.71875 -12.878906 8.71875 -12.109375 C 8.71875 -9.242188 9.050781 -7.234375 9.71875 -6.078125 C 10.394531 -4.921875 11.46875 -4.34375 12.9375 -4.34375 C 14.113281 -4.34375 15.15625 -4.695312 16.0625 -5.40625 C 16.976562 -6.125 18.054688 -7.203125 19.296875 -8.640625 C 19.617188 -9.023438 19.988281 -9.21875 20.40625 -9.21875 Z M 13.171875 -32.09375 C 12.765625 -32.09375 12.304688 -31.578125 11.796875 -30.546875 C 11.285156 -29.515625 10.800781 -28.082031 10.34375 -26.25 C 9.894531 -24.414062 9.519531 -22.382812 9.21875 -20.15625 C 10.84375 -21.5625 12.0625 -23.140625 12.875 -24.890625 C 13.6875 -26.640625 14.09375 -28.226562 14.09375 -29.65625 C 14.09375 -31.28125 13.785156 -32.09375 13.171875 -32.09375 Z M 13.171875 -32.09375 "/></g></g></g></svg>